<svg width="97" height="96" viewBox="0 0 97 96" fill="none" xmlns="http://www.w3.org/2000/svg">
<path d="M73.3012 55.8H79.1012C86.6012 55.8 92.7012 49.7001 92.7012 42.2001C92.7012 34.7001 86.6012 28.6 79.1012 28.6C77.7012 28.6 76.3012 28.8001 75.0012 29.2001C75.2012 28.4001 75.3012 27.5 75.3012 26.6C75.3012 19.1 69.2012 13 61.7012 13C58.3012 13 55.2012 14.3 52.8012 16.3C50.1012 8.70005 42.9012 3.30005 34.4012 3.30005C23.7012 3.30005 14.9012 12 14.9012 22.8C14.9012 24.9 15.2012 26.8001 15.8012 28.7001C8.80117 29.1001 3.20117 35.0001 3.20117 42.2001C3.20117 49.7001 9.30117 55.8 16.8012 55.8H22.6012" stroke="white" stroke-width="2" stroke-miterlimit="10"/>
<path d="M52.8013 16.3C53.3013 17.7 53.6013 19.2 53.8013 20.8" stroke="white" stroke-width="2" stroke-miterlimit="10"/>
<path d="M75.0013 29.2001C74.7013 30.8001 74.1013 32.3001 73.3013 33.6001" stroke="white" stroke-width="2" stroke-miterlimit="10"/>
<path d="M15.8013 28.6001C17.5013 28.5001 19.2013 28.7001 20.9013 29.2001" stroke="white" stroke-width="2" stroke-miterlimit="10"/>
<path d="M28.6012 71.4H5.20117V87H28.6012V71.4Z" stroke="white" stroke-width="2" stroke-miterlimit="10"/>
<path d="M59.7013 71.4H36.3013V87H59.7013V71.4Z" stroke="white" stroke-width="2" stroke-miterlimit="10"/>
<path d="M90.9012 71.4H67.5012V87H90.9012V71.4Z" stroke="white" stroke-width="2" stroke-miterlimit="10"/>
<path d="M9.10107 92.8H24.6011" stroke="white" stroke-width="2" stroke-miterlimit="10"/>
<path d="M16.9011 86.9V92.8" stroke="white" stroke-width="2" stroke-miterlimit="10"/>
<path d="M40.2012 92.8H55.8012" stroke="white" stroke-width="2" stroke-miterlimit="10"/>
<path d="M48.0012 86.9V92.8" stroke="white" stroke-width="2" stroke-miterlimit="10"/>
<path d="M71.4011 92.8H86.9011" stroke="white" stroke-width="2" stroke-miterlimit="10"/>
<path d="M79.1011 86.9V92.8" stroke="white" stroke-width="2" stroke-miterlimit="10"/>
<path d="M26.6011 67.5V51.9" stroke="white" stroke-width="2" stroke-miterlimit="10"/>
<path d="M48.0012 67.5V48" stroke="white" stroke-width="2" stroke-miterlimit="10"/>
<path d="M69.4011 67.5V53.8" stroke="white" stroke-width="2" stroke-miterlimit="10"/>
<path d="M30.5012 55.8H44.1012" stroke="white" stroke-width="2" stroke-miterlimit="10"/>
<path d="M51.9011 55.8H65.5011" stroke="white" stroke-width="2" stroke-miterlimit="10"/>
<path d="M26.6011 48.0001V44.1001" stroke="white" stroke-width="2" stroke-miterlimit="10"/>
<path d="M26.6011 40.2001V36.3" stroke="white" stroke-width="2" stroke-miterlimit="10"/>
<path d="M48.0012 44.1001V40.2001" stroke="white" stroke-width="2" stroke-miterlimit="10"/>
<path d="M48.0012 36.3V32.4" stroke="white" stroke-width="2" stroke-miterlimit="10"/>
<path d="M69.4011 49.9001V46.1001" stroke="white" stroke-width="2" stroke-miterlimit="10"/>
<path d="M48.0012 28.5001V24.6001" stroke="white" stroke-width="2" stroke-miterlimit="10"/>
</svg>
