<svg width="96" height="96" viewBox="0 0 96 96" fill="none" xmlns="http://www.w3.org/2000/svg">
<path d="M72.0007 62H80.0007C87.7007 62 94.0007 55.7 94.0007 48C94.0007 40.3 87.7007 34 80.0007 34C78.5007 34 77.1007 34.2 75.7007 34.7C75.9007 33.8 76.0007 32.9 76.0007 32C76.0007 24.3 69.7007 18 62.0007 18C58.5007 18 55.3007 19.3 52.9007 21.4C50.1007 13.6 42.7007 8 34.0007 8C23.0007 8 14.0007 17 14.0007 28C14.0007 30.1 14.3007 32.1 14.9007 34C7.70073 34.6 2.00073 40.6 2.00073 48C2.00073 55.7 8.30073 62 16.0007 62H22.0007" stroke="white" stroke-width="2" stroke-miterlimit="10"/>
<path d="M14.9006 34.1C15.3006 34.1 15.6006 34.1 16.0006 34.1C18.7006 34.1 21.2006 34.9 23.4006 36.2" stroke="white" stroke-width="2" stroke-miterlimit="10"/>
<path d="M52.9006 21.4C53.4006 22.9 53.8006 24.4 53.9006 26" stroke="white" stroke-width="2" stroke-miterlimit="10"/>
<path d="M75.7007 34.7C75.4007 36.3 74.8007 37.9 74.0007 39.2" stroke="white" stroke-width="2" stroke-miterlimit="10"/>
<path d="M65.0007 88H29.0007C27.3007 88 26.0007 86.7 26.0007 85V77C26.0007 75.3 27.3007 74 29.0007 74H65.0007C66.7007 74 68.0007 75.3 68.0007 77V85C68.0007 86.6 66.6007 88 65.0007 88Z" stroke="white" stroke-width="2" stroke-miterlimit="10"/>
<path d="M65.0007 74H29.0007C27.3007 74 26.0007 72.7 26.0007 71V63C26.0007 61.3 27.3007 60 29.0007 60H65.0007C66.7007 60 68.0007 61.3 68.0007 63V71C68.0007 72.6 66.6007 74 65.0007 74Z" stroke="white" stroke-width="2" stroke-miterlimit="10"/>
<path d="M65.0007 60H29.0007C27.3007 60 26.0007 58.7 26.0007 57V49C26.0007 47.3 27.3007 46 29.0007 46H65.0007C66.7007 46 68.0007 47.3 68.0007 49V57C68.0007 58.6 66.6007 60 65.0007 60Z" stroke="white" stroke-width="2" stroke-miterlimit="10"/>
</svg>
