<svg width="96" height="96" viewBox="0 0 96 96" fill="none" xmlns="http://www.w3.org/2000/svg">
<path d="M73.7 60.9H77.7H79.7C87.4 60.9 93.6 54.7 93.6 47C93.6 39.3 87.4 33.1 79.7 33.1C78.2 33.1 76.8 33.3 75.5 33.8C75.7 32.9 75.8 32.1 75.8 31.2C75.8 23.5 69.6 17.3 61.9 17.3C58.4 17.3 55.3 18.6 52.8 20.7C50.1 13 42.8 7.40002 34.1 7.40002C23.2 7.40002 14.3 16.3 14.3 27.2C14.3 29.3 14.6 31.3 15.2 33.2C8.1 33.8 2.5 39.7 2.5 47C2.5 54.7 8.7 60.9 16.4 60.9H22.3" stroke="white" stroke-width="2" stroke-miterlimit="10"/>
<path d="M52.8 20.7001C53.3 22.1001 53.6 23.7001 53.8 25.2001" stroke="white" stroke-width="2" stroke-miterlimit="10"/>
<path d="M75.5 33.8C75.2 35.4 74.6 36.9 73.8 38.3" stroke="white" stroke-width="2" stroke-miterlimit="10"/>
<path d="M15.3 33.2C17 33.1 18.8 33.3 20.4 33.8" stroke="white" stroke-width="2" stroke-miterlimit="10"/>
<path d="M65.8 88.6H30.2C29.1 88.6 28.2 87.7 28.2 86.6V60.9C28.2 59.8 29.1 58.9 30.2 58.9H65.8C66.9 58.9 67.8 59.8 67.8 60.9V86.6C67.8 87.7 66.9 88.6 65.8 88.6Z" stroke="white" stroke-width="2" stroke-miterlimit="10"/>
<path d="M36.1 58.9V46.6C36.1 40.2 41.5 35.1 48 35.1C54.5 35.1 59.9 40.3 59.9 46.6V58.9" stroke="white" stroke-width="2" stroke-miterlimit="10"/>
<path d="M48 68.8V76.7" stroke="white" stroke-width="2" stroke-miterlimit="10"/>
</svg>
