<svg width="150" height="150" viewBox="0 0 150 150" fill="none" xmlns="http://www.w3.org/2000/svg">
<path d="M27.3594 72.922V81.2031L40.7814 83.1249C41.6408 86.7656 43.0782 90.2657 45.0313 93.4532L36.9064 104.281L45.6875 113.062L56.5468 104.922C59.7343 106.891 63.2188 108.328 66.8594 109.188L68.7813 122.609H81.2187L83.1405 109.188C86.7812 108.328 90.2813 106.891 93.4688 104.938L104.297 113.062L113.078 104.281L104.937 93.4219C106.906 90.2344 108.344 86.7499 109.203 83.1093L122.625 81.1874V72.9063" stroke="white" stroke-width="1.5" stroke-linecap="round" stroke-linejoin="round"/>
<path d="M94.7655 81.2187C92.1249 89.625 84.2656 95.7188 75 95.7188C65.7344 95.7188 57.7657 89.5469 55.1876 81.0469" stroke="white" stroke-width="1.5" stroke-linecap="round" stroke-linejoin="round"/>
<path d="M35.7033 93.6407H27.422V101.078C26.0001 101.656 24.6563 102.422 23.4375 103.375L16.9998 99.6563L10.7811 110.422L17.2345 114.141C17.1251 114.906 17.0624 115.656 17.0468 116.422C17.0624 117.188 17.1095 117.953 17.2345 118.703L10.7811 122.422L16.9998 133.188L23.4375 129.469C24.6407 130.422 25.9845 131.187 27.4063 131.766V139.203H39.8281V131.766C41.25 131.187 42.5938 130.422 43.8126 129.469L50.2499 133.188L56.4686 122.422L50.0313 118.703" stroke="white" stroke-width="1.5" stroke-linecap="round" stroke-linejoin="round"/>
<path d="M40.7971 120.578C39.3596 123.047 36.6876 124.719 33.6251 124.719C29.047 124.719 25.3438 121.016 25.3438 116.438C25.3438 113.375 27.0002 110.703 29.4846 109.266" stroke="white" stroke-width="1.5" stroke-linecap="round" stroke-linejoin="round"/>
<path d="M114.312 93.6407H122.594V101.078C124.016 101.656 125.359 102.422 126.563 103.375L133 99.6563L139.219 110.422L132.766 114.141C132.875 114.906 132.938 115.656 132.953 116.422C132.938 117.188 132.891 117.953 132.766 118.703L139.219 122.422L133 133.188L126.547 129.469C125.344 130.422 124 131.187 122.594 131.766V139.203H110.156V131.766C108.734 131.187 107.391 130.422 106.172 129.469L99.7346 133.188L93.5159 122.422L99.9532 118.703" stroke="white" stroke-width="1.5" stroke-linecap="round" stroke-linejoin="round"/>
<path d="M109.203 120.578C110.641 123.047 113.313 124.719 116.375 124.719C120.953 124.719 124.656 121.016 124.656 116.438C124.656 113.375 123 110.703 120.515 109.266" stroke="white" stroke-width="1.5" stroke-linecap="round" stroke-linejoin="round"/>
<path d="M58.4374 58.4376V43.9375C58.4374 39.3438 62.125 35.6562 66.7187 35.6562" stroke="white" stroke-width="1.5" stroke-linecap="round" stroke-linejoin="round"/>
<path d="M83.2814 35.6407C87.8751 35.6407 91.5627 39.3281 91.5627 43.9219V58.4219" stroke="white" stroke-width="1.5" stroke-linecap="round" stroke-linejoin="round"/>
<path d="M75 41.8594V39.7812" stroke="white" stroke-width="1.5" stroke-linecap="round" stroke-linejoin="round"/>
<path d="M75 58.4376V50.1562" stroke="white" stroke-width="1.5" stroke-linecap="round" stroke-linejoin="round"/>
<path d="M75.0001 10.7969C79.5938 10.7969 83.2814 14.4843 83.2814 19.0781V23.2187C83.2814 27.8125 79.5938 31.5001 75.0001 31.5001C70.4063 31.5001 66.7188 27.8125 66.7188 23.2187V19.0781C66.7188 14.4843 70.4063 10.7969 75.0001 10.7969Z" stroke="white" stroke-width="1.5" stroke-linecap="round" stroke-linejoin="round"/>
<path d="M10.7968 72.9219V50.1406C10.7968 45.5468 14.5 41.8594 19.0781 41.8594" stroke="white" stroke-width="1.5" stroke-linecap="round" stroke-linejoin="round"/>
<path d="M35.6564 41.8594C40.2501 41.8594 43.9377 45.5468 43.9377 50.1406V64.6406" stroke="white" stroke-width="1.5" stroke-linecap="round" stroke-linejoin="round"/>
<path d="M27.3594 48.0782V45.9999" stroke="white" stroke-width="1.5" stroke-linecap="round" stroke-linejoin="round"/>
<path d="M27.3594 64.6406V56.3593" stroke="white" stroke-width="1.5" stroke-linecap="round" stroke-linejoin="round"/>
<path d="M27.3595 17C31.9532 17 35.6408 20.6876 35.6408 25.2813V29.4218C35.6408 34.0155 31.9532 37.7031 27.3595 37.7031C22.7657 37.7031 19.0781 34.0155 19.0781 29.4218V25.2813C19.0781 20.7032 22.7657 17 27.3595 17Z" stroke="white" stroke-width="1.5" stroke-linecap="round" stroke-linejoin="round"/>
<path d="M106.078 64.6406V50.1406C106.078 45.5468 109.766 41.8594 114.359 41.8594" stroke="white" stroke-width="1.5" stroke-linecap="round" stroke-linejoin="round"/>
<path d="M130.938 41.8594C135.531 41.8594 139.219 45.5468 139.219 50.1406V72.9219" stroke="white" stroke-width="1.5" stroke-linecap="round" stroke-linejoin="round"/>
<path d="M122.641 48.0782V45.9999" stroke="white" stroke-width="1.5" stroke-linecap="round" stroke-linejoin="round"/>
<path d="M122.641 64.6406V56.3593" stroke="white" stroke-width="1.5" stroke-linecap="round" stroke-linejoin="round"/>
<path d="M122.641 17C127.234 17 130.922 20.7032 130.922 25.2813V29.4218C130.922 34.0155 127.234 37.7031 122.641 37.7031C118.047 37.7031 114.359 34.0155 114.359 29.4218V25.2813C114.359 20.7032 118.047 17 122.641 17Z" stroke="white" stroke-width="1.5" stroke-linecap="round" stroke-linejoin="round"/>
<path d="M37.7186 72.9219H112.281" stroke="white" stroke-width="1.5" stroke-linecap="round" stroke-linejoin="round"/>
<path d="M58.4374 72.922V66.7031" stroke="white" stroke-width="1.5" stroke-linecap="round" stroke-linejoin="round"/>
<path d="M10.7968 81.2188V85.3594" stroke="white" stroke-width="1.5" stroke-linecap="round" stroke-linejoin="round"/>
<path d="M139.203 81.2188V85.3594" stroke="white" stroke-width="1.5" stroke-linecap="round" stroke-linejoin="round"/>
<path d="M91.5784 72.922V66.7031" stroke="white" stroke-width="1.5" stroke-linecap="round" stroke-linejoin="round"/>
</svg>
