<svg width="97" height="96" viewBox="0 0 97 96" fill="none" xmlns="http://www.w3.org/2000/svg">
<path d="M18.0071 46.6702V51.9701L26.5972 53.2001C27.1472 55.5301 28.0671 57.7702 29.3171 59.8102L24.1172 66.7401L29.7371 72.3601L36.687 67.1501C38.727 68.4101 40.9571 69.3301 43.2871 69.8801L44.5171 78.4701H52.4771L53.707 69.8801C56.037 69.3301 58.2771 68.4102 60.3171 67.1602L67.2471 72.3601L72.8672 66.7401L67.657 59.7902C68.917 57.7502 69.837 55.5201 70.387 53.1901L78.9771 51.9601V46.6602" stroke="white" stroke-width="1.5" stroke-linecap="round" stroke-linejoin="round"/>
<path d="M61.147 51.9801C59.457 57.3601 54.4271 61.2601 48.4971 61.2601C42.5671 61.2601 37.4671 57.3101 35.8171 51.8701" stroke="white" stroke-width="1.5" stroke-linecap="round" stroke-linejoin="round"/>
<path d="M23.3472 59.9302H18.0471V64.6901C17.1371 65.0601 16.2771 65.5502 15.4971 66.1602L11.377 63.7802L7.39697 70.6702L11.5271 73.0502C11.4571 73.5402 11.417 74.0201 11.407 74.5101C11.417 75.0001 11.4471 75.4901 11.5271 75.9701L7.39697 78.3501L11.377 85.2401L15.4971 82.8601C16.2671 83.4701 17.1271 83.9601 18.0371 84.3301V89.0901H25.9871V84.3301C26.8971 83.9601 27.7571 83.4701 28.5371 82.8601L32.657 85.2401L36.637 78.3501L32.5171 75.9701" stroke="white" stroke-width="1.5" stroke-linecap="round" stroke-linejoin="round"/>
<path d="M26.6072 77.1702C25.6872 78.7502 23.9771 79.8201 22.0171 79.8201C19.0871 79.8201 16.717 77.4501 16.717 74.5201C16.717 72.5601 17.7772 70.8502 19.3672 69.9302" stroke="white" stroke-width="1.5" stroke-linecap="round" stroke-linejoin="round"/>
<path d="M73.657 59.9302H78.957V64.6901C79.867 65.0601 80.7271 65.5502 81.4971 66.1602L85.6172 63.7802L89.5972 70.6702L85.467 73.0502C85.537 73.5402 85.5772 74.0201 85.5872 74.5101C85.5772 75.0001 85.547 75.4901 85.467 75.9701L89.5972 78.3501L85.6172 85.2401L81.4871 82.8601C80.7171 83.4701 79.857 83.9601 78.957 84.3301V89.0901H70.9971V84.3301C70.0871 83.9601 69.227 83.4701 68.447 82.8601L64.3271 85.2401L60.3472 78.3501L64.467 75.9701" stroke="white" stroke-width="1.5" stroke-linecap="round" stroke-linejoin="round"/>
<path d="M70.387 77.1702C71.307 78.7502 73.0171 79.8201 74.9771 79.8201C77.9071 79.8201 80.2771 77.4501 80.2771 74.5201C80.2771 72.5601 79.217 70.8502 77.627 69.9302" stroke="white" stroke-width="1.5" stroke-linecap="round" stroke-linejoin="round"/>
<path d="M37.897 37.4001V28.1201C37.897 25.1801 40.257 22.8201 43.197 22.8201" stroke="white" stroke-width="1.5" stroke-linecap="round" stroke-linejoin="round"/>
<path d="M53.7971 22.8101C56.7371 22.8101 59.0972 25.17 59.0972 28.11V37.39" stroke="white" stroke-width="1.5" stroke-linecap="round" stroke-linejoin="round"/>
<path d="M48.4971 26.79V25.46" stroke="white" stroke-width="1.5" stroke-linecap="round" stroke-linejoin="round"/>
<path d="M48.4971 37.4001V32.1001" stroke="white" stroke-width="1.5" stroke-linecap="round" stroke-linejoin="round"/>
<path d="M48.4971 6.91016C51.4371 6.91016 53.7971 9.27008 53.7971 12.2101V14.8601C53.7971 17.8001 51.4371 20.1602 48.4971 20.1602C45.5571 20.1602 43.197 17.8001 43.197 14.8601V12.2101C43.197 9.27008 45.5571 6.91016 48.4971 6.91016Z" stroke="white" stroke-width="1.5" stroke-linecap="round" stroke-linejoin="round"/>
<path d="M7.40698 46.67V32.09C7.40698 29.15 9.77703 26.79 12.707 26.79" stroke="white" stroke-width="1.5" stroke-linecap="round" stroke-linejoin="round"/>
<path d="M23.3171 26.79C26.2571 26.79 28.6172 29.15 28.6172 32.09V41.37" stroke="white" stroke-width="1.5" stroke-linecap="round" stroke-linejoin="round"/>
<path d="M18.0071 30.77V29.4399" stroke="white" stroke-width="1.5" stroke-linecap="round" stroke-linejoin="round"/>
<path d="M18.0071 41.3701V36.0701" stroke="white" stroke-width="1.5" stroke-linecap="round" stroke-linejoin="round"/>
<path d="M18.0071 10.8801C20.9471 10.8801 23.3071 13.2402 23.3071 16.1802V18.8301C23.3071 21.7701 20.9471 24.1301 18.0071 24.1301C15.0671 24.1301 12.707 21.7701 12.707 18.8301V16.1802C12.707 13.2502 15.0671 10.8801 18.0071 10.8801Z" stroke="white" stroke-width="1.5" stroke-linecap="round" stroke-linejoin="round"/>
<path d="M68.387 41.37V32.09C68.387 29.15 70.747 26.79 73.687 26.79" stroke="white" stroke-width="1.5" stroke-linecap="round" stroke-linejoin="round"/>
<path d="M84.2971 26.79C87.2371 26.79 89.5972 29.15 89.5972 32.09V46.67" stroke="white" stroke-width="1.5" stroke-linecap="round" stroke-linejoin="round"/>
<path d="M78.9871 30.77V29.4399" stroke="white" stroke-width="1.5" stroke-linecap="round" stroke-linejoin="round"/>
<path d="M78.9871 41.3701V36.0701" stroke="white" stroke-width="1.5" stroke-linecap="round" stroke-linejoin="round"/>
<path d="M78.9871 10.8801C81.9271 10.8801 84.2871 13.2502 84.2871 16.1802V18.8301C84.2871 21.7701 81.9271 24.1301 78.9871 24.1301C76.0471 24.1301 73.687 21.7701 73.687 18.8301V16.1802C73.687 13.2502 76.0471 10.8801 78.9871 10.8801Z" stroke="white" stroke-width="1.5" stroke-linecap="round" stroke-linejoin="round"/>
<path d="M24.637 46.6702H72.3572" stroke="white" stroke-width="1.5" stroke-linecap="round" stroke-linejoin="round"/>
<path d="M37.897 46.67V42.6899" stroke="white" stroke-width="1.5" stroke-linecap="round" stroke-linejoin="round"/>
<path d="M7.40698 51.98V54.63" stroke="white" stroke-width="1.5" stroke-linecap="round" stroke-linejoin="round"/>
<path d="M89.5872 51.98V54.63" stroke="white" stroke-width="1.5" stroke-linecap="round" stroke-linejoin="round"/>
<path d="M59.1072 46.67V42.6899" stroke="white" stroke-width="1.5" stroke-linecap="round" stroke-linejoin="round"/>
</svg>
