<svg width="96" height="96" viewBox="0 0 96 96" fill="none" xmlns="http://www.w3.org/2000/svg">
<path d="M36.9 65.5699H90.53V11.9399V6.38989H5.46997V32.2799" stroke="white" stroke-width="1.5" stroke-linecap="round" stroke-linejoin="round"/>
<path d="M22.11 32.28C26.34 32.28 29.51 28.73 29.51 24.36V21.72C29.51 17.34 26.35 13.8 22.11 13.8C17.87 13.8 14.71 17.35 14.71 21.72V24.36C14.71 28.74 17.87 32.28 22.11 32.28Z" stroke="white" stroke-width="1.5" stroke-linecap="round" stroke-linejoin="round"/>
<path d="M31.36 89.6101V45.2301H42.46C48.04 45.2301 49.86 41.9401 49.86 37.8301H14.71C8.07996 37.8301 5.45996 40.6301 5.45996 48.9301V61.8701C5.45996 65.8401 7.03996 69.2701 11.01 69.2701" stroke="white" stroke-width="1.5" stroke-linecap="round" stroke-linejoin="round"/>
<path d="M22.1101 63.72V89.61" stroke="white" stroke-width="1.5" stroke-linecap="round" stroke-linejoin="round"/>
<path d="M12.8601 48.9199V89.6099" stroke="white" stroke-width="1.5" stroke-linecap="round" stroke-linejoin="round"/>
<path d="M48 47.9999L60.9399 54.4699L79.44 45.2299V24.8799L60.9399 15.6399L42.45 24.8799V34.1299" stroke="white" stroke-width="1.5" stroke-linecap="round" stroke-linejoin="round"/>
<path d="M47.99 27.6599L60.94 34.1299" stroke="white" stroke-width="1.5" stroke-linecap="round" stroke-linejoin="round"/>
<path d="M73.8999 27.6599L60.9399 34.1299" stroke="white" stroke-width="1.5" stroke-linecap="round" stroke-linejoin="round"/>
<path d="M60.9399 34.1299V48.9199" stroke="white" stroke-width="1.5" stroke-linecap="round" stroke-linejoin="round"/>
</svg>
