<svg width="96" height="96" viewBox="0 0 96 96" fill="none" xmlns="http://www.w3.org/2000/svg">
<path d="M17.41 14.6301H63.76V9.07007L73.03 18.3401L63.76 27.6101V22.0501H30.39" stroke="white" stroke-width="1.5" stroke-linecap="round" stroke-linejoin="round"/>
<path d="M69.3199 47.9999H82.2899V42.4399L91.5599 51.7099L82.2899 60.9799V55.4199H71.1699" stroke="white" stroke-width="1.5" stroke-linecap="round" stroke-linejoin="round"/>
<path d="M60.05 73.9499H69.32V68.3899L78.59 77.6599L69.32 86.9299V81.3699H32.24" stroke="white" stroke-width="1.5" stroke-linecap="round" stroke-linejoin="round"/>
<path d="M4.43994 70.25H26.6799" stroke="white" stroke-width="1.5" stroke-linecap="round" stroke-linejoin="round"/>
<path d="M43.3701 57.2699C46.4408 57.2699 48.9301 54.7806 48.9301 51.7099C48.9301 48.6392 46.4408 46.1499 43.3701 46.1499C40.2994 46.1499 37.8101 48.6392 37.8101 51.7099C37.8101 54.7806 40.2994 57.2699 43.3701 57.2699Z" stroke="white" stroke-width="1.5" stroke-linecap="round" stroke-linejoin="round"/>
<path d="M65.2899 46.75L62.9699 40.71L57.2099 42.42C56.1499 40.84 54.8399 39.48 53.3599 38.37L55.3699 32.7L49.4599 30.07L46.5899 35.35C44.7699 34.99 42.8899 34.93 40.9999 35.2L38.4099 29.78L32.3699 32.1L34.0799 37.86C32.4999 38.92 31.1399 40.23 30.0299 41.71L24.3599 39.7L21.7299 45.61L27.0099 48.48C26.6499 50.3 26.5899 52.18 26.8599 54.07L21.4399 56.66L23.7599 62.7L29.5199 60.99C30.5799 62.57 31.8899 63.93 33.3699 65.04L31.3599 70.71L37.2699 73.34L40.1399 68.06C41.9599 68.42 43.8399 68.48 45.7299 68.21L48.3199 73.63L54.3599 71.31L52.6499 65.55C54.2299 64.49 55.5899 63.18 56.6999 61.7L62.3699 63.71L64.9999 57.8L59.7199 54.93C60.0799 53.11 60.1399 51.23 59.8699 49.34L65.2899 46.75Z" stroke="white" stroke-width="1.5" stroke-linecap="round" stroke-linejoin="round"/>
<path d="M26.68 31.3201H10" stroke="white" stroke-width="1.5" stroke-linecap="round" stroke-linejoin="round"/>
</svg>
