<svg width="96" height="96" viewBox="0 0 96 96" fill="none" xmlns="http://www.w3.org/2000/svg">
<path d="M81.39 69.3299H7.18997C6.16997 69.3299 5.33997 68.4999 5.33997 67.4799V19.2499C5.33997 18.2299 6.16997 17.3999 7.18997 17.3999H88.81C89.83 17.3999 90.66 18.2299 90.66 19.2499V63.7699" stroke="white" stroke-width="1.5" stroke-linecap="round" stroke-linejoin="round"/>
<path d="M42.4399 78.6001V69.3301" stroke="white" stroke-width="1.5" stroke-linecap="round" stroke-linejoin="round"/>
<path d="M53.5601 69.3301V78.6001" stroke="white" stroke-width="1.5" stroke-linecap="round" stroke-linejoin="round"/>
<path d="M29.45 78.6001H66.55" stroke="white" stroke-width="1.5" stroke-linecap="round" stroke-linejoin="round"/>
<path d="M69.33 61.9101C77.0123 61.9101 83.24 55.6824 83.24 48.0001C83.24 40.3178 77.0123 34.0901 69.33 34.0901C61.6478 34.0901 55.42 40.3178 55.42 48.0001C55.42 55.6824 61.6478 61.9101 69.33 61.9101Z" stroke="white" stroke-width="1.5" stroke-linecap="round" stroke-linejoin="round"/>
<path d="M77.6801 58.2L90.6601 71.19" stroke="white" stroke-width="1.5" stroke-linecap="round" stroke-linejoin="round"/>
<path d="M57.27 34.0899V26.6699H48V63.7699" stroke="white" stroke-width="1.5" stroke-linecap="round" stroke-linejoin="round"/>
<path d="M40.5801 63.7701V37.8H31.3101V63.7701" stroke="white" stroke-width="1.5" stroke-linecap="round" stroke-linejoin="round"/>
<path d="M23.89 63.7701V47.0701H14.61V63.7701" stroke="white" stroke-width="1.5" stroke-linecap="round" stroke-linejoin="round"/>
</svg>
