<svg width="96" height="96" viewBox="0 0 96 96" fill="none" xmlns="http://www.w3.org/2000/svg">
<path d="M13.51 47.14C16.7 47.14 19.29 44.5299 19.29 41.2999C19.29 38.0799 16.7 35.46 13.51 35.46C10.32 35.46 7.72998 38.0699 7.72998 41.2999C7.72998 44.5199 10.32 47.14 13.51 47.14Z" stroke="white" stroke-width="1.5"/>
<path d="M22.1899 56.8699V52.9799C22.1899 49.7599 18.3 47.1399 13.52 47.1399C8.73002 47.1399 4.8501 49.7499 4.8501 52.9799V56.8699" stroke="white" stroke-width="1.5"/>
<path d="M84.8301 47.14C88.0201 47.14 90.6101 44.5299 90.6101 41.2999C90.6101 38.0799 88.0201 35.46 84.8301 35.46C81.6301 35.46 79.0501 38.0699 79.0501 41.2999C79.0401 44.5199 81.6301 47.14 84.8301 47.14Z" stroke="white" stroke-width="1.5"/>
<path d="M93.5 56.8699V52.9799C93.5 49.7599 89.6101 47.1399 84.8301 47.1399C80.0401 47.1399 76.1599 49.7499 76.1599 52.9799V56.8699" stroke="white" stroke-width="1.5"/>
<path d="M80.01 17.95V27.6799H70.3701" stroke="white" stroke-width="1.5"/>
<path d="M18.3301 27.6799C24.7901 17.1699 36.0199 10.1699 49.1699 10.1699C62.3199 10.1699 73.55 17.1699 80.01 27.6799" stroke="white" stroke-width="1.5" stroke-dasharray="3.9 3.9"/>
<path d="M18.3301 76.3299V66.5999H27.97" stroke="white" stroke-width="1.5"/>
<path d="M80.01 66.5999C73.55 77.1099 62.3199 84.1099 49.1699 84.1099C36.0199 84.1099 24.7901 77.1099 18.3301 66.5999" stroke="white" stroke-width="1.5" stroke-dasharray="3.9 3.9"/>
<path d="M64.5901 47.14C64.5901 46.41 64.5199 45.6899 64.4299 44.9899L68.1799 41.46L63.55 33.3699L58.6499 34.8799C57.5299 33.9999 56.3 33.2699 54.96 32.7199L53.8 27.6899H44.55L43.3999 32.7199C42.0599 33.2699 40.83 33.9999 39.7 34.8799L34.8 33.3699L30.1699 41.46L33.9199 44.9899C33.8199 45.6999 33.76 46.41 33.76 47.14C33.76 47.87 33.8299 48.5899 33.9199 49.2899L30.1699 52.8199L34.8 60.9099L39.7 59.4C40.82 60.28 42.0599 61.0099 43.3999 61.5599L44.55 66.5999H53.8L54.96 61.5599C56.3 61.0099 57.5299 60.28 58.6499 59.4L63.55 60.9099L68.1799 52.8199L64.4299 49.2899C64.5199 48.5799 64.5901 47.87 64.5901 47.14Z" stroke="white" stroke-width="1.5"/>
<path d="M49.1699 52.9798C52.3599 52.9798 54.95 50.3698 54.95 47.1398C54.95 43.9098 52.3599 41.2998 49.1699 41.2998C45.9799 41.2998 43.3899 43.9098 43.3899 47.1398C43.3899 50.3698 45.9799 52.9798 49.1699 52.9798Z" stroke="white" stroke-width="1.5"/>
</svg>
