<svg width="96" height="96" viewBox="0 0 96 96" fill="none" xmlns="http://www.w3.org/2000/svg">
<path d="M27.5501 14.48C17.6401 19.98 10.5701 29.4 8.87012 40.41" stroke="white" stroke-width="1.5" stroke-miterlimit="10"/>
<path d="M68.7 14.48C78.61 19.98 85.68 29.4 87.38 40.41" stroke="white" stroke-width="1.5" stroke-miterlimit="10"/>
<path d="M30.5801 84.9C35.8501 87.69 41.8201 89.26 48.1401 89.26C54.4601 89.26 60.4201 87.69 65.7001 84.9" stroke="white" stroke-width="1.5" stroke-miterlimit="10"/>
<path d="M20.09 64.96C14.2 64.96 7 68.9 7 71.62V78.05C11.47 81.06 15.39 81.79 20.09 81.79C24.79 81.79 28.71 81.06 33.18 78.05V71.62C33.18 68.93 25.98 64.96 20.09 64.96Z" stroke="white" stroke-width="1.5" stroke-miterlimit="10"/>
<path d="M20.0901 46.26C16.2201 46.26 12.6101 49.27 12.6101 52.99V58.22C12.6101 61.94 16.2201 64.95 20.0901 64.95C23.9601 64.95 27.5701 61.94 27.5701 58.22V52.99C27.5701 49.27 23.9601 46.26 20.0901 46.26Z" stroke="white" stroke-width="1.5" stroke-miterlimit="10"/>
<path d="M48.13 25.7C42.24 25.7 35.04 29.64 35.04 32.36V38.79C38.78 41.8 43.43 42.5299 48.13 42.5299C52.83 42.5299 57.48 41.8 61.22 38.79V32.36C61.22 29.67 54.02 25.7 48.13 25.7Z" stroke="white" stroke-width="1.5" stroke-miterlimit="10"/>
<path d="M48.1299 7C44.2599 7 40.6499 10.01 40.6499 13.73V18.96C40.6499 22.68 44.2599 25.69 48.1299 25.69C51.9999 25.69 55.6099 22.68 55.6099 18.96V13.73C55.6099 10.01 51.9999 7 48.1299 7Z" stroke="white" stroke-width="1.5" stroke-miterlimit="10"/>
<path d="M76.1701 64.96C70.2801 64.96 63.0801 68.9 63.0801 71.62V78.05C67.5501 81.06 71.4701 81.79 76.1701 81.79C80.8701 81.79 84.7901 81.06 89.2601 78.05V71.62C89.2601 68.93 82.0601 64.96 76.1701 64.96Z" stroke="white" stroke-width="1.5" stroke-miterlimit="10"/>
<path d="M76.1699 46.26C72.2999 46.26 68.6899 49.27 68.6899 52.99V58.22C68.6899 61.94 72.2999 64.95 76.1699 64.95C80.0399 64.95 83.6499 61.94 83.6499 58.22V52.99C83.6499 49.27 80.0399 46.26 76.1699 46.26Z" stroke="white" stroke-width="1.5" stroke-miterlimit="10"/>
</svg>
