<svg width="96" height="96" viewBox="0 0 96 96" fill="none" xmlns="http://www.w3.org/2000/svg">
<path d="M32.1899 43.3101H36.9399C38.4299 43.3101 40.7799 44.2601 41.6899 45.6801H46.4399C48.6599 45.6801 51.1899 47.7601 51.1899 50.4301H55.9399C58.1599 50.4301 60.6899 52.5101 60.6899 55.1801V76.5301C60.6899 81.3301 55.9399 85.2001 55.9399 88.3901V90.7601" stroke="white" stroke-width="1.5" stroke-miterlimit="10"/>
<path d="M32.1899 55.1602V26.7002C32.1899 24.0802 30.0699 21.9502 27.4399 21.9502C24.8199 21.9502 22.6899 24.0802 22.6899 26.7002V59.9102L19.52 62.9502L13.3198 53.3402C9.52982 48.1102 3.70996 51.0502 3.70996 53.3402C3.70996 53.3402 10.8999 73.9302 11.9399 75.5502C13.5999 78.1402 20.3101 83.9702 20.3101 86.0102V90.7602" stroke="white" stroke-width="1.5" stroke-miterlimit="10"/>
<path d="M41.6802 45.6802V55.1602" stroke="white" stroke-width="1.5" stroke-miterlimit="10"/>
<path d="M51.1699 50.4202V57.5402" stroke="white" stroke-width="1.5" stroke-miterlimit="10"/>
<path d="M7.41992 44.7201V40.8201" stroke="white" stroke-width="1.5" stroke-miterlimit="10"/>
<path d="M7.41992 32.7901V16.4601C7.41992 10.7401 12.0598 6.1001 17.7798 6.1001H83.04C88.76 6.1001 93.3999 10.7401 93.3999 16.4601V65.8301C93.3999 71.5501 88.76 76.1901 83.04 76.1901H74.0898" stroke="white" stroke-width="1.5" stroke-miterlimit="10"/>
<path d="M70.0801 76.2002H66.1802" stroke="white" stroke-width="1.5" stroke-miterlimit="10"/>
<path d="M22.7002 33.7101C19.8702 33.4201 17.6499 31.0201 17.6499 28.1101V20.9601C17.6499 17.8701 20.18 15.3401 23.27 15.3401H30.4199C33.5099 15.3401 36.04 17.8701 36.04 20.9601V28.1101C36.04 30.5901 34.4199 32.7001 32.1899 33.4401" stroke="white" stroke-width="1.5" stroke-miterlimit="10"/>
<path d="M51.04 15.3501C56.12 15.3501 60.23 19.4701 60.23 24.5401V24.5501C60.23 29.6301 56.11 33.7401 51.04 33.7401H51.0298C45.9498 33.7401 41.8398 29.6201 41.8398 24.5501V24.5401C41.8398 19.4701 45.96 15.3501 51.04 15.3501Z" stroke="white" stroke-width="1.5" stroke-miterlimit="10"/>
<path d="M75.2402 15.3501C80.3202 15.3501 84.4302 19.4701 84.4302 24.5401V24.5501C84.4302 29.6301 80.3102 33.7401 75.2402 33.7401H75.23C70.15 33.7401 66.04 29.6201 66.04 24.5501V24.5401C66.04 19.4701 70.1502 15.3501 75.2402 15.3501Z" stroke="white" stroke-width="1.5" stroke-miterlimit="10"/>
</svg>
