<svg width="97" height="96" viewBox="0 0 97 96" fill="none" xmlns="http://www.w3.org/2000/svg">
<path d="M7.1029 33.25H12.4729C13.0252 33.25 13.4729 32.8023 13.4729 32.25L13.4729 23.19C13.4729 22.6377 13.0252 22.19 12.4729 22.19H7.1029C6.55062 22.19 6.1029 22.6377 6.1029 23.19L6.1029 32.25C6.1029 32.8023 6.55062 33.25 7.1029 33.25Z" stroke="white" stroke-width="1.5" stroke-linecap="round" stroke-linejoin="round"/>
<path d="M65.0929 33.2499V24.0299C65.0929 23.0099 64.2629 22.1899 63.2529 22.1899H59.5629C58.5429 22.1899 57.7229 23.0199 57.7229 24.0299V27.7199" stroke="white" stroke-width="1.5" stroke-linecap="round" stroke-linejoin="round"/>
<path d="M39.2828 27.7199V24.0299C39.2828 23.0099 38.4528 22.1899 37.4428 22.1899H33.7528C32.7328 22.1899 31.9128 23.0199 31.9128 24.0299V33.2499" stroke="white" stroke-width="1.5" stroke-linecap="round" stroke-linejoin="round"/>
<path d="M80.683 42.47H75.313C74.7607 42.47 74.313 42.9177 74.313 43.47V52.53C74.313 53.0823 74.7607 53.53 75.313 53.53H80.683C81.2353 53.53 81.683 53.0823 81.683 52.53V43.47C81.683 42.9177 81.2353 42.47 80.683 42.47Z" stroke="white" stroke-width="1.5" stroke-linecap="round" stroke-linejoin="round"/>
<path d="M84.5328 73.8101H89.9028C90.4551 73.8101 90.9028 73.3623 90.9028 72.8101V63.7501C90.9028 63.1978 90.4551 62.7501 89.9028 62.7501H84.5328C83.9805 62.7501 83.5328 63.1978 83.5328 63.7501V72.8101C83.5328 73.3623 83.9805 73.8101 84.5328 73.8101Z" stroke="white" stroke-width="1.5" stroke-linecap="round" stroke-linejoin="round"/>
<path d="M22.6929 20.3501V35.0901" stroke="white" stroke-width="1.5" stroke-linecap="round" stroke-linejoin="round"/>
<path d="M48.5029 20.3501V27.7201" stroke="white" stroke-width="1.5" stroke-linecap="round" stroke-linejoin="round"/>
<path d="M90.9028 40.6299V55.3699" stroke="white" stroke-width="1.5" stroke-linecap="round" stroke-linejoin="round"/>
<path d="M74.313 60.9099V75.6499" stroke="white" stroke-width="1.5" stroke-linecap="round" stroke-linejoin="round"/>
<path d="M84.5328 33.25H89.9028C90.4551 33.25 90.9028 32.8023 90.9028 32.25V23.19C90.9028 22.6377 90.4551 22.19 89.9028 22.19H84.5328C83.9805 22.19 83.5328 22.6377 83.5328 23.19V32.25C83.5328 32.8023 83.9805 33.25 84.5328 33.25Z" stroke="white" stroke-width="1.5" stroke-linecap="round" stroke-linejoin="round"/>
<path d="M74.313 20.3501V35.0901" stroke="white" stroke-width="1.5" stroke-linecap="round" stroke-linejoin="round"/>
<path d="M16.3129 53.53H21.6829C22.2351 53.53 22.6829 53.0823 22.6829 52.53V43.47C22.6829 42.9177 22.2351 42.47 21.6829 42.47H16.3129C15.7606 42.47 15.3129 42.9177 15.3129 43.47V52.53C15.3129 53.0823 15.7606 53.53 16.3129 53.53Z" stroke="white" stroke-width="1.5" stroke-linecap="round" stroke-linejoin="round"/>
<path d="M6.10303 40.6299V55.3699" stroke="white" stroke-width="1.5" stroke-linecap="round" stroke-linejoin="round"/>
<path d="M12.473 62.75H7.10303C6.55074 62.75 6.10303 63.1977 6.10303 63.75V72.81C6.10303 73.3623 6.55074 73.81 7.10303 73.81H12.473C13.0253 73.81 13.473 73.3623 13.473 72.81V63.75C13.473 63.1977 13.0253 62.75 12.473 62.75Z" stroke="white" stroke-width="1.5" stroke-linecap="round" stroke-linejoin="round"/>
<path d="M65.0929 62.75V71.97C65.0929 72.99 64.2629 73.81 63.2529 73.81H59.5629C58.5429 73.81 57.7229 72.98 57.7229 71.97V68.28" stroke="white" stroke-width="1.5" stroke-linecap="round" stroke-linejoin="round"/>
<path d="M48.5028 68.28V71.97C48.5028 72.99 47.6728 73.81 46.6628 73.81H42.9728C41.9528 73.81 41.1328 72.98 41.1328 71.97V68.28" stroke="white" stroke-width="1.5" stroke-linecap="round" stroke-linejoin="round"/>
<path d="M22.6929 60.9099V75.6499" stroke="white" stroke-width="1.5" stroke-linecap="round" stroke-linejoin="round"/>
<path d="M31.9128 62.75V75.65" stroke="white" stroke-width="1.5" stroke-linecap="round" stroke-linejoin="round"/>
<path d="M61.453 47.9599C61.453 46.9399 61.323 45.9499 61.093 44.9899L64.713 42.8999L61.023 36.5099L57.403 38.5999C55.943 37.2199 54.163 36.1699 52.183 35.5799V31.3999H44.813V35.5999C42.853 36.1899 41.093 37.2399 39.643 38.6199L35.973 36.4999L32.283 42.8899L35.983 45.0199C35.763 45.9599 35.633 46.9399 35.633 47.9499C35.633 48.9599 35.763 49.9899 36.003 50.9499L32.283 53.0899L35.973 59.4799L39.693 57.3299C41.133 58.6799 42.873 59.7199 44.803 60.2999V64.5799H52.173V60.3199C54.133 59.7399 55.893 58.7099 57.343 57.3599L61.013 59.4799L64.703 53.0899L61.063 50.9899C61.303 50.0099 61.443 48.9999 61.443 47.9499L61.453 47.9599Z" stroke="white" stroke-width="1.5" stroke-linecap="round" stroke-linejoin="round"/>
<path d="M48.5029 53.53C51.557 53.53 54.0329 51.0541 54.0329 48C54.0329 44.9458 51.557 42.47 48.5029 42.47C45.4488 42.47 42.9729 44.9458 42.9729 48C42.9729 51.0541 45.4488 53.53 48.5029 53.53Z" stroke="white" stroke-width="1.5" stroke-linecap="round" stroke-linejoin="round"/>
</svg>
