<svg width="96" height="96" viewBox="0 0 96 96" fill="none" xmlns="http://www.w3.org/2000/svg">
<g clip-path="url(#clip0_15134_496450)">
<path d="M22.5826 73.3591H9.91602V86.0192" stroke="white" stroke-width="2" stroke-miterlimit="10"/>
<path d="M7.56504 65.9767C0.143831 49.6966 3.304 29.9261 16.7023 16.5278C33.9408 -0.710639 62.0714 -0.619975 79.3099 16.625L85.015 22.3301" stroke="white" stroke-width="2" stroke-miterlimit="10"/>
<path d="M88.3055 30.0232C95.7267 46.3032 92.5665 66.0737 79.1682 79.472C61.9297 96.7105 33.7991 96.6198 16.5606 79.3749L10.8555 73.6698" stroke="white" stroke-width="2" stroke-miterlimit="10"/>
<path d="M73.2363 22.7056H85.8964V10.0391" stroke="white" stroke-width="2" stroke-miterlimit="10"/>
<path d="M31.0205 22.7058H58.4583L69.0137 33.2548V73.3591H31.0205V22.7058Z" stroke="white" stroke-width="2" stroke-miterlimit="10"/>
<path d="M64.792 35.3659H56.3477V26.928" stroke="white" stroke-width="2" stroke-miterlimit="10"/>
<path d="M41.5762 48.0325V64.9148" stroke="white" stroke-width="2" stroke-miterlimit="10"/>
<path d="M50.0137 56.4702V64.9146" stroke="white" stroke-width="2" stroke-miterlimit="10"/>
<path d="M58.458 52.2546V64.9147" stroke="white" stroke-width="2" stroke-miterlimit="10"/>
</g>
<defs>
<clipPath id="clip0_15134_496450">
<rect width="89.877" height="90" fill="white" transform="translate(3 3)"/>
</clipPath>
</defs>
</svg>
