<svg width="96" height="96" viewBox="0 0 96 96" fill="none" xmlns="http://www.w3.org/2000/svg">
<path d="M74.5215 83.2173C74.5215 85.3793 76.2726 87.1304 78.4345 87.1304H82.3476C84.5095 87.1304 86.2606 85.3793 86.2606 83.2173V81.2608C86.2606 79.5758 85.1821 77.8809 83.5851 77.3478L77.197 75.2176C75.6 74.6845 74.5215 73.1608 74.5215 71.4782V69.5217C74.5215 67.3597 76.2726 65.6086 78.4345 65.6086H82.3476C84.5095 65.6086 86.2606 67.3597 86.2606 69.5217" stroke="white" stroke-width="2" stroke-miterlimit="10"/>
<path d="M80.3916 65.6086V59.739" stroke="white" stroke-width="2" stroke-miterlimit="10"/>
<path d="M80.3916 87.1304V92.9999" stroke="white" stroke-width="2" stroke-miterlimit="10"/>
<path d="M62.7822 93V49.9565H80.3909V55.8261" stroke="white" stroke-width="2" stroke-miterlimit="10"/>
<path d="M45.1738 92.9999V38.2173H62.7825V51.5" stroke="white" stroke-width="2" stroke-miterlimit="10"/>
<path d="M27.5654 93.0001V55.8262H45.1741" stroke="white" stroke-width="2" stroke-miterlimit="10"/>
<path d="M9.95605 93.0001V75.3914H27.5648" stroke="white" stroke-width="2" stroke-miterlimit="10"/>
<path d="M9.95605 57.7826L52.9995 14.7392L62.7821 24.5218L82.3474 4.95654" stroke="white" stroke-width="2" stroke-miterlimit="10"/>
<path d="M68.6523 4.95654H82.348V18.6522" stroke="white" stroke-width="2" stroke-miterlimit="10"/>
</svg>
