<?xml version="1.0" encoding="utf-8"?>
<!-- Generator: Adobe Illustrator 27.9.0, SVG Export Plug-In . SVG Version: 6.00 Build 0)  -->
<svg version="1.1" id="Layer_1" xmlns="http://www.w3.org/2000/svg" xmlns:xlink="http://www.w3.org/1999/xlink" x="0px" y="0px"
	 width="96px" height="96px" viewBox="0 0 96 96" style="enable-background:new 0 0 96 96;" xml:space="preserve">
<style type="text/css">
	.st0{fill:none;stroke:#FFFFFF;stroke-width:1.5;stroke-linecap:round;stroke-linejoin:round;}
</style>
<g>
	<rect x="11.5" y="23.6" class="st0" width="73.1" height="44.7"/>
	<path class="st0" d="M3.3,19.6v56.8c0,2.2,1.8,4.1,4.1,4.1h81.2c2.2,0,4.1-1.8,4.1-4.1V19.6c0-2.2-1.8-4.1-4.1-4.1H7.4
		C5.2,15.5,3.3,17.3,3.3,19.6z"/>
	<line class="st0" x1="17.6" y1="62.2" x2="31.8" y2="29.7"/>
	<line class="st0" x1="48" y1="29.7" x2="48" y2="35.8"/>
	<line class="st0" x1="48" y1="39.9" x2="48" y2="48"/>
	<line class="st0" x1="48" y1="52.1" x2="48" y2="62.2"/>
	<line class="st0" x1="78.4" y1="62.2" x2="64.2" y2="29.7"/>
	<line class="st0" x1="39.9" y1="74.4" x2="56.1" y2="74.4"/>
</g>
</svg>
