<?xml version="1.0" encoding="utf-8"?>
<!-- Generator: Adobe Illustrator 27.9.0, SVG Export Plug-In . SVG Version: 6.00 Build 0)  -->
<svg version="1.1" id="Layer_1" xmlns="http://www.w3.org/2000/svg" xmlns:xlink="http://www.w3.org/1999/xlink" x="0px" y="0px"
	 width="96px" height="96px" viewBox="0 0 96 96" style="enable-background:new 0 0 96 96;" xml:space="preserve">
<style type="text/css">
	.st0{fill:none;stroke:#FFFFFF;stroke-width:1.6277;stroke-linecap:round;stroke-linejoin:round;}
</style>
<g>
	<polygon class="st0" points="68.4,73.5 90.8,85.7 68.4,32.7 46,85.7 	"/>
	<polyline class="st0" points="48,65.3 11.3,65.3 11.3,18.4 84.7,18.4 84.7,51.1 	"/>
	<polyline class="st0" points="43.9,73.5 3.1,73.5 3.1,10.3 92.9,10.3 92.9,69.4 	"/>
	<polyline class="st0" points="23.5,22.5 23.5,44.9 15.4,44.9 	"/>
	<polyline class="st0" points="15.4,55.1 23.5,55.1 23.5,61.3 	"/>
	<polyline class="st0" points="33.7,61.3 33.7,40.9 37.8,40.9 46,49 54.1,49 	"/>
	<polyline class="st0" points="33.7,22.5 33.7,28.6 41.9,28.6 52.1,38.8 58.2,38.8 	"/>
</g>
</svg>
