<?xml version="1.0" encoding="utf-8"?>
<!-- Generator: Adobe Illustrator 27.9.0, SVG Export Plug-In . SVG Version: 6.00 Build 0)  -->
<svg version="1.1" id="Layer_1" xmlns="http://www.w3.org/2000/svg" xmlns:xlink="http://www.w3.org/1999/xlink" x="0px" y="0px"
	 width="96px" height="96px" viewBox="0 0 96 96" style="enable-background:new 0 0 96 96;" xml:space="preserve">
<style type="text/css">
	.st0{fill:none;stroke:#FFFFFF;stroke-width:1.5;stroke-linecap:round;stroke-linejoin:round;}
</style>
<g>
	<path class="st0" d="M54.4,61.8c-2.9,2.4-5.8,4.5-9.6,4.9 M41.1,66.7c-1.2-0.2-2.5-0.5-3.8-1c-2-0.7-4.9-2.1-7.2-3.2 M71.3,56.1
		c-1.1-0.3-2.3-0.4-3.5-0.5c-4.3-0.3-7.7,1.7-10.3,3.7 M83.8,67.1c-0.2-0.3-0.4-0.7-0.6-1.1c-1.2-2.3-3-5.9-7.4-8.2"/>
	<polyline class="st0" points="3.3,48.8 3.3,91.9 30.1,82.7 63.7,91.3 92.7,80.4 92.7,23.6 63.7,33.2 50.2,28.7 	"/>
	<path class="st0" d="M23.4,60C18.3,43.2,3.3,39.7,3.3,24.2c0-10.8,9.6-20.1,20.1-20.1c10.5,0,20.1,9.3,20.1,20.1
		C43.5,39.7,28.5,43.2,23.4,60"/>
	<path class="st0" d="M23.4,17.5c-3.7,0-6.7,3-6.7,6.7c0,3.7,3,6.7,6.7,6.7c3.7,0,6.7-3,6.7-6.7C30.1,20.5,27.1,17.5,23.4,17.5z"/>
</g>
</svg>
