<?xml version="1.0" encoding="utf-8"?>
<!-- Generator: Adobe Illustrator 27.9.0, SVG Export Plug-In . SVG Version: 6.00 Build 0)  -->
<svg version="1.1" id="Layer_1" xmlns="http://www.w3.org/2000/svg" xmlns:xlink="http://www.w3.org/1999/xlink" x="0px" y="0px"
	 width="96px" height="96px" viewBox="0 0 96 96" style="enable-background:new 0 0 96 96;" xml:space="preserve">
<style type="text/css">
	.st0{fill:none;stroke:#FFFFFF;stroke-width:1.5;stroke-linecap:round;stroke-linejoin:round;}
	.st1{fill:none;stroke:#FFFFFF;stroke-width:1.5;stroke-linecap:round;stroke-linejoin:round;stroke-dasharray:3.8993,3.8993;}
</style>
<g>
	<g transform="translate(-1718 -1695)">
		<g>
			<g>
				<g>
					<g>
						<g>
							<g>
								<g>
									<g>
										<path class="st0" d="M1798.7,1732.8h11.9"/>
										<path class="st0" d="M1739.6,1732.8h26.4"/>
										<path class="st0" d="M1721.4,1727.3c17.1,0,30.9,13.8,30.9,30.9s-13.8,30.9-30.9,30.9"/>
										<path class="st0" d="M1721.4,1734.4c13.2,0,23.8,10.7,23.8,23.8s-10.7,23.8-23.8,23.8"/>
										<path class="st0" d="M1721.4,1750.7c4.1,0,7.5,3.3,7.5,7.5c0,4.1-3.3,7.5-7.5,7.5"/>
										<path class="st0" d="M1727,1753.2l18.1,2.1"/>
										<path class="st0" d="M1725,1781.8l1.9-18.6l17.9-0.7"/>
										<path class="st0" d="M1721.4,1755c1.8,0,3.2,1.4,3.2,3.2s-1.4,3.2-3.2,3.2"/>
										<path class="st0" d="M1807.3,1786.8h-44.6c-1.9,0-3.4-1.4-3.4-3.1v-36.5c0-1.7,1.5-3.1,3.4-3.1h44.6
											c1.9,0,3.4,1.4,3.4,3.1v36.5C1810.7,1785.4,1809.1,1786.8,1807.3,1786.8z"/>
										<path class="st0" d="M1767.7,1724.4h-8.8c-2.7,0-4.9-2.2-4.9-4.9V1702c0-2.7,2.2-4.9,4.9-4.9h46.9c2.7,0,4.9,2.2,4.9,4.9
											v17.5c0,2.7-2.2,4.9-4.9,4.9h-8.8"/>
										<path class="st0" d="M1791.6,1721h-18.4c-3,0-5.5,2.2-6,5.1l-1.4,8.4c-0.2,1.2,0.7,2.4,2,2.4h29.3c1.2,0,2.2-1.1,2-2.4
											l-1.4-8.4C1797.1,1723.1,1794.5,1721,1791.6,1721z"/>
										<path class="st1" d="M1802.2,1753.2h-33.2c-0.8,0-1.4,1.2-1.4,2.5v16.8c0,1.4,0.7,2.5,1.4,2.5h33.3c0.8,0,1.4-1.2,1.4-2.5
											v-16.8C1803.6,1754.4,1803,1753.2,1802.2,1753.2z"/>
										<path class="st0" d="M1766.9,1717.4c-4.2,0-7.6-3.4-7.6-7.6c0-4.2,3.4-7.6,7.6-7.6c4.2,0,7.6,3.4,7.6,7.6"/>
										<path class="st0" d="M1778.9,1706.2l1.1-0.6l1.7-1.7v11.7"/>
										<path class="st0" d="M1789.5,1703.9c-4.9,1.2-4.7,12.4,1.1,11.7C1795.6,1715,1795.2,1703.2,1789.5,1703.9"/>
										<path class="st0" d="M1801.9,1703.9c-4.9,1.2-4.7,12.4,1.1,11.7C1808,1715,1807.6,1703.2,1801.9,1703.9"/>
										<path class="st0" d="M1766.9,1709.7v-7.3"/>
									</g>
								</g>
							</g>
						</g>
					</g>
				</g>
			</g>
		</g>
	</g>
</g>
</svg>
