<svg width="96" height="96" viewBox="0 0 96 96" fill="none" xmlns="http://www.w3.org/2000/svg">
<rect width="96" height="96" fill="white"/>
<g clip-path="url(#clip0_181_25968)">
<path d="M36.5039 50.6118C36.5039 44.2457 41.4204 39.0908 47.4882 39.0908C53.556 39.0908 58.4725 44.2457 58.4725 50.6118V62.1327H36.5039V50.6118Z" stroke="#5F249F" stroke-width="2" stroke-miterlimit="10"/>
<path d="M66.4706 89.3667C66.4706 90.5157 65.5682 91.4784 64.4791 91.4784H30.5305C29.4415 91.4784 28.5391 90.5468 28.5391 89.3667V64.2132C28.5391 63.0642 29.4415 62.1016 30.5305 62.1016H64.4791C65.5682 62.1016 66.4706 63.0332 66.4706 64.2132V89.3667Z" stroke="#5F249F" stroke-width="2" stroke-miterlimit="10"/>
<path d="M74.4679 64.2132H78.4508C87.288 64.2132 94.4449 56.6982 94.4449 47.4442C94.4449 38.1902 87.288 30.6752 78.4508 30.6752C77.7663 30.6752 77.0817 30.7373 76.4282 30.8305C76.4282 30.6131 76.4594 30.3957 76.4594 30.1473C76.4594 23.5018 71.3251 18.0984 64.9772 18.0984C63.3902 18.0984 61.8655 18.44 60.4964 19.0611C57.0424 11.0803 49.3876 5.55273 40.5193 5.55273C28.3837 5.55273 18.5507 15.8626 18.5507 28.5946C18.5507 29.3088 18.5819 29.992 18.6441 30.7063C18.613 30.7063 18.5819 30.7063 18.5507 30.7063C9.71354 30.7063 2.55664 38.2213 2.55664 47.4753C2.55664 56.7293 9.71354 64.2443 18.5507 64.2443H20.5422" stroke="#5F249F" stroke-width="2" stroke-miterlimit="10"/>
</g>
<defs>
<clipPath id="clip0_181_25968">
<rect width="95" height="89" fill="white" transform="translate(1 4)"/>
</clipPath>
</defs>
</svg>
