<svg width="96" height="96" viewBox="0 0 96 96" fill="none" xmlns="http://www.w3.org/2000/svg">
<rect width="96" height="96" fill="white"/>
<g clip-path="url(#clip0_181_25967)">
<path d="M46.9515 54.3056C49.8545 54.3056 52.2078 51.9578 52.2078 49.0616C52.2078 46.1654 49.8545 43.8176 46.9515 43.8176C44.0486 43.8176 41.6953 46.1654 41.6953 49.0616C41.6953 51.9578 44.0486 54.3056 46.9515 54.3056Z" stroke="#5F249F" stroke-width="2" stroke-miterlimit="10"/>
<path d="M46.9524 77.9197V86.1556H26.3145" stroke="#5F249F" stroke-width="2" stroke-linejoin="round"/>
<path d="M20.1224 49.0296H11.8672V30.4666" stroke="#5F249F" stroke-width="2" stroke-linejoin="round"/>
<path d="M73.8145 49.0295H82.0696V65.5336" stroke="#5F249F" stroke-width="2" stroke-linejoin="round"/>
<path d="M20.1236 13.9946H3.61328V30.4986H20.1236V13.9946Z" stroke="#5F249F" stroke-width="2" stroke-linejoin="round"/>
<path d="M9.80469 84.0966L26.315 94.3915V73.7695L9.80469 84.0966Z" stroke="#5F249F" stroke-width="2" stroke-linejoin="round"/>
<path d="M82.0554 65.5684L71.7207 75.8682L82.0446 86.1787L92.3792 75.879L82.0554 65.5684Z" stroke="#5F249F" stroke-width="2" stroke-linejoin="round"/>
<path d="M61.43 9.84448H46.9512V20.1716" stroke="#5F249F" stroke-width="2" stroke-linejoin="round"/>
<path d="M69.6868 18.0805C74.246 18.0805 77.942 14.3931 77.942 9.84457C77.942 5.29599 74.246 1.60864 69.6868 1.60864C65.1276 1.60864 61.4316 5.29599 61.4316 9.84457C61.4316 14.3931 65.1276 18.0805 69.6868 18.0805Z" stroke="#5F249F" stroke-width="2" stroke-linejoin="round"/>
<path d="M71.3949 43.528L68.8151 36.8042L62.398 38.7023C61.2049 36.9329 59.7538 35.4208 58.1092 34.1983L60.3342 27.8926L53.7559 24.965L50.5635 30.8524C48.5319 30.4664 46.4359 30.3699 44.3398 30.6916L41.4699 24.6433L34.7303 27.217L36.6328 33.6192C34.8593 34.8095 33.3437 36.2573 32.1183 37.898L25.7979 35.6782L22.8635 42.2412L28.7324 45.4262C28.3454 47.453 28.2809 49.5441 28.5712 51.6353L22.541 54.5307L25.1208 61.2546L31.5379 59.3564C32.731 61.1259 34.1821 62.6379 35.8267 63.8605L33.6017 70.1661L40.18 73.0937L43.3724 67.2063C45.404 67.5924 47.5 67.6889 49.596 67.3672L52.466 73.4154L59.2056 70.8417L57.303 64.4396C59.0766 63.2492 60.5922 61.8015 61.8176 60.1607L68.1379 62.3806L71.0724 55.7854L65.2035 52.6004C65.5904 50.5736 65.6872 48.4825 65.3647 46.3913L71.3949 43.4959V43.528Z" stroke="#5F249F" stroke-width="2" stroke-linejoin="round"/>
</g>
<defs>
<clipPath id="clip0_181_25967">
<rect width="92" height="96" fill="white" transform="translate(2)"/>
</clipPath>
</defs>
</svg>
