<?xml version="1.0" encoding="UTF-8"?>
<svg xmlns="http://www.w3.org/2000/svg" xmlns:xlink="http://www.w3.org/1999/xlink" width="96px" height="96px" viewBox="0 0 96 96" version="1.1">
<g id="surface1">
<path style="fill:none;stroke-width:1.5;stroke-linecap:round;stroke-linejoin:round;stroke:rgb(100%,100%,100%);stroke-opacity:1;stroke-miterlimit:4;" d="M 42.101562 81 C 36.699219 84.898438 31.898438 87.601562 31.199219 87.699219 C 29.699219 87.300781 4.601562 72.601562 4.601562 62.601562 L 4.601562 34.5 C 12.101562 34.5 28.601562 27.800781 31.199219 24.199219 C 33.800781 27.800781 50.300781 34.5 57.800781 34.5 L 57.800781 49.898438 "/>
<path style="fill:none;stroke-width:1.5;stroke-linecap:round;stroke-linejoin:round;stroke:rgb(100%,100%,100%);stroke-opacity:1;stroke-miterlimit:4;" d="M 20.300781 39.5 C 25.101562 37.898438 30.101562 35.601562 31.300781 34 C 33.101562 36.5 44.699219 41.101562 50 41.101562 L 50 55.699219 "/>
<path style="fill:none;stroke-width:1.5;stroke-linecap:round;stroke-linejoin:round;stroke:rgb(100%,100%,100%);stroke-opacity:1;stroke-miterlimit:4;" d="M 40.101562 72 C 35.898438 75.101562 31.699219 77.300781 31.199219 77.398438 C 30.101562 77.101562 12.5 67.101562 12.5 60.300781 L 12.5 46.101562 "/>
<path style="fill:none;stroke-width:1.5;stroke-linecap:round;stroke-linejoin:round;stroke:rgb(100%,100%,100%);stroke-opacity:1;stroke-miterlimit:4;" d="M 69.699219 30.101562 L 69.699219 22.199219 L 77.601562 22.199219 L 63.800781 2.5 L 50 22.199219 L 57.898438 22.199219 L 57.898438 26.101562 "/>
<path style="fill:none;stroke-width:1.5;stroke-linecap:round;stroke-linejoin:round;stroke:rgb(100%,100%,100%);stroke-opacity:1;stroke-miterlimit:4;" d="M 83.5 73.5 L 83.5 51.800781 L 91.398438 51.800781 L 77.601562 32.101562 L 63.800781 51.800781 L 71.699219 51.800781 L 71.699219 61.699219 "/>
<path style="fill:none;stroke-width:1.5;stroke-linecap:round;stroke-linejoin:round;stroke:rgb(100%,100%,100%);stroke-opacity:1;stroke-miterlimit:4;" d="M 51.898438 93.199219 L 51.898438 75.5 L 46 75.5 L 57.800781 57.800781 L 69.601562 75.5 L 63.699219 75.5 L 63.699219 83.398438 "/>
</g>
</svg>
