<?xml version="1.0" encoding="UTF-8"?>
<svg xmlns="http://www.w3.org/2000/svg" xmlns:xlink="http://www.w3.org/1999/xlink" width="96px" height="96px" viewBox="0 0 96 96" version="1.1">
<g id="surface1">
<path style="fill:none;stroke-width:1.5;stroke-linecap:butt;stroke-linejoin:round;stroke:rgb(100%,100%,100%);stroke-opacity:1;stroke-miterlimit:4;" d="M 57.800781 48.101562 C 57.800781 50 57.199219 51.898438 56.199219 53.5 C 55.101562 55.101562 53.601562 56.300781 51.800781 57.101562 C 50 57.800781 48.101562 58 46.199219 57.699219 C 44.300781 57.300781 42.601562 56.398438 41.199219 55 C 39.800781 53.601562 38.898438 51.898438 38.5 50 C 38.101562 48.101562 38.300781 46.199219 39.101562 44.398438 C 39.800781 42.601562 41.101562 41.101562 42.699219 40 C 44.300781 38.898438 46.199219 38.398438 48.101562 38.398438 C 50 38.398438 53.199219 39.398438 55 41.199219 C 56.800781 43 57.898438 45.5 57.898438 48.101562 Z M 57.800781 48.101562 "/>
<path style="fill:none;stroke-width:1.5;stroke-linecap:round;stroke-linejoin:round;stroke:rgb(100%,100%,100%);stroke-opacity:1;stroke-miterlimit:4;" d="M 32.300781 28.699219 C 30.601562 30.101562 29 31.699219 27.699219 33.5 L 21.898438 31.601562 L 18 41 L 23.398438 43.699219 C 23 46.398438 23 49.101562 23.398438 51.699219 L 18 54.398438 L 21.898438 63.800781 L 27.699219 61.898438 C 29.300781 64.101562 31.199219 66 33.398438 67.601562 L 31.5 73.300781 L 40.898438 77.199219 L 43.601562 71.800781 C 47.199219 73.101562 56.101562 73.300781 59.699219 73.300781 L 79.199219 73.300781 L 79.199219 69.398438 L 92.800781 79.101562 L 79.199219 90.800781 L 79.199219 86.898438 L 46.101562 86.898438 "/>
<path style="fill:none;stroke-width:1.5;stroke-linecap:round;stroke-linejoin:round;stroke:rgb(100%,100%,100%);stroke-opacity:1;stroke-miterlimit:4;" d="M 63.800781 67.601562 C 65.5 66.199219 67.101562 64.601562 68.398438 62.800781 L 74.101562 64.699219 L 78 55.300781 L 72.601562 52.601562 C 73 49.898438 73 47.199219 72.601562 44.601562 L 78 41.898438 L 74.101562 32.5 L 68.398438 34.398438 C 66.800781 32.199219 64.898438 30.300781 62.699219 28.699219 L 64.601562 23 L 55.199219 19.101562 L 52.5 24.5 C 48.898438 23.199219 40 23 36.398438 23 L 16.898438 23 L 16.898438 26.898438 L 3.300781 17.101562 L 16.898438 5.398438 L 16.898438 9.300781 L 50 9.300781 "/>
<path style="fill:none;stroke-width:1.5;stroke-linecap:round;stroke-linejoin:round;stroke:rgb(100%,100%,100%);stroke-opacity:1;stroke-miterlimit:4;" d="M 43.398438 86.800781 C 16.199219 84.5 4.800781 59.898438 8.699219 42.398438 "/>
<path style="fill:none;stroke-width:1.5;stroke-linecap:round;stroke-linejoin:round;stroke:rgb(100%,100%,100%);stroke-opacity:1;stroke-miterlimit:4;" d="M 52.601562 9.199219 C 79.800781 11.5 91.199219 36.101562 87.300781 53.601562 "/>
</g>
</svg>
