<svg width="96" height="96" viewBox="0 0 96 96" fill="none" xmlns="http://www.w3.org/2000/svg">
<path d="M27.55 14.48C17.64 19.98 10.57 29.4 8.87 40.41" stroke="white" stroke-width="1.5" stroke-miterlimit="10"/>
<path d="M68.7 14.48C78.61 19.98 85.68 29.4 87.38 40.41" stroke="white" stroke-width="1.5" stroke-miterlimit="10"/>
<path d="M30.58 84.8999C35.85 87.6899 41.82 89.2599 48.14 89.2599C54.46 89.2599 60.42 87.6899 65.7 84.8999" stroke="white" stroke-width="1.5" stroke-miterlimit="10"/>
<path d="M20.09 64.96C14.2 64.96 7 68.9 7 71.62V78.05C11.47 81.06 15.39 81.79 20.09 81.79C24.79 81.79 28.71 81.06 33.18 78.05V71.62C33.18 68.93 25.98 64.96 20.09 64.96Z" stroke="white" stroke-width="1.5" stroke-miterlimit="10"/>
<path d="M20.09 46.2598C16.22 46.2598 12.61 49.2698 12.61 52.9898V58.2198C12.61 61.9398 16.22 64.9498 20.09 64.9498C23.96 64.9498 27.57 61.9398 27.57 58.2198V52.9898C27.57 49.2698 23.96 46.2598 20.09 46.2598Z" stroke="white" stroke-width="1.5" stroke-miterlimit="10"/>
<path d="M48.13 25.7002C42.24 25.7002 35.04 29.6402 35.04 32.3602V38.7902C38.78 41.8002 43.43 42.5302 48.13 42.5302C52.83 42.5302 57.48 41.8002 61.22 38.7902V32.3602C61.22 29.6702 54.02 25.7002 48.13 25.7002Z" stroke="white" stroke-width="1.5" stroke-miterlimit="10"/>
<path d="M48.13 7C44.26 7 40.65 10.01 40.65 13.73V18.96C40.65 22.68 44.26 25.69 48.13 25.69C52 25.69 55.61 22.68 55.61 18.96V13.73C55.61 10.01 52 7 48.13 7Z" stroke="white" stroke-width="1.5" stroke-miterlimit="10"/>
<path d="M76.17 64.96C70.28 64.96 63.08 68.9 63.08 71.62V78.05C67.55 81.06 71.47 81.79 76.17 81.79C80.87 81.79 84.79 81.06 89.26 78.05V71.62C89.26 68.93 82.06 64.96 76.17 64.96Z" stroke="white" stroke-width="1.5" stroke-miterlimit="10"/>
<path d="M76.1699 46.2598C72.2999 46.2598 68.6899 49.2698 68.6899 52.9898V58.2198C68.6899 61.9398 72.2999 64.9498 76.1699 64.9498C80.0399 64.9498 83.6499 61.9398 83.6499 58.2198V52.9898C83.6499 49.2698 80.0399 46.2598 76.1699 46.2598Z" stroke="white" stroke-width="1.5" stroke-miterlimit="10"/>
</svg>
