<svg width="96" height="96" viewBox="0 0 96 96" fill="none" xmlns="http://www.w3.org/2000/svg">
<path d="M63.002 20.5698H60.562" stroke="white" stroke-width="1.5" stroke-linejoin="round"/>
<path d="M56.4719 20.5698H42.1221" stroke="white" stroke-width="1.5" stroke-linejoin="round"/>
<path d="M40.072 20.5698H37.6318" stroke="white" stroke-width="1.5" stroke-linejoin="round"/>
<path d="M19.3621 13.2298H63.002V6.75977L72.8721 16.6198L63.002 26.4898V20.5698" stroke="white" stroke-width="1.5" stroke-linejoin="round"/>
<path d="M82.9819 48.63V42.71L92.842 52.57L82.9819 62.44V56.52H69.1819" stroke="white" stroke-width="1.5" stroke-linejoin="round"/>
<path d="M71.9519 48.6299H74.3918" stroke="white" stroke-width="1.5" stroke-linejoin="round"/>
<path d="M80.542 48.6299H82.9819" stroke="white" stroke-width="1.5" stroke-linejoin="round"/>
<path d="M69.032 76.7099V70.3599L78.8918 80.2299L69.032 90.0899V84.1699H14.022" stroke="white" stroke-width="1.5" stroke-linejoin="round"/>
<path d="M58.3721 76.71H60.812" stroke="white" stroke-width="1.5" stroke-linejoin="round"/>
<path d="M66.7419 76.71H69.1819" stroke="white" stroke-width="1.5" stroke-linejoin="round"/>
<path d="M3.16187 72.0298H5.60205" stroke="white" stroke-width="1.5" stroke-linejoin="round"/>
<path d="M10.1519 72.0298H16.9619" stroke="white" stroke-width="1.5" stroke-linejoin="round"/>
<path d="M19.2419 72.0298H21.6819" stroke="white" stroke-width="1.5" stroke-linejoin="round"/>
<path d="M46.2419 50.65C46.2419 53.92 43.592 56.57 40.322 56.57C37.052 56.57 34.4019 53.92 34.4019 50.65C34.4019 47.38 37.052 44.73 40.322 44.73C43.602 44.73 46.2419 47.38 46.2419 50.65Z" stroke="white" stroke-width="1.5" stroke-miterlimit="10"/>
<path d="M63.6619 45.3696L61.1919 38.9496L55.062 40.7596C53.932 39.0696 52.5319 37.6296 50.9719 36.4496L53.1121 30.4196L46.822 27.6196L43.772 33.2396C41.842 32.8596 39.832 32.7896 37.822 33.0796L35.072 27.3096L28.6519 29.7796L30.4619 35.9096C28.7819 37.0396 27.3319 38.4296 26.1519 39.9996L20.1221 37.8696L17.322 44.1596L22.9419 47.2096C22.5619 49.1396 22.492 51.1496 22.782 53.1596L17.012 55.9096L19.4819 62.3296L25.6121 60.5196C26.7421 62.2096 28.1319 63.6496 29.7019 64.8296L27.562 70.8596L33.8521 73.6596L36.9019 68.0396C38.8319 68.4196 40.8421 68.4896 42.8521 68.1996L45.6021 73.9696L52.032 71.4996L50.2219 65.3696C51.9119 64.2396 53.352 62.8496 54.532 61.2796L60.562 63.4096L63.3621 57.1196L57.7419 54.0696C58.1219 52.1396 58.1919 50.1296 57.9019 48.1196L63.6619 45.3696Z" stroke="white" stroke-width="1.5" stroke-linejoin="round"/>
<path d="M21.6819 30.8896H19.2419" stroke="white" stroke-width="1.5" stroke-linejoin="round"/>
<path d="M15.092 30.8896H8.85205" stroke="white" stroke-width="1.5" stroke-linejoin="round"/>
<path d="M6.78198 30.8896H4.34204" stroke="white" stroke-width="1.5" stroke-linejoin="round"/>
</svg>
