<svg width="96" height="96" viewBox="0 0 96 96" fill="none" xmlns="http://www.w3.org/2000/svg">
<path d="M47.721 54.8302C51.001 54.8302 53.6509 52.1703 53.6509 48.9003C53.6509 45.6203 50.991 42.9702 47.721 42.9702C44.451 42.9702 41.791 45.6303 41.791 48.9003C41.781 52.1803 44.441 54.8302 47.721 54.8302Z" stroke="white" stroke-width="1.5" stroke-miterlimit="10"/>
<path d="M71.061 43.6401L68.571 37.2301L62.4509 39.0502C61.3009 37.4202 59.9611 35.8901 58.3411 34.7501L60.4509 28.7201L54.1409 25.9401L51.0811 31.5901C49.1711 31.2101 47.1609 31.1101 45.1509 31.4001L42.3809 25.6602L35.9709 28.1501L37.791 34.2701C36.171 35.4201 34.631 36.7601 33.491 38.3801L27.4609 36.2802L24.6909 42.5901L30.3411 45.6501C29.9611 47.5601 29.8609 49.5701 30.1509 51.5801L24.4109 54.3501L26.9009 60.7601L33.021 58.9401C34.171 60.5701 35.5109 62.0001 37.1309 63.2401L35.021 69.2701L41.3311 72.0402L44.3909 66.4001C46.3009 66.7801 48.311 66.8801 50.321 66.5901L53.0911 72.3301L59.501 69.8401L57.6809 63.7201C59.3009 62.5701 60.741 61.2301 61.981 59.6101L68.011 61.7101L70.781 55.4001L65.1409 52.3401C65.5209 50.4301 65.6211 48.4202 65.3311 46.4102L71.061 43.6401Z" stroke="white" stroke-width="1.5" stroke-miterlimit="10"/>
<path d="M69.4309 19.3401C73.7609 19.3401 77.271 15.8301 77.271 11.5001C77.271 7.17012 73.7609 3.66016 69.4309 3.66016C65.1009 3.66016 61.5911 7.17012 61.5911 11.5001C61.5911 15.8301 65.1009 19.3401 69.4309 19.3401Z" stroke="white" stroke-width="1.5" stroke-miterlimit="10"/>
<path d="M61.491 11.5H47.7109V21.35" stroke="white" stroke-width="1.5" stroke-miterlimit="10"/>
<path d="M81.2009 64.6702L71.321 74.5502L81.2009 84.4302L91.0811 74.5502L81.2009 64.6702Z" stroke="white" stroke-width="1.5" stroke-miterlimit="10"/>
<path d="M12.321 82.3903L28.1011 92.2402V72.5303L12.321 82.3903Z" stroke="white" stroke-width="1.5" stroke-miterlimit="10"/>
<path d="M22.1709 15.52H6.39087V31.3H22.1709V15.52Z" stroke="white" stroke-width="1.5" stroke-miterlimit="10"/>
<path d="M73.3511 48.9001H81.2009V64.6802" stroke="white" stroke-width="1.5" stroke-miterlimit="10"/>
<path d="M22.1709 48.9003H14.3311V31.2002" stroke="white" stroke-width="1.5" stroke-miterlimit="10"/>
<path d="M47.7209 76.4502V84.2903H28.011" stroke="white" stroke-width="1.5" stroke-miterlimit="10"/>
</svg>
