<svg width="96" height="96" viewBox="0 0 96 96" fill="none" xmlns="http://www.w3.org/2000/svg">
<path d="M69.488 18.52C73.978 18.52 77.618 14.88 77.618 10.39C77.618 5.90001 73.978 2.26001 69.488 2.26001C64.998 2.26001 61.358 5.90001 61.358 10.39C61.358 14.88 64.998 18.52 69.488 18.52Z" stroke="white" stroke-width="1.5" stroke-miterlimit="10"/>
<path d="M61.358 10.39H47.1281V20.5601" stroke="white" stroke-width="1.5" stroke-miterlimit="10"/>
<path d="M81.688 65.28L71.5181 75.45L81.688 85.61L91.858 75.45L81.688 65.28Z" stroke="white" stroke-width="1.5" stroke-miterlimit="10"/>
<path d="M10.5281 83.5798L26.7881 93.7399V73.4199L10.5281 83.5798Z" stroke="white" stroke-width="1.5" stroke-miterlimit="10"/>
<path d="M4.4281 30.72H20.698V14.45H4.4281V30.72Z" stroke="white" stroke-width="1.5" stroke-miterlimit="10"/>
<path d="M73.5581 49.02H81.688V65.29" stroke="white" stroke-width="1.5" stroke-miterlimit="10"/>
<path d="M20.698 49.02H12.568V30.72" stroke="white" stroke-width="1.5" stroke-miterlimit="10"/>
<path d="M47.1281 77.48V85.61H26.7881" stroke="white" stroke-width="1.5" stroke-miterlimit="10"/>
<path d="M47.1281 47.9398C47.7181 47.9598 48.308 47.8499 48.858 47.6299C49.408 47.4099 49.908 47.0799 50.328 46.6599C50.748 46.2399 51.0781 45.7398 51.2981 45.1898C51.5181 44.6398 51.618 44.0498 51.608 43.4598V41.2299C51.628 40.6399 51.5181 40.0499 51.2981 39.4999C51.0781 38.9499 50.748 38.4499 50.328 38.0299C49.908 37.6099 49.408 37.2799 48.858 37.0599C48.308 36.8399 47.7181 36.7399 47.1281 36.7499C46.5381 36.7299 45.9481 36.8399 45.3981 37.0499C44.8481 37.2699 44.3481 37.5999 43.9281 38.0199C43.5081 38.4399 43.178 38.9399 42.958 39.4899C42.738 40.0399 42.6381 40.6299 42.6481 41.2199V43.4498C42.6281 44.0398 42.738 44.6299 42.958 45.1799C43.178 45.7299 43.5081 46.2299 43.9281 46.6499C44.3481 47.0699 44.8481 47.3999 45.3981 47.6199C45.9381 47.8599 46.5381 47.9598 47.1281 47.9398Z" stroke="white" stroke-width="1.5" stroke-miterlimit="10"/>
<path d="M56.068 60.1101V56.3801C56.068 53.0401 50.128 51.1602 47.118 51.1602C44.108 51.1602 38.1681 53.0401 38.1681 56.3801V60.1101" stroke="white" stroke-width="1.5" stroke-miterlimit="10"/>
<path d="M47.1281 67.83C57.5181 67.83 65.938 59.41 65.938 49.02C65.938 38.63 57.5181 30.21 47.1281 30.21C36.7381 30.21 28.318 38.63 28.318 49.02C28.308 59.41 36.7281 67.83 47.1281 67.83Z" stroke="white" stroke-width="1.5" stroke-miterlimit="10"/>
</svg>
