<svg width="96" height="96" viewBox="0 0 96 96" fill="none" xmlns="http://www.w3.org/2000/svg">
<path d="M27.01 73.6602H15.1699V85.5001" stroke="white" stroke-width="1.5" stroke-miterlimit="10"/>
<path d="M86.4399 31.1602C88.8699 36.4402 90.1399 42.1801 90.1699 48.0001C90.1599 53.4701 89.08 58.8802 86.97 63.9202C84.86 68.9702 81.7799 73.5501 77.8999 77.3901C70.1299 85.0801 59.65 89.4101 48.72 89.4401C37.14 89.5501 28.6701 86.0201 21.0901 79.5701C19.7501 78.4301 15.1699 73.6501 15.1699 73.6501" stroke="white" stroke-width="1.5" stroke-miterlimit="10"/>
<path d="M11 64.84C8.57 59.55 7.30002 53.8101 7.27002 48.0001C7.28002 42.5301 8.35997 37.12 10.47 32.07C12.58 27.03 15.66 22.45 19.54 18.6C27.31 10.91 37.79 6.5801 48.72 6.5501C60.3 6.4401 68.7701 9.97009 76.3501 16.4101C77.6901 17.5501 82.27 22.34 82.27 22.34" stroke="white" stroke-width="1.5" stroke-miterlimit="10"/>
<path d="M70.4299 22.35H82.27V10.51" stroke="white" stroke-width="1.5" stroke-miterlimit="10"/>
<path d="M28.98 46.03L44.77 34.1899L52.6699 42.08L68.46 30.24" stroke="white" stroke-width="1.5" stroke-miterlimit="10"/>
<path d="M28.98 53.9199V65.7599" stroke="white" stroke-width="1.5" stroke-miterlimit="10"/>
<path d="M36.8799 49.98V65.77" stroke="white" stroke-width="1.5" stroke-miterlimit="10"/>
<path d="M44.77 44.0601V65.77" stroke="white" stroke-width="1.5" stroke-miterlimit="10"/>
<path d="M52.6699 49.98V65.77" stroke="white" stroke-width="1.5" stroke-miterlimit="10"/>
<path d="M60.5601 46.03V65.77" stroke="white" stroke-width="1.5" stroke-miterlimit="10"/>
<path d="M68.45 40.1099V65.7699" stroke="white" stroke-width="1.5" stroke-miterlimit="10"/>
</svg>
