<svg width="96" height="96" viewBox="0 0 96 96" fill="none" xmlns="http://www.w3.org/2000/svg">
<path d="M37.8301 83.3C48.5201 83.3 57.1799 75.0701 57.1799 64.9301C57.1799 54.7801 48.5201 46.5601 37.8301 46.5601C27.1401 46.5601 18.48 54.7901 18.48 64.9301C18.48 75.0801 27.1501 83.3 37.8301 83.3Z" stroke="white" stroke-width="1.5" stroke-miterlimit="10"/>
<path d="M51.6699 77.79L64.9199 91.04" stroke="white" stroke-width="1.5" stroke-linecap="round" stroke-linejoin="round"/>
<path d="M8.81006 40.7499C12.0201 40.7499 14.6201 38.1498 14.6201 34.9498C14.6201 31.7398 12.0201 29.1499 8.81006 29.1499C5.60006 29.1499 3 31.7498 3 34.9498C3 38.1498 5.60006 40.7499 8.81006 40.7499Z" stroke="white" stroke-width="1.5" stroke-miterlimit="10"/>
<path d="M33.97 21.4098C37.18 21.4098 39.78 18.8097 39.78 15.5997C39.78 12.3997 37.18 9.7998 33.97 9.7998C30.76 9.7998 28.1599 12.3997 28.1599 15.5997C28.1599 18.8097 30.76 21.4098 33.97 21.4098Z" stroke="white" stroke-width="1.5" stroke-miterlimit="10"/>
<path d="M62.99 36.8802C66.2 36.8802 68.8 34.2802 68.8 31.0802C68.8 27.8702 66.2 25.2803 62.99 25.2803C59.78 25.2803 57.1799 27.8802 57.1799 31.0802C57.1899 34.2802 59.79 36.8802 62.99 36.8802Z" stroke="white" stroke-width="1.5" stroke-miterlimit="10"/>
<path d="M86.21 17.54C89.42 17.54 92.02 14.94 92.02 11.74C92.02 8.53999 89.42 5.93994 86.21 5.93994C83 5.93994 80.3999 8.53999 80.3999 11.74C80.4099 14.94 83.01 17.54 86.21 17.54Z" stroke="white" stroke-width="1.5" stroke-miterlimit="10"/>
<path d="M13.3999 31.4099L29.3701 19.1499" stroke="white" stroke-width="1.5" stroke-miterlimit="10"/>
<path d="M39.0901 18.3301L57.8601 28.3501" stroke="white" stroke-width="1.5" stroke-miterlimit="10"/>
<path d="M67.4399 27.37L81.76 15.46" stroke="white" stroke-width="1.5" stroke-miterlimit="10"/>
<path d="M8.81006 48.4902V73.6302" stroke="white" stroke-width="1.5" stroke-miterlimit="10" stroke-linecap="round"/>
<path d="M18.48 42.6899V48.49" stroke="white" stroke-width="1.5" stroke-miterlimit="10" stroke-linecap="round"/>
<path d="M28.1599 31.0801V40.7501" stroke="white" stroke-width="1.5" stroke-miterlimit="10" stroke-linecap="round"/>
<path d="M37.8301 31.0801V38.8201" stroke="white" stroke-width="1.5" stroke-miterlimit="10" stroke-linecap="round"/>
<path d="M47.51 36.8799V40.7499" stroke="white" stroke-width="1.5" stroke-miterlimit="10" stroke-linecap="round"/>
<path d="M57.1899 42.6899V48.49" stroke="white" stroke-width="1.5" stroke-miterlimit="10" stroke-linecap="round"/>
<path d="M66.8601 44.6201V73.6301" stroke="white" stroke-width="1.5" stroke-miterlimit="10" stroke-linecap="round"/>
<path d="M76.54 34.9502V73.6302" stroke="white" stroke-width="1.5" stroke-miterlimit="10" stroke-linecap="round"/>
<path d="M86.21 27.21V73.63" stroke="white" stroke-width="1.5" stroke-miterlimit="10" stroke-linecap="round"/>
</svg>
