<svg width="96" height="96" viewBox="0 0 96 96" fill="none" xmlns="http://www.w3.org/2000/svg">
<path d="M21.41 60.8799C16.73 60.8799 13.22 56.9499 13.22 52.1099V49.1899C13.22 44.3499 16.72 40.4199 21.41 40.4199C26.1 40.4199 29.6 44.3499 29.6 49.1899V52.1099C29.59 56.9499 26.09 60.8799 21.41 60.8799Z" stroke="white" stroke-width="1.5" stroke-miterlimit="10" stroke-linecap="round"/>
<path d="M7.08997 75.1996V69.0596C7.08997 63.4496 16.31 60.8696 21.41 60.8696C26.5 60.8696 35.73 63.3996 35.73 69.0096V75.1996" stroke="white" stroke-width="1.5" stroke-miterlimit="10" stroke-linecap="round"/>
<path d="M17.3199 24.0498C12.6399 24.0498 9.13 20.1198 9.13 15.2798V12.3598C9.13 7.5198 12.6299 3.58984 17.3199 3.58984C22.0099 3.58984 25.51 7.5198 25.51 12.3598V15.2798C25.5 20.1198 21.9999 24.0498 17.3199 24.0498Z" stroke="white" stroke-width="1.5" stroke-miterlimit="10" stroke-linecap="round"/>
<path d="M3 38.3701V32.23C3 26.62 12.2199 24.04 17.3199 24.04C22.4099 24.04 31.64 26.5701 31.64 32.1801" stroke="white" stroke-width="1.5" stroke-miterlimit="10" stroke-linecap="round"/>
<path d="M50.05 36.3297C54.73 36.3297 58.24 32.3996 58.24 27.5596V24.6396C58.24 19.7996 54.74 15.8696 50.05 15.8696C45.36 15.8696 41.86 19.7996 41.86 24.6396V27.5596C41.87 32.3996 45.37 36.3297 50.05 36.3297Z" stroke="white" stroke-width="1.5" stroke-miterlimit="10" stroke-linecap="round"/>
<path d="M50.05 36.3198C44.95 36.3198 35.73 38.8498 35.73 44.4598" stroke="white" stroke-width="1.5" stroke-miterlimit="10" stroke-linecap="round"/>
<path d="M50.05 36.3198C55.15 36.3198 64.37 38.8498 64.37 44.4598" stroke="white" stroke-width="1.5" stroke-miterlimit="10" stroke-linecap="round"/>
<path d="M74.6 46.5498V28.1398H66.41L79.96 3.58984L93 28.1398H84.8101V81.3298" stroke="white" stroke-width="1.5" stroke-linecap="round" stroke-linejoin="round" stroke-dasharray="3.9 3.9"/>
<path d="M52.09 81.3298V73.1398H43.9L57.45 48.5898L70.49 73.1398H62.3V91.5498" stroke="white" stroke-width="1.5" stroke-linecap="round" stroke-linejoin="round" stroke-dasharray="3.9 3.9"/>
</svg>
