<svg width="96" height="96" viewBox="0 0 96 96" fill="none" xmlns="http://www.w3.org/2000/svg">
<path d="M25.68 29.33C30.11 29.33 33.4 25.56 33.4 21.04V18.3101C33.4 13.7001 30.1 10.02 25.68 10.02C21.25 10.02 17.96 13.7901 17.96 18.3101V21.04C17.86 25.57 21.25 29.33 25.68 29.33Z" stroke="white" stroke-width="1.5" stroke-miterlimit="10"/>
<path d="M25.6801 61.35L19.0901 60.03C17.2101 59.75 15.9801 59.37 14.2901 56.73L12.5901 53.0601C11.0801 49.8601 10.05 48.4501 10.05 45.8101C10.05 40.3501 12.8701 34.98 19.0001 34.98H30.2101C33.7901 35.17 35.9501 35.74 37.9301 38.09C39.9101 40.44 41.7001 42.7 41.7001 42.7" stroke="white" stroke-width="1.5" stroke-miterlimit="10"/>
<path d="M19.3701 45.3398L21.1601 49.7699C21.6301 51.2799 22.8501 52.4099 24.3601 52.7899L28.8801 54.3899" stroke="white" stroke-width="1.5" stroke-miterlimit="10"/>
<path d="M46.11 58.4301H39.24C38.86 53.8201 42.91 50.71 42.91 50.71H49.03C50.07 50.8 50.91 51.65 50.82 52.78C50.82 53.06 50.73 53.34 50.63 53.53L49.31 56.35C48.85 57.59 47.53 58.4301 46.11 58.4301Z" stroke="white" stroke-width="1.5" stroke-miterlimit="10"/>
<path d="M48.1901 50.6199L50.7301 45.4398C51.2001 44.5898 50.8201 43.4598 49.9801 43.0898C49.7001 42.9898 49.5101 42.8999 49.2301 42.8999H35.5701C34.9101 42.8999 34.2501 43.2698 33.9701 43.8398L25.2101 61.6399C24.7401 62.4899 25.1201 63.6199 26.0601 63.9899C26.3401 64.0899 26.5301 64.1799 26.8101 64.1799H40.3701C41.0301 64.1799 41.6901 63.8099 41.9701 63.2399L44.3201 58.4398" stroke="white" stroke-width="1.5" stroke-miterlimit="10"/>
<path d="M17.8601 59.8501V93.3701" stroke="white" stroke-width="1.5" stroke-miterlimit="10"/>
<path d="M27.66 71.99V93.37" stroke="white" stroke-width="1.5" stroke-miterlimit="10"/>
<path d="M37.3601 64.27V93.37" stroke="white" stroke-width="1.5" stroke-miterlimit="10"/>
<path d="M41.2201 27.36V4.09998H76.1601" stroke="white" stroke-width="1.5" stroke-miterlimit="10"/>
<path d="M85.86 19.6401V50.7201H56.76" stroke="white" stroke-width="1.5" stroke-miterlimit="10"/>
<path d="M50.92 27.36L60.62 39.04L83.88 7.95996" stroke="white" stroke-width="1.5" stroke-miterlimit="10"/>
</svg>
