<svg width="96" height="96" viewBox="0 0 96 96" fill="none" xmlns="http://www.w3.org/2000/svg">
<path d="M37.4501 88.3999L43.33 77.1799H52.2501L57.3401 88.3399" stroke="white" stroke-width="1.5" stroke-linecap="round" stroke-linejoin="round"/>
<path d="M18.3401 28.77H12.9401C12.0301 28.77 11.3 29.5 11.3 30.41V49.76" stroke="white" stroke-width="1.5" stroke-linecap="round" stroke-linejoin="round"/>
<path d="M84.33 39.87V30.41C84.33 29.5 83.6 28.77 82.69 28.77H51.21" stroke="white" stroke-width="1.5" stroke-linecap="round" stroke-linejoin="round"/>
<path d="M11.3 62.01V75.47C11.3 76.38 12.0301 77.11 12.9401 77.11H82.6901C83.6001 77.11 84.33 76.38 84.33 75.47V62.43" stroke="white" stroke-width="1.5" stroke-linecap="round" stroke-linejoin="round"/>
<path d="M11.3 67.5298H83.3501" stroke="white" stroke-width="1.5" stroke-linecap="round" stroke-linejoin="round"/>
<path d="M28.9501 88.7H66.2501" stroke="white" stroke-width="1.5" stroke-linecap="round" stroke-linejoin="round"/>
<path d="M50.6101 8.1499H18.3401V40.3599H50.6101V8.1499Z" stroke="white" stroke-width="1.5" stroke-linecap="round" stroke-linejoin="round"/>
<path d="M47.57 25.0199V23.4399C47.57 22.9499 47.21 22.4699 46.72 22.3499L45.02 21.9299C44.66 21.8099 44.35 21.5699 44.23 21.1999C44.05 20.5899 43.81 19.9899 43.5 19.3799C43.32 19.1399 43.32 18.7099 43.56 18.4099L44.47 16.8899C44.71 16.4699 44.65 15.9199 44.29 15.5599L43.2 14.4699C42.84 14.1099 42.29 14.0499 41.87 14.2899L40.35 15.1999C40.05 15.3799 39.62 15.4399 39.26 15.2599C38.71 14.9599 38.11 14.7099 37.44 14.5299C37.08 14.4099 36.83 14.1099 36.71 13.7399L36.29 12.0399C36.17 11.5499 35.74 11.1899 35.2 11.1899H33.62C33.13 11.1899 32.65 11.5499 32.53 12.0399L32.11 13.7399C31.99 14.0999 31.75 14.4099 31.38 14.5299C30.77 14.7099 30.17 14.9499 29.56 15.2599C29.2 15.4399 28.83 15.4399 28.47 15.1999L26.95 14.2899C26.53 14.0499 25.98 14.1099 25.62 14.4699L24.53 15.5599C24.17 15.9199 24.11 16.4699 24.35 16.8899L25.26 18.4099C25.44 18.7099 25.5 19.1399 25.32 19.4999C25.02 20.0499 24.77 20.6499 24.59 21.3199C24.47 21.6799 24.17 21.9299 23.8 22.0499L22.1 22.4699C21.61 22.5899 21.25 23.0199 21.25 23.5599V25.1399C21.25 25.6299 21.61 26.1099 22.1 26.2299L23.8 26.6499C24.16 26.7699 24.47 27.0099 24.59 27.3799C24.77 27.9899 25.01 28.5899 25.32 29.1999C25.5 29.5599 25.5 29.9299 25.26 30.2899L24.53 31.6199C24.29 32.0399 24.35 32.5899 24.71 32.9499L25.8 34.0399C26.16 34.3999 26.71 34.4599 27.13 34.2199L28.65 33.3099C28.95 33.1299 29.38 33.0699 29.74 33.2499C30.29 33.5499 30.89 33.7999 31.56 33.9799C31.92 34.0999 32.17 34.3999 32.29 34.7699L32.71 36.4699C32.83 36.9499 33.26 37.3199 33.8 37.3199H35.38C35.87 37.3199 36.35 36.9599 36.47 36.4699L36.89 34.7699C37.01 34.4099 37.25 34.0999 37.62 33.9799C38.23 33.7999 38.83 33.5599 39.44 33.2499C39.8 33.0699 40.17 33.0699 40.53 33.3099L42.05 34.2199C42.47 34.4599 43.02 34.3999 43.38 34.0399L44.47 32.9499C44.83 32.5899 44.89 32.0399 44.65 31.6199L43.74 30.0999C43.56 29.7999 43.5 29.3699 43.68 29.0099C43.98 28.4599 44.23 27.8599 44.41 27.1899C44.53 26.8299 44.83 26.5799 45.2 26.4599L46.9 26.0399C47.21 25.9899 47.57 25.5599 47.57 25.0199Z" stroke="white" stroke-width="1.5" stroke-linecap="round" stroke-linejoin="round"/>
<path d="M36.78 26.5898C38.05 25.3198 38.05 23.2498 36.78 21.9798C35.51 20.7098 33.44 20.7098 32.17 21.9798C30.9 23.2498 30.9 25.3198 32.17 26.5898C33.44 27.8598 35.51 27.8598 36.78 26.5898Z" stroke="white" stroke-width="1.5" stroke-linecap="round" stroke-linejoin="round"/>
<path d="M89.36 40.3599H67.71V62.0099H89.36V40.3599Z" stroke="white" stroke-width="1.5" stroke-linecap="round" stroke-linejoin="round"/>
<path d="M86.33 51.64V50.7299C86.33 50.4299 86.15 50.1799 85.84 50.1199L84.87 49.88C84.69 49.82 84.51 49.7 84.45 49.46C84.33 49.1 84.21 48.7299 84.03 48.4299C83.91 48.2499 83.91 48.01 84.03 47.82L84.58 46.97C84.7 46.73 84.7 46.4199 84.46 46.1799L83.85 45.57C83.67 45.39 83.3 45.33 83.06 45.45L82.21 46C82.03 46.12 81.79 46.12 81.6 46C81.3 45.82 80.93 45.7 80.57 45.58C80.39 45.52 80.21 45.34 80.15 45.16L79.91 44.19C79.85 43.89 79.61 43.7 79.3 43.7H78.39C78.09 43.7 77.84 43.88 77.78 44.19L77.54 45.16C77.48 45.34 77.36 45.52 77.12 45.58C76.76 45.7 76.39 45.82 76.09 46C75.91 46.12 75.67 46.12 75.48 46L74.63 45.45C74.39 45.33 74.08 45.33 73.84 45.57L73.23 46.1799C73.05 46.3599 72.99 46.73 73.11 46.97L73.66 47.82C73.78 48 73.78 48.2399 73.66 48.4299C73.48 48.7299 73.36 49.1 73.24 49.46C73.18 49.64 73 49.82 72.82 49.88L71.85 50.1199C71.55 50.1799 71.36 50.4199 71.36 50.7299V51.64C71.36 51.94 71.54 52.19 71.85 52.25L72.82 52.49C73 52.55 73.18 52.67 73.24 52.91C73.36 53.27 73.48 53.64 73.66 53.94C73.78 54.12 73.78 54.36 73.66 54.55L73.11 55.3999C72.99 55.6399 72.99 55.95 73.23 56.19L73.84 56.8C74.02 56.98 74.39 57.04 74.63 56.92L75.48 56.3699C75.66 56.2499 75.9 56.2499 76.09 56.3699C76.39 56.5499 76.76 56.6699 77.12 56.7899C77.3 56.8499 77.48 57.03 77.54 57.21L77.78 58.1799C77.84 58.4799 78.08 58.67 78.39 58.67H79.3C79.6 58.67 79.85 58.4899 79.91 58.1799L80.15 57.21C80.21 57.03 80.33 56.8499 80.57 56.7899C80.93 56.6699 81.3 56.5499 81.6 56.3699C81.78 56.2499 82.02 56.2499 82.21 56.3699L83.06 56.92C83.3 57.04 83.61 57.04 83.85 56.8L84.46 56.19C84.64 56.01 84.7 55.6399 84.58 55.3999L84.03 54.55C83.91 54.37 83.91 54.13 84.03 53.94C84.21 53.64 84.33 53.27 84.45 52.91C84.51 52.73 84.69 52.55 84.87 52.49L85.84 52.25C86.15 52.19 86.33 51.94 86.33 51.64Z" stroke="white" stroke-width="1.5" stroke-linecap="round" stroke-linejoin="round"/>
<path d="M79.54 52.9098C80.51 52.4898 80.93 51.3898 80.57 50.4198C80.15 49.4498 79.05 49.0198 78.08 49.3898C77.11 49.8098 76.68 50.9098 77.05 51.8798C77.48 52.8498 78.57 53.3398 79.54 52.9098Z" stroke="white" stroke-width="1.5" stroke-linecap="round" stroke-linejoin="round"/>
<path d="M37.99 50.4299H5.78003V62.0099H37.99V50.4299Z" stroke="white" stroke-width="1.5" stroke-linecap="round" stroke-linejoin="round"/>
<path d="M55.64 45.9999V36.3599H50.61" stroke="white" stroke-width="1.5" stroke-linecap="round" stroke-linejoin="round"/>
<path d="M37.99 56.01H55.64V52.01" stroke="white" stroke-width="1.5" stroke-linecap="round" stroke-linejoin="round"/>
<path d="M58.13 48.9099H67.71" stroke="white" stroke-width="1.5" stroke-linecap="round" stroke-linejoin="round"/>
<path d="M55.6401 51.4599C57.0401 51.4599 58.1901 50.3099 58.1901 48.9099C58.1901 47.5099 57.0401 46.3599 55.6401 46.3599C54.2501 46.3599 53.0901 47.5099 53.0901 48.9099C53.0901 50.3099 54.2501 51.4599 55.6401 51.4599Z" stroke="white" stroke-width="1.5" stroke-linecap="round" stroke-linejoin="round"/>
</svg>
