<svg width="91" height="87" viewBox="0 0 91 87" fill="none" xmlns="http://www.w3.org/2000/svg">
<path d="M35.8281 78.3C46.5181 78.3 55.1779 70.0701 55.1779 59.9301C55.1779 49.7801 46.5181 41.5601 35.8281 41.5601C25.1381 41.5601 16.478 49.7901 16.478 59.9301C16.478 70.0801 25.1481 78.3 35.8281 78.3Z" stroke="white" stroke-width="1.5" stroke-miterlimit="10"/>
<path d="M49.6679 72.79L62.9179 86.04" stroke="white" stroke-width="1.5" stroke-linecap="round" stroke-linejoin="round"/>
<path d="M6.80804 35.75C10.018 35.75 12.6181 33.15 12.6181 29.95C12.6181 26.74 10.018 24.15 6.80804 24.15C3.59804 24.15 0.997986 26.75 0.997986 29.95C0.997986 33.15 3.59804 35.75 6.80804 35.75Z" stroke="white" stroke-width="1.5" stroke-miterlimit="10"/>
<path d="M31.968 16.41C35.178 16.41 37.778 13.81 37.778 10.6C37.778 7.39998 35.178 4.80005 31.968 4.80005C28.758 4.80005 26.1579 7.39998 26.1579 10.6C26.1579 13.81 28.758 16.41 31.968 16.41Z" stroke="white" stroke-width="1.5" stroke-miterlimit="10"/>
<path d="M60.988 31.88C64.198 31.88 66.798 29.28 66.798 26.08C66.798 22.87 64.198 20.28 60.988 20.28C57.778 20.28 55.1779 22.88 55.1779 26.08C55.1879 29.28 57.788 31.88 60.988 31.88Z" stroke="white" stroke-width="1.5" stroke-miterlimit="10"/>
<path d="M84.2079 12.54C87.4179 12.54 90.018 9.93999 90.018 6.73999C90.018 3.53999 87.4179 0.939941 84.2079 0.939941C80.9979 0.939941 78.3979 3.53999 78.3979 6.73999C78.4079 9.93999 81.0079 12.54 84.2079 12.54Z" stroke="white" stroke-width="1.5" stroke-miterlimit="10"/>
<path d="M11.3979 26.41L27.3681 14.15" stroke="white" stroke-width="1.5" stroke-miterlimit="10"/>
<path d="M37.0881 13.33L55.8581 23.35" stroke="white" stroke-width="1.5" stroke-miterlimit="10"/>
<path d="M65.4379 22.37L79.758 10.46" stroke="white" stroke-width="1.5" stroke-miterlimit="10"/>
<path d="M6.80804 43.49V68.63" stroke="white" stroke-width="1.5" stroke-miterlimit="10" stroke-linecap="round"/>
<path d="M16.478 37.6899V43.49" stroke="white" stroke-width="1.5" stroke-miterlimit="10" stroke-linecap="round"/>
<path d="M26.1579 26.08V35.75" stroke="white" stroke-width="1.5" stroke-miterlimit="10" stroke-linecap="round"/>
<path d="M35.8281 26.08V33.8199" stroke="white" stroke-width="1.5" stroke-miterlimit="10" stroke-linecap="round"/>
<path d="M45.508 31.88V35.75" stroke="white" stroke-width="1.5" stroke-miterlimit="10" stroke-linecap="round"/>
<path d="M55.1879 37.6899V43.49" stroke="white" stroke-width="1.5" stroke-miterlimit="10" stroke-linecap="round"/>
<path d="M64.8581 39.62V68.63" stroke="white" stroke-width="1.5" stroke-miterlimit="10" stroke-linecap="round"/>
<path d="M74.538 29.95V68.63" stroke="white" stroke-width="1.5" stroke-miterlimit="10" stroke-linecap="round"/>
<path d="M84.2079 22.21V68.63" stroke="white" stroke-width="1.5" stroke-miterlimit="10" stroke-linecap="round"/>
</svg>
