<svg width="96" height="96" viewBox="0 0 96 96" fill="none" xmlns="http://www.w3.org/2000/svg">
<path d="M25.684 29.33C30.114 29.33 33.404 25.56 33.404 21.04V18.3101C33.404 13.7001 30.104 10.02 25.684 10.02C21.254 10.02 17.964 13.7901 17.964 18.3101V21.04C17.864 25.57 21.254 29.33 25.684 29.33Z" stroke="white" stroke-width="1.5" stroke-miterlimit="10"/>
<path d="M25.684 61.35L19.094 60.03C17.214 59.75 15.984 59.37 14.294 56.73L12.594 53.0601C11.084 49.8601 10.054 48.4501 10.054 45.8101C10.054 40.3501 12.874 34.98 19.004 34.98H30.214C33.794 35.17 35.954 35.74 37.934 38.09C39.914 40.44 41.704 42.7 41.704 42.7" stroke="white" stroke-width="1.5" stroke-miterlimit="10"/>
<path d="M19.374 45.34L21.164 49.77C21.634 51.28 22.854 52.41 24.364 52.79L28.884 54.39" stroke="white" stroke-width="1.5" stroke-miterlimit="10"/>
<path d="M46.114 58.4301H39.244C38.864 53.8201 42.914 50.71 42.914 50.71H49.034C50.074 50.8 50.914 51.65 50.824 52.78C50.824 53.06 50.734 53.34 50.634 53.53L49.314 56.35C48.854 57.59 47.534 58.4301 46.114 58.4301Z" stroke="white" stroke-width="1.5" stroke-miterlimit="10"/>
<path d="M48.194 50.62L50.7341 45.4399C51.2041 44.5899 50.8241 43.46 49.9841 43.09C49.7041 42.99 49.5141 42.9 49.2341 42.9H35.574C34.914 42.9 34.254 43.27 33.974 43.84L25.214 61.64C24.744 62.49 25.124 63.62 26.064 63.99C26.344 64.09 26.534 64.1801 26.814 64.1801H40.374C41.034 64.1801 41.694 63.81 41.974 63.24L44.324 58.4399" stroke="white" stroke-width="1.5" stroke-miterlimit="10"/>
<path d="M17.864 59.85V93.37" stroke="white" stroke-width="1.5" stroke-miterlimit="10"/>
<path d="M27.664 71.99V93.37" stroke="white" stroke-width="1.5" stroke-miterlimit="10"/>
<path d="M37.364 64.27V93.37" stroke="white" stroke-width="1.5" stroke-miterlimit="10"/>
<path d="M41.224 27.36V4.09998H76.164" stroke="white" stroke-width="1.5" stroke-miterlimit="10"/>
<path d="M85.864 19.64V50.72H56.764" stroke="white" stroke-width="1.5" stroke-miterlimit="10"/>
<path d="M50.9241 27.36L60.6241 39.04L83.8841 7.95996" stroke="white" stroke-width="1.5" stroke-miterlimit="10"/>
</svg>
