<svg width="96" height="96" viewBox="0 0 96 96" fill="none" xmlns="http://www.w3.org/2000/svg">
<path d="M32.482 79.6598C32.932 79.0298 33.522 78.5198 34.212 78.1798C34.902 77.8398 35.6621 77.6698 36.4321 77.6898H64.0521C66.2421 77.6898 78.302 65.5998 79.832 63.8798C81.302 62.2298 87.872 52.36 89.692 48.1C88.552 46.56 85.4521 45.2798 81.8021 46.1298C78.3121 46.9398 76.262 49.4499 73.912 54.0199L64.872 58.7199" stroke="white" stroke-width="1.5" stroke-miterlimit="10"/>
<path d="M44.322 65.8501H60.102C67.992 65.8501 67.992 55.98 60.102 55.98H49.6721C48.0321 55.98 44.942 52.04 42.342 52.04H32.472C29.802 52.04 26.492 54.2 24.582 55.98L16.692 63.8701" stroke="white" stroke-width="1.5" stroke-miterlimit="10"/>
<path d="M12.762 59.9299L2.90204 69.79L26.572 93.46L36.4321 83.5901L12.762 59.9299Z" stroke="white" stroke-width="1.5" stroke-miterlimit="10"/>
<path d="M12.762 69.79L16.712 73.73" stroke="white" stroke-width="1.5" stroke-miterlimit="10"/>
<path d="M32.482 48.0901V16.53H48.262" stroke="white" stroke-width="1.5" stroke-miterlimit="10"/>
<path d="M48.272 50.0701V2.71997H64.0521V52.04" stroke="white" stroke-width="1.5" stroke-miterlimit="10"/>
<path d="M64.0521 30.3301H79.832V42.1699" stroke="white" stroke-width="1.5" stroke-miterlimit="10"/>
</svg>
