<svg width="96" height="96" viewBox="0 0 96 96" fill="none" xmlns="http://www.w3.org/2000/svg">
<path d="M68.98 46.16H72.8" stroke="white" stroke-width="2"/>
<path d="M38.47 46.16H42.28" stroke="white" stroke-width="2"/>
<path d="M48 46.16C48 50.38 51.4099 53.79 55.6299 53.79C59.8399 53.79 63.26 50.38 63.26 46.16C63.26 41.95 59.8499 38.53 55.6299 38.53C51.4199 38.53 48 41.94 48 46.16Z" stroke="white" stroke-width="2"/>
<path d="M15.38 25.5799C16.22 28.6299 14.4202 31.77 11.3702 32.61C8.32021 33.45 5.18018 31.65 4.34018 28.6C3.51018 25.55 5.30019 22.4099 8.35019 21.5699C11.4002 20.7299 14.54 22.5199 15.38 25.5799Z" stroke="white" stroke-width="2" stroke-dasharray="4 2.5"/>
<path d="M15.4899 45.13C16.0599 48.24 14.0098 51.2201 10.8898 51.7901C7.76978 52.3601 4.79987 50.31 4.22987 47.19C3.65987 44.08 5.70996 41.1 8.82996 40.53C11.94 39.96 14.9199 42.01 15.4899 45.13Z" stroke="white" stroke-width="2" stroke-dasharray="4 2.5"/>
<path d="M32 14.6501C30.44 17.4001 26.95 18.3601 24.2 16.8001C21.45 15.2401 20.49 11.76 22.05 9.00004C23.61 6.24004 27.1001 5.29001 29.8501 6.85001C32.6001 8.41001 33.56 11.9001 32 14.6501Z" stroke="white" stroke-width="2" stroke-dasharray="4 2.5"/>
<path d="M14.0701 61.3499C11.9301 59.0199 8.32 58.87 5.99 61.02C3.66 63.16 3.50992 66.7699 5.65992 69.0999C7.79992 71.4299 11.41 71.58 13.74 69.43C16.06 67.29 16.2101 63.6799 14.0701 61.3499Z" stroke="white" stroke-width="2" stroke-dasharray="4 2.5"/>
<path d="M32.25 78.1601C30.96 75.2701 27.59 73.97 24.7 75.26C21.81 76.55 20.5101 79.9201 21.8001 82.8101C23.0901 85.7001 26.4601 87 29.3501 85.71C32.2401 84.43 33.54 81.0501 32.25 78.1601Z" stroke="white" stroke-width="2" stroke-dasharray="4 2.5"/>
<path d="M38.47 32.8101H30.8401L25.1201 27.09H15.5801" stroke="white" stroke-width="2"/>
<path d="M15.5801 65.23H25.1101L30.8301 59.51H78.51C78.51 55.69 81.07 53.79 84.23 53.79V38.53C81.07 38.53 78.51 36.6201 78.51 32.8101H42.27" stroke="white" stroke-width="2"/>
<path d="M30.8401 76.67L40.3701 67.13H49.9099H53.72H91.8601V25.17H40.3601L30.8301 15.63" stroke="white" stroke-width="2"/>
<path d="M15.5801 46.16H34.6499" stroke="white" stroke-width="2"/>
</svg>
