<svg width="96" height="96" viewBox="0 0 96 96" fill="none" xmlns="http://www.w3.org/2000/svg">
<path d="M11.9207 44.95L4.89075 40.2L6.93075 32.28H16.0107L18.9607 26.62L14.4207 18.7L19.8707 13.05L27.5907 17.8L33.0307 14.63V5.13003L40.5207 3.09003L45.0607 10.32H50.9607L55.5007 3.09003L62.9907 5.13003V14.63L68.6608 17.8L76.1507 13.05L81.6007 18.7L77.0607 26.62L80.0107 32.28H89.0807L91.1208 40.2L84.0807 44.95V51.06L91.1208 55.8L89.0807 63.72H80.0107L77.0607 69.37L81.6007 77.29L76.1507 82.95L68.6608 78.21L62.9907 81.38V90.88L55.5007 92.92L50.9507 85.68H45.0507L40.5107 92.92L33.0207 90.88V81.38L27.5807 78.21L19.8607 82.96L14.4107 77.3L18.9507 69.38L16.0007 63.72H6.93075L4.89075 55.8L11.9307 51.05L11.9207 44.95Z" stroke="white" stroke-width="2" stroke-linejoin="round"/>
<path d="M54.2907 76.74C57.7646 76.74 60.5807 73.9239 60.5807 70.45C60.5807 66.9762 57.7646 64.16 54.2907 64.16C50.8169 64.16 48.0007 66.9762 48.0007 70.45C48.0007 73.9239 50.8169 76.74 54.2907 76.74Z" stroke="white" stroke-width="2" stroke-miterlimit="8"/>
<path d="M61.3208 35.43C64.7946 35.43 67.6108 32.6138 67.6108 29.14C67.6108 25.6661 64.7946 22.85 61.3208 22.85C57.8469 22.85 55.0308 25.6661 55.0308 29.14C55.0308 32.6138 57.8469 35.43 61.3208 35.43Z" stroke="white" stroke-width="2" stroke-miterlimit="8"/>
<path d="M68.6607 56.09C72.1346 56.09 74.9507 53.2739 74.9507 49.8C74.9507 46.3261 72.1346 43.51 68.6607 43.51C65.1869 43.51 62.3707 46.3261 62.3707 49.8C62.3707 53.2739 65.1869 56.09 68.6607 56.09Z" stroke="white" stroke-width="2" stroke-miterlimit="8"/>
<path d="M62.3707 49.8H19.2607" stroke="white" stroke-width="2" stroke-miterlimit="8"/>
<path d="M56.9807 33.63L49.1207 40.82H37.2207" stroke="white" stroke-width="2" stroke-miterlimit="8"/>
<path d="M39.9207 33.63C43.3946 33.63 46.2107 30.8139 46.2107 27.34C46.2107 23.8661 43.3946 21.05 39.9207 21.05C36.4469 21.05 33.6307 23.8661 33.6307 27.34C33.6307 30.8139 36.4469 33.63 39.9207 33.63Z" stroke="white" stroke-width="2" stroke-miterlimit="8"/>
<path d="M49.8007 65.96L42.2007 58.77H22.8507" stroke="white" stroke-width="2" stroke-miterlimit="8"/>
<path d="M36.4107 32.56L27.2207 40.81H19.2607" stroke="white" stroke-width="2" stroke-miterlimit="8"/>
</svg>
