<svg width="97" height="96" viewBox="0 0 97 96" fill="none" xmlns="http://www.w3.org/2000/svg">
<path d="M35.1212 77.43C35.8212 76.73 36.5512 75.59 38.8012 75.59H64.5512C66.5912 75.59 77.8412 64.32 79.2712 62.71C80.6412 61.17 86.7712 51.97 88.4712 47.99C87.4012 46.55 84.5212 45.36 81.1112 46.15C77.8612 46.91 75.9512 49.24 73.7512 53.51L65.3212 57.89" stroke="white" stroke-width="2" stroke-linecap="round" stroke-linejoin="round"/>
<path d="M46.1611 64.55H60.8811C68.2411 64.55 68.2411 55.35 60.8811 55.35H51.1611C49.6311 55.35 46.7511 51.67 44.3211 51.67H35.1211C32.6311 51.67 29.5511 53.69 27.7611 55.35C25.0011 58.11 20.4011 62.71 20.4011 62.71" stroke="white" stroke-width="2" stroke-linecap="round" stroke-linejoin="round"/>
<path d="M16.7328 59.0319L7.53333 68.2313L29.6092 90.3072L38.8087 81.1077L16.7328 59.0319Z" stroke="white" stroke-width="2" stroke-linecap="round" stroke-linejoin="round"/>
<path d="M16.7312 68.23L20.4112 71.91" stroke="white" stroke-width="2" stroke-linecap="round" stroke-linejoin="round"/>
<path d="M35.1212 48V18.57H49.8412" stroke="white" stroke-width="2" stroke-linecap="round" stroke-linejoin="round"/>
<path d="M49.8412 49.84V5.69H64.5512V51.68" stroke="white" stroke-width="2" stroke-linecap="round" stroke-linejoin="round"/>
<path d="M64.5511 31.45H79.2711V42.48" stroke="white" stroke-width="2" stroke-linecap="round" stroke-linejoin="round"/>
</svg>
