<svg width="96" height="96" viewBox="0 0 96 96" fill="none" xmlns="http://www.w3.org/2000/svg">
<path d="M1.95996 33.84H19.98C23.65 33.53 27.17 35.37 28.99 38.57L44 64.35C48.13 71.75 56.05 76.22 64.52 75.92H72.03V85.91L94.05 69.6L72.03 53.3V63.29H64.52C61.02 63.29 58.01 62.23 55.01 57.5L39.99 31.2C34.48 22.27 29.48 19.11 19.97 19.11H1.95996" stroke="white" stroke-width="2" stroke-miterlimit="8"/>
<path d="M43.49 20.92C38.82 14.02 33.11 11.89 24.8 11.89H1.95996" stroke="white" stroke-width="2" stroke-miterlimit="8"/>
<path d="M43.49 75.08C38.82 81.98 33.11 84.11 24.8 84.11H1.95996" stroke="white" stroke-width="2" stroke-miterlimit="8"/>
<path d="M1.95996 75.08H19.86C28.31 75.08 32.29 74.05 36.27 67.86" stroke="white" stroke-width="2" stroke-miterlimit="8"/>
<path d="M30.85 57.03L30.32 58.58C28.38 62 24.79 64.15 20.87 64.25H1.95996" stroke="white" stroke-width="2" stroke-miterlimit="8"/>
<path d="M56.1799 39.44C59.0899 35.77 61.9999 32.63 65.3999 32.63H72.6799V42.59L94.0399 26.34L72.6899 10.08V20.04H65.4099C57.1599 20.04 53.2699 23.18 48.9099 27.38" stroke="white" stroke-width="2" stroke-miterlimit="8"/>
<path d="M66.96 11.89H61.5C56.15 11.6 50.93 13.56 47.1 17.31" stroke="white" stroke-width="2" stroke-miterlimit="8"/>
<path d="M66.96 84.11H61.5C56.15 84.4 50.93 82.44 47.1 78.69" stroke="white" stroke-width="2" stroke-miterlimit="8"/>
</svg>
