<svg width="96" height="96" viewBox="0 0 96 96" fill="none" xmlns="http://www.w3.org/2000/svg">
<path d="M13.51 47.14C16.7 47.14 19.29 44.53 19.29 41.3C19.29 38.08 16.7 35.46 13.51 35.46C10.32 35.46 7.72998 38.07 7.72998 41.3C7.72998 44.52 10.32 47.14 13.51 47.14Z" stroke="white" stroke-width="1.5"/>
<path d="M22.1899 56.87V52.98C22.1899 49.76 18.3 47.14 13.52 47.14C8.73002 47.14 4.8501 49.75 4.8501 52.98V56.87" stroke="white" stroke-width="1.5"/>
<path d="M84.8301 47.14C88.0201 47.14 90.6101 44.53 90.6101 41.3C90.6101 38.08 88.0201 35.46 84.8301 35.46C81.6301 35.46 79.0501 38.07 79.0501 41.3C79.0401 44.52 81.6301 47.14 84.8301 47.14Z" stroke="white" stroke-width="1.5"/>
<path d="M93.5 56.87V52.98C93.5 49.76 89.6101 47.14 84.8301 47.14C80.0401 47.14 76.1599 49.75 76.1599 52.98V56.87" stroke="white" stroke-width="1.5"/>
<path d="M80.01 17.95V27.68H70.3701" stroke="white" stroke-width="1.5"/>
<path d="M18.3301 27.68C24.7901 17.17 36.0199 10.17 49.1699 10.17C62.3199 10.17 73.55 17.17 80.01 27.68" stroke="white" stroke-width="1.5" stroke-dasharray="3.9 3.9"/>
<path d="M18.3301 76.33V66.6H27.97" stroke="white" stroke-width="1.5"/>
<path d="M80.01 66.6C73.55 77.11 62.3199 84.11 49.1699 84.11C36.0199 84.11 24.7901 77.11 18.3301 66.6" stroke="white" stroke-width="1.5" stroke-dasharray="3.9 3.9"/>
<path d="M64.5901 47.14C64.5901 46.41 64.5199 45.69 64.4299 44.99L68.1799 41.46L63.55 33.37L58.6499 34.88C57.5299 34 56.3 33.27 54.96 32.72L53.8 27.69H44.55L43.3999 32.72C42.0599 33.27 40.83 34 39.7 34.88L34.8 33.37L30.1699 41.46L33.9199 44.99C33.8199 45.7 33.76 46.41 33.76 47.14C33.76 47.87 33.8299 48.59 33.9199 49.29L30.1699 52.82L34.8 60.91L39.7 59.4C40.82 60.28 42.0599 61.01 43.3999 61.56L44.55 66.6H53.8L54.96 61.56C56.3 61.01 57.5299 60.28 58.6499 59.4L63.55 60.91L68.1799 52.82L64.4299 49.29C64.5199 48.58 64.5901 47.87 64.5901 47.14Z" stroke="white" stroke-width="1.5"/>
<path d="M49.1699 52.98C52.3599 52.98 54.95 50.37 54.95 47.14C54.95 43.91 52.3599 41.3 49.1699 41.3C45.9799 41.3 43.3899 43.91 43.3899 47.14C43.3899 50.37 45.9799 52.98 49.1699 52.98Z" stroke="white" stroke-width="1.5"/>
</svg>
