<svg width="96" height="96" viewBox="0 0 96 96" fill="none" xmlns="http://www.w3.org/2000/svg">
<path d="M44.1 42.2H36.3C34.2 42.2 32.4 43.8999 32.4 46.0999V88.9C32.4 91 34.1 92.8 36.3 92.8H59.6C61.7 92.8 63.5 91.1 63.5 88.9V46.0999C63.5 43.9999 61.8 42.2 59.6 42.2H51.8" stroke="white" stroke-width="1.5" stroke-linecap="round" stroke-linejoin="round"/>
<path d="M46.1 86.9H49.9" stroke="white" stroke-width="1.5" stroke-linecap="round" stroke-linejoin="round"/>
<path d="M69.4 55.8H79.1C86.6 55.8 92.7 49.7001 92.7 42.2001C92.7 34.7001 86.6 28.6 79.1 28.6C71.6 28.6 76.3 28.8001 75 29.2001C75.2 28.4001 75.3 27.5 75.3 26.6C75.3 19.1 69.2 13 61.7 13C54.2 13 55.1999 14.3 52.7999 16.3C50.0999 8.70005 42.9 3.30005 34.4 3.30005C25.9 3.30005 14.9 12.0001 14.9 22.7001C14.9 24.8001 15.2 26.7 15.8 28.6C8.79995 29.1 3.19995 35.0001 3.19995 42.2001C3.19995 49.4001 9.29995 55.8 16.8 55.8H26.5" stroke="white" stroke-width="1.5" stroke-linecap="round" stroke-linejoin="round"/>
<path d="M52.8 16.3C53.3 17.7 53.6 19.2 53.8 20.8" stroke="white" stroke-width="1.5" stroke-linecap="round" stroke-linejoin="round"/>
<path d="M75 29.2C74.7 30.8 74.1 32.2999 73.3 33.5999" stroke="white" stroke-width="1.5" stroke-linecap="round" stroke-linejoin="round"/>
<path d="M15.8 28.5999C17.5 28.4999 19.2 28.5999 20.9 29.1999" stroke="white" stroke-width="1.5" stroke-linecap="round" stroke-linejoin="round"/>
<path d="M48 28.5V65.5" stroke="white" stroke-width="1.5" stroke-linecap="round" stroke-linejoin="round"/>
<path d="M53.7999 34.4L48 28.5L42.2 34.4" stroke="white" stroke-width="1.5" stroke-linecap="round" stroke-linejoin="round"/>
<path d="M53.7999 59.7L48 65.5L42.2 59.7" stroke="white" stroke-width="1.5" stroke-linecap="round" stroke-linejoin="round"/>
</svg>
