<svg width="96" height="96" viewBox="0 0 96 96" fill="none" xmlns="http://www.w3.org/2000/svg">
<path d="M37.4501 88.4001L43.33 77.1801H52.2501L57.3401 88.3401" stroke="white" stroke-width="1.5" stroke-linecap="round" stroke-linejoin="round"/>
<path d="M18.3401 28.77H12.9401C12.0301 28.77 11.3 29.5 11.3 30.41V49.76" stroke="white" stroke-width="1.5" stroke-linecap="round" stroke-linejoin="round"/>
<path d="M84.33 39.87V30.41C84.33 29.5 83.6 28.77 82.69 28.77H51.21" stroke="white" stroke-width="1.5" stroke-linecap="round" stroke-linejoin="round"/>
<path d="M11.3 62.01V75.47C11.3 76.38 12.0301 77.11 12.9401 77.11H82.6901C83.6001 77.11 84.33 76.38 84.33 75.47V62.43" stroke="white" stroke-width="1.5" stroke-linecap="round" stroke-linejoin="round"/>
<path d="M11.3 67.53H83.3501" stroke="white" stroke-width="1.5" stroke-linecap="round" stroke-linejoin="round"/>
<path d="M28.9501 88.7001H66.2501" stroke="white" stroke-width="1.5" stroke-linecap="round" stroke-linejoin="round"/>
<path d="M50.6101 8.15002H18.3401V40.36H50.6101V8.15002Z" stroke="white" stroke-width="1.5" stroke-linecap="round" stroke-linejoin="round"/>
<path d="M47.57 25.0201V23.4401C47.57 22.9501 47.21 22.4701 46.72 22.3501L45.02 21.9301C44.66 21.8101 44.35 21.5701 44.23 21.2001C44.05 20.5901 43.81 19.9901 43.5 19.3801C43.32 19.1401 43.32 18.7101 43.56 18.4101L44.47 16.8901C44.71 16.4701 44.65 15.9201 44.29 15.5601L43.2 14.4701C42.84 14.1101 42.29 14.0501 41.87 14.2901L40.35 15.2001C40.05 15.3801 39.62 15.4401 39.26 15.2601C38.71 14.9601 38.11 14.7101 37.44 14.5301C37.08 14.4101 36.83 14.1101 36.71 13.7401L36.29 12.0401C36.17 11.5501 35.74 11.1901 35.2 11.1901H33.62C33.13 11.1901 32.65 11.5501 32.53 12.0401L32.11 13.7401C31.99 14.1001 31.75 14.4101 31.38 14.5301C30.77 14.7101 30.17 14.9501 29.56 15.2601C29.2 15.4401 28.83 15.4401 28.47 15.2001L26.95 14.2901C26.53 14.0501 25.98 14.1101 25.62 14.4701L24.53 15.5601C24.17 15.9201 24.11 16.4701 24.35 16.8901L25.26 18.4101C25.44 18.7101 25.5 19.1401 25.32 19.5001C25.02 20.0501 24.77 20.6501 24.59 21.3201C24.47 21.6801 24.17 21.9301 23.8 22.0501L22.1 22.4701C21.61 22.5901 21.25 23.0201 21.25 23.5601V25.1401C21.25 25.6301 21.61 26.1101 22.1 26.2301L23.8 26.6501C24.16 26.7701 24.47 27.0101 24.59 27.3801C24.77 27.9901 25.01 28.5901 25.32 29.2001C25.5 29.5601 25.5 29.9301 25.26 30.2901L24.53 31.6201C24.29 32.0401 24.35 32.5901 24.71 32.9501L25.8 34.0401C26.16 34.4001 26.71 34.4601 27.13 34.2201L28.65 33.3101C28.95 33.1301 29.38 33.0701 29.74 33.2501C30.29 33.5501 30.89 33.8001 31.56 33.9801C31.92 34.1001 32.17 34.4001 32.29 34.7701L32.71 36.4701C32.83 36.9501 33.26 37.3201 33.8 37.3201H35.38C35.87 37.3201 36.35 36.9601 36.47 36.4701L36.89 34.7701C37.01 34.4101 37.25 34.1001 37.62 33.9801C38.23 33.8001 38.83 33.5601 39.44 33.2501C39.8 33.0701 40.17 33.0701 40.53 33.3101L42.05 34.2201C42.47 34.4601 43.02 34.4001 43.38 34.0401L44.47 32.9501C44.83 32.5901 44.89 32.0401 44.65 31.6201L43.74 30.1001C43.56 29.8001 43.5 29.3701 43.68 29.0101C43.98 28.4601 44.23 27.8601 44.41 27.1901C44.53 26.8301 44.83 26.5801 45.2 26.4601L46.9 26.0401C47.21 25.9901 47.57 25.5601 47.57 25.0201Z" stroke="white" stroke-width="1.5" stroke-linecap="round" stroke-linejoin="round"/>
<path d="M36.78 26.5901C38.05 25.3201 38.05 23.2501 36.78 21.9801C35.51 20.7101 33.44 20.7101 32.17 21.9801C30.9 23.2501 30.9 25.3201 32.17 26.5901C33.44 27.8601 35.51 27.8601 36.78 26.5901Z" stroke="white" stroke-width="1.5" stroke-linecap="round" stroke-linejoin="round"/>
<path d="M89.36 40.36H67.71V62.01H89.36V40.36Z" stroke="white" stroke-width="1.5" stroke-linecap="round" stroke-linejoin="round"/>
<path d="M86.33 51.6401V50.7301C86.33 50.4301 86.15 50.1801 85.84 50.1201L84.87 49.8801C84.69 49.8201 84.51 49.7001 84.45 49.4601C84.33 49.1001 84.21 48.7301 84.03 48.4301C83.91 48.2501 83.91 48.0101 84.03 47.8201L84.58 46.9701C84.7 46.7301 84.7 46.4201 84.46 46.1801L83.85 45.5701C83.67 45.3901 83.3 45.3301 83.06 45.4501L82.21 46.0001C82.03 46.1201 81.79 46.1201 81.6 46.0001C81.3 45.8201 80.93 45.7001 80.57 45.5801C80.39 45.5201 80.21 45.3401 80.15 45.1601L79.91 44.1901C79.85 43.8901 79.61 43.7001 79.3 43.7001H78.39C78.09 43.7001 77.84 43.8801 77.78 44.1901L77.54 45.1601C77.48 45.3401 77.36 45.5201 77.12 45.5801C76.76 45.7001 76.39 45.8201 76.09 46.0001C75.91 46.1201 75.67 46.1201 75.48 46.0001L74.63 45.4501C74.39 45.3301 74.08 45.3301 73.84 45.5701L73.23 46.1801C73.05 46.3601 72.99 46.7301 73.11 46.9701L73.66 47.8201C73.78 48.0001 73.78 48.2401 73.66 48.4301C73.48 48.7301 73.36 49.1001 73.24 49.4601C73.18 49.6401 73 49.8201 72.82 49.8801L71.85 50.1201C71.55 50.1801 71.36 50.4201 71.36 50.7301V51.6401C71.36 51.9401 71.54 52.1901 71.85 52.2501L72.82 52.4901C73 52.5501 73.18 52.6701 73.24 52.9101C73.36 53.2701 73.48 53.6401 73.66 53.9401C73.78 54.1201 73.78 54.3601 73.66 54.5501L73.11 55.4001C72.99 55.6401 72.99 55.9501 73.23 56.1901L73.84 56.8001C74.02 56.9801 74.39 57.0401 74.63 56.9201L75.48 56.3701C75.66 56.2501 75.9 56.2501 76.09 56.3701C76.39 56.5501 76.76 56.6701 77.12 56.7901C77.3 56.8501 77.48 57.0301 77.54 57.2101L77.78 58.1801C77.84 58.4801 78.08 58.6701 78.39 58.6701H79.3C79.6 58.6701 79.85 58.4901 79.91 58.1801L80.15 57.2101C80.21 57.0301 80.33 56.8501 80.57 56.7901C80.93 56.6701 81.3 56.5501 81.6 56.3701C81.78 56.2501 82.02 56.2501 82.21 56.3701L83.06 56.9201C83.3 57.0401 83.61 57.0401 83.85 56.8001L84.46 56.1901C84.64 56.0101 84.7 55.6401 84.58 55.4001L84.03 54.5501C83.91 54.3701 83.91 54.1301 84.03 53.9401C84.21 53.6401 84.33 53.2701 84.45 52.9101C84.51 52.7301 84.69 52.5501 84.87 52.4901L85.84 52.2501C86.15 52.1901 86.33 51.9401 86.33 51.6401Z" stroke="white" stroke-width="1.5" stroke-linecap="round" stroke-linejoin="round"/>
<path d="M79.54 52.9101C80.51 52.4901 80.93 51.3901 80.57 50.4201C80.15 49.4501 79.05 49.0201 78.08 49.3901C77.11 49.8101 76.68 50.9101 77.05 51.8801C77.48 52.8501 78.57 53.3401 79.54 52.9101Z" stroke="white" stroke-width="1.5" stroke-linecap="round" stroke-linejoin="round"/>
<path d="M37.99 50.4301H5.78003V62.0101H37.99V50.4301Z" stroke="white" stroke-width="1.5" stroke-linecap="round" stroke-linejoin="round"/>
<path d="M55.64 46V36.36H50.61" stroke="white" stroke-width="1.5" stroke-linecap="round" stroke-linejoin="round"/>
<path d="M37.99 56.01H55.64V52.01" stroke="white" stroke-width="1.5" stroke-linecap="round" stroke-linejoin="round"/>
<path d="M58.13 48.91H67.71" stroke="white" stroke-width="1.5" stroke-linecap="round" stroke-linejoin="round"/>
<path d="M55.6401 51.46C57.0401 51.46 58.1901 50.31 58.1901 48.91C58.1901 47.51 57.0401 46.36 55.6401 46.36C54.2501 46.36 53.0901 47.51 53.0901 48.91C53.0901 50.31 54.2501 51.46 55.6401 51.46Z" stroke="white" stroke-width="1.5" stroke-linecap="round" stroke-linejoin="round"/>
</svg>
