<svg width="96" height="96" viewBox="0 0 96 96" fill="none" xmlns="http://www.w3.org/2000/svg">
<path d="M53.7003 62.759C61.8389 59.3878 65.7036 50.0574 62.3324 41.9188C58.9613 33.7802 49.6308 29.9155 41.4922 33.2867C33.3536 36.6579 29.4888 45.9883 32.86 54.1269C36.2312 62.2655 45.5617 66.1302 53.7003 62.759Z" stroke="white" stroke-width="1.5" stroke-miterlimit="10" stroke-dasharray="2.64 2.64"/>
<path d="M47.57 18.09C50.87 18.09 53.55 15.41 53.55 12.11C53.55 8.80999 50.87 6.13 47.57 6.13C44.27 6.13 41.59 8.80999 41.59 12.11C41.59 15.41 44.27 18.09 47.57 18.09Z" stroke="white" stroke-width="1.5" stroke-miterlimit="10"/>
<path d="M47.57 89.87C50.87 89.87 53.55 87.19 53.55 83.89C53.55 80.59 50.87 77.91 47.57 77.91C44.27 77.91 41.59 80.59 41.59 83.89C41.59 87.19 44.27 89.87 47.57 89.87Z" stroke="white" stroke-width="1.5" stroke-miterlimit="10"/>
<path d="M85.46 18.09C85.46 21.4 82.79 24.0699 79.48 24.0699C76.17 24.0699 73.5 21.4 73.5 18.09C73.5 14.78 76.17 12.11 79.48 12.11C82.79 12.11 85.46 14.78 85.46 18.09Z" stroke="white" stroke-width="1.5" stroke-miterlimit="10"/>
<path d="M89.45 48C89.45 51.31 86.78 53.98 83.47 53.98C80.16 53.98 77.49 51.31 77.49 48C77.49 44.69 80.16 42.02 83.47 42.02C86.78 42.02 89.45 44.69 89.45 48Z" stroke="white" stroke-width="1.5" stroke-miterlimit="10"/>
<path d="M17.67 48C17.67 51.31 15 53.98 11.69 53.98C8.37996 53.98 5.70996 51.31 5.70996 48C5.70996 44.69 8.37996 42.02 11.69 42.02C15 42.02 17.67 44.69 17.67 48Z" stroke="white" stroke-width="1.5" stroke-miterlimit="10"/>
<path d="M21.6499 18.09C21.6499 21.4 18.98 24.0699 15.67 24.0699C12.36 24.0699 9.68994 21.4 9.68994 18.09C9.68994 14.78 12.36 12.11 15.67 12.11C18.98 12.11 21.6499 14.78 21.6499 18.09Z" stroke="white" stroke-width="1.5" stroke-miterlimit="10"/>
<path d="M85.46 77.91C85.46 81.22 82.79 83.89 79.48 83.89C76.17 83.89 73.5 81.22 73.5 77.91C73.5 74.6 76.17 71.9301 79.48 71.9301C82.79 71.9301 85.46 74.6 85.46 77.91Z" stroke="white" stroke-width="1.5" stroke-miterlimit="10"/>
<path d="M21.6499 77.91C21.6499 81.22 18.98 83.89 15.67 83.89C12.36 83.89 9.68994 81.22 9.68994 77.91C9.68994 74.6 12.36 71.9301 15.67 71.9301C18.98 71.9301 21.6499 74.6 21.6499 77.91Z" stroke="white" stroke-width="1.5" stroke-miterlimit="10"/>
<path d="M47.5699 18.09V28.0601" stroke="white" stroke-width="1.5" stroke-miterlimit="10"/>
<path d="M47.5699 67.9399V77.91" stroke="white" stroke-width="1.5" stroke-miterlimit="10"/>
<path d="M19.6599 22.08L31.6199 34.04" stroke="white" stroke-width="1.5" stroke-miterlimit="10"/>
<path d="M75.4899 22.08L63.5299 34.04" stroke="white" stroke-width="1.5" stroke-miterlimit="10"/>
<path d="M19.6599 73.92L31.6199 61.96" stroke="white" stroke-width="1.5" stroke-miterlimit="10"/>
<path d="M75.4899 73.92L63.5299 61.96" stroke="white" stroke-width="1.5" stroke-miterlimit="10"/>
<path d="M17.6699 48H27.6399" stroke="white" stroke-width="1.5" stroke-miterlimit="10"/>
<path d="M67.51 48H77.48" stroke="white" stroke-width="1.5" stroke-miterlimit="10"/>
</svg>
