<svg width="96" height="96" viewBox="0 0 96 96" fill="none" xmlns="http://www.w3.org/2000/svg">
<path d="M32.48 79.6598C32.93 79.0298 33.52 78.5198 34.21 78.1798C34.9 77.8398 35.6601 77.6698 36.4301 77.6898H64.05C66.24 77.6898 78.3 65.5998 79.83 63.8798C81.3 62.2298 87.8699 52.36 89.6899 48.1C88.5499 46.56 85.45 45.2798 81.8 46.1298C78.31 46.9398 76.26 49.4499 73.91 54.0199L64.87 58.7199" stroke="white" stroke-width="1.5" stroke-miterlimit="10"/>
<path d="M44.3199 65.8501H60.1C67.99 65.8501 67.99 55.98 60.1 55.98H49.67C48.03 55.98 44.94 52.04 42.34 52.04H32.47C29.8 52.04 26.49 54.2 24.58 55.98L16.6899 63.8701" stroke="white" stroke-width="1.5" stroke-miterlimit="10"/>
<path d="M12.76 59.9299L2.90002 69.79L26.5699 93.46L36.4301 83.5901L12.76 59.9299Z" stroke="white" stroke-width="1.5" stroke-miterlimit="10"/>
<path d="M12.76 69.79L16.71 73.73" stroke="white" stroke-width="1.5" stroke-miterlimit="10"/>
<path d="M32.48 48.0901V16.53H48.26" stroke="white" stroke-width="1.5" stroke-miterlimit="10"/>
<path d="M48.27 50.0701V2.71997H64.05V52.04" stroke="white" stroke-width="1.5" stroke-miterlimit="10"/>
<path d="M64.05 30.3301H79.83V42.1699" stroke="white" stroke-width="1.5" stroke-miterlimit="10"/>
</svg>
