<svg width="96" height="96" viewBox="0 0 96 96" fill="none" xmlns="http://www.w3.org/2000/svg">
<path d="M65.6 72.2C60.4 69.6 54.4 68.2 48 68.2C37.5 68.2 28.1 72.1 21.8 78.3" stroke="white" stroke-width="1.5" stroke-linejoin="round"/>
<path d="M74.2 17.8C67.9 24 58.5 27.9 48 27.9C41.3 27.9 35.1 26.3 29.9 23.6" stroke="white" stroke-width="1.5" stroke-linejoin="round"/>
<path d="M48 88.3C36 88.3 25.1 83 17.8 74.6" stroke="white" stroke-width="1.5" stroke-linecap="round" stroke-linejoin="round"/>
<path d="M48 7.70001V88.3" stroke="white" stroke-width="1.5" stroke-linecap="round" stroke-linejoin="round"/>
<path d="M37.9 48H48" stroke="white" stroke-width="1.5" stroke-linecap="round" stroke-linejoin="round"/>
<path d="M29.1 62.1C32 77.4 39.3 88.3 48 88.3" stroke="white" stroke-width="1.5" stroke-linecap="round" stroke-linejoin="round"/>
<path d="M48 7.70001C36.9 7.70001 25.8 25.8 25.8 48H33.9L17.8 68.2L1.59998 48H7.59998C7.69998 24.6 24.6 7.70001 48 7.70001Z" stroke="white" stroke-width="1.5" stroke-linecap="round" stroke-linejoin="round"/>
<path d="M48 7.70001C60 7.70001 70.9 13 78.2 21.4" stroke="white" stroke-width="1.5" stroke-linecap="round" stroke-linejoin="round"/>
<path d="M58.1 48H48" stroke="white" stroke-width="1.5" stroke-linecap="round" stroke-linejoin="round"/>
<path d="M66.9 33.9C64 18.6 56.7 7.70001 48 7.70001" stroke="white" stroke-width="1.5" stroke-linecap="round" stroke-linejoin="round"/>
<path d="M48 88.3C59.1 88.3 70.2 70.2 70.2 48H62.1L78.2 27.8L94.3 48H88.3C88.3 71.4 71.4 88.3 48 88.3Z" stroke="white" stroke-width="1.5" stroke-linecap="round" stroke-linejoin="round"/>
</svg>
