<svg width="150" height="150" viewBox="0 0 150 150" fill="none" xmlns="http://www.w3.org/2000/svg">
<path d="M27.3613 72.9219V81.203L40.7833 83.1249C41.6427 86.7655 43.0802 90.2657 45.0333 93.4532L36.9084 104.281L45.6894 113.062L56.5487 104.922C59.7362 106.891 63.2207 108.328 66.8614 109.187L68.7832 122.609H81.2207L83.1425 109.187C86.7831 108.328 90.2833 106.891 93.4708 104.938L104.299 113.062L113.08 104.281L104.939 93.4219C106.908 90.2344 108.346 86.7499 109.205 83.1092L122.627 81.1874V72.9062" stroke="white" stroke-width="1.5" stroke-linecap="round" stroke-linejoin="round"/>
<path d="M94.7674 81.2187C92.1268 89.625 84.2676 95.7188 75.002 95.7188C65.7363 95.7188 57.7677 89.5469 55.1896 81.0469" stroke="white" stroke-width="1.5" stroke-linecap="round" stroke-linejoin="round"/>
<path d="M35.7053 93.6406H27.4239V101.078C26.0021 101.656 24.6582 102.422 23.4395 103.375L17.0018 99.6562L10.7831 110.422L17.2364 114.141C17.127 114.906 17.0643 115.656 17.0487 116.422C17.0643 117.187 17.1114 117.953 17.2364 118.703L10.7831 122.422L17.0018 133.187L23.4395 129.469C24.6426 130.422 25.9864 131.187 27.4083 131.765V139.203H39.8301V131.765C41.252 131.187 42.5958 130.422 43.8145 129.469L50.2518 133.187L56.4706 122.422L50.0333 118.703" stroke="white" stroke-width="1.5" stroke-linecap="round" stroke-linejoin="round"/>
<path d="M40.799 120.578C39.3615 123.047 36.6895 124.719 33.627 124.719C29.0489 124.719 25.3457 121.016 25.3457 116.437C25.3457 113.375 27.0022 110.703 29.4866 109.266" stroke="white" stroke-width="1.5" stroke-linecap="round" stroke-linejoin="round"/>
<path d="M114.314 93.6406H122.596V101.078C124.018 101.656 125.361 102.422 126.565 103.375L133.002 99.6562L139.221 110.422L132.768 114.141C132.877 114.906 132.94 115.656 132.955 116.422C132.94 117.187 132.893 117.953 132.768 118.703L139.221 122.422L133.002 133.187L126.549 129.469C125.346 130.422 124.002 131.187 122.596 131.765V139.203H110.158V131.765C108.736 131.187 107.393 130.422 106.174 129.469L99.7365 133.187L93.5178 122.422L99.9551 118.703" stroke="white" stroke-width="1.5" stroke-linecap="round" stroke-linejoin="round"/>
<path d="M109.205 120.578C110.642 123.047 113.314 124.719 116.377 124.719C120.955 124.719 124.658 121.016 124.658 116.437C124.658 113.375 123.002 110.703 120.517 109.266" stroke="white" stroke-width="1.5" stroke-linecap="round" stroke-linejoin="round"/>
<path d="M58.4393 58.4375V43.9375C58.4393 39.3437 62.1269 35.6561 66.7207 35.6561" stroke="white" stroke-width="1.5" stroke-linecap="round" stroke-linejoin="round"/>
<path d="M83.2833 35.6406C87.8771 35.6406 91.5647 39.328 91.5647 43.9218V58.4218" stroke="white" stroke-width="1.5" stroke-linecap="round" stroke-linejoin="round"/>
<path d="M75.002 41.8594V39.7811" stroke="white" stroke-width="1.5" stroke-linecap="round" stroke-linejoin="round"/>
<path d="M75.002 58.4375V50.1561" stroke="white" stroke-width="1.5" stroke-linecap="round" stroke-linejoin="round"/>
<path d="M75.002 10.7969C79.5958 10.7969 83.2834 14.4843 83.2834 19.078V23.2187C83.2834 27.8124 79.5958 31.5 75.002 31.5C70.4083 31.5 66.7207 27.8124 66.7207 23.2187V19.078C66.7207 14.4843 70.4083 10.7969 75.002 10.7969Z" stroke="white" stroke-width="1.5" stroke-linecap="round" stroke-linejoin="round"/>
<path d="M10.7987 72.9219V50.1405C10.7987 45.5468 14.5019 41.8594 19.08 41.8594" stroke="white" stroke-width="1.5" stroke-linecap="round" stroke-linejoin="round"/>
<path d="M35.6583 41.8594C40.2521 41.8594 43.9397 45.5468 43.9397 50.1405V64.6406" stroke="white" stroke-width="1.5" stroke-linecap="round" stroke-linejoin="round"/>
<path d="M27.3613 48.0781V45.9999" stroke="white" stroke-width="1.5" stroke-linecap="round" stroke-linejoin="round"/>
<path d="M27.3613 64.6406V56.3593" stroke="white" stroke-width="1.5" stroke-linecap="round" stroke-linejoin="round"/>
<path d="M27.3614 17C31.9552 17 35.6427 20.6876 35.6427 25.2813V29.4218C35.6427 34.0155 31.9552 37.7031 27.3614 37.7031C22.7677 37.7031 19.0801 34.0155 19.0801 29.4218V25.2813C19.0801 20.7032 22.7677 17 27.3614 17Z" stroke="white" stroke-width="1.5" stroke-linecap="round" stroke-linejoin="round"/>
<path d="M106.08 64.6406V50.1405C106.08 45.5468 109.768 41.8594 114.361 41.8594" stroke="white" stroke-width="1.5" stroke-linecap="round" stroke-linejoin="round"/>
<path d="M130.94 41.8594C135.533 41.8594 139.221 45.5468 139.221 50.1405V72.9219" stroke="white" stroke-width="1.5" stroke-linecap="round" stroke-linejoin="round"/>
<path d="M122.643 48.0781V45.9999" stroke="white" stroke-width="1.5" stroke-linecap="round" stroke-linejoin="round"/>
<path d="M122.643 64.6406V56.3593" stroke="white" stroke-width="1.5" stroke-linecap="round" stroke-linejoin="round"/>
<path d="M122.643 17C127.236 17 130.924 20.7032 130.924 25.2813V29.4218C130.924 34.0155 127.236 37.7031 122.643 37.7031C118.049 37.7031 114.361 34.0155 114.361 29.4218V25.2813C114.361 20.7032 118.049 17 122.643 17Z" stroke="white" stroke-width="1.5" stroke-linecap="round" stroke-linejoin="round"/>
<path d="M37.7206 72.9219H112.283" stroke="white" stroke-width="1.5" stroke-linecap="round" stroke-linejoin="round"/>
<path d="M58.4393 72.9219V66.703" stroke="white" stroke-width="1.5" stroke-linecap="round" stroke-linejoin="round"/>
<path d="M10.7987 81.2186V85.3593" stroke="white" stroke-width="1.5" stroke-linecap="round" stroke-linejoin="round"/>
<path d="M139.205 81.2186V85.3593" stroke="white" stroke-width="1.5" stroke-linecap="round" stroke-linejoin="round"/>
<path d="M91.5803 72.9219V66.703" stroke="white" stroke-width="1.5" stroke-linecap="round" stroke-linejoin="round"/>
</svg>
