<svg width="150" height="150" viewBox="0 0 150 150" fill="none" xmlns="http://www.w3.org/2000/svg">
<path d="M51.6251 84.1873V74.4217C51.6251 65.8905 57.7971 62.7343 65.7502 62.7343L75.5158 73.5001L84.594 62.7343C92.5471 62.7343 99.4065 65.8748 99.4065 74.4217V84.1873" stroke="white" stroke-width="1.5" stroke-linejoin="round"/>
<path d="M86.5623 41.9999C86.5623 48.1718 81.5939 53.2189 75.5157 53.2189C69.4376 53.2189 64.4684 48.1718 64.4684 41.9999V37.8438C64.4684 31.6719 69.4376 26.6251 75.5157 26.6251C81.5939 26.6251 86.5623 31.6719 86.5623 37.8438V41.9999Z" stroke="white" stroke-width="1.5" stroke-miterlimit="10"/>
<path d="M120.156 78.1564V52.2344C120.125 47.9219 122.938 44.3906 126.813 44.3593C130.672 44.3437 133.859 47.844 133.891 52.1409V102.469L110.812 132.594C110.812 132.594 108.312 135.516 109.062 146.172" stroke="white" stroke-width="1.5" stroke-linejoin="round"/>
<path d="M81.4377 146.422L81.469 123.047C81.469 113.969 92.0624 107.813 92.0624 107.813C96.8593 104.594 102.313 99.0159 102.313 99.0159L111.359 89.219C115.078 85.1721 120.469 84.0157 123.312 86.6563C126.156 89.2813 125.437 94.7344 121.719 98.7657L109 112.531" stroke="white" stroke-width="1.5" stroke-miterlimit="10"/>
<path d="M30.8747 78.1564V52.2344C30.9059 47.9219 28.0938 44.3906 24.2188 44.3593C20.3594 44.3437 17.1722 47.844 17.141 52.1409V102.469L40.2191 132.594C40.2191 132.594 42.719 135.516 41.9846 146.172" stroke="white" stroke-width="1.5" stroke-linejoin="round"/>
<path d="M69.5777 146.422L69.5464 123.047C69.5464 113.969 58.953 107.813 58.953 107.813C54.1561 104.594 48.7029 99.0159 48.7029 99.0159L39.656 89.219C35.9372 85.1721 30.5468 84.0157 27.703 86.6563C24.8593 89.2813 25.5624 94.7344 29.2968 98.7657L42.0158 112.531" stroke="white" stroke-width="1.5" stroke-miterlimit="10"/>
<path d="M75.5157 13.8905V4.15613" stroke="white" stroke-width="1.5" stroke-miterlimit="10" stroke-linecap="round"/>
<path d="M49.8909 22.8591L43.7812 15.2812" stroke="white" stroke-width="1.5" stroke-miterlimit="10" stroke-linecap="round"/>
<path d="M107.25 15.2812L101.141 22.8591" stroke="white" stroke-width="1.5" stroke-miterlimit="10" stroke-linecap="round"/>
</svg>
