<svg width="96" height="96" viewBox="0 0 96 96" fill="none" xmlns="http://www.w3.org/2000/svg">
<path d="M52.31 77.22C50.94 77.42 49.53 77.52 48.11 77.52C31.87 77.52 18.7 64.35 18.7 48.11C18.7 31.87 31.87 18.7 48.11 18.7C64.35 18.7 77.52 31.86 77.52 48.11M48.11 4C72.47 4 92.22 23.75 92.22 48.11C92.22 72.47 72.47 92.22 48.11 92.22C23.75 92.22 4 72.47 4 48.11C4 41.92 5.28 36.03 7.58 30.68M64.71 75.36C64.71 78.83 61.9 81.64 58.43 81.64C54.96 81.64 52.15 78.83 52.15 75.36C52.15 71.89 54.96 69.08 58.43 69.08C61.9 69.08 64.71 71.89 64.71 75.36ZM16.56 25.1C16.56 28.57 13.75 31.38 10.28 31.38C6.81 31.38 4 28.57 4 25.1C4 21.63 6.81 18.82 10.28 18.82C13.75 18.82 16.56 21.63 16.56 25.1ZM55.58 58.43L50.81 56.45L48.1 60.86L45.4 56.44L40.62 58.42L41.03 53.26L36 52.05L39.36 48.12L36.01 44.18L41.04 42.98L40.64 37.82L45.41 39.8L48.12 35.39L50.82 39.81L55.6 37.83L55.19 42.99L60.22 44.2L56.86 48.13L60.21 52.07L55.18 53.27L55.58 58.43Z" stroke="white" stroke-width="1.5" stroke-linecap="round" stroke-linejoin="round"/>
</svg>
