<svg width="97" height="96" viewBox="0 0 97 96" fill="none" xmlns="http://www.w3.org/2000/svg">
<path d="M74.8499 25.74L66.7499 33.9L69.8199 36.97L57.4299 39.3L59.7599 26.79L62.83 29.86L70.9299 21.7" stroke="white" stroke-width="1.5" stroke-linejoin="round"/>
<path d="M50.07 68.61L54.24 70.57L52.83 75.84L48.29 75.41L44.3 81.18L46.26 85.35L41.84 88.48L38.59 85.23L31.84 87.07L30.67 91.49L25.27 91L24.9 86.4L18.58 83.46L14.84 86.1L10.98 82.24L13.62 78.5L10.55 72.12L6.01001 71.75L5.52002 66.29L9.94 65.12L11.78 58.31L8.53003 55.06L11.66 50.58L15.77 52.54L21.47 48.49L21.04 43.89L26.25 42.48L28.15 46.65L35.14 47.26L37.78 43.52L42.69 45.85L41.46 50.27L46.43 55.24L50.85 54.01L53.12 58.98L49.38 61.62L50.07 68.61Z" stroke="white" stroke-width="1.5" stroke-linejoin="round"/>
<path d="M39.65 57.32C39.59 57.26 39.53 57.2 39.47 57.14" stroke="white" stroke-width="1.5" stroke-linejoin="round"/>
<path d="M29.71 53.27C28.24 53.27 26.77 53.58 25.42 54.07C24.62 54.38 23.89 54.68 23.21 55.11C22.96 55.23 22.78 55.36 22.54 55.54C21.87 55.97 21.25 56.46 20.7 57.01C20.58 57.13 20.39 57.32 20.27 57.44C20.02 57.69 19.78 57.99 19.53 58.3C19.47 58.36 19.41 58.42 19.35 58.55C19.23 58.73 19.1 58.86 18.98 59.04C18.12 60.33 17.39 61.74 16.96 63.33C15.06 70.57 19.29 78.05 26.53 79.95C30.58 81.05 34.63 80.2 37.82 77.93C38 77.81 38.13 77.68 38.31 77.56C38.37 77.5 38.43 77.44 38.56 77.38C38.87 77.13 39.11 76.89 39.42 76.64C39.54 76.52 39.73 76.33 39.85 76.21C40.4 75.66 40.89 75.04 41.32 74.37C41.44 74.12 41.63 73.94 41.75 73.7C42.18 73.03 42.49 72.29 42.79 71.55C42.91 71.18 43.04 70.75 43.16 70.32C43.47 69.22 43.59 68.11 43.59 67.01" stroke="white" stroke-width="1.5" stroke-linejoin="round"/>
<path d="M86.9899 31.5L91.1599 33.4L89.7499 38.67L85.21 38.24L81.2199 44.01L83.1799 48.18L78.7599 51.31L75.5099 48.06L68.7599 49.9L67.59 54.32L62.1899 53.83L61.8199 49.23L55.4999 46.29L51.64 48.99L47.78 45.13L50.4199 41.39L47.4799 34.95L42.9399 34.58L42.45 29.12L46.8699 27.95L48.71 21.14L45.46 17.89L48.59 13.47L52.7 15.43L58.4 11.38L57.9699 6.78L63.1799 5.37L65.08 9.53999L72.0699 10.15L74.71 6.35001L79.6199 8.67999L78.39 13.1L83.3599 18.07L87.78 16.84L90.0499 21.81L86.3099 24.45L86.9899 31.5Z" stroke="white" stroke-width="1.5" stroke-linejoin="round"/>
<path d="M66.7 43.34C68.54 43.4 70.38 43.03 72.1 42.3C72.77 41.99 73.45 41.69 74.06 41.32C74.24 41.2 74.49 41.07 74.67 40.89C75.77 40.15 76.75 39.17 77.61 38.13C77.67 38.07 77.73 38.01 77.79 37.88C77.91 37.7 78.04 37.57 78.16 37.39C79.02 36.16 79.63 34.75 80.06 33.22C82.02 25.98 77.73 18.5 70.49 16.6C66.5 15.56 62.52 16.35 59.39 18.5C59.21 18.62 59.02 18.75 58.9 18.87C58.84 18.93 58.78 18.99 58.65 19.05C57.61 19.85 56.69 20.89 55.89 21.99C55.77 22.17 55.65 22.42 55.52 22.6C55.15 23.21 54.78 23.89 54.54 24.56C54.29 25.11 54.11 25.66 53.99 26.28C53.62 27.57 53.5 28.86 53.5 30.08" stroke="white" stroke-width="1.5" stroke-linejoin="round"/>
<path d="M22.23 70.69L30.39 62.53L27.32 59.46L39.71 57.13L37.38 69.64L34.31 66.57L26.21 74.73" stroke="white" stroke-width="1.5" stroke-linejoin="round"/>
<path d="M81.84 55.61V58.56" stroke="white" stroke-width="1.5" stroke-linejoin="round"/>
<path d="M81.84 65.67V76.33" stroke="white" stroke-width="1.5" stroke-linejoin="round" stroke-dasharray="7.11 7.11"/>
<path d="M81.8399 79.88V82.84H78.8899" stroke="white" stroke-width="1.5" stroke-linejoin="round"/>
<path d="M73.7899 82.84H55.95" stroke="white" stroke-width="1.5" stroke-linejoin="round" stroke-dasharray="5.1 5.1"/>
<path d="M53.4 82.84H50.4399" stroke="white" stroke-width="1.5" stroke-linejoin="round"/>
<path d="M14.26 46.28V43.33" stroke="white" stroke-width="1.5" stroke-linejoin="round"/>
<path d="M14.26 38.18V20.16" stroke="white" stroke-width="1.5" stroke-linejoin="round" stroke-dasharray="5.15 5.15"/>
<path d="M14.26 17.59V14.64H17.21" stroke="white" stroke-width="1.5" stroke-linejoin="round"/>
<path d="M24.24 14.64H34.77" stroke="white" stroke-width="1.5" stroke-linejoin="round" stroke-dasharray="7.03 7.03"/>
<path d="M38.29 14.64H41.2401" stroke="white" stroke-width="1.5" stroke-linejoin="round"/>
</svg>
