<svg width="97" height="96" viewBox="0 0 97 96" fill="none" xmlns="http://www.w3.org/2000/svg">
<path d="M13.4113 34.1C17.2413 24.44 24.9413 16.74 34.6013 12.91" stroke="white" stroke-width="1.5" stroke-linecap="round" stroke-linejoin="round"/>
<path d="M48.5013 91.69C51.7929 91.69 54.4613 89.0216 54.4613 85.73C54.4613 82.4384 51.7929 79.77 48.5013 79.77C45.2096 79.77 42.5413 82.4384 42.5413 85.73C42.5413 89.0216 45.2096 91.69 48.5013 91.69Z" stroke="white" stroke-width="1.5" stroke-linecap="round" stroke-linejoin="round"/>
<path d="M48.5013 16.23C51.7929 16.23 54.4613 13.5616 54.4613 10.27C54.4613 6.97838 51.7929 4.31 48.5013 4.31C45.2096 4.31 42.5413 6.97838 42.5413 10.27C42.5413 13.5616 45.2096 16.23 48.5013 16.23Z" stroke="white" stroke-width="1.5" stroke-linecap="round" stroke-linejoin="round"/>
<path d="M86.2312 53.96C89.5229 53.96 92.1912 51.2916 92.1912 48C92.1912 44.7084 89.5229 42.04 86.2312 42.04C82.9396 42.04 80.2712 44.7084 80.2712 48C80.2712 51.2916 82.9396 53.96 86.2312 53.96Z" stroke="white" stroke-width="1.5" stroke-linecap="round" stroke-linejoin="round"/>
<path d="M10.7713 53.96C14.0629 53.96 16.7313 51.2916 16.7313 48C16.7313 44.7084 14.0629 42.04 10.7713 42.04C7.47966 42.04 4.81128 44.7084 4.81128 48C4.81128 51.2916 7.47966 53.96 10.7713 53.96Z" stroke="white" stroke-width="1.5" stroke-linecap="round" stroke-linejoin="round"/>
<path d="M24.5712 10.73L34.6012 12.91L32.4212 22.94" stroke="white" stroke-width="1.5" stroke-linecap="round" stroke-linejoin="round"/>
<path d="M84.2513 62.37C80.4213 72.03 72.7213 79.73 63.0613 83.56" stroke="white" stroke-width="1.5" stroke-linecap="round" stroke-linejoin="round"/>
<path d="M73.0913 85.73L63.0613 83.56L65.2413 73.53" stroke="white" stroke-width="1.5" stroke-linecap="round" stroke-linejoin="round"/>
<path d="M34.6912 83.65C25.0312 79.82 17.3312 72.12 13.5012 62.46" stroke="white" stroke-width="1.5" stroke-linecap="round" stroke-linejoin="round"/>
<path d="M11.3312 72.49L13.5012 62.46L23.5312 64.64" stroke="white" stroke-width="1.5" stroke-linecap="round" stroke-linejoin="round"/>
<path d="M62.9612 12.81C72.6212 16.64 80.3212 24.34 84.1512 34" stroke="white" stroke-width="1.5" stroke-linecap="round" stroke-linejoin="round"/>
<path d="M86.3312 23.97L84.1512 34L74.1212 31.82" stroke="white" stroke-width="1.5" stroke-linecap="round" stroke-linejoin="round"/>
<path d="M54.5513 47.95C54.5513 51.27 51.8613 53.95 48.5513 53.95C45.2413 53.95 42.5513 51.26 42.5513 47.95C42.5513 44.64 45.2413 41.95 48.5513 41.95C51.8613 41.95 54.5513 44.64 54.5513 47.95Z" stroke="white" stroke-width="1.5" stroke-linecap="round" stroke-linejoin="round"/>
<path d="M62.4513 47.95C62.4513 46.85 62.3113 45.78 62.0713 44.75L65.9713 42.5L62.0013 35.62L58.1013 37.87C56.5313 36.38 54.6113 35.25 52.4713 34.62V30.12H44.5313V34.64C42.4113 35.28 40.5213 36.41 38.9613 37.9L35.0113 35.62L31.0413 42.5L35.0213 44.8C34.7813 45.81 34.6513 46.87 34.6513 47.95C34.6513 49.03 34.8013 50.14 35.0413 51.18L31.0413 53.49L35.0113 60.37L39.0213 58.05C40.5713 59.51 42.4413 60.62 44.5313 61.25V65.86H52.4713V61.27C54.5813 60.65 56.4713 59.54 58.0313 58.08L61.9913 60.36L65.9613 53.48L62.0413 51.22C62.3013 50.17 62.4413 49.07 62.4413 47.94L62.4513 47.95Z" stroke="white" stroke-width="1.5" stroke-linecap="round" stroke-linejoin="round"/>
</svg>
