<svg width="97" height="96" viewBox="0 0 97 96" fill="none" xmlns="http://www.w3.org/2000/svg">
<path d="M48.5007 87.0601C52.5007 87.0601 55.7607 83.8 55.7607 79.8C55.7607 75.8 52.5007 72.55 48.5007 72.55C44.5007 72.55 41.2507 75.81 41.2507 79.8C41.2507 83.81 44.5007 87.0601 48.5007 87.0601Z" stroke="white" stroke-width="1.5" stroke-miterlimit="10"/>
<path d="M48.5007 50.85C52.5007 50.85 55.7607 47.59 55.7607 43.6C55.7607 39.6 52.5007 36.34 48.5007 36.34C44.5007 36.34 41.2507 39.6 41.2507 43.6C41.2507 47.59 44.5007 50.85 48.5007 50.85Z" stroke="white" stroke-width="1.5" stroke-miterlimit="10"/>
<path d="M34.0508 23.73C38.0508 23.73 41.3008 20.47 41.3008 16.48C41.2408 12.48 38.0408 9.22998 34.0508 9.22998C30.0608 9.22998 26.8008 12.49 26.8008 16.48C26.8008 20.47 30.0608 23.73 34.0508 23.73Z" stroke="white" stroke-width="1.5" stroke-miterlimit="10" stroke-dasharray="5.5 5.5"/>
<path d="M48.5007 68.92V50.84" stroke="white" stroke-width="1.5" stroke-miterlimit="10"/>
<path d="M43.0908 32.77L37.6807 23.73" stroke="white" stroke-width="1.5" stroke-miterlimit="10" stroke-dasharray="5.5 5.5"/>
<path d="M68.4207 63.51C72.4207 63.51 75.6707 60.25 75.6707 56.25C75.6707 52.25 72.4107 49 68.4207 49C64.4307 49 61.1606 52.26 61.1606 56.25C61.1606 60.26 64.4307 63.51 68.4207 63.51Z" stroke="white" stroke-width="1.5" stroke-miterlimit="10"/>
<path d="M62.9507 23.73C66.9507 23.73 70.2107 20.47 70.2107 16.48C70.2107 12.48 66.9507 9.22998 62.9507 9.22998C58.9507 9.22998 55.7607 12.49 55.7607 16.48C55.7607 20.47 58.9507 23.73 62.9507 23.73Z" stroke="white" stroke-width="1.5" stroke-miterlimit="10" stroke-dasharray="5.5 5.5"/>
<path d="M75.6208 45.4399L79.2507 40.03" stroke="white" stroke-width="1.5" stroke-miterlimit="10" stroke-dasharray="5.5 5.5"/>
<path d="M57.5408 70.77L63.9307 61.73" stroke="white" stroke-width="1.5" stroke-miterlimit="10"/>
<path d="M82.8708 40.03C86.8708 40.03 90.1306 36.77 90.1306 32.78C90.1306 28.78 86.8708 25.52 82.8708 25.52C78.8708 25.52 75.6208 28.78 75.6208 32.78C75.6208 36.77 78.8708 40.03 82.8708 40.03Z" stroke="white" stroke-width="1.5" stroke-miterlimit="10" stroke-dasharray="5.5 5.5"/>
<path d="M28.5808 63.51C32.5808 63.51 35.8408 60.25 35.8408 56.25C35.8408 52.25 32.5808 49 28.5808 49C24.5808 49 21.3308 52.26 21.3308 56.25C21.3808 60.26 24.5808 63.51 28.5808 63.51Z" stroke="white" stroke-width="1.5" stroke-miterlimit="10"/>
<path d="M21.3906 45.4399L17.7607 40.03" stroke="white" stroke-width="1.5" stroke-miterlimit="10" stroke-dasharray="5.5 5.5"/>
<path d="M39.4607 70.77L33.0708 61.73" stroke="white" stroke-width="1.5" stroke-miterlimit="10"/>
<path d="M14.1306 40.03C18.1306 40.03 21.3806 36.77 21.3806 32.78C21.3806 28.78 18.1206 25.52 14.1306 25.52C10.1406 25.52 6.87085 28.78 6.87085 32.78C6.87085 36.77 10.1306 40.03 14.1306 40.03Z" stroke="white" stroke-width="1.5" stroke-miterlimit="10" stroke-dasharray="5.5 5.5"/>
<path d="M53.9106 32.77L59.3208 23.73" stroke="white" stroke-width="1.5" stroke-miterlimit="10" stroke-dasharray="5.5 5.5"/>
</svg>
