<svg width="97" height="96" viewBox="0 0 97 96" fill="none" xmlns="http://www.w3.org/2000/svg">
<path d="M34.4707 78.99C35.2407 78.22 36.0207 76.99 38.4807 76.99H66.5307C68.7607 76.99 81.0007 64.71 82.5607 62.96C84.0607 61.28 90.7307 51.26 92.5807 46.93C91.4207 45.37 88.2807 44.06 84.5707 44.93C81.0307 45.75 78.9407 48.3 76.5607 52.94L67.3707 57.71" stroke="white" stroke-width="1.5" stroke-linecap="round" stroke-linejoin="round"/>
<path d="M46.5007 64.96H62.5307C70.5407 64.96 70.5407 54.94 62.5307 54.94H51.9407C50.2707 54.94 47.1407 50.93 44.4907 50.93H34.4707C31.7607 50.93 28.4007 53.13 26.4607 54.94C23.4607 57.94 18.4507 62.95 18.4507 62.95" stroke="white" stroke-width="1.5" stroke-linecap="round" stroke-linejoin="round"/>
<path d="M14.4432 58.9479L4.42346 68.9676L28.4651 93.0092L38.4848 82.9895L14.4432 58.9479Z" stroke="white" stroke-width="1.5" stroke-linecap="round" stroke-linejoin="round"/>
<path d="M14.4407 68.97L18.4507 72.98" stroke="white" stroke-width="1.5" stroke-linecap="round" stroke-linejoin="round"/>
<path d="M80.1607 15.78L64.7407 3.42C64.2607 3.04 63.4407 2.85 62.7307 3.11L44.5607 10.19C43.7407 10.35 43.0707 11 42.9407 11.87L40.0907 31.07C39.9707 31.92 40.1107 32.81 40.7307 33.3L56.1507 45.66C56.7407 46.14 57.2007 46.43 57.7907 46.21L76.4407 38.96C77.4407 38.57 77.8707 38.15 78.0007 37.22L80.9007 17.67C80.9907 17.09 80.7007 16.21 80.1607 15.78Z" stroke="white" stroke-width="1.5" stroke-linecap="round" stroke-linejoin="round"/>
<path d="M62.3507 8.86L59.7707 24.34L46.5007 29.18" stroke="white" stroke-width="1.5" stroke-linecap="round" stroke-linejoin="round"/>
<path d="M59.7708 24.34L72.5408 34.45" stroke="white" stroke-width="1.5" stroke-linecap="round" stroke-linejoin="round"/>
</svg>
