<svg width="97" height="96" viewBox="0 0 97 96" fill="none" xmlns="http://www.w3.org/2000/svg">
<path d="M33.1599 15.11L48.6399 26.72" stroke="white" stroke-width="1.5" stroke-dasharray="3.9 3.9"/>
<path d="M33.1599 65.41L48.6399 53.8L64.1201 65.41V80.89L48.6399 92.5L33.1599 80.89V65.41Z" stroke="white" stroke-width="1.5"/>
<path d="M27.3601 53.8L37.98 61.77" stroke="white" stroke-width="1.5"/>
<path d="M33.1599 65.41L48.6399 77.02L64.1201 65.41" stroke="white" stroke-width="1.5" stroke-dasharray="3.9 3.9"/>
<path d="M27.3601 61.54L19.6201 67.34L4.13989 55.73V40.25L19.6201 28.64L35.1001 40.25V51.86" stroke="white" stroke-width="1.5"/>
<path d="M4.1499 40.26L19.6299 51.87L35.1101 40.26" stroke="white" stroke-width="1.5" stroke-dasharray="3.9 3.9"/>
<path d="M30.26 36.65L40.8999 28.66" stroke="white" stroke-width="1.5"/>
<path d="M56.3799 36.39L48.6399 42.1899L40.8999 36.39" stroke="white" stroke-width="1.5"/>
<path d="M64.1201 26.72V15.11L48.6399 3.5L33.1599 15.11V26.72" stroke="white" stroke-width="1.5"/>
<path d="M64.1201 15.11L48.6399 26.72" stroke="white" stroke-width="1.5" stroke-dasharray="3.9 3.9"/>
<path d="M69.9199 53.8L59.28 61.77" stroke="white" stroke-width="1.5"/>
<path d="M69.9199 61.54L77.6599 67.34L93.1399 55.73V40.25L77.6599 28.64L62.1799 40.25V51.86" stroke="white" stroke-width="1.5"/>
<path d="M93.1399 40.26L77.6599 51.87L62.1799 40.26" stroke="white" stroke-width="1.5" stroke-dasharray="3.9 3.9"/>
<path d="M67.02 36.65L56.3799 28.66" stroke="white" stroke-width="1.5"/>
<path d="M48.6399 26.72V42.2" stroke="white" stroke-width="1.5" stroke-dasharray="3.9 3.9"/>
<path d="M19.6201 51.87V67.35" stroke="white" stroke-width="1.5" stroke-dasharray="3.9 3.9"/>
<path d="M48.6399 92.5V77.02" stroke="white" stroke-width="1.5" stroke-dasharray="3.9 3.9"/>
<path d="M77.6599 51.87V67.35" stroke="white" stroke-width="1.5" stroke-dasharray="3.9 3.9"/>
</svg>
