<svg width="96" height="96" viewBox="0 0 96 96" fill="none" xmlns="http://www.w3.org/2000/svg">
<path d="M32.1907 43.31H36.9407C38.4307 43.31 40.7807 44.26 41.6907 45.68H46.4407C48.6607 45.68 51.1907 47.76 51.1907 50.43H55.9407C58.1607 50.43 60.6907 52.51 60.6907 55.18V76.53C60.6907 81.33 55.9407 85.2 55.9407 88.39V90.76" stroke="white" stroke-width="1.5" stroke-miterlimit="10"/>
<path d="M32.1907 55.16V26.7C32.1907 24.08 30.0707 21.95 27.4407 21.95C24.8207 21.95 22.6907 24.08 22.6907 26.7V59.91L19.5208 62.95L13.3206 53.34C9.53056 48.11 3.71069 51.05 3.71069 53.34C3.71069 53.34 10.9007 73.93 11.9407 75.55C13.6007 78.14 20.3108 83.97 20.3108 86.01V90.76" stroke="white" stroke-width="1.5" stroke-miterlimit="10"/>
<path d="M41.6809 45.68V55.16" stroke="white" stroke-width="1.5" stroke-miterlimit="10"/>
<path d="M51.1707 50.42V57.54" stroke="white" stroke-width="1.5" stroke-miterlimit="10"/>
<path d="M7.42065 44.72V40.82" stroke="white" stroke-width="1.5" stroke-miterlimit="10"/>
<path d="M7.42065 32.79V16.46C7.42065 10.74 12.0605 6.10001 17.7805 6.10001H83.0408C88.7608 6.10001 93.4006 10.74 93.4006 16.46V65.83C93.4006 71.55 88.7608 76.19 83.0408 76.19H74.0906" stroke="white" stroke-width="1.5" stroke-miterlimit="10"/>
<path d="M70.0808 76.2H66.1809" stroke="white" stroke-width="1.5" stroke-miterlimit="10"/>
<path d="M22.7009 33.71C19.8709 33.42 17.6506 31.02 17.6506 28.11V20.96C17.6506 17.87 20.1808 15.34 23.2708 15.34H30.4207C33.5107 15.34 36.0408 17.87 36.0408 20.96V28.11C36.0408 30.59 34.4207 32.7 32.1907 33.44" stroke="white" stroke-width="1.5" stroke-miterlimit="10"/>
<path d="M51.0408 15.35C56.1208 15.35 60.2307 19.47 60.2307 24.54V24.55C60.2307 29.63 56.1108 33.74 51.0408 33.74H51.0305C45.9505 33.74 41.8406 29.62 41.8406 24.55V24.54C41.8406 19.47 45.9608 15.35 51.0408 15.35Z" stroke="white" stroke-width="1.5" stroke-miterlimit="10"/>
<path d="M75.241 15.35C80.321 15.35 84.4309 19.47 84.4309 24.54V24.55C84.4309 29.63 80.311 33.74 75.241 33.74H75.2307C70.1507 33.74 66.0408 29.62 66.0408 24.55V24.54C66.0408 19.47 70.151 15.35 75.241 15.35Z" stroke="white" stroke-width="1.5" stroke-miterlimit="10"/>
</svg>
