<svg width="96" height="96" viewBox="0 0 96 96" fill="none" xmlns="http://www.w3.org/2000/svg">
<path d="M35.4412 33.03C35.4412 27.69 39.7712 23.36 45.1112 23.36C50.4512 23.36 54.7812 27.69 54.7812 33.03" stroke="white" stroke-width="1.5" stroke-linecap="round" stroke-linejoin="round"/>
<path d="M68.0445 6.76606L55.5562 15.8794L64.6695 28.3677L77.1578 19.2544L68.0445 6.76606Z" stroke="white" stroke-width="1.5" stroke-linecap="round" stroke-linejoin="round"/>
<path d="M33.1413 4.98L15.3113 11.48L29.8713 23.68L33.1413 4.98Z" stroke="white" stroke-width="1.5" stroke-linecap="round" stroke-linejoin="round"/>
<path d="M77.9613 44.62V46.55C77.9613 53.8 62.5013 65.4 52.8313 71.68V85.21L45.1013 91.01H43.1713V71.68C33.5013 65.4 18.0413 53.8 18.0413 46.55V44.62" stroke="white" stroke-width="1.5" stroke-linecap="round" stroke-linejoin="round"/>
<path d="M31.5712 44.62H16.1112C15.0412 44.62 14.1812 43.75 14.1812 42.69V38.82C14.1812 37.75 15.0512 36.89 16.1112 36.89H79.9012C80.9712 36.89 81.8312 37.76 81.8312 38.82V42.69C81.8312 43.76 80.9612 44.62 79.9012 44.62H48.9712" stroke="white" stroke-width="1.5" stroke-linecap="round" stroke-linejoin="round"/>
</svg>
