<?xml version="1.0" encoding="utf-8"?>
<!-- Generator: Adobe Illustrator 27.5.0, SVG Export Plug-In . SVG Version: 6.00 Build 0)  -->
<svg version="1.1" id="Layer_1" xmlns="http://www.w3.org/2000/svg" xmlns:xlink="http://www.w3.org/1999/xlink" x="0px" y="0px"
	 width="96px" height="96px" viewBox="0 0 96 96" style="enable-background:new 0 0 96 96;" xml:space="preserve">
<style type="text/css">
	.st0{fill:none;stroke:#FFFFFF;stroke-width:2;stroke-miterlimit:10;}
	.st1{fill:none;stroke:#FFFFFF;stroke-width:2;stroke-linejoin:round;}
</style>
<g>
	<path class="st0" d="M60,78v10H36V66h18"/>
	<path class="st0" d="M42,76l6,6l14-16"/>
	<path class="st0" d="M94,66H70v22h24V66z"/>
	<path class="st0" d="M26,78v10H2V66h18"/>
	<path class="st0" d="M8,76l6,6l14-16"/>
	<path class="st0" d="M24,28c-4.7,0-8-3.8-8-8.6v-2.9c0-4.7,3.3-8.6,8-8.6s8,3.8,8,8.6v2.9C32,24.2,28.7,28,24,28z"/>
	<path class="st0" d="M8,58c0,0,1.3-11.1,2-16c0.7-4.9,3.6-8,8-8h4l14,16h12c0,0,0.9,8-6,8H30L20,46"/>
	<path class="st1" d="M38,44l8-12h26L60,52h-8"/>
	<path class="st1" d="M22,58h68"/>
</g>
</svg>
