<?xml version="1.0" encoding="utf-8"?>
<!-- Generator: Adobe Illustrator 27.5.0, SVG Export Plug-In . SVG Version: 6.00 Build 0)  -->
<svg version="1.1" id="Layer_1" xmlns="http://www.w3.org/2000/svg" xmlns:xlink="http://www.w3.org/1999/xlink" x="0px" y="0px"
	 width="96px" height="96px" viewBox="0 0 96 96" style="enable-background:new 0 0 96 96;" xml:space="preserve">
<style type="text/css">
	.st0{fill:none;stroke:#FFFFFF;stroke-width:2;stroke-linecap:round;stroke-miterlimit:10;}
</style>
<g>
	<path class="st0" d="M20.4,31.7h4.1c1.1,0,2-0.9,2-2v-8.2c0-1.1-0.9-2-2-2h-4.1c-1.1,0-2,0.9-2,2v8.2
		C18.4,30.7,19.3,31.7,20.4,31.7z"/>
	<path class="st0" d="M83.7,31.7V21.4c0-1.1-0.9-2-2-2h-4.1c-1.1,0-2,0.9-2,2v4.1"/>
	<path class="st0" d="M55.1,25.5v-4.1c0-1.1-0.9-2-2-2H49c-1.1,0-2,0.9-2,2v10.2"/>
	<path class="st0" d="M36.8,19.4v12.3"/>
	<path class="st0" d="M65.4,19.4v4.1"/>
	<path class="st0" d="M2,64.3v12.3"/>
	<path class="st0" d="M4.1,31.7h4.1c1.1,0,2-0.9,2-2v-8.2c0-1.1-0.9-2-2-2H4.1c-1.1,0-2,0.9-2,2v8.2C2,30.7,3,31.7,4.1,31.7z"/>
	<path class="st0" d="M4.1,54.1h4.1c1.1,0,2-0.9,2-2v-8.2c0-1.1-0.9-2-2-2H4.1c-1.1,0-2,0.9-2,2v8.2C2,53.2,3,54.1,4.1,54.1z"/>
	<path class="st0" d="M30.6,54.1h4.1c1.1,0,2-0.9,2-2v-8.2c0-1.1-0.9-2-2-2h-4.1c-1.1,0-2,0.9-2,2v8.2
		C28.6,53.2,29.5,54.1,30.6,54.1z"/>
	<path class="st0" d="M18.4,41.9v12.3"/>
	<path class="st0" d="M18.4,64.3h-4.1c-1.1,0-2,0.9-2,2v8.2c0,1.1,0.9,2,2,2h4.1c1.1,0,2-0.9,2-2v-8.2
		C20.4,65.3,19.5,64.3,18.4,64.3z"/>
	<path class="st0" d="M77.6,70.5v4.1c0,1.1-0.9,2-2,2h-4.1c-1.1,0-2-0.9-2-2v-2"/>
	<path class="st0" d="M59.2,72.5v2c0,1.1-0.9,2-2,2h-4.1c-1.1,0-2-0.9-2-2v-6.1"/>
	<path class="st0" d="M30.6,64.3v12.3"/>
	<path class="st0" d="M40.9,64.3v12.3"/>
	<path class="st0" d="M65.4,66.4c10.2,0,18.4-8.2,18.4-18.4c0-10.2-8.2-18.4-18.4-18.4C55.2,29.6,47,37.8,47,48
		C47,58.2,55.2,66.4,65.4,66.4z"/>
	<path class="st0" d="M59.2,54.1h4.1c1.1,0,2-0.9,2-2v-8.2c0-1.1-0.9-2-2-2h-4.1c-1.1,0-2,0.9-2,2v8.2
		C57.2,53.2,58.1,54.1,59.2,54.1z"/>
	<path class="st0" d="M73.5,41.9v12.3"/>
	<path class="st0" d="M78.4,61L94,76.6"/>
</g>
</svg>
