<?xml version="1.0" encoding="utf-8"?>
<!-- Generator: Adobe Illustrator 27.5.0, SVG Export Plug-In . SVG Version: 6.00 Build 0)  -->
<svg version="1.1" id="Layer_1" xmlns="http://www.w3.org/2000/svg" xmlns:xlink="http://www.w3.org/1999/xlink" x="0px" y="0px"
	 width="96px" height="96px" viewBox="0 0 96 96" style="enable-background:new 0 0 96 96;" xml:space="preserve">
<style type="text/css">
	.st0{fill:none;stroke:#FFFFFF;stroke-width:2;stroke-linejoin:round;}
</style>
<g>
	<path class="st0" d="M72,13.8v-8H2v56h6"/>
	<path class="st0" d="M6,17.8h22"/>
	<path class="st0" d="M8,11.8h4"/>
	<path class="st0" d="M14,11.8h4"/>
	<path class="st0" d="M32,39.8v-22h62v54H62"/>
	<path class="st0" d="M36,29.8h54"/>
	<path class="st0" d="M38,23.8h4"/>
	<path class="st0" d="M44,23.8h4"/>
	<path class="st0" d="M57.6,63l-2.9-7.1l-4.3,1.4c-1.2-1.7-2.6-3.1-4.3-4.3l1.4-4.3l-7.1-2.9l-2,4.1c-2-0.3-4-0.3-6,0l-2-4.1
		l-7.1,2.9l1.4,4.3c-1.7,1.2-3.1,2.6-4.3,4.3l-4.3-1.4l-2.9,7.1l4.1,2c-0.3,2-0.3,4,0,6l-4.1,2l2.9,7.1l4.3-1.4
		c1.2,1.7,2.6,3.1,4.3,4.3l-1.4,4.3l7.1,2.9l2-4.1c2,0.3,4,0.3,6,0l2,4.1l7.1-2.9l-1.4-4.3c1.7-1.2,3.1-2.6,4.3-4.3l4.3,1.4l2.9-7.1
		l-4.1-2c0.3-2,0.3-4,0-6L57.6,63z"/>
	<path class="st0" d="M35.7,75.6c4,0,7.3-3.3,7.3-7.3c0-4-3.3-7.3-7.3-7.3c-4,0-7.3,3.3-7.3,7.3C28.4,72.3,31.7,75.6,35.7,75.6z"/>
</g>
</svg>
