<?xml version="1.0" encoding="utf-8"?>
<!-- Generator: Adobe Illustrator 27.5.0, SVG Export Plug-In . SVG Version: 6.00 Build 0)  -->
<svg version="1.1" id="Layer_1" xmlns="http://www.w3.org/2000/svg" xmlns:xlink="http://www.w3.org/1999/xlink" x="0px" y="0px"
	 width="96px" height="96px" viewBox="0 0 96 96" style="enable-background:new 0 0 96 96;" xml:space="preserve">
<style type="text/css">
	.st0{fill:none;stroke:#FFFFFF;stroke-width:2;stroke-miterlimit:10;}
	.st1{fill:none;stroke:#FFFFFF;stroke-width:2;stroke-linecap:round;stroke-miterlimit:10;}
</style>
<path class="st0" d="M76.3,70.4v23.5H1.6V2.1h74.7v19.2"/>
<path class="st0" d="M1.6,14.9h74.7"/>
<path class="st0" d="M8,8.5h4.3"/>
<path class="st0" d="M14.4,8.5h4.3"/>
<path class="st0" d="M42.2,25.6H12.3v21.3h29.9V25.6z"/>
<path class="st0" d="M10.2,57.6h36.3"/>
<path class="st0" d="M10.2,66.1h40.5"/>
<path class="st0" d="M10.2,74.7h25.6"/>
<path class="st0" d="M10.2,83.2h25.6"/>
<path class="st0" d="M42.2,74.7h25.6"/>
<path class="st0" d="M42.2,83.2h25.6"/>
<path class="st0" d="M67.8,61.9c9.4,0,17.1-7.6,17.1-17.1s-7.6-17.1-17.1-17.1c-9.4,0-17.1,7.6-17.1,17.1S58.3,61.9,67.8,61.9z"/>
<path class="st1" d="M59.2,44.8c0-4.7,3.8-8.5,8.5-8.5"/>
<path class="st1" d="M80.8,55.7l12.5,12.5"/>
</svg>
