<?xml version="1.0" encoding="utf-8"?>
<!-- Generator: Adobe Illustrator 27.5.0, SVG Export Plug-In . SVG Version: 6.00 Build 0)  -->
<svg version="1.1" id="Layer_1" xmlns="http://www.w3.org/2000/svg" xmlns:xlink="http://www.w3.org/1999/xlink" x="0px" y="0px"
	 width="96px" height="96px" viewBox="0 0 96 96" style="enable-background:new 0 0 96 96;" xml:space="preserve">
<style type="text/css">
	.st0{fill:none;stroke:#FFFFFF;stroke-width:2;stroke-linejoin:round;}
	.st1{fill:none;stroke:#FFFFFF;stroke-width:2;stroke-linecap:round;stroke-miterlimit:10;}
</style>
<g>
	<path class="st0" d="M65.5,48c0-0.8-0.1-1.6-0.2-2.4l4.3-4l-5.2-9.1l-5.5,1.7c-1.3-1-2.7-1.8-4.2-2.4l-1.3-5.7H42.8l-1.3,5.7
		c-1.5,0.6-2.9,1.4-4.2,2.4l-5.5-1.7l-5.2,9.1l4.3,4c-0.1,0.8-0.2,1.6-0.2,2.4s0.1,1.6,0.2,2.4l-4.3,4l5.2,9.1l5.5-1.7
		c1.3,1,2.7,1.8,4.2,2.4l1.3,5.7h10.5l1.3-5.7c1.5-0.6,2.9-1.4,4.2-2.4l5.5,1.7l5.2-9.1l-4.3-4C65.4,49.6,65.5,48.8,65.5,48z"/>
	<path class="st0" d="M48,54.5c3.6,0,6.5-2.9,6.5-6.5c0-3.6-2.9-6.5-6.5-6.5c-3.6,0-6.5,2.9-6.5,6.5C41.5,51.6,44.4,54.5,48,54.5z"
		/>
	<path class="st1" d="M24,76.4H10.9v13.1"/>
	<path class="st1" d="M89.7,29.4c2.7,5.9,4.1,12.3,4.1,18.6c0,11.8-4.6,23.5-13.6,32.5S59.7,93.7,48,93.8
		C35.2,93.9,25.8,90,17.5,82.9c-1.5-1.3-6.5-6.5-6.5-6.5"/>
	<path class="st1" d="M6.3,66.6C3.6,60.7,2.2,54.3,2.2,48c0-11.8,4.6-23.5,13.6-32.5C24.6,6.7,36.3,2.3,48,2.2
		C60.8,2.1,70.2,6,78.5,13.1c1.5,1.3,6.5,6.5,6.5,6.5"/>
	<path class="st1" d="M72,19.6h13.1V6.5"/>
</g>
</svg>
