<?xml version="1.0" encoding="utf-8"?>
<!-- Generator: Adobe Illustrator 27.5.0, SVG Export Plug-In . SVG Version: 6.00 Build 0)  -->
<svg version="1.1" id="Layer_1" xmlns="http://www.w3.org/2000/svg" xmlns:xlink="http://www.w3.org/1999/xlink" x="0px" y="0px"
	 width="96px" height="96px" viewBox="0 0 96 96" style="enable-background:new 0 0 96 96;" xml:space="preserve">
<style type="text/css">
	.st0{fill:none;stroke:#FFFFFF;stroke-width:2;stroke-miterlimit:10;}
	.st1{fill:none;stroke:#FFFFFF;stroke-width:2;stroke-linejoin:round;}
</style>
<path class="st0" d="M42,25v-6h52v60H42V45"/>
<path class="st0" d="M20,25c4.6,0,8-3.8,8-8.6v-2.9C28,8.8,24.6,5,20,5s-8,3.8-8,8.6v2.9C12,21.2,15.4,25,20,25z"/>
<path class="st0" d="M30,93V39h10c6,0,8-3.6,8-8H12C4.8,31,2,34,2,43v14c0,4.3,1.7,8,6,8h2"/>
<path class="st0" d="M20,59v34"/>
<path class="st0" d="M10,43v50"/>
<path class="st1" d="M74.1,49c0,3.3-2.7,6-6,6c-3.3,0-6-2.7-6-6s2.7-6,6-6C71.4,42.9,74.1,45.6,74.1,49z"/>
<path class="st1" d="M82,49c0-1.1-0.1-2.2-0.4-3.2l3.9-2.3l-4-6.9l-3.9,2.3c-1.6-1.5-3.5-2.6-5.7-3.3V31h-8v4.6
	c-2.1,0.6-4,1.8-5.6,3.3l-4-2.3l-4,6.9l4,2.3c-0.2,1-0.4,2.1-0.4,3.2c0,1.1,0.1,2.2,0.4,3.3l-4,2.3l4,6.9l4-2.3
	c1.6,1.5,3.4,2.6,5.5,3.2V67h8v-4.6c2.1-0.6,4-1.7,5.6-3.2l4,2.3l4-6.9l-4-2.3C81.9,51.2,82,50.1,82,49L82,49z"/>
</svg>
