<?xml version="1.0" encoding="utf-8"?>
<!-- Generator: Adobe Illustrator 27.5.0, SVG Export Plug-In . SVG Version: 6.00 Build 0)  -->
<svg version="1.1" id="Layer_1" xmlns="http://www.w3.org/2000/svg" xmlns:xlink="http://www.w3.org/1999/xlink" x="0px" y="0px"
	 width="96px" height="96px" viewBox="0 0 96 96" style="enable-background:new 0 0 96 96;" xml:space="preserve">
<style type="text/css">
	.st0{fill:none;stroke:#FFFFFF;stroke-width:2;stroke-miterlimit:10;}
	.st1{fill:none;stroke:#FFFFFF;stroke-width:2;stroke-linejoin:round;}
</style>
<g>
	<path class="st0" d="M75.1,23v12.5h12.5C87.7,28.6,82,23,75.1,23z"/>
	<path class="st0" d="M83.5,39.7c0,6.9-5.6,12.5-12.5,12.5s-12.5-5.6-12.5-12.5c0-6.9,5.6-12.5,12.5-12.5"/>
	<path class="st0" d="M33.4,29.2h16.7"/>
	<path class="st0" d="M33.4,37.6h16.7"/>
	<path class="st0" d="M33.4,45.9h10.4"/>
	<path class="st1" d="M48,87.7c9.2,0,16.7-7.5,16.7-16.7c0-9.2-7.5-16.7-16.7-16.7c-9.2,0-16.7,7.5-16.7,16.7
		C31.3,80.2,38.8,87.7,48,87.7z"/>
	<path class="st1" d="M58.4,83.5l10.4,10.4"/>
	<path class="st1" d="M41.7,77.2V71"/>
	<path class="st1" d="M48,77.2V62.6"/>
	<path class="st1" d="M54.3,77.2V66.8"/>
	<path class="st1" d="M68.9,79.3h23c1.1,0,2.1-0.9,2.1-2.1v-73c0-1.1-0.9-2.1-2.1-2.1H23c-1.1,0-2.1,0.9-2.1,2.1v73
		c0,1.1,0.9,2.1,2.1,2.1h4.2"/>
	<path class="st1" d="M25,14.6h64.7"/>
	<path class="st1" d="M27.1,8.3h4.2"/>
	<path class="st1" d="M33.4,8.3h4.2"/>
	<path class="st1" d="M7.3,20.9c-2.9,0-5.2,1.9-5.2,4.2v58.4l5.2,10.4l5.2-10.4V25C12.5,22.7,10.2,20.9,7.3,20.9z"/>
	<path class="st1" d="M2.1,33.4h10.4"/>
</g>
</svg>
