<svg width="146" height="145" viewBox="0 0 146 145" fill="none" xmlns="http://www.w3.org/2000/svg">
<g clip-path="url(#clip0_744_8097)">
<path d="M126.531 36.9368C124.616 41.7315 126.94 47.1476 131.733 49.0628C136.528 50.978 141.944 48.6544 143.859 43.8613C145.774 39.0666 143.451 33.6505 138.657 31.7353C133.863 29.8186 128.447 32.1422 126.531 36.9368Z" stroke="white" stroke-width="2" stroke-dasharray="4 4"/>
<path d="M94.7607 55.9494H107.201L116.531 40.3984H125.861" stroke="white" stroke-width="2"/>
<path d="M125.861 102.601H116.531L107.201 87.0498H94.7607" stroke="white" stroke-width="2"/>
<path d="M51.2187 55.9494H38.7782L29.4481 40.3984H20.1182" stroke="white" stroke-width="2"/>
<path d="M20.1182 102.601H29.4481L38.7782 87.0498H51.2187" stroke="white" stroke-width="2"/>
<path d="M20.1182 71.5H44.9992H51.2187" stroke="white" stroke-width="2"/>
<path d="M94.7607 71.5H100.98H125.855" stroke="white" stroke-width="2"/>
<path d="M44.7842 42.5142C52.0619 35.4229 62.0134 31.0693 72.9933 31.0693C83.9717 31.0693 93.7368 35.3618 100.985 42.3279" stroke="white" stroke-width="2"/>
<path d="M101.762 99.8945C94.422 107.327 84.2529 111.931 72.9943 111.931C61.7357 111.931 52.2507 107.639 45.0029 100.673" stroke="white" stroke-width="2"/>
<path d="M33.6787 31.6284C43.7867 21.6754 57.658 15.5186 72.9586 15.5186C88.2592 15.5186 101.634 21.428 111.68 31.0695" stroke="white" stroke-width="2"/>
<path d="M33.6787 111.931C43.7867 121.541 57.658 127.482 72.9586 127.482C88.2592 127.482 101.634 121.758 111.68 112.46" stroke="white" stroke-width="2"/>
<path d="M63.6622 77.7203V80.8308C63.6622 84.2513 66.4612 87.0503 69.8817 87.0503H76.1012C79.5217 87.0503 82.3207 84.2513 82.3207 80.8308V79.0885C82.3207 76.4132 80.6097 74.0196 78.0596 73.179L67.9203 69.7883C65.3702 68.9492 63.6592 66.5541 63.6592 63.8788V62.1365C63.6592 58.716 66.4582 55.917 69.8787 55.917H76.0982C79.5187 55.917 82.3177 58.716 82.3177 62.1365V65.247" stroke="white" stroke-width="2"/>
<path d="M72.9912 55.9491V46.6191" stroke="white" stroke-width="2"/>
<path d="M72.9912 87.0498V96.3798" stroke="white" stroke-width="2"/>
<path d="M126.531 68.0384C124.616 72.8331 126.94 78.2492 131.733 80.1644C136.528 82.0796 141.944 79.756 143.859 74.9629C145.774 70.1682 143.451 64.752 138.657 62.8368C133.863 60.9202 128.447 63.2438 126.531 68.0384Z" stroke="white" stroke-width="2" stroke-dasharray="4 4"/>
<path d="M126.531 99.139C124.616 103.934 126.94 109.35 131.733 111.265C136.528 113.18 141.944 110.857 143.859 106.063C145.774 101.269 143.451 95.8526 138.657 93.9374C133.863 92.0208 128.447 94.3443 126.531 99.139Z" stroke="white" stroke-width="2" stroke-dasharray="4 4"/>
<path d="M5.5914 32.6476C1.30199 35.5211 0.158865 41.3024 3.03239 45.5919C5.90591 49.8813 11.6872 51.0244 15.9766 48.1509C20.2661 45.2774 21.4092 39.496 18.5357 35.2066C15.6636 30.9172 9.88081 29.7741 5.5914 32.6476Z" stroke="white" stroke-width="2" stroke-dasharray="4 4"/>
<path d="M5.6598 63.7023C1.34505 66.537 0.151223 72.3094 2.98748 76.6241C5.82225 80.9389 11.5946 82.1327 15.9094 79.2964C20.2241 76.4602 21.4179 70.6893 18.5817 66.3746C15.7454 62.0613 9.97454 60.8675 5.6598 63.7023Z" stroke="white" stroke-width="2" stroke-dasharray="4 4"/>
<path d="M5.92492 94.6363C1.51776 97.325 0.130208 103.053 2.81892 107.46C5.50762 111.867 11.2353 113.255 15.6425 110.566C20.0496 107.877 21.4372 102.149 18.7485 97.7423C16.0612 93.3351 10.3321 91.9476 5.92492 94.6363Z" stroke="white" stroke-width="2" stroke-dasharray="4 4"/>
</g>
<defs>
<clipPath id="clip0_744_8097">
<rect width="146" height="145" fill="white" transform="translate(0.000976562)"/>
</clipPath>
</defs>
</svg>
