<svg width="145" height="145" viewBox="0 0 145 145" fill="none" xmlns="http://www.w3.org/2000/svg">
<path d="M88.0192 65.8142V132.066C88.0192 137.065 83.9839 141.101 78.9848 141.101H24.7785C19.7795 141.101 15.7441 137.065 15.7441 132.066V26.6652C15.7441 21.6662 19.7795 17.6309 24.7785 17.6309H42.8473" stroke="white" stroke-width="2" stroke-linejoin="round"/>
<path d="M15.7441 123.032H88.0192" stroke="white" stroke-width="2" stroke-linejoin="round"/>
<path d="M15.7441 32.6875H42.8473" stroke="white" stroke-width="2" stroke-linejoin="round"/>
<path d="M45.8594 132.066H57.9052" stroke="white" stroke-width="2" stroke-linejoin="round"/>
<path d="M15.7441 97.4347L23.845 86.6838C25.2001 84.8769 28.7537 85.2684 29.3861 87.2861L33.9936 101.952C34.7766 104.421 39.3841 104.271 39.8961 101.771L44.1422 81.5342C44.6843 78.9142 49.6532 78.9443 50.1049 81.5944L54.7727 108.938C55.2244 111.558 60.103 111.649 60.7354 109.059L65.1923 90.0867C65.7344 87.7679 69.9504 87.4969 70.9743 89.7254L75.0398 98.3683C75.883 100.145 78.9848 100.446 80.3701 98.8802C80.3701 98.8802 82.8997 96.0193 84.285 94.8449C85.6703 93.7005 88.0493 93.58 88.0493 93.58" stroke="white" stroke-width="2" stroke-miterlimit="10"/>
<path d="M124.158 2.57324H54.894C51.5814 2.57324 48.8711 5.28356 48.8711 8.59617V50.7566C48.8711 54.0692 51.5814 56.7796 54.894 56.7796H63.9284V69.7288C63.9284 72.5295 67.4217 73.8244 69.2286 71.6863L81.9972 56.7796H124.158C127.47 56.7796 130.181 54.0692 130.181 50.7566V8.59617C130.181 5.28356 127.47 2.57324 124.158 2.57324Z" stroke="white" stroke-width="2" stroke-linejoin="round" stroke-dasharray="4 4"/>
</svg>
