<svg width="150" height="150" viewBox="0 0 150 150" fill="none" xmlns="http://www.w3.org/2000/svg">
<path d="M111.031 26.2656H115.547" stroke="white" stroke-width="1.5" stroke-miterlimit="10"/>
<path d="M83.8904 39.9846L97.4532 26.2815H106.5" stroke="white" stroke-width="1.5" stroke-miterlimit="10"/>
<path d="M106.5 35.4062H101.984L94.6719 42.7968" stroke="white" stroke-width="1.5" stroke-miterlimit="10"/>
<path d="M111.031 35.4062H115.547" stroke="white" stroke-width="1.5" stroke-miterlimit="10"/>
<path d="M4.96851 39.7654C14.6091 36.0779 27.1716 32.9217 41.9997 32.8436C56.2028 32.7655 69.2654 40.5622 80.3748 49.0465C92.0935 49.9372 103.344 51.2653 114.5 60.4059L112.187 76.75L100.875 78.5624" stroke="white" stroke-width="1.5" stroke-miterlimit="10"/>
<path d="M5.42174 81.9688C6.98424 82.7813 8.74998 83.2502 10.625 83.2502C16.875 83.2502 21.9375 78.1407 21.9375 71.8282C21.9375 65.5157 16.875 60.4062 10.625 60.4062C8.48436 60.4062 6.5 61.0001 4.78125 62.047" stroke="white" stroke-width="1.5" stroke-miterlimit="10"/>
<path d="M83.6405 78.6721H19.6719" stroke="white" stroke-width="1.5" stroke-miterlimit="10"/>
<path d="M92.031 83.2346C98.281 83.2346 103.343 78.1251 103.343 71.8126C103.343 65.5001 98.281 60.3906 92.031 60.3906C85.781 60.3906 80.7185 65.5001 80.7185 71.8126C80.7341 78.1251 85.7966 83.2346 92.031 83.2346Z" stroke="white" stroke-width="1.5" stroke-miterlimit="10"/>
<path d="M37.7654 33.25V62.5312C37.7654 66.3906 40.8594 69.5156 44.6875 69.5156H71.6407" stroke="white" stroke-width="1.5" stroke-miterlimit="10"/>
<path d="M80.3748 49.031C77.2186 51.9373 73.0937 53.5312 68.8281 53.5312H4.39062" stroke="white" stroke-width="1.5" stroke-miterlimit="10"/>
<path d="M63.0934 106.984L60.9843 125.719C60.2811 130.703 56.0623 134.406 51.0779 134.406H98.4843C93.4999 134.406 89.281 130.703 88.5779 125.719L86.4687 106.984H63.0934Z" stroke="white" stroke-width="1.5" stroke-miterlimit="10"/>
<path d="M63.4689 106.984H10.875C7.45308 106.984 4.67188 104.187 4.67188 100.719V21.8594C4.67188 18.4063 7.45308 15.5938 10.875 15.5938H138.672C142.094 15.5938 144.875 18.3906 144.875 21.8594V100.719C144.875 104.172 142.094 106.984 138.672 106.984H86.4533" stroke="white" stroke-width="1.5" stroke-miterlimit="10"/>
<path d="M4.6875 91H144.875" stroke="white" stroke-width="1.5" stroke-miterlimit="10"/>
</svg>
