<svg width="150" height="150" viewBox="0 0 150 150" fill="none" xmlns="http://www.w3.org/2000/svg">
<path d="M38.3278 88.922C31.5466 88.922 26.281 83 26.281 76.3438V71.9063C26.281 65.2345 31.5622 59.3281 38.3278 59.3281C45.0934 59.3281 50.3754 65.2501 50.3754 71.9063V76.3438C50.3754 83.0156 45.0934 88.922 38.3278 88.922Z" stroke="white" stroke-width="1.5" stroke-miterlimit="8"/>
<path d="M12.8906 131.765C12.8906 104.797 12.8906 109.047 12.8906 109.047C12.8906 103.578 16.7186 99.6875 22.0779 99.6875H27.6253C29.9221 99.6875 32.125 100.734 33.5938 102.516L46.5782 118.406H64.9529C64.9529 118.406 66.4843 130.906 55.7655 130.906H37.3909L25.1564 115.281" stroke="white" stroke-width="1.5" stroke-miterlimit="8"/>
<path d="M55.719 108.5L67.3752 86.2341H114.641L97.0001 121.187H73.391" stroke="white" stroke-width="1.5" stroke-linejoin="round"/>
<path d="M27.9846 131.031H119.984" stroke="white" stroke-width="1.5" stroke-linejoin="round"/>
<path d="M121.86 99.2031L127.187 103.344L136.047 94.1562L128.781 84.1249C130.391 80.7968 132 77.4375 132.797 73.2656L144.875 72.4374V59.0782L132.797 58.25C132 54.0781 130.391 50.7186 128.781 47.3905L136.047 37.3594L127.187 28.1562L117.516 35.6874C114.297 34.0155 111.062 32.3594 107.047 31.5157L106.25 18.9844H93.3441L92.5468 31.5157C88.5312 32.3438 85.2809 34.0155 82.0778 35.6874L72.406 28.1562L63.5468 37.3594L70.797 47.3905C69.1876 50.7343 67.5785 54.0938 66.7816 58.25L63.4689 58.4844L60.9222 58.6719" stroke="white" stroke-width="1.5" stroke-linejoin="round"/>
<path d="M99.7971 77.4531C105.422 77.4531 110 72.8595 110 67.2032C110 61.547 105.438 56.9531 99.7971 56.9531C94.1564 56.9531 89.5935 61.547 89.5935 67.2032C89.5935 72.8595 94.1721 77.4531 99.7971 77.4531Z" stroke="white" stroke-width="1.5" stroke-miterlimit="8"/>
</svg>
