<svg width="145" height="145" viewBox="0 0 145 145" fill="none" xmlns="http://www.w3.org/2000/svg">
<path d="M110.749 137.036L110.957 92.721H135.091V137.036H10.8828V91.3311H33.1449" stroke="white" stroke-width="2"/>
<path d="M34.4453 136.673V46.9496L55.6984 23.1528C58.1479 20.4098 62.689 22.1425 62.689 25.8194V43.6209" stroke="white" stroke-width="2"/>
<path d="M17.123 91.331V73.9951L34.444 60.2637" stroke="white" stroke-width="2" stroke-dasharray="4 4"/>
<path d="M95.5606 137.037V59.0166H57.4863V137.037" stroke="white" stroke-width="2"/>
<path d="M96.8105 66.7148H114.287V77.325" stroke="white" stroke-width="2" stroke-dasharray="4 4"/>
<path d="M96.8105 77.3242H124.365" stroke="white" stroke-width="2" stroke-dasharray="4 4"/>
<path d="M121.775 92.7214V77.3242" stroke="white" stroke-width="2" stroke-dasharray="4 4"/>
<path d="M62.5859 59.0165V44.6611H90.4652V59.0165" stroke="white" stroke-width="2"/>
<path d="M71.1133 43.8286V30.5137H81.9324V43.8286" stroke="white" stroke-width="2"/>
<path d="M76.5234 29.8198V5.96289" stroke="white" stroke-width="2" stroke-dasharray="4 4"/>
<path d="M22.5332 126.842V102.499" stroke="white" stroke-width="2"/>
<path d="M68.9277 69.4189H83.492" stroke="white" stroke-width="2"/>
<path d="M68.9277 80.8613H83.492" stroke="white" stroke-width="2"/>
<path d="M68.9277 92.3057H83.492" stroke="white" stroke-width="2"/>
<path d="M68.9277 103.749H83.492" stroke="white" stroke-width="2"/>
<path d="M111.373 103.229H125.936" stroke="white" stroke-width="2"/>
<path d="M111.373 114.184H125.936" stroke="white" stroke-width="2"/>
<path d="M111.373 125.141H125.936" stroke="white" stroke-width="2"/>
<path d="M68.9277 115.191H83.492" stroke="white" stroke-width="2"/>
<path d="M68.9277 126.635H83.492" stroke="white" stroke-width="2"/>
<path d="M43.791 80.8613H47.7096" stroke="white" stroke-width="2"/>
<path d="M43.791 92.3057H47.7096" stroke="white" stroke-width="2"/>
<path d="M43.791 103.749H47.7096" stroke="white" stroke-width="2"/>
<path d="M43.791 115.191H47.7096" stroke="white" stroke-width="2"/>
<path d="M43.791 126.635H47.7096" stroke="white" stroke-width="2"/>
</svg>
