<svg width="150" height="151" viewBox="0 0 150 151" fill="none" xmlns="http://www.w3.org/2000/svg">
<g clip-path="url(#clip0_744_8035)">
<path d="M82.814 137.75V44.5938H108.517V67.0781" stroke="white" stroke-width="1.5"/>
<path d="M48.1111 137.266V5.5625H73.8141V137.266" stroke="white" stroke-width="1.5"/>
<path d="M10.4546 137.172V70.2188H38.1577V137.172" stroke="white" stroke-width="1.5" stroke-dasharray="4 4"/>
<path d="M2.23584 144.172H146.783" stroke="white" stroke-width="1.5"/>
<path d="M143.798 102.922L150.002 99.1719L147.22 92.4687L140.189 94.2031L140.064 94.25C138.486 91.9375 136.501 90 134.267 88.4687L134.33 88.3437L136.064 81.2969L129.361 78.5156L125.611 84.7188L125.564 84.8437C122.892 84.3437 120.127 84.3281 117.377 84.8437L117.33 84.7188L113.58 78.5156L106.876 81.2969L108.611 88.3437L108.658 88.4687C106.345 90.0469 104.408 92.0313 102.877 94.2657L102.736 94.2031L95.7046 92.4687L92.9233 99.1719L99.1264 102.922L99.2672 102.984C98.7672 105.656 98.7516 108.422 99.2672 111.172L99.1421 111.219L92.939 114.969L95.7203 121.672L102.767 119.938L102.892 119.891C104.47 122.203 106.455 124.141 108.689 125.672L108.642 125.797L106.908 132.844L113.626 135.625L117.377 129.422L117.439 129.297C120.111 129.797 122.876 129.813 125.626 129.297L125.673 129.422L129.424 135.625L136.142 132.844L134.408 125.797L134.361 125.672C136.673 124.094 138.611 122.109 140.158 119.875L140.283 119.938L147.33 121.672L150.111 114.969L143.908 111.219L143.767 111.156C144.267 108.5 144.283 105.719 143.767 102.969L143.798 102.922Z" stroke="white" stroke-width="1.5"/>
<path d="M124.814 115.094C129.236 113.266 131.345 108.187 129.501 103.766C127.673 99.3437 122.595 97.2343 118.173 99.0781C113.751 100.906 111.642 105.984 113.486 110.406C115.329 114.828 120.392 116.922 124.814 115.094Z" stroke="white" stroke-width="1.5"/>
</g>
<defs>
<clipPath id="clip0_744_8035">
<rect width="150" height="150" fill="white" transform="translate(0.00146484 0.5)"/>
</clipPath>
</defs>
</svg>
