<svg width="146" height="145" viewBox="0 0 146 145" fill="none" xmlns="http://www.w3.org/2000/svg">
<path d="M33.4277 72.7692C39.9445 72.7692 44.8089 67.3076 44.8089 60.5618V56.4935C44.8089 49.7504 39.9445 44.2861 33.4277 44.2861C26.9109 44.2861 22.0464 49.7477 22.0464 56.4935V60.5618C22.0464 67.3049 26.9136 72.7692 33.4277 72.7692Z" stroke="white" stroke-width="2"/>
<path d="M56.1908 86.9943C52.4061 84.9739 45.0385 81.5328 39.1189 81.3037H24.8937C14.7068 81.3037 7.82178 85.601 7.82178 98.3756V109.757C7.82178 121.138 17.0408 123.982 24.8937 123.982H36.2749" stroke="white" stroke-width="2"/>
<path d="M22.0464 95.5283V106.91C22.0464 108.475 23.328 109.753 24.8931 109.753H41.9649" stroke="white" stroke-width="2"/>
<path d="M19.2026 123.982V138.208" stroke="white" stroke-width="2"/>
<path d="M50.4995 129.673V138.207" stroke="white" stroke-width="2"/>
<path d="M69.7341 118.292H62.2194C60.7552 118.292 59.8035 116.751 60.458 115.445L64.1799 108.001C64.5125 107.333 65.1941 106.913 65.9412 106.913H74.3423C76.4473 106.913 77.8434 109.133 76.8754 111.039L74.8276 115.164C73.8597 117.1 71.8965 118.322 69.7341 118.322V118.292Z" stroke="white" stroke-width="2"/>
<path d="M33.4272 95.5283L47.6523 104.063" stroke="white" stroke-width="2"/>
<path d="M73.2615 106.91L78.9521 95.5283H50.499L33.4272 129.672H61.8803L67.5709 118.291" stroke="white" stroke-width="2"/>
<path d="M64.7254 7.32812H127.322C132.045 7.32812 135.856 11.1401 135.856 15.8627V55.6971C135.856 61.9848 130.763 67.0783 124.475 67.0783H87.4879L75.5368 83.0132C73.8871 85.2027 70.4161 84.0384 70.4161 81.3062V67.081H64.7254C60.0028 67.081 56.1909 63.2691 56.1909 58.5464V15.8682C56.1909 11.1401 60.0028 7.32812 64.7254 7.32812Z" stroke="white" stroke-width="2" stroke-dasharray="4 4"/>
<path d="M87.4878 41.4693V44.3132C87.4878 47.1299 90.1055 50.0039 93.2357 50.0039H98.8691C101.999 50.0039 104.559 47.1299 104.559 44.3132V43.4598C104.559 41.2675 103.024 39.3071 100.69 38.5954L91.387 35.8059C89.0529 35.0943 87.4878 33.1611 87.4878 30.9415V30.0881C87.4878 27.2714 90.0482 24.3975 93.1785 24.3975H98.8691C101.999 24.3975 104.559 27.2714 104.559 30.0881V32.932" stroke="white" stroke-width="2"/>
<path d="M96.0249 24.3982V17.1807" stroke="white" stroke-width="2"/>
<path d="M96.0249 50.0068V57.2244" stroke="white" stroke-width="2"/>
</svg>
