<svg width="97" height="96" viewBox="0 0 97 96" fill="none" xmlns="http://www.w3.org/2000/svg">
<g clip-path="url(#clip0_3_8589)">
<path d="M92.2466 9.21143H3.75952C2.65047 9.21143 1.7514 10.1105 1.7514 11.2195V85.6298C1.7514 86.7388 2.65047 87.6379 3.75952 87.6379H92.2466C93.3556 87.6379 94.2547 86.7388 94.2547 85.6298V11.2195C94.2547 10.1105 93.3556 9.21143 92.2466 9.21143Z" stroke="white" stroke-width="2" stroke-miterlimit="10.01"/>
<path d="M1.7514 21.2803H94.2547" stroke="white" stroke-width="2" stroke-miterlimit="10.01"/>
<path d="M7.78577 15.2456H11.812" stroke="white" stroke-width="2" stroke-miterlimit="10.01"/>
<path d="M15.8282 15.2456H19.8544" stroke="white" stroke-width="2" stroke-miterlimit="10.01"/>
<path d="M23.8707 15.2456H27.8969" stroke="white" stroke-width="2" stroke-miterlimit="10.01"/>
<path d="M27.8969 29.3223V41.391H39.9656C39.9656 34.7272 34.5607 29.3223 27.8969 29.3223Z" stroke="white" stroke-width="2" stroke-miterlimit="10.01"/>
<path d="M35.9394 45.4076C35.9394 52.0713 30.5344 57.4762 23.8707 57.4762C17.2069 57.4762 11.802 52.0713 11.802 45.4076C11.802 38.7438 17.2069 33.3389 23.8707 33.3389" stroke="white" stroke-width="2" stroke-miterlimit="10.01"/>
<path d="M48.0081 33.3389H84.2041" stroke="white" stroke-width="2" stroke-miterlimit="10.01"/>
<path d="M48.0081 41.3911H84.2041" stroke="white" stroke-width="2" stroke-miterlimit="10.01"/>
<path d="M9.80383 69.5347H39.9656" stroke="white" stroke-width="2" stroke-miterlimit="10.01"/>
<path d="M9.80383 77.5771H27.8969" stroke="white" stroke-width="2" stroke-miterlimit="10.01"/>
<path d="M48.0081 49.4336H68.1092" stroke="white" stroke-width="2" stroke-miterlimit="10.01"/>
<path d="M66.1011 81.6037V67.5269H74.1435V81.6037" stroke="white" stroke-width="2" stroke-miterlimit="10.01"/>
<path d="M74.1436 81.6033V71.5527H82.186V81.6033" stroke="white" stroke-width="2" stroke-miterlimit="10.01"/>
<path d="M50.0162 81.6035V73.561H58.0586V81.6035" stroke="white" stroke-width="2" stroke-miterlimit="10.01"/>
<path d="M58.0586 81.6036V59.4844H66.1011V81.6036" stroke="white" stroke-width="2" stroke-miterlimit="10.01"/>
</g>
<defs>
<clipPath id="clip0_3_8589">
<rect width="96" height="96" fill="white" transform="translate(0.00305176)"/>
</clipPath>
</defs>
</svg>
