<svg width="97" height="96" viewBox="0 0 97 96" fill="none" xmlns="http://www.w3.org/2000/svg">
<path d="M38.3171 83.7313C49.0159 83.7313 57.689 75.4921 57.689 65.3285C57.689 55.165 49.0159 46.9258 38.3171 46.9258C27.6184 46.9258 18.9453 55.165 18.9453 65.3285C18.9453 75.4921 27.6184 83.7313 38.3171 83.7313Z" stroke="white" stroke-width="2" stroke-miterlimit="10.01"/>
<path d="M52.1641 78.2065L65.4417 91.4841" stroke="white" stroke-width="2" stroke-miterlimit="10.01"/>
<path d="M9.26438 41.1213C12.4757 41.1213 15.0789 38.518 15.0789 35.3067C15.0789 32.0954 12.4757 29.4922 9.26438 29.4922C6.05309 29.4922 3.44983 32.0954 3.44983 35.3067C3.44983 38.518 6.05309 41.1213 9.26438 41.1213Z" stroke="white" stroke-width="2" stroke-miterlimit="10.01"/>
<path d="M34.4508 21.7595C37.6621 21.7595 40.2653 19.1562 40.2653 15.9449C40.2653 12.7336 37.6621 10.1304 34.4508 10.1304C31.2395 10.1304 28.6362 12.7336 28.6362 15.9449C28.6362 19.1562 31.2395 21.7595 34.4508 21.7595Z" stroke="white" stroke-width="2" stroke-miterlimit="10.01"/>
<path d="M63.5035 37.2551C66.7148 37.2551 69.3181 34.6518 69.3181 31.4405C69.3181 28.2292 66.7148 25.626 63.5035 25.626C60.2922 25.626 57.689 28.2292 57.689 31.4405C57.689 34.6518 60.2922 37.2551 63.5035 37.2551Z" stroke="white" stroke-width="2" stroke-miterlimit="10.01"/>
<path d="M86.7417 17.883C89.953 17.883 92.5563 15.2797 92.5563 12.0685C92.5563 8.85717 89.953 6.25391 86.7417 6.25391C83.5304 6.25391 80.9272 8.85717 80.9272 12.0685C80.9272 15.2797 83.5304 17.883 86.7417 17.883Z" stroke="white" stroke-width="2" stroke-miterlimit="10.01"/>
<path d="M13.8701 31.7704L29.8451 19.4819" stroke="white" stroke-width="2" stroke-miterlimit="10.01"/>
<path d="M39.5759 18.6826L58.3783 28.7032" stroke="white" stroke-width="2" stroke-miterlimit="10.01"/>
<path d="M67.9594 27.724L82.2859 15.7852" stroke="white" stroke-width="2" stroke-miterlimit="10.01"/>
<path d="M9.26434 48.874V74.0504" stroke="white" stroke-width="2" stroke-miterlimit="10.01"/>
<path d="M18.9553 43.0596V48.8741" stroke="white" stroke-width="2" stroke-miterlimit="10.01"/>
<path d="M28.6362 31.4404V41.1214" stroke="white" stroke-width="2" stroke-miterlimit="10.01"/>
<path d="M38.3171 31.4404V39.1832" stroke="white" stroke-width="2" stroke-miterlimit="10.01"/>
<path d="M48.0081 37.2451V41.1215" stroke="white" stroke-width="2" stroke-miterlimit="10.01"/>
<path d="M57.689 43.0596V48.8741" stroke="white" stroke-width="2" stroke-miterlimit="10.01"/>
<path d="M67.3699 44.998V74.0508" stroke="white" stroke-width="2" stroke-miterlimit="10.01"/>
<path d="M77.0608 35.3071V74.0508" stroke="white" stroke-width="2" stroke-miterlimit="10.01"/>
<path d="M86.7417 27.564V74.0504" stroke="white" stroke-width="2" stroke-miterlimit="10.01"/>
</svg>
