<?xml version="1.0" encoding="utf-8"?>
<!-- Generator: Adobe Illustrator 27.5.0, SVG Export Plug-In . SVG Version: 6.00 Build 0)  -->
<svg version="1.1" id="Layer_1" xmlns="http://www.w3.org/2000/svg" xmlns:xlink="http://www.w3.org/1999/xlink" x="0px" y="0px"
	 width="97px" height="96px" viewBox="0 0 97 96" style="enable-background:new 0 0 97 96;" xml:space="preserve">
<style type="text/css">
	.st0{fill:none;stroke:#FFFFFF;stroke-width:2;stroke-miterlimit:10.01;}
</style>
<path class="st0" d="M38.8,37.4c-1.1,0-2-0.9-2-2v-4.1c0-2.3,6.7-6.1,12.2-6.1s12.2,3.8,12.2,6.1v4.1c0,1.1-0.9,2-2,2H38.8z"/>
<path class="st0" d="M49,25.1c4.9,0,8.2-3.9,8.2-8.7v-2.9c0-4.8-3.3-8.7-8.2-8.7c-4.9,0-8.2,3.9-8.2,8.7v2.9
	C40.8,21.2,44.1,25.1,49,25.1z"/>
<path class="st0" d="M38.8,90.4c-1.1,0-2-0.9-2-2v-4.1c0-2.3,6.7-6.1,12.2-6.1s12.2,3.8,12.2,6.1v4.1c0,1.1-0.9,2-2,2H38.8z"/>
<path class="st0" d="M49,78.2c4.9,0,8.2-3.9,8.2-8.7v-2.9c0-4.8-3.3-8.7-8.2-8.7c-4.9,0-8.2,3.9-8.2,8.7v2.9
	C40.8,74.3,44.1,78.2,49,78.2z"/>
<path class="st0" d="M6.1,65.9c-1.1,0-2-0.9-2-2v-4.1c0-2.3,6.7-6.1,12.2-6.1s12.2,3.8,12.2,6.1v4.1c0,1.1-0.9,2-2,2H6.1z"/>
<path class="st0" d="M16.3,53.7c4.9,0,8.2-3.9,8.2-8.7V42c0-4.8-3.3-8.7-8.2-8.7S8.2,37.2,8.2,42v2.9C8.2,49.8,11.4,53.7,16.3,53.7z
	"/>
<path class="st0" d="M71.4,65.9c-1.1,0-2-0.9-2-2v-4.1c0-2.3,6.7-6.1,12.2-6.1s12.2,3.8,12.2,6.1v4.1c0,1.1-0.9,2-2,2H71.4z"/>
<path class="st0" d="M81.7,53.7c4.9,0,8.2-3.9,8.2-8.7V42c0-4.8-3.3-8.7-8.2-8.7c-4.9,0-8.2,3.9-8.2,8.7v2.9
	C73.5,49.8,76.7,53.7,81.7,53.7z"/>
<path class="st0" d="M17.4,27.2c4.3-6.1,10.3-10.8,17.3-13.6"/>
<path class="st0" d="M30.6,83.8c-5.3-2.8-9.8-6.9-13.3-11.7"/>
<path class="st0" d="M80.6,27.2c-4.3-6.1-10.3-10.8-17.3-13.6"/>
<path class="st0" d="M67.4,83.8c5.3-2.8,9.8-6.9,13.3-11.7"/>
</svg>
