<svg width="96" height="87" viewBox="0 0 96 87" fill="none" xmlns="http://www.w3.org/2000/svg">
<g clip-path="url(#clip0_3_8636)">
<path d="M95.0552 23.161L48.001 2.70264L0.946899 23.161" stroke="white" stroke-width="2" stroke-miterlimit="10"/>
<path d="M93.0094 31.3442H2.99274" stroke="white" stroke-width="2" stroke-miterlimit="10"/>
<path d="M17.3135 70.2153V39.5278H5.03854V78.3987" stroke="white" stroke-width="2" stroke-miterlimit="10"/>
<path d="M13.2219 76.3525H82.7802" stroke="white" stroke-width="2" stroke-miterlimit="10"/>
<path d="M2.99274 84.5361H93.0094" stroke="white" stroke-width="2" stroke-miterlimit="10"/>
<path d="M48.001 25.2066C51.3907 25.2066 54.1385 22.4588 54.1385 19.0691C54.1385 15.6795 51.3907 12.9316 48.001 12.9316C44.6114 12.9316 41.8635 15.6795 41.8635 19.0691C41.8635 22.4588 44.6114 25.2066 48.001 25.2066Z" stroke="white" stroke-width="2" stroke-miterlimit="10"/>
<path d="M5.03854 49.7568H11.176" stroke="white" stroke-width="2" stroke-miterlimit="10"/>
<path d="M5.03854 59.9858H11.176" stroke="white" stroke-width="2" stroke-miterlimit="10"/>
<path d="M5.03854 70.2148H11.176" stroke="white" stroke-width="2" stroke-miterlimit="10"/>
<path d="M78.6885 70.2153V39.5278H90.9635V78.3987" stroke="white" stroke-width="2" stroke-miterlimit="10"/>
<path d="M90.9635 49.7568H84.826" stroke="white" stroke-width="2" stroke-miterlimit="10"/>
<path d="M90.9635 59.9858H84.826" stroke="white" stroke-width="2" stroke-miterlimit="10"/>
<path d="M90.9635 70.2148H84.826" stroke="white" stroke-width="2" stroke-miterlimit="10"/>
<path d="M25.4969 70.2153V43.6195C25.4969 41.3691 27.3381 39.5278 29.5886 39.5278C31.839 39.5278 33.6802 41.3691 33.6802 43.6195V70.2153" stroke="white" stroke-width="2" stroke-miterlimit="10"/>
<path d="M43.9094 70.2153V43.6195C43.9094 41.3691 45.7506 39.5278 48.001 39.5278C50.2514 39.5278 52.0927 41.3691 52.0927 43.6195V70.2153" stroke="white" stroke-width="2" stroke-miterlimit="10"/>
<path d="M62.3218 70.2153V43.6195C62.3218 41.3691 64.1631 39.5278 66.4135 39.5278C68.6639 39.5278 70.5052 41.3691 70.5052 43.6195V70.2153" stroke="white" stroke-width="2" stroke-miterlimit="10"/>
</g>
<defs>
<clipPath id="clip0_3_8636">
<rect width="96" height="86.1091" fill="white" transform="translate(0.0010376 0.472656)"/>
</clipPath>
</defs>
</svg>
