<svg width="96" height="96" viewBox="0 0 96 96" fill="none" xmlns="http://www.w3.org/2000/svg">
<g clip-path="url(#clip0_3_8569)">
<path d="M28.211 43.3999V46.8499M28.211 62.9499V66.3999M22.461 60.3099C22.461 62.0899 24.221 62.9499 26.331 62.9499H30.121C32.241 62.9499 33.951 61.1499 33.951 59.3699V58.8299C33.951 57.4399 32.921 56.2199 31.351 55.7799L25.081 54.0299C23.521 53.5899 22.451 52.3599 22.451 50.9799V50.4399C22.451 48.6599 24.171 46.8599 26.281 46.8599H30.111C32.231 46.8599 33.941 47.9799 33.941 49.7499M73.031 74.4499V81.3499M63.831 62.9499V81.3499M54.631 69.8499V81.3499M75.321 49.1599H56.921M75.321 39.9599H52.331M75.321 30.7599H45.431M15.541 69.8499L1.74103 83.6499M34.111 7.64986L34.091 14.5499L27.191 14.5299M20.161 81.3399V95.1399H91.441V0.859863H29.351L20.151 10.0599V28.4599M47.731 54.9099C47.731 65.6999 38.981 74.4499 28.191 74.4499C17.401 74.4499 8.65103 65.6999 8.65103 54.9099C8.65103 44.1199 17.401 35.3699 28.191 35.3699C38.981 35.3699 47.731 44.1199 47.731 54.9099Z" stroke="white" stroke-width="2" stroke-miterlimit="10"/>
</g>
<defs>
<clipPath id="clip0_3_8569">
<rect width="96" height="96" fill="white" transform="translate(0.0010376)"/>
</clipPath>
</defs>
</svg>
