<svg width="150" height="150" viewBox="0 0 150 150" fill="none" xmlns="http://www.w3.org/2000/svg">
<path d="M57.6563 102.453H141.453V18.6562V9.98438H8.54688V50.4375" stroke="white" stroke-width="1.5" stroke-linecap="round" stroke-linejoin="round"/>
<path d="M34.5469 50.4375C41.1563 50.4375 46.1094 44.8906 46.1094 38.0625V33.9375C46.1094 27.0937 41.1719 21.5625 34.5469 21.5625C27.9219 21.5625 22.9844 27.1094 22.9844 33.9375V38.0625C22.9844 44.9063 27.9219 50.4375 34.5469 50.4375Z" stroke="white" stroke-width="1.5" stroke-linecap="round" stroke-linejoin="round"/>
<path d="M49 140.016V70.6719H66.3438C75.0625 70.6719 77.9063 65.5313 77.9063 59.1094H22.9844C12.625 59.1094 8.53125 63.4844 8.53125 76.4531V96.6719C8.53125 102.875 11 108.234 17.2031 108.234" stroke="white" stroke-width="1.5" stroke-linecap="round" stroke-linejoin="round"/>
<path d="M34.5469 99.5625V140.016" stroke="white" stroke-width="1.5" stroke-linecap="round" stroke-linejoin="round"/>
<path d="M20.0938 76.4375V140.016" stroke="white" stroke-width="1.5" stroke-linecap="round" stroke-linejoin="round"/>
<path d="M75 75L95.2187 85.1094L124.125 70.6719V38.875L95.2187 24.4375L66.3281 38.875V53.3281" stroke="white" stroke-width="1.5" stroke-linecap="round" stroke-linejoin="round"/>
<path d="M74.9844 43.2188L95.2187 53.3281" stroke="white" stroke-width="1.5" stroke-linecap="round" stroke-linejoin="round"/>
<path d="M115.469 43.2188L95.2188 53.3281" stroke="white" stroke-width="1.5" stroke-linecap="round" stroke-linejoin="round"/>
<path d="M95.2188 53.3281V76.4375" stroke="white" stroke-width="1.5" stroke-linecap="round" stroke-linejoin="round"/>
</svg>
