<svg width="150" height="150" viewBox="0 0 150 150" fill="none" xmlns="http://www.w3.org/2000/svg">
<path d="M49.4374 34.3125C49.4999 34.2656 49.5469 34.2344 49.6094 34.2031C50.3125 33.7187 51.0315 33.25 51.7502 32.7969" stroke="white" stroke-width="1.5"/>
<path d="M56.5937 30.0625C64.6875 25.9844 73.828 23.6875 83.5155 23.6875C116.687 23.6875 143.594 50.6406 143.594 83.8594C143.594 117.078 116.703 144.031 83.5155 144.031C50.328 144.031 23.4375 117.078 23.4375 83.8594C23.4375 73.3125 26.1407 63.4219 30.9063 54.7969" stroke="white" stroke-width="1.5" stroke-dasharray="3.94 3.94"/>
<path d="M32.2811 52.4219C32.7655 51.625 33.2658 50.8594 33.7814 50.0938" stroke="white" stroke-width="1.5"/>
<path d="M59.2498 48.8125C59.5311 48.6094 59.8437 48.4062 60.1406 48.2187C66.8437 43.7812 74.8905 41.2188 83.5155 41.2188C107.016 41.2188 126.094 60.2969 126.094 83.8594C126.094 107.422 107.031 126.5 83.5155 126.5C59.9843 126.5 40.9218 107.422 40.9218 83.8594C40.9218 75.2031 43.4999 67.1562 47.9374 60.4375" stroke="white" stroke-width="1.5"/>
<path d="M72.7345 60.625C76.0001 59.0937 79.6562 58.2344 83.5156 58.2344C97.6406 58.2344 109.094 69.7031 109.094 83.8437C109.094 98 97.6249 109.453 83.5156 109.453C69.3749 109.453 57.922 97.9844 57.922 83.8437C57.922 79.9844 58.7658 76.3281 60.3283 73.0469" stroke="white" stroke-width="1.5"/>
<path d="M83.4999 92.7344C88.3905 92.7344 92.3595 88.7656 92.3595 83.8594C92.3595 78.9531 88.3905 74.9844 83.4999 74.9844C78.6093 74.9844 74.6406 78.9531 74.6406 83.8594C74.6562 88.7656 78.6249 92.7344 83.4999 92.7344Z" stroke="white" stroke-width="1.5"/>
<path d="M40.9687 41.2656L41.0782 22.9063L24.6094 6.42188V24.8906L83.5155 83.875" stroke="white" stroke-width="1.5"/>
<path d="M39.125 39.375L41.0782 41.3438L38.3125 41.3906" stroke="white" stroke-width="1.5"/>
<path d="M33.9374 41.4688L27.3906 41.5938" stroke="white" stroke-width="1.5"/>
<path d="M25.2029 41.625L22.4376 41.6719L20.4689 39.7031" stroke="white" stroke-width="1.5"/>
<path d="M16.2968 35.5313L10.0311 29.25" stroke="white" stroke-width="1.5"/>
<path d="M7.93764 27.1562L5.96887 25.1875L8.73453 25.1562" stroke="white" stroke-width="1.5"/>
<path d="M13.1405 25.0937L19.7342 25" stroke="white" stroke-width="1.5"/>
<path d="M21.9376 24.9844L24.7033 24.9531L26.672 26.9219" stroke="white" stroke-width="1.5"/>
<path d="M30.8281 31.0625L37.0468 37.2969" stroke="white" stroke-width="1.5"/>
</svg>
