<svg width="150" height="150" viewBox="0 0 150 150" fill="none" xmlns="http://www.w3.org/2000/svg">
<path d="M65.8281 126.594C57.4062 132.609 49.8281 136.859 48.8281 137.125C46.4843 136.516 7.26562 113.531 7.26562 97.8747V54.0156C19 54.0156 44.7187 43.5155 48.8281 37.8593C52.9218 43.5311 78.6562 54.0156 90.3905 54.0156V78.0623" stroke="white" stroke-width="1.5" stroke-linecap="round" stroke-linejoin="round"/>
<path d="M31.7031 61.7812C39.2812 59.3437 47.0312 55.6406 48.8281 53.2344C51.7187 57.0938 69.828 64.2653 78.078 64.2653V87.0936" stroke="white" stroke-width="1.5" stroke-linecap="round" stroke-linejoin="round"/>
<path d="M62.6718 112.437C56.0312 117.234 49.6093 120.75 48.8281 120.953C47.1875 120.547 19.5781 104.859 19.5781 94.1875V71.9531" stroke="white" stroke-width="1.5" stroke-linecap="round" stroke-linejoin="round"/>
<path d="M108.859 47.0626V34.7499H121.172L99.6249 3.96875L78.078 34.7499H90.3905V40.9061" stroke="white" stroke-width="1.5" stroke-linecap="round" stroke-linejoin="round" stroke-dasharray="3.94 3.94"/>
<path d="M130.406 114.797V80.9375H142.719L121.172 50.1564L99.625 80.9375H111.938V96.3279" stroke="white" stroke-width="1.5" stroke-linecap="round" stroke-linejoin="round" stroke-dasharray="3.94 3.94"/>
<path d="M81.1561 145.578V117.875H71.9219L90.3905 90.1718L108.859 117.875H99.625V130.188" stroke="white" stroke-width="1.5" stroke-linecap="round" stroke-linejoin="round" stroke-dasharray="3.94 3.94"/>
</svg>
