<svg width="96" height="96" viewBox="0 0 96 96" fill="none" xmlns="http://www.w3.org/2000/svg">
<path d="M67.6201 4.92993H28.02V28.6499H67.6201V4.92993Z" stroke="white" stroke-width="1.5" stroke-miterlimit="10"/>
<path d="M67.6201 36.59H28.02V60.31H67.6201V36.59Z" stroke="white" stroke-width="1.5" stroke-miterlimit="10"/>
<path d="M67.6201 68.26H28.02V91.98H67.6201V68.26Z" stroke="white" stroke-width="1.5" stroke-miterlimit="10"/>
<path d="M35.96 12.7799H59.78" stroke="white" stroke-width="1.5" stroke-miterlimit="10"/>
<path d="M35.96 20.72H47.8201" stroke="white" stroke-width="1.5" stroke-miterlimit="10"/>
<path d="M35.96 44.4399H59.78" stroke="white" stroke-width="1.5" stroke-miterlimit="10"/>
<path d="M35.96 52.3799H47.8201" stroke="white" stroke-width="1.5" stroke-miterlimit="10"/>
<path d="M35.96 76.1H59.78" stroke="white" stroke-width="1.5" stroke-miterlimit="10"/>
<path d="M35.96 84.0399H47.8201" stroke="white" stroke-width="1.5" stroke-miterlimit="10"/>
<path d="M16.1599 58.35L22.1399 64.33L16.1599 70.31" stroke="white" stroke-width="1.5" stroke-miterlimit="10"/>
<path d="M22.1399 64.2399H10.28C8.13003 64.2399 6.36011 62.4699 6.36011 60.3199V20.7199C6.36011 18.5699 8.14003 16.7999 10.28 16.7999H28.1201" stroke="white" stroke-width="1.5" stroke-miterlimit="10"/>
<path d="M79.48 38.55L73.5 32.57L79.48 26.59" stroke="white" stroke-width="1.5" stroke-miterlimit="10"/>
<path d="M73.6001 32.58H85.46C87.61 32.58 89.3799 34.35 89.3799 36.5V76.1C89.3799 78.25 87.6 80.0199 85.46 80.0199H67.6201" stroke="white" stroke-width="1.5" stroke-miterlimit="10"/>
</svg>
