<svg width="96" height="96" viewBox="0 0 96 96" fill="none" xmlns="http://www.w3.org/2000/svg">
<path d="M31.6399 21.96C31.6799 21.93 31.71 21.91 31.75 21.89C32.2 21.58 32.6601 21.28 33.1201 20.99" stroke="white" stroke-width="1.5"/>
<path d="M36.22 19.24C41.4 16.63 47.25 15.16 53.45 15.16C74.68 15.16 91.8999 32.41 91.8999 53.67C91.8999 74.93 74.69 92.18 53.45 92.18C32.21 92.18 15 74.93 15 53.67C15 46.92 16.73 40.59 19.78 35.07" stroke="white" stroke-width="1.5" stroke-dasharray="3.94 3.94"/>
<path d="M20.6599 33.5499C20.9699 33.0399 21.2901 32.5499 21.6201 32.0599" stroke="white" stroke-width="1.5"/>
<path d="M37.9199 31.24C38.0999 31.11 38.3 30.98 38.49 30.86C42.78 28.02 47.93 26.38 53.45 26.38C68.49 26.38 80.7 38.59 80.7 53.67C80.7 68.75 68.5 80.96 53.45 80.96C38.39 80.96 26.1899 68.75 26.1899 53.67C26.1899 48.13 27.8399 42.98 30.6799 38.68" stroke="white" stroke-width="1.5"/>
<path d="M46.55 38.8C48.64 37.82 50.98 37.27 53.45 37.27C62.49 37.27 69.8201 44.61 69.8201 53.66C69.8201 62.72 62.48 70.05 53.45 70.05C44.4 70.05 37.0701 62.71 37.0701 53.66C37.0701 51.19 37.6101 48.85 38.6101 46.75" stroke="white" stroke-width="1.5"/>
<path d="M53.4399 59.35C56.5699 59.35 59.1101 56.81 59.1101 53.67C59.1101 50.53 56.5699 47.99 53.4399 47.99C50.3099 47.99 47.77 50.53 47.77 53.67C47.78 56.81 50.3199 59.35 53.4399 59.35Z" stroke="white" stroke-width="1.5"/>
<path d="M26.22 26.41L26.29 14.66L15.75 4.10999V15.93L53.45 53.68" stroke="white" stroke-width="1.5"/>
<path d="M25.04 25.2L26.29 26.46L24.52 26.49" stroke="white" stroke-width="1.5"/>
<path d="M21.72 26.54L17.53 26.62" stroke="white" stroke-width="1.5"/>
<path d="M16.1299 26.64L14.3601 26.67L13.1001 25.41" stroke="white" stroke-width="1.5"/>
<path d="M10.4299 22.74L6.41992 18.72" stroke="white" stroke-width="1.5"/>
<path d="M5.08008 17.38L3.82007 16.12L5.59009 16.1" stroke="white" stroke-width="1.5"/>
<path d="M8.40991 16.06L12.6299 16" stroke="white" stroke-width="1.5"/>
<path d="M14.04 15.99L15.8101 15.97L17.0701 17.23" stroke="white" stroke-width="1.5"/>
<path d="M19.73 19.88L23.71 23.87" stroke="white" stroke-width="1.5"/>
</svg>
