<svg width="97" height="96" viewBox="0 0 97 96" fill="none" xmlns="http://www.w3.org/2000/svg">
<path d="M42.6329 81.02C37.2429 84.87 32.3929 87.59 31.7529 87.76C30.2529 87.37 5.15295 72.6599 5.15295 62.6399V34.5701C12.663 34.5701 29.1229 27.85 31.7529 24.23C34.3729 27.86 50.8429 34.5701 58.3529 34.5701V49.96" stroke="white" stroke-width="1.5" stroke-linecap="round" stroke-linejoin="round"/>
<path d="M20.793 39.54C25.643 37.98 30.6029 35.6101 31.7529 34.0701C33.6029 36.5401 45.1929 41.1299 50.4729 41.1299V55.74" stroke="white" stroke-width="1.5" stroke-linecap="round" stroke-linejoin="round"/>
<path d="M40.6129 71.96C36.3629 75.03 32.2529 77.2799 31.7529 77.4099C30.7029 77.1499 13.033 67.11 13.033 60.28V46.05" stroke="white" stroke-width="1.5" stroke-linecap="round" stroke-linejoin="round"/>
<path d="M70.173 30.1201V22.24H78.053L64.2629 2.54004L50.4729 22.24H58.3529V26.1799" stroke="white" stroke-width="1.5" stroke-linecap="round" stroke-linejoin="round" stroke-dasharray="3.94 3.94"/>
<path d="M83.9629 73.47V51.8H91.8429L78.053 32.1001L64.2629 51.8H72.1429V61.6499" stroke="white" stroke-width="1.5" stroke-linecap="round" stroke-linejoin="round" stroke-dasharray="3.94 3.94"/>
<path d="M52.4429 93.1699V75.4399H46.533L58.3529 57.71L70.173 75.4399H64.2629V83.3201" stroke="white" stroke-width="1.5" stroke-linecap="round" stroke-linejoin="round" stroke-dasharray="3.94 3.94"/>
</svg>
