<svg width="97" height="96" viewBox="0 0 97 96" fill="none" xmlns="http://www.w3.org/2000/svg">
<path d="M47.523 54.88C50.7815 54.88 53.423 52.2384 53.423 48.98C53.423 45.7215 50.7815 43.08 47.523 43.08C44.2646 43.08 41.623 45.7215 41.623 48.98C41.623 52.2384 44.2646 54.88 47.523 54.88Z" stroke="white" stroke-width="1.5" stroke-linecap="round" stroke-linejoin="round"/>
<path d="M70.7729 43.73L68.3129 37.32L62.2029 39.13C61.0729 37.45 59.6929 36.01 58.1129 34.83L60.2429 28.82L53.9729 26.03L50.9329 31.63C49.0029 31.25 47.0129 31.18 45.0029 31.47L42.2629 25.72L35.8529 28.18L37.6629 34.29C35.9829 35.42 34.5429 36.8 33.3629 38.38L27.3529 36.25L24.5629 42.52L30.1629 45.56C29.7829 47.49 29.7129 49.48 30.0029 51.49L24.2529 54.24L26.7129 60.65L32.8229 58.84C33.9529 60.52 35.3329 61.96 36.9029 63.14L34.7729 69.15L41.0429 71.94L44.0829 66.34C46.0129 66.72 48.0029 66.79 50.0129 66.5L52.7529 72.25L59.1629 69.79L57.3529 63.68C59.0329 62.55 60.4729 61.17 61.6529 59.6L67.6629 61.73L70.4529 55.46L64.8529 52.42C65.2329 50.49 65.3029 48.5 65.0129 46.49L70.7629 43.74L70.7729 43.73Z" stroke="white" stroke-width="1.5" stroke-linecap="round" stroke-linejoin="round"/>
<path d="M69.143 19.49C73.4839 19.49 77.003 15.971 77.003 11.63C77.003 7.28906 73.4839 3.77002 69.143 3.77002C64.802 3.77002 61.283 7.28906 61.283 11.63C61.283 15.971 64.802 19.49 69.143 19.49Z" stroke="white" stroke-width="1.5" stroke-linecap="round" stroke-linejoin="round"/>
<path d="M61.2829 11.63H47.5229V21.46" stroke="white" stroke-width="1.5" stroke-linecap="round" stroke-linejoin="round"/>
<path d="M80.9404 64.7093L71.1116 74.5381L80.9404 84.3669L90.7691 74.5381L80.9404 64.7093Z" stroke="white" stroke-width="1.5" stroke-linecap="round" stroke-linejoin="round"/>
<path d="M12.1328 82.41L27.8628 92.24V72.58L12.1328 82.41Z" stroke="white" stroke-width="1.5" stroke-linecap="round" stroke-linejoin="round"/>
<path d="M6.22288 31.29L21.9529 31.29L21.9529 15.56L6.22288 15.56L6.22288 31.29Z" stroke="white" stroke-width="1.5" stroke-linecap="round" stroke-linejoin="round"/>
<path d="M73.083 48.98H80.943V64.71" stroke="white" stroke-width="1.5" stroke-linecap="round" stroke-linejoin="round"/>
<path d="M21.963 48.98H14.093V31.29" stroke="white" stroke-width="1.5" stroke-linecap="round" stroke-linejoin="round"/>
<path d="M47.523 76.51V84.37H27.863" stroke="white" stroke-width="1.5" stroke-linecap="round" stroke-linejoin="round"/>
</svg>
