<svg width="97" height="96" viewBox="0 0 97 96" fill="none" xmlns="http://www.w3.org/2000/svg">
<path d="M17.913 14.6299H64.263V9.06995L73.533 18.3399L64.263 27.6099V22.0499H30.893" stroke="white" stroke-width="1.5" stroke-linecap="round" stroke-linejoin="round"/>
<path d="M69.8229 47.9999H82.7929V42.4399L92.0629 51.7099L82.7929 60.9799V55.4199H71.6729" stroke="white" stroke-width="1.5" stroke-linecap="round" stroke-linejoin="round"/>
<path d="M60.5529 73.95H69.8229V68.39L79.0929 77.66L69.8229 86.93V81.37H32.7429" stroke="white" stroke-width="1.5" stroke-linecap="round" stroke-linejoin="round"/>
<path d="M4.94287 70.25H27.1829" stroke="white" stroke-width="1.5" stroke-linecap="round" stroke-linejoin="round"/>
<path d="M43.873 57.27C46.9437 57.27 49.433 54.7807 49.433 51.71C49.433 48.6393 46.9437 46.15 43.873 46.15C40.8023 46.15 38.313 48.6393 38.313 51.71C38.313 54.7807 40.8023 57.27 43.873 57.27Z" stroke="white" stroke-width="1.5" stroke-linecap="round" stroke-linejoin="round"/>
<path d="M65.7929 46.75L63.4729 40.71L57.7129 42.42C56.6529 40.84 55.3429 39.48 53.8629 38.37L55.8729 32.7L49.9629 30.07L47.0929 35.35C45.2729 34.99 43.3929 34.93 41.5029 35.2L38.9129 29.78L32.8729 32.1L34.5829 37.86C33.0029 38.92 31.6429 40.23 30.5329 41.71L24.8629 39.7L22.2329 45.61L27.5129 48.48C27.1529 50.3 27.0929 52.18 27.3629 54.07L21.9429 56.66L24.2629 62.7L30.0229 60.99C31.0829 62.57 32.3929 63.93 33.8729 65.04L31.8629 70.71L37.7729 73.34L40.6429 68.06C42.4629 68.42 44.3429 68.48 46.2329 68.21L48.8229 73.63L54.8629 71.31L53.1529 65.55C54.7329 64.49 56.0929 63.18 57.2029 61.7L62.8729 63.71L65.5029 57.8L60.2229 54.93C60.5829 53.11 60.6429 51.23 60.3729 49.34L65.7929 46.75Z" stroke="white" stroke-width="1.5" stroke-linecap="round" stroke-linejoin="round"/>
<path d="M27.1829 31.3199H10.5029" stroke="white" stroke-width="1.5" stroke-linecap="round" stroke-linejoin="round"/>
</svg>
