<svg width="150" height="150" viewBox="0 0 150 150" fill="none" xmlns="http://www.w3.org/2000/svg">
<path d="M57 144.156H110.844" stroke="white" stroke-width="1.5" stroke-linecap="round" stroke-linejoin="round"/>
<path d="M74.953 129.219L68.9685 144.141" stroke="white" stroke-width="1.5" stroke-linecap="round" stroke-linejoin="round"/>
<path d="M92.9062 129.219L98.8907 144.141" stroke="white" stroke-width="1.5" stroke-linecap="round" stroke-linejoin="round"/>
<path d="M113.64 45.6407H137.765C141.734 45.6407 143.75 47.6563 143.75 51.6094V123.25C143.75 127.188 141.719 129.219 137.765 129.219H82.9219" stroke="white" stroke-width="1.5" stroke-linecap="round" stroke-linejoin="round" stroke-dasharray="3.9 3.9"/>
<path d="M86.9216 129.219H30.078C26.1249 129.219 24.0935 127.188 24.0935 123.25V104.547" stroke="white" stroke-width="1.5" stroke-linecap="round" stroke-linejoin="round" stroke-dasharray="3.9 3.9"/>
<path d="M37.9375 87.6251V94.8282C37.9375 106.75 47.6248 116.422 59.5779 116.422H69.1875C81.1406 116.422 90.8279 106.75 90.8279 94.8282V74.9219" stroke="white" stroke-width="1.5" stroke-linecap="round" stroke-linejoin="round"/>
<path d="M90.8435 73.5313C98.8123 73.5313 105.266 67.0938 105.266 59.1406C105.266 51.1875 98.8123 44.7501 90.8435 44.7501C82.8748 44.7501 76.4217 51.1875 76.4217 59.1406C76.406 67.0938 82.8748 73.5313 90.8435 73.5313Z" stroke="white" stroke-width="1.5" stroke-linecap="round" stroke-linejoin="round"/>
<path d="M83.625 59.1406C83.625 55.1719 86.8592 51.9375 90.8436 51.9375" stroke="white" stroke-width="1.5" stroke-linecap="round" stroke-linejoin="round"/>
<path d="M40.3437 87.6251C41.6719 87.6251 42.7501 86.5469 42.7501 85.2188V82.375C42.7501 80.9219 43.4062 79.547 44.5468 78.6407C48.9218 75.1563 60.1716 65.6251 65.1091 55.6876C66.1091 53.6876 65.7342 51.1407 63.9529 49.7813C61.7498 48.0938 58.6403 48.7813 57.2497 51.125C50.4372 62.6719 40.0781 70.8594 37.9374 70.8594C35.7968 70.8594 25.5311 62.7657 18.7186 51.297C17.578 49.3751 15.2498 48.3282 13.156 49.1094C10.4841 50.1094 9.48436 53.0469 10.6406 55.4375C15.5156 65.4688 26.8906 75.1251 31.3281 78.6407C32.4687 79.547 33.1405 80.9219 33.1405 82.3906V85.2344C33.1405 86.5625 34.2186 87.6407 35.5468 87.6407L40.3437 87.6251Z" stroke="white" stroke-width="1.5" stroke-linecap="round" stroke-linejoin="round"/>
<path d="M63.9686 49.7501C63.9686 49.7501 69.2031 37.2344 69.2031 25.2344C69.2031 17.7032 65.0781 8.43756 54.7812 8.43756" stroke="white" stroke-width="1.5" stroke-linecap="round" stroke-linejoin="round"/>
<path d="M54.7812 3V15.6875" stroke="white" stroke-width="1.5" stroke-linecap="round" stroke-linejoin="round"/>
<path d="M11.9064 49.7813C11.9064 49.7813 6.6875 37.25 6.6875 25.25C6.6875 17.7187 10.8125 8.45312 21.1093 8.45312" stroke="white" stroke-width="1.5" stroke-linecap="round" stroke-linejoin="round"/>
<path d="M21.1094 3V15.6875" stroke="white" stroke-width="1.5" stroke-linecap="round" stroke-linejoin="round"/>
<path d="M22.2344 56.5156C22.2344 56.5156 31.6876 58.8282 37.9532 58.8282C44.2032 58.8282 53.7342 56.4219 53.7342 56.4219" stroke="white" stroke-width="1.5" stroke-linecap="round" stroke-linejoin="round"/>
</svg>
