<svg width="150" height="150" viewBox="0 0 150 150" fill="none" xmlns="http://www.w3.org/2000/svg">
<path d="M17.25 95.4219V109.484C17.25 112.578 19.7342 115.109 22.7655 115.109H133.187C136.219 115.109 138.703 112.578 138.703 109.484V27.9375C138.703 24.8438 136.219 22.3126 133.187 22.3126H22.7655C19.7342 22.3126 17.25 24.8438 17.25 27.9375V42" stroke="white" stroke-width="1.5" stroke-linejoin="round"/>
<path d="M28.2812 95.4219V106.672" stroke="white" stroke-width="1.5" stroke-linejoin="round"/>
<path d="M28.2812 56.0625V81.375" stroke="white" stroke-width="1.5" stroke-linejoin="round"/>
<path d="M124.922 30.75V106.672" stroke="white" stroke-width="1.5" stroke-linejoin="round"/>
<path d="M28.2812 30.75V39.1875" stroke="white" stroke-width="1.5" stroke-linejoin="round"/>
<path d="M31.0469 123.547L34.0937 126.359H55.9063L58.672 123.547" stroke="white" stroke-width="1.5" stroke-linejoin="round"/>
<path d="M97.3125 123.547L100.359 126.359H122.172L124.937 123.547" stroke="white" stroke-width="1.5" stroke-linejoin="round"/>
<path d="M33.8125 56.0625H14.4844C12.9688 56.0625 11.7188 54.7969 11.7188 53.25V44.8125C11.7188 43.2656 12.9532 42 14.4844 42H33.8125V56.0625Z" stroke="white" stroke-width="1.5" stroke-linejoin="round"/>
<path d="M33.8125 95.4219H14.4844C12.9688 95.4219 11.7188 94.1563 11.7188 92.6094V84.1719C11.7188 82.625 12.9532 81.3594 14.4844 81.3594H33.8125V95.4219Z" stroke="white" stroke-width="1.5" stroke-linejoin="round"/>
<path d="M17.25 56.0625V81.375" stroke="white" stroke-width="1.5" stroke-linejoin="round"/>
<path d="M75.2188 62.1563C76.0782 61.8438 77.0157 61.6719 77.9845 61.6719C82.5626 61.6719 86.2656 65.4375 86.2656 70.1094C86.2656 74.7813 82.5626 78.547 77.9845 78.547C73.4063 78.547 69.7031 74.7813 69.7031 70.1094C69.7031 69.125 69.8595 68.1719 70.172 67.2969" stroke="white" stroke-width="1.5" stroke-linejoin="round"/>
<path d="M77.9844 89.7969C88.6562 89.7969 97.3125 80.9844 97.3125 70.1094C97.3125 59.2344 88.6562 50.4219 77.9844 50.4219C67.3125 50.4219 58.6562 59.2344 58.6562 70.1094C58.6562 80.9844 67.3125 89.7969 77.9844 89.7969Z" stroke="white" stroke-width="1.5" stroke-linejoin="round"/>
<path d="M77.9844 39.1876V50.4376" stroke="white" stroke-width="1.5" stroke-linejoin="round"/>
<path d="M108.359 70.1094H97.3125" stroke="white" stroke-width="1.5" stroke-linejoin="round"/>
<path d="M77.9844 101.047V89.7969" stroke="white" stroke-width="1.5" stroke-linejoin="round"/>
<path d="M47.6094 70.1094H58.6564" stroke="white" stroke-width="1.5" stroke-linejoin="round"/>
<path d="M99.4531 48.2344L91.6406 56.1875" stroke="white" stroke-width="1.5" stroke-linejoin="round"/>
<path d="M99.4531 92L91.6406 84.0469" stroke="white" stroke-width="1.5" stroke-linejoin="round"/>
<path d="M56.5 92L64.3125 84.0469" stroke="white" stroke-width="1.5" stroke-linejoin="round"/>
<path d="M56.5 48.2344L64.3125 56.1875" stroke="white" stroke-width="1.5" stroke-linejoin="round"/>
</svg>
