<svg width="150" height="150" viewBox="0 0 150 150" fill="none" xmlns="http://www.w3.org/2000/svg">
<path d="M75.0298 2.67413C69.2212 10.9286 30.4054 27.8336 15.1748 27.8336V87.5949C15.1748 115.694 71.6757 146.427 74.9993 147.31C78.3229 146.427 134.824 113.546 134.824 90.7321V27.8336C118.206 27.8336 80.8537 10.9286 75.0298 2.67413Z" stroke="white" stroke-width="1.5" stroke-linecap="round" stroke-linejoin="round"/>
<path d="M74.833 129.537C69.1005 126.232 60.2427 120.658 51.8576 113.942C36.4135 101.575 30.925 92.0266 30.925 87.5947V41.0833C45.1494 37.4281 62.7125 30.1788 74.9397 22.5792C87.1516 30.2855 104.745 37.5347 119.076 41.1594V90.7472C118.848 92.6661 114.472 100.86 97.3205 114.186C88.8744 120.75 80.3368 126.232 74.8177 129.537H74.833Z" stroke="white" stroke-width="1.5" stroke-linecap="round" stroke-linejoin="round"/>
</svg>
