<svg width="96" height="96" viewBox="0 0 96 96" fill="none" xmlns="http://www.w3.org/2000/svg">
<path d="M36.5007 92.3H71.0007" stroke="white" stroke-width="1.5" stroke-linecap="round" stroke-linejoin="round"/>
<path d="M48.0008 82.7L44.2008 92.2" stroke="white" stroke-width="1.5" stroke-linecap="round" stroke-linejoin="round"/>
<path d="M59.5007 82.7L63.3007 92.2" stroke="white" stroke-width="1.5" stroke-linecap="round" stroke-linejoin="round"/>
<path d="M72.7007 29.2H88.1007C90.6007 29.2 91.9007 30.5 91.9007 33V78.8C91.9007 81.3 90.6007 82.6 88.1007 82.6H53.0007" stroke="white" stroke-width="1.5" stroke-linecap="round" stroke-linejoin="round" stroke-dasharray="3.9 3.9"/>
<path d="M55.6008 82.7H19.2008C16.7008 82.7 15.4008 81.4 15.4008 78.9V66.9" stroke="white" stroke-width="1.5" stroke-linecap="round" stroke-linejoin="round" stroke-dasharray="3.9 3.9"/>
<path d="M24.3008 56.1V60.7C24.3008 68.3 30.5008 74.5 38.2008 74.5H44.3008C51.9008 74.5 58.2008 68.3 58.2008 60.7V48" stroke="white" stroke-width="1.5" stroke-linecap="round" stroke-linejoin="round"/>
<path d="M58.1008 47.1C63.2008 47.1 67.3008 43 67.3008 37.9C67.3008 32.8 63.2008 28.7 58.1008 28.7C53.0008 28.7 48.9008 32.8 48.9008 37.9C48.9008 43 53.0008 47.1 58.1008 47.1Z" stroke="white" stroke-width="1.5" stroke-linecap="round" stroke-linejoin="round"/>
<path d="M53.5007 37.8C53.5007 35.3 55.6007 33.2 58.1007 33.2" stroke="white" stroke-width="1.5" stroke-linecap="round" stroke-linejoin="round"/>
<path d="M25.8008 56.1C26.7008 56.1 27.3008 55.4 27.3008 54.6V52.8C27.3008 51.9 27.7008 51 28.4008 50.4C31.2008 48.2 38.4008 42.1 41.6008 35.7C42.2008 34.4 42.0008 32.8 40.9008 31.9C39.5008 30.8 37.5008 31.3 36.6008 32.8C32.2008 40.2 25.6008 45.4 24.2008 45.4C22.8008 45.4 16.3008 40.2 11.9008 32.9C11.2008 31.7 9.70078 31 8.30078 31.5C6.60078 32.1 5.90078 34 6.70078 35.5C9.80078 41.9 17.1008 48.1 19.9008 50.3C20.6008 50.9 21.1008 51.8 21.1008 52.7V54.5C21.1008 55.3 21.8008 56 22.6008 56H25.7008L25.8008 56.1Z" stroke="white" stroke-width="1.5" stroke-linecap="round" stroke-linejoin="round"/>
<path d="M40.9008 31.8C40.9008 31.8 44.3008 23.8 44.3008 16.1C44.3008 8.4 41.7008 5.3 35.1008 5.3" stroke="white" stroke-width="1.5" stroke-linecap="round" stroke-linejoin="round"/>
<path d="M35.1008 1.9V10" stroke="white" stroke-width="1.5" stroke-linecap="round" stroke-linejoin="round"/>
<path d="M7.60078 31.9C7.60078 31.9 4.30078 23.9 4.30078 16.2C4.30078 8.5 6.90078 5.4 13.5008 5.4" stroke="white" stroke-width="1.5" stroke-linecap="round" stroke-linejoin="round"/>
<path d="M13.5007 1.9V10" stroke="white" stroke-width="1.5" stroke-linecap="round" stroke-linejoin="round"/>
<path d="M14.2008 36.2C14.2008 36.2 20.3008 37.7 24.3008 37.7C28.3008 37.7 34.4008 36.2 34.4008 36.2" stroke="white" stroke-width="1.5" stroke-linecap="round" stroke-linejoin="round"/>
</svg>
