<svg width="96" height="96" viewBox="0 0 96 96" fill="none" xmlns="http://www.w3.org/2000/svg">
<path d="M11.5 33.4C13.4 28.6 16.3 24.1 20 20.5C23.7 16.8 28.1 13.9 33 12" stroke="white" stroke-width="1.5" stroke-miterlimit="10"/>
<path d="M47.1001 91.8C50.4001 91.8 53.1001 89.1 53.1001 85.8C53.1001 82.5 50.4001 79.8 47.1001 79.8C43.8001 79.8 41.1001 82.5 41.1001 85.8C41.1001 89.1 43.8001 91.8 47.1001 91.8Z" stroke="white" stroke-width="1.5" stroke-miterlimit="10" stroke-dasharray="3.9 3.9"/>
<path d="M47.1001 15.3C50.4001 15.3 53.1001 12.6 53.1001 9.29999C53.1001 5.99999 50.4001 3.29999 47.1001 3.29999C43.8001 3.29999 41.1001 5.99999 41.1001 9.29999C41.1001 12.6 43.8001 15.3 47.1001 15.3Z" stroke="white" stroke-width="1.5" stroke-miterlimit="10" stroke-dasharray="3.9 3.9"/>
<path d="M85.3 53.6C88.6 53.6 91.3 50.9 91.3 47.6C91.3 44.3 88.6 41.6 85.3 41.6C82 41.6 79.3 44.3 79.3 47.6C79.3 50.9 82 53.6 85.3 53.6Z" stroke="white" stroke-width="1.5" stroke-miterlimit="10" stroke-dasharray="3.9 3.9"/>
<path d="M8.80005 53.6C12.1 53.6 14.8 50.9 14.8 47.6C14.8 44.3 12.1 41.6 8.80005 41.6C5.50005 41.6 2.80005 44.3 2.80005 47.6C2.80005 50.9 5.50005 53.6 8.80005 53.6Z" stroke="white" stroke-width="1.5" stroke-miterlimit="10" stroke-dasharray="3.9 3.9"/>
<path d="M22.8 9.70001L33 11.9L30.8 22.1" stroke="white" stroke-width="1.5" stroke-miterlimit="10"/>
<path d="M83.3001 62.1C81.4001 67 78.5001 71.4 74.8001 75.1C71.1001 78.8 66.7 81.7 61.8 83.6" stroke="white" stroke-width="1.5" stroke-miterlimit="10"/>
<path d="M72 85.8L61.8 83.6L64 73.4" stroke="white" stroke-width="1.5" stroke-miterlimit="10"/>
<path d="M33.1001 83.7C28.2001 81.8 23.8001 78.9 20.1001 75.2C16.4001 71.5 13.5001 67.1 11.6001 62.2" stroke="white" stroke-width="1.5" stroke-miterlimit="10"/>
<path d="M9.40015 72.3L11.6001 62.1L21.8001 64.3" stroke="white" stroke-width="1.5" stroke-miterlimit="10"/>
<path d="M61.7 11.8C66.6 13.7 70.9999 16.6 74.6999 20.4C78.3999 24.1 81.2999 28.6 83.1999 33.4" stroke="white" stroke-width="1.5" stroke-miterlimit="10"/>
<path d="M85.4 23.2L83.2 33.4L73 31.2" stroke="white" stroke-width="1.5" stroke-miterlimit="10"/>
<path d="M53.2 47.5C53.2 48.7 52.8 49.9 52.2 50.8C51.5 51.8 50.6 52.6 49.5 53C48.4 53.4 47.2 53.6 46 53.3C44.8 53.1 43.8 52.5 42.9 51.6C42.1 50.8 41.5 49.7 41.3 48.5C41.1 47.3 41.2 46.1 41.6 45C42.1 43.9 42.8 42.9 43.8 42.3C44.8 41.6 46 41.3 47.2 41.3C48.4 41.3 50.3 41.9 51.5 43.1C52.7 44.3 53.3 45.8 53.3 47.4L53.2 47.5Z" stroke="white" stroke-width="1.5" stroke-linejoin="round"/>
<path d="M61.2 47.5C61.2 46.4 61.1 45.3 60.8 44.3L64.8 42L60.8 35L56.8 37.3C55.2 35.8 53.2 34.6 51.1 34V29.4H43.1V34C41 34.6 39.1 35.8 37.5 37.3L33.5 35L29.5 42L33.5 44.3C33.3 45.4 33.1 46.5 33.1 47.5C33.1 48.6 33.2 49.7 33.5 50.8L29.5 53.1L33.5 60.1L37.5 57.8C39.1 59.3 41 60.4 43.1 61V65.6H51.1V60.9C53.2 60.3 55.1 59.2 56.7 57.7L60.7 60L64.7 53L60.7 50.7C61 49.6 61.1 48.5 61.2 47.4V47.5Z" stroke="white" stroke-width="1.5" stroke-linejoin="round"/>
</svg>
