<svg width="96" height="96" viewBox="0 0 96 96" fill="none" xmlns="http://www.w3.org/2000/svg">
<path d="M62.998 20.6H60.598" stroke="white" stroke-width="1.5" stroke-linejoin="round"/>
<path d="M56.498 20.6H42.098" stroke="white" stroke-width="1.5" stroke-linejoin="round"/>
<path d="M40.098 20.6H37.698" stroke="white" stroke-width="1.5" stroke-linejoin="round"/>
<path d="M19.3979 13.2H62.9979V6.70001L72.8979 16.6L62.9979 26.5V20.6" stroke="white" stroke-width="1.5" stroke-linejoin="round"/>
<path d="M82.998 48.6V42.7L92.898 52.6L82.998 62.5V56.6H69.198" stroke="white" stroke-width="1.5" stroke-linejoin="round"/>
<path d="M71.8979 48.6H74.298" stroke="white" stroke-width="1.5" stroke-linejoin="round"/>
<path d="M80.498 48.6H82.898" stroke="white" stroke-width="1.5" stroke-linejoin="round"/>
<path d="M68.998 76.7V70.3L78.898 80.2L68.998 90.1V84.2H13.998" stroke="white" stroke-width="1.5" stroke-linejoin="round"/>
<path d="M58.3979 76.7H60.7979" stroke="white" stroke-width="1.5" stroke-linejoin="round"/>
<path d="M66.698 76.7H69.098" stroke="white" stroke-width="1.5" stroke-linejoin="round"/>
<path d="M3.198 72H5.598" stroke="white" stroke-width="1.5" stroke-linejoin="round"/>
<path d="M10.098 72H16.898" stroke="white" stroke-width="1.5" stroke-linejoin="round"/>
<path d="M19.198 72H21.598" stroke="white" stroke-width="1.5" stroke-linejoin="round"/>
<path d="M46.1979 50.6C46.1979 53.9 43.5979 56.5 40.2979 56.5C36.9979 56.5 34.3979 53.9 34.3979 50.6C34.3979 47.3 36.9979 44.7 40.2979 44.7C43.5979 44.7 46.1979 47.4 46.1979 50.6Z" stroke="white" stroke-width="1.5" stroke-miterlimit="10"/>
<path d="M63.698 45.4L61.198 39L55.0979 40.8C53.9979 39.1 52.5979 37.7 50.9979 36.5L53.0979 30.5L46.7979 27.7L43.698 33.3C41.798 32.9 39.7979 32.9 37.7979 33.1L34.9979 27.3L28.5979 29.8L30.3979 35.9C28.6979 37 27.298 38.4 26.0979 40L20.0979 37.9L17.2979 44.2L22.8979 47.3C22.4979 49.2 22.498 51.2 22.698 53.2L16.8979 56L19.3979 62.4L25.4979 60.6C26.5979 62.3 27.9979 63.7 29.5979 64.9L27.4979 70.9L33.7979 73.7L36.898 68.1C38.798 68.5 40.7979 68.6 42.7979 68.3L45.5979 74.1L51.9979 71.6L50.198 65.5C51.898 64.4 53.2979 63 54.4979 61.4L60.4979 63.5L63.298 57.2L57.698 54.1C58.098 52.2 58.0979 50.2 57.8979 48.2L63.698 45.5V45.4Z" stroke="white" stroke-width="1.5" stroke-linejoin="round"/>
<path d="M21.698 30.9H19.298" stroke="white" stroke-width="1.5" stroke-linejoin="round"/>
<path d="M15.0979 30.9H8.89795" stroke="white" stroke-width="1.5" stroke-linejoin="round"/>
<path d="M6.79795 30.9H4.39795" stroke="white" stroke-width="1.5" stroke-linejoin="round"/>
</svg>
