<svg width="96" height="96" viewBox="0 0 96 96" fill="none" xmlns="http://www.w3.org/2000/svg">
<path d="M47.798 28.8H42.298C37.898 28.8 34.498 32.7 34.498 38.5V84.6C34.498 87 39.598 90.8 46.198 90.8H47.798" stroke="white" stroke-width="1.5" stroke-miterlimit="10"/>
<path d="M47.7981 74.6H40.3981C39.4981 76.5 38.9981 78.5 38.8981 80.5C41.7981 81.5 44.7981 82 47.7981 82" stroke="white" stroke-width="1.5" stroke-miterlimit="10"/>
<path d="M34.4981 49.5H28.5981" stroke="white" stroke-width="1.5" stroke-miterlimit="10"/>
<path d="M47.798 55.4C45.298 55.4 42.798 56 40.398 56.9C38.198 55.2 34.498 50.6 34.498 48C37.098 46.9 45.698 46.5 47.798 46.5" stroke="white" stroke-width="1.5" stroke-miterlimit="10"/>
<path d="M47.7981 55.4C50.2981 55.4 52.7981 56 55.1981 56.9C57.3981 55.2 61.0981 50.6 61.0981 48C58.4981 46.9 49.8981 46.5 47.7981 46.5" stroke="white" stroke-width="1.5" stroke-miterlimit="10"/>
<path d="M40.3981 56.9V74.6" stroke="white" stroke-width="1.5" stroke-miterlimit="10"/>
<path d="M47.7981 28.8H53.2981C57.6981 28.8 61.0981 32.7 61.0981 38.5V84.6C61.0981 87 55.9981 90.8 49.3981 90.8H47.7981" stroke="white" stroke-width="1.5" stroke-miterlimit="10"/>
<path d="M47.7981 74.6H55.1981C56.0981 76.5 56.5981 78.5 56.6981 80.5C53.7981 81.5 50.7981 82 47.7981 82" stroke="white" stroke-width="1.5" stroke-miterlimit="10"/>
<path d="M61.0981 49.5H66.9981" stroke="white" stroke-width="1.5" stroke-miterlimit="10"/>
<path d="M55.1981 56.9V74.6" stroke="white" stroke-width="1.5" stroke-miterlimit="10"/>
<path d="M86.7981 81.2V74.4" stroke="white" stroke-width="1.5" stroke-miterlimit="10"/>
<path d="M86.7981 92.7V85.9" stroke="white" stroke-width="1.5" stroke-miterlimit="10"/>
<path d="M86.7981 58.2V51.4" stroke="white" stroke-width="1.5" stroke-miterlimit="10"/>
<path d="M86.7981 69.7V62.9" stroke="white" stroke-width="1.5" stroke-miterlimit="10"/>
<path d="M86.7981 35.2V28.4" stroke="white" stroke-width="1.5" stroke-miterlimit="10"/>
<path d="M86.7981 46.7V39.9" stroke="white" stroke-width="1.5" stroke-miterlimit="10"/>
<path d="M86.7981 12.1V5.29999" stroke="white" stroke-width="1.5" stroke-miterlimit="10"/>
<path d="M86.7981 23.7V16.9" stroke="white" stroke-width="1.5" stroke-miterlimit="10"/>
<path d="M77.3981 15C61.1981 -1.20002 34.6981 -0.900022 18.1981 15.6" stroke="white" stroke-width="1.5" stroke-miterlimit="10"/>
<path d="M80.1981 23.3V19.1H84.3981" stroke="white" stroke-width="1.5" stroke-miterlimit="10"/>
<path d="M89.1981 19H93.3981V23.2" stroke="white" stroke-width="1.5" stroke-miterlimit="10"/>
<path d="M93.3981 27.2V31.4H89.1981" stroke="white" stroke-width="1.5" stroke-miterlimit="10"/>
<path d="M84.3981 31.5H80.1981V27.3" stroke="white" stroke-width="1.5" stroke-miterlimit="10"/>
<path d="M8.89807 81.2V74.4" stroke="white" stroke-width="1.5" stroke-miterlimit="10"/>
<path d="M8.89807 92.7V85.9" stroke="white" stroke-width="1.5" stroke-miterlimit="10"/>
<path d="M8.89807 58.2V51.4" stroke="white" stroke-width="1.5" stroke-miterlimit="10"/>
<path d="M8.89807 69.7V62.9" stroke="white" stroke-width="1.5" stroke-miterlimit="10"/>
<path d="M8.89807 35.2V28.4" stroke="white" stroke-width="1.5" stroke-miterlimit="10"/>
<path d="M8.89807 46.7V39.9" stroke="white" stroke-width="1.5" stroke-miterlimit="10"/>
<path d="M8.89807 12.1V5.29999" stroke="white" stroke-width="1.5" stroke-miterlimit="10"/>
<path d="M8.89807 23.7V16.9" stroke="white" stroke-width="1.5" stroke-miterlimit="10"/>
<path d="M2.2981 23.3V19.1H6.4981" stroke="white" stroke-width="1.5" stroke-miterlimit="10"/>
<path d="M11.2981 19H15.4981V23.2" stroke="white" stroke-width="1.5" stroke-miterlimit="10"/>
<path d="M15.4981 27.2V31.4H11.2981" stroke="white" stroke-width="1.5" stroke-miterlimit="10"/>
<path d="M6.5981 31.5H2.2981V27.3" stroke="white" stroke-width="1.5" stroke-miterlimit="10"/>
<path d="M30.6981 43.7L18.1981 34.7" stroke="white" stroke-width="1.5" stroke-miterlimit="10"/>
<path d="M64.8981 43.7L77.3981 34.7" stroke="white" stroke-width="1.5" stroke-miterlimit="10"/>
</svg>
