<svg width="96" height="96" viewBox="0 0 96 96" fill="none" xmlns="http://www.w3.org/2000/svg">
<path d="M72.7 90.1V61.5H88.4V90.1H8.19995V60.6H22.6" stroke="white" stroke-width="1.5"/>
<path d="M23.3999 89.8V31.9L37.0999 16.5C38.6999 14.7 41.5999 15.9 41.5999 18.2V29.7" stroke="white" stroke-width="1.5"/>
<path d="M12.3 60.6V49.4L23.5 40.5" stroke="white" stroke-width="1.5" stroke-dasharray="2.6 2.6"/>
<path d="M62.9001 90.1V39.7H38.3V90.1" stroke="white" stroke-width="1.5"/>
<path d="M63.7 44.7H75V51.6" stroke="white" stroke-width="1.5" stroke-dasharray="2.6 2.6"/>
<path d="M63.7 51.5H81.5" stroke="white" stroke-width="1.5" stroke-dasharray="2.6 2.6"/>
<path d="M79.8 61.5V51.6" stroke="white" stroke-width="1.5" stroke-dasharray="2.6 2.6"/>
<path d="M41.5999 39.7V30.4H59.5999V39.7" stroke="white" stroke-width="1.5"/>
<path d="M47.0999 29.9V21.3H54.0999V29.9" stroke="white" stroke-width="1.5"/>
<path d="M50.5999 20.9V5.5" stroke="white" stroke-width="1.5" stroke-dasharray="2.6 2.6"/>
<path d="M15.8 83.5V67.8" stroke="white" stroke-width="1.5"/>
<path d="M45.7 46.4H55.0999" stroke="white" stroke-width="1.5"/>
<path d="M45.7 53.8H55.0999" stroke="white" stroke-width="1.5"/>
<path d="M45.7 61.2H55.0999" stroke="white" stroke-width="1.5"/>
<path d="M45.7 68.6H55.0999" stroke="white" stroke-width="1.5"/>
<path d="M73.0999 68.3H82.4999" stroke="white" stroke-width="1.5"/>
<path d="M73.0999 75.3H82.4999" stroke="white" stroke-width="1.5"/>
<path d="M73.0999 82.4H82.4999" stroke="white" stroke-width="1.5"/>
<path d="M45.7 76H55.0999" stroke="white" stroke-width="1.5"/>
<path d="M45.7 83.4H55.0999" stroke="white" stroke-width="1.5"/>
<path d="M29.5 53.8H32" stroke="white" stroke-width="1.5"/>
<path d="M29.5 61.2H32" stroke="white" stroke-width="1.5"/>
<path d="M29.5 68.6H32" stroke="white" stroke-width="1.5"/>
<path d="M29.5 76H32" stroke="white" stroke-width="1.5"/>
<path d="M29.5 83.4H32" stroke="white" stroke-width="1.5"/>
</svg>
