<?xml version="1.0" encoding="utf-8"?>
<!-- Generator: Adobe Illustrator 27.9.0, SVG Export Plug-In . SVG Version: 6.00 Build 0)  -->
<svg version="1.1" id="Layer_1" xmlns="http://www.w3.org/2000/svg" xmlns:xlink="http://www.w3.org/1999/xlink" x="0px" y="0px"
	 width="96px" height="96px" viewBox="0 0 96 96" style="enable-background:new 0 0 96 96;" xml:space="preserve">
<style type="text/css">
	.st0{fill:none;stroke:#FFFFFF;stroke-width:1.5;stroke-linecap:round;stroke-linejoin:round;}
</style>
<path class="st0" d="M54.8,12.7c-1.7,1.2-3.2,2.7-4.3,4.3l-4.4-1.5l-3,7.2l4.1,2.1c-0.3,2-0.3,4.1,0,6.1L43.1,33l3,7.2l4.4-1.5
	c1.2,1.7,2.7,3.2,4.3,4.3l-1.5,4.4l7.2,3l2.1-4.1c2,0.3,4.1,0.3,6.1,0l2.1,4.1"/>
<path class="st0" d="M71.2,32.3c-1.2,2-3.4,3.4-5.9,3.4c-3.8,0-6.9-3.1-6.9-6.9c0-3.2,2.2-5.9,5.2-6.6"/>
<path class="st0" d="M37,73.3c1.7-1.2,3.2-2.7,4.3-4.3l4.4,1.5l3-7.2l-4.1-2.1c0.3-2,0.3-4.1,0-6.1l4.1-2.1l-3-7.2l-4.4,1.5
	c-1.2-1.7-2.7-3.2-4.3-4.3l1.5-4.4l-7.2-3l-2.1,4.1c-2-0.3-4.1-0.3-6.1,0L21,35.5l-7.2,3l1.5,4.4c-1.7,1.2-3.1,2.7-4.3,4.3"/>
<path class="st0" d="M18.8,58.4c0-4.2,3.4-7.5,7.5-7.5s7.5,3.4,7.5,7.5s-3.4,7.5-7.5,7.5"/>
<circle class="st0" cx="41.4" cy="41.4" r="35.8"/>
<polyline class="st0" points="73.4,67.8 90.4,84.7 84.7,90.4 67.8,73.4 "/>
</svg>
