<?xml version="1.0" encoding="utf-8"?>
<!-- Generator: Adobe Illustrator 27.9.0, SVG Export Plug-In . SVG Version: 6.00 Build 0)  -->
<svg version="1.1" id="Layer_1" xmlns="http://www.w3.org/2000/svg" xmlns:xlink="http://www.w3.org/1999/xlink" x="0px" y="0px"
	 width="96px" height="96px" viewBox="0 0 96 96" style="enable-background:new 0 0 96 96;" xml:space="preserve">
<style type="text/css">
	.st0{fill:none;stroke:#FFFFFF;stroke-width:1.5;stroke-linecap:round;stroke-linejoin:round;}
</style>
<polyline class="st0" points="17.4,14.6 63.8,14.6 63.8,9.1 73,18.3 63.8,27.6 63.8,22 30.4,22 "/>
<polyline class="st0" points="69.3,48 82.3,48 82.3,42.4 91.6,51.7 82.3,61 82.3,55.4 71.2,55.4 "/>
<polyline class="st0" points="60,73.9 69.3,73.9 69.3,68.4 78.6,77.7 69.3,86.9 69.3,81.4 32.2,81.4 "/>
<line class="st0" x1="4.4" y1="70.2" x2="26.7" y2="70.2"/>
<circle class="st0" cx="43.4" cy="51.7" r="5.6"/>
<path class="st0" d="M65.3,46.8l-2.3-6l-5.8,1.7c-1.1-1.6-2.4-2.9-3.8-4l2-5.7l-5.9-2.6l-2.9,5.3c-1.8-0.4-3.7-0.4-5.6-0.2l-2.6-5.4
	l-6,2.3l1.7,5.8c-1.6,1.1-2.9,2.4-4,3.8l-5.7-2l-2.6,5.9l5.3,2.9c-0.4,1.8-0.4,3.7-0.1,5.6l-5.4,2.6l2.3,6l5.8-1.7
	c1.1,1.6,2.4,2.9,3.8,4l-2,5.7l5.9,2.6l2.9-5.3c1.8,0.4,3.7,0.4,5.6,0.2l2.6,5.4l6-2.3l-1.7-5.8c1.6-1.1,2.9-2.4,4-3.8l5.7,2
	l2.6-5.9L59.8,55c0.4-1.8,0.4-3.7,0.2-5.6L65.3,46.8L65.3,46.8z"/>
<line class="st0" x1="26.7" y1="31.3" x2="10" y2="31.3"/>
</svg>
