<?xml version="1.0" encoding="utf-8"?>
<!-- Generator: Adobe Illustrator 27.9.0, SVG Export Plug-In . SVG Version: 6.00 Build 0)  -->
<svg version="1.1" id="Layer_1" xmlns="http://www.w3.org/2000/svg" xmlns:xlink="http://www.w3.org/1999/xlink" x="0px" y="0px"
	 width="96px" height="96px" viewBox="0 0 96 96" style="enable-background:new 0 0 96 96;" xml:space="preserve">
<style type="text/css">
	.st0{fill:none;stroke:#FFFFFF;stroke-width:1.5;stroke-linecap:round;stroke-linejoin:round;}
</style>
<polyline class="st0" points="80.9,84.6 5.7,84.6 5.7,11.4 90.3,11.4 90.3,75.2 "/>
<line class="st0" x1="7.6" y1="22.6" x2="90.3" y2="22.6"/>
<line class="st0" x1="11.4" y1="17" x2="15.1" y2="17"/>
<line class="st0" x1="18.9" y1="17" x2="22.6" y2="17"/>
<line class="st0" x1="26.4" y1="17" x2="30.1" y2="17"/>
<line class="st0" x1="67.7" y1="56.5" x2="67.7" y2="64"/>
<line class="st0" x1="32" y1="48.9" x2="32" y2="64"/>
<line class="st0" x1="24.5" y1="54.6" x2="24.5" y2="64"/>
<line class="st0" x1="17" y1="43.3" x2="17" y2="64"/>
<line class="st0" x1="60.2" y1="43.3" x2="60.2" y2="64"/>
<line class="st0" x1="52.7" y1="48.9" x2="52.7" y2="64"/>
<circle class="st0" cx="60.2" cy="54.6" r="20.7"/>
<line class="st0" x1="75.2" y1="69.6" x2="90.3" y2="84.6"/>
</svg>
