<?xml version="1.0" encoding="utf-8"?>
<!-- Generator: Adobe Illustrator 27.9.0, SVG Export Plug-In . SVG Version: 6.00 Build 0)  -->
<svg version="1.1" id="Layer_1" xmlns="http://www.w3.org/2000/svg" xmlns:xlink="http://www.w3.org/1999/xlink" x="0px" y="0px"
	 width="96px" height="96px" viewBox="0 0 96 96" style="enable-background:new 0 0 96 96;" xml:space="preserve">
<style type="text/css">
	.st0{fill:none;stroke:#FFFFFF;stroke-width:1.5;stroke-linecap:round;stroke-linejoin:round;}
</style>
<path class="st0" d="M79.1,25.4C72.1,15.8,60.8,9.6,48,9.6C26.8,9.6,9.6,26.8,9.6,48v1.9H5.7l9.6,13.5L23,49.9h-3.8V48
	c0-15.9,12.9-28.8,28.8-28.8"/>
<path class="st0" d="M16.9,70.6c7,9.6,18.3,15.8,31.1,15.8c21.2,0,38.4-17.2,38.4-38.4v-1.9h3.8l-9.6-13.5L73,46.1h3.8V48
	c0,15.9-12.9,28.8-28.8,28.8"/>
<path class="st0" d="M61.5,48c0-1.1-0.1-2.1-0.4-3.1l3.8-2.2L61.1,36l-3.8,2.2c-1.5-1.4-3.4-2.5-5.4-3.1v-4.4h-7.7v4.4
	c-2,0.6-3.9,1.7-5.4,3.2L35,36l-3.8,6.7l3.8,2.2c-0.2,1-0.4,2-0.4,3s0.1,2.1,0.4,3.1l-3.9,2.2L35,60l3.9-2.2
	c1.5,1.4,3.3,2.5,5.3,3.1v4.5h7.7v-4.4c2-0.6,3.9-1.7,5.4-3.1l3.8,2.2l3.8-6.7l-3.8-2.2C61.4,50.1,61.5,49.1,61.5,48L61.5,48z"/>
<circle class="st0" cx="48" cy="48" r="5.8"/>
</svg>
