<?xml version="1.0" encoding="utf-8"?>
<!-- Generator: Adobe Illustrator 27.9.0, SVG Export Plug-In . SVG Version: 6.00 Build 0)  -->
<svg version="1.1" id="Layer_1" xmlns="http://www.w3.org/2000/svg" xmlns:xlink="http://www.w3.org/1999/xlink" x="0px" y="0px"
	 width="96px" height="96px" viewBox="0 0 96 96" style="enable-background:new 0 0 96 96;" xml:space="preserve">
<style type="text/css">
	.st0{fill:none;stroke:#FFFFFF;stroke-width:1.5;}
	.st1{fill:none;stroke:#FFFFFF;stroke-width:1.5;stroke-dasharray:3.8993,3.8993;}
</style>
<g>
	<g transform="translate(-3680 -192)">
		<g>
			<g>
				<g>
					<g>
						<g>
							<g>
								<g>
									<g>
										<path class="st0" d="M3749.8,214.4l5.5-5.5l-4.8-4.8l24.4-2.8l-5.2,22l-4.8-4.8"/>
										<path class="st0" d="M3709.9,224.2l15.1,15.1l16.6-16.6"/>
										<path class="st1" d="M3704.2,237.7l20.7,20.7l22.9-22.9"/>
										<path class="st0" d="M3681.4,217.4l10.9-10.9l9.4,9.4"/>
										<path class="st1" d="M3681.4,236.6l10.9-10.9l2.1,2.1"/>
										<path class="st0" d="M3726.4,267.1c15.5,0,28.1-12.6,28.1-28.1s-12.6-28.1-28.1-28.1s-28.1,12.6-28.1,28.1
											S3710.9,267.1,3726.4,267.1z"/>
										<path class="st0" d="M3767,279.6l-20.7-20.7"/>
										<path class="st1" d="M3764.9,218.5l-6.3,6.3"/>
									</g>
								</g>
							</g>
						</g>
					</g>
				</g>
			</g>
		</g>
	</g>
</g>
</svg>
