<?xml version="1.0" encoding="utf-8"?>
<!-- Generator: Adobe Illustrator 27.9.0, SVG Export Plug-In . SVG Version: 6.00 Build 0)  -->
<svg version="1.1" id="Layer_1" xmlns="http://www.w3.org/2000/svg" xmlns:xlink="http://www.w3.org/1999/xlink" x="0px" y="0px"
	 width="96px" height="96px" viewBox="0 0 96 96" style="enable-background:new 0 0 96 96;" xml:space="preserve">
<style type="text/css">
	.st0{fill:none;stroke:#FFFFFF;stroke-width:1.5;stroke-linecap:round;stroke-linejoin:round;}
</style>
<path class="st0" d="M57.5,48c0,5.2-4.2,9.5-9.5,9.5s-9.5-4.2-9.5-9.5s4.2-9.5,9.5-9.5S57.5,42.8,57.5,48z"/>
<path class="st0" d="M32.7,29c-1.7,1.4-3.2,3-4.5,4.7l-5.6-1.9l-3.8,9.2l5.3,2.6c-0.4,2.5-0.4,5.2,0,7.8l-5.3,2.6l3.8,9.2l5.6-1.9
	c1.5,2.2,3.4,4,5.5,5.5l-1.9,5.6l9.2,3.8l2.6-5.3c3.5,1.2,12.1,1.5,15.6,1.5h18.9v-3.8l13.3,9.5L78.3,89.7v-3.8H46.1
	c-19.9,0-36-16.1-36-36c0-1.9,0.1-3.8,0.4-5.7"/>
<path class="st0" d="M63.3,66.9c1.7-1.4,3.2-3,4.5-4.7l5.6,1.9l3.8-9.2l-5.3-2.6c0.4-2.5,0.4-5.2,0-7.8l5.3-2.6l-3.8-9.2l-5.6,1.9
	c-1.6-2.2-3.4-4-5.5-5.5l1.9-5.6l-9.2-3.8l-2.6,5.3c-3.5-1.2-12.1-1.5-15.6-1.5H17.7v3.8L4.4,17.7L17.7,6.3v3.8h32.2
	c19.9,0,36,16.1,36,36c0,2.6-0.3,5.1-0.8,7.6"/>
</svg>
