<?xml version="1.0" encoding="utf-8"?>
<!-- Generator: Adobe Illustrator 27.9.0, SVG Export Plug-In . SVG Version: 6.00 Build 0)  -->
<svg version="1.1" id="Layer_1" xmlns="http://www.w3.org/2000/svg" xmlns:xlink="http://www.w3.org/1999/xlink" x="0px" y="0px"
	 width="96px" height="96px" viewBox="0 0 96 96" style="enable-background:new 0 0 96 96;" xml:space="preserve">
<style type="text/css">
	.st0{fill:none;stroke:#FFFFFF;stroke-width:1.5;stroke-linecap:round;stroke-linejoin:round;}
</style>
<path class="st0" d="M44.3,31.2C22,33.1,4.6,51.8,4.6,74.6c0,5.9,1.2,11.6,3.3,16.7"/>
<path class="st0" d="M88.1,91.4c2.1-5.2,3.3-10.8,3.3-16.7c0-15-7.5-28.2-19-36.1"/>
<line class="st0" x1="48" y1="38.6" x2="48" y2="42.3"/>
<line class="st0" x1="35.7" y1="40.7" x2="37" y2="44.3"/>
<line class="st0" x1="24.9" y1="46.9" x2="27.3" y2="49.8"/>
<line class="st0" x1="16.9" y1="56.5" x2="20.2" y2="58.4"/>
<line class="st0" x1="12.6" y1="68.2" x2="16.4" y2="68.8"/>
<line class="st0" x1="12.6" y1="80.6" x2="16.4" y2="80"/>
<path class="st0" d="M52.5,72.3c3.3,2.6,3.8,7.3,1.2,10.6c-2.6,3.3-7.3,3.8-10.6,1.2c-3.3-2.6-3.8-7.3-1.2-10.6S49.2,69.7,52.5,72.3
	z"/>
<line class="st0" x1="71" y1="46.9" x2="68.6" y2="49.8"/>
<line class="st0" x1="79" y1="56.5" x2="75.7" y2="58.4"/>
<line class="st0" x1="83.2" y1="68.2" x2="79.5" y2="68.8"/>
<line class="st0" x1="83.2" y1="80.6" x2="79.5" y2="80"/>
<polygon class="st0" points="78.1,21.6 61.3,44.2 44.2,21.6 53.6,21.6 53.6,4.6 68.7,4.6 68.7,21.6 "/>
<line class="st0" x1="44.8" y1="85.1" x2="42.3" y2="91.4"/>
<line class="st0" x1="59.3" y1="49.9" x2="50.5" y2="71.2"/>
</svg>
