<?xml version="1.0" encoding="utf-8"?>
<!-- Generator: Adobe Illustrator 27.9.0, SVG Export Plug-In . SVG Version: 6.00 Build 0)  -->
<svg version="1.1" id="Layer_1" xmlns="http://www.w3.org/2000/svg" xmlns:xlink="http://www.w3.org/1999/xlink" x="0px" y="0px"
	 width="96px" height="96px" viewBox="0 0 96 96" style="enable-background:new 0 0 96 96;" xml:space="preserve">
<style type="text/css">
	.st0{fill:none;stroke:#FFFFFF;stroke-width:1.5;stroke-linecap:round;stroke-linejoin:round;}
</style>
<polyline class="st0" points="56.8,32.2 76.2,12.8 90.3,12.8 "/>
<path class="st0" d="M35.7,50.3c-11.4-2.2-19.4-7.1-19.4-12.9"/>
<path class="st0" d="M81.5,37.4c0,7.8-14.6,14.1-32.6,14.1c-2.7,0-5.4-0.2-7.9-0.4"/>
<path class="st0" d="M63.8,24.9c-4.5-1-9.6-1.6-15-1.6c-14.3,0-26.4,4-30.8,9.5"/>
<path class="st0" d="M67.4,68.4c8.5-2.5,14.1-6.8,14.1-11.6V37.4c0-4.6-5.2-8.8-13.2-11.3"/>
<path class="st0" d="M41,70.5c2.5,0.3,5.2,0.4,7.9,0.4c4.7,0,9.2-0.4,13.2-1.2"/>
<polyline class="st0" points="30.4,62.1 18.1,74.4 5.7,74.4 "/>
<polyline class="st0" points="55,62.1 76.2,83.2 90.3,83.2 "/>
<path class="st0" d="M25.8,66.7c-5.8-2.6-9.5-6-9.5-9.9V37.4h33.5L35.7,50.3v19.4l0,0c-2-0.4-4-0.9-5.8-1.4"/>
</svg>
