<?xml version="1.0" encoding="utf-8"?>
<!-- Generator: Adobe Illustrator 27.9.0, SVG Export Plug-In . SVG Version: 6.00 Build 0)  -->
<svg version="1.1" id="Layer_1" xmlns="http://www.w3.org/2000/svg" xmlns:xlink="http://www.w3.org/1999/xlink" x="0px" y="0px"
	 width="96px" height="96px" viewBox="0 0 96 96" style="enable-background:new 0 0 96 96;" xml:space="preserve">
<style type="text/css">
	.st0{fill:none;stroke:#FFFFFF;stroke-width:1.5;stroke-miterlimit:10;}
	.st1{fill:none;stroke:#FFFFFF;stroke-width:1.5;stroke-miterlimit:10;stroke-dasharray:0,0,8.0325,8.0325;}
</style>
<g>
	<g transform="translate(-4166 -192)">
		<g>
			<g>
				<g>
					<g>
						<g>
							<g>
								<path class="st0" d="M4198.2,235.3h4.8c1.5,0,3.8,0.9,4.8,2.4h4.8c2.2,0,4.8,2.1,4.8,4.8h4.8c2.2,0,4.8,2.1,4.8,4.8v21.4
									c0,4.8-4.8,8.7-4.8,11.9v2.4"/>
								<path class="st0" d="M4198.2,247.2v-28.5c0-2.6-2.1-4.8-4.8-4.8c-2.6,0-4.8,2.1-4.8,4.8v33.2l-3.2,3l-6.2-9.6
									c-3.8-5.2-9.6-2.3-9.6,0c0,0,7.2,20.6,8.2,22.2c1.7,2.6,8.4,8.4,8.4,10.5v4.8"/>
								<path class="st0" d="M4207.7,237.7v9.5"/>
								<path class="st0" d="M4217.2,242.4v7.1"/>
								<path class="st0" d="M4173.4,236.7v-3.9"/>
								<path class="st1" d="M4173.4,224.8v-16.3c0-5.7,4.6-10.4,10.4-10.4h65.3c5.7,0,10.4,4.6,10.4,10.4v49.4
									c0,5.7-4.6,10.4-10.4,10.4h-9"/>
								<path class="st0" d="M4236.1,268.2h-3.9"/>
								<path class="st0" d="M4188.7,225.7c-2.8-0.3-5-2.7-5-5.6V213c0-3.1,2.5-5.6,5.6-5.6h7.1c3.1,0,5.6,2.5,5.6,5.6v7.1
									c0,2.5-1.6,4.6-3.9,5.3"/>
								<path class="st0" d="M4217,207.4c5.1,0,9.2,4.1,9.2,9.2v0c0,5.1-4.1,9.2-9.2,9.2h0c-5.1,0-9.2-4.1-9.2-9.2v0
									C4207.8,211.5,4212,207.4,4217,207.4L4217,207.4z"/>
								<path class="st0" d="M4241.2,207.4c5.1,0,9.2,4.1,9.2,9.2v0c0,5.1-4.1,9.2-9.2,9.2h0c-5.1,0-9.2-4.1-9.2-9.2v0
									C4232,211.5,4236.1,207.4,4241.2,207.4L4241.2,207.4z"/>
							</g>
						</g>
					</g>
				</g>
			</g>
		</g>
	</g>
</g>
</svg>
