<svg width="96" height="96" viewBox="0 0 96 96" fill="none" xmlns="http://www.w3.org/2000/svg">
<path d="M27.01 73.66H15.1699V85.5" stroke="white" stroke-width="1.5" stroke-miterlimit="10"/>
<path d="M86.4399 31.16C88.8699 36.44 90.1399 42.18 90.1699 48C90.1599 53.47 89.08 58.88 86.97 63.92C84.86 68.97 81.7799 73.55 77.8999 77.39C70.1299 85.08 59.65 89.4099 48.72 89.4399C37.14 89.5499 28.6701 86.0199 21.0901 79.5699C19.7501 78.4299 15.1699 73.65 15.1699 73.65" stroke="white" stroke-width="1.5" stroke-miterlimit="10"/>
<path d="M11 64.84C8.57 59.55 7.30002 53.8101 7.27002 48.0001C7.28002 42.5301 8.35997 37.12 10.47 32.07C12.58 27.03 15.66 22.45 19.54 18.6C27.31 10.91 37.79 6.5801 48.72 6.5501C60.3 6.4401 68.7701 9.97009 76.3501 16.4101C77.6901 17.5501 82.27 22.34 82.27 22.34" stroke="white" stroke-width="1.5" stroke-miterlimit="10"/>
<path d="M70.4299 22.35H82.27V10.51" stroke="white" stroke-width="1.5" stroke-miterlimit="10"/>
<path d="M28.98 46.03L44.77 34.1899L52.6699 42.08L68.46 30.24" stroke="white" stroke-width="1.5" stroke-miterlimit="10"/>
<path d="M28.98 53.92V65.76" stroke="white" stroke-width="1.5" stroke-miterlimit="10"/>
<path d="M36.8799 49.98V65.77" stroke="white" stroke-width="1.5" stroke-miterlimit="10"/>
<path d="M44.77 44.0601V65.77" stroke="white" stroke-width="1.5" stroke-miterlimit="10"/>
<path d="M52.6699 49.98V65.77" stroke="white" stroke-width="1.5" stroke-miterlimit="10"/>
<path d="M60.5601 46.03V65.77" stroke="white" stroke-width="1.5" stroke-miterlimit="10"/>
<path d="M68.45 40.11V65.77" stroke="white" stroke-width="1.5" stroke-miterlimit="10"/>
</svg>
