<svg width="96" height="96" viewBox="0 0 96 96" fill="none" xmlns="http://www.w3.org/2000/svg">
<path d="M50.72 4.41992L61.36 15.0601L42.25 34.0701L50.72 42.54L59.19 34.0701L71.9 46.78L82.44 36.24L92.98 46.78V4.41992H50.72Z" stroke="white" stroke-width="1.5" stroke-miterlimit="10"/>
<path d="M35.92 40.5L29.58 46.8401L35.92 53.1799L42.26 46.8401L35.92 40.5Z" stroke="white" stroke-width="1.5" stroke-miterlimit="10"/>
<path d="M82.54 57.4099L65.6 74.3501" stroke="white" stroke-width="1.5" stroke-miterlimit="10"/>
<path d="M61.36 78.5901L57.12 82.8301" stroke="white" stroke-width="1.5" stroke-miterlimit="10"/>
<path d="M52.89 87.0601L48.65 91.3" stroke="white" stroke-width="1.5" stroke-miterlimit="10"/>
<path d="M38.01 19.29L19 38.3" stroke="white" stroke-width="1.5" stroke-miterlimit="10"/>
<path d="M27.45 57.4399L21.11 63.78L27.45 70.1201L33.79 63.78L27.45 57.4399Z" stroke="white" stroke-width="1.5" stroke-miterlimit="10"/>
<path d="M31.66 76.46L25.32 82.8L31.66 89.1399L38 82.8L31.66 76.46Z" stroke="white" stroke-width="1.5" stroke-miterlimit="10"/>
<path d="M46.55 61.6399L40.21 67.98L46.55 74.3201L52.89 67.98L46.55 61.6399Z" stroke="white" stroke-width="1.5" stroke-miterlimit="10"/>
<path d="M59.25 48.9299L52.91 55.27L59.25 61.6101L65.59 55.27L59.25 48.9299Z" stroke="white" stroke-width="1.5" stroke-miterlimit="10"/>
<path d="M8.38998 67.96L2.04999 74.3L8.38998 80.6399L14.73 74.3L8.38998 67.96Z" stroke="white" stroke-width="1.5" stroke-miterlimit="10"/>
</svg>
