<svg width="96" height="96" viewBox="0 0 96 96" fill="none" xmlns="http://www.w3.org/2000/svg">
<path d="M36.9 65.57H90.53V11.94V6.39001H5.46997V32.28" stroke="white" stroke-width="1.5" stroke-linecap="round" stroke-linejoin="round"/>
<path d="M22.11 32.28C26.34 32.28 29.51 28.73 29.51 24.36V21.72C29.51 17.34 26.35 13.8 22.11 13.8C17.87 13.8 14.71 17.35 14.71 21.72V24.36C14.71 28.74 17.87 32.28 22.11 32.28Z" stroke="white" stroke-width="1.5" stroke-linecap="round" stroke-linejoin="round"/>
<path d="M31.36 89.61V45.23H42.46C48.04 45.23 49.86 41.94 49.86 37.83H14.71C8.07996 37.83 5.45996 40.63 5.45996 48.93V61.87C5.45996 65.84 7.03996 69.27 11.01 69.27" stroke="white" stroke-width="1.5" stroke-linecap="round" stroke-linejoin="round"/>
<path d="M22.11 63.72V89.61" stroke="white" stroke-width="1.5" stroke-linecap="round" stroke-linejoin="round"/>
<path d="M12.86 48.92V89.61" stroke="white" stroke-width="1.5" stroke-linecap="round" stroke-linejoin="round"/>
<path d="M48 48L60.9399 54.47L79.44 45.23V24.88L60.9399 15.64L42.45 24.88V34.13" stroke="white" stroke-width="1.5" stroke-linecap="round" stroke-linejoin="round"/>
<path d="M47.99 27.66L60.94 34.13" stroke="white" stroke-width="1.5" stroke-linecap="round" stroke-linejoin="round"/>
<path d="M73.8999 27.66L60.9399 34.13" stroke="white" stroke-width="1.5" stroke-linecap="round" stroke-linejoin="round"/>
<path d="M60.9399 34.13V48.92" stroke="white" stroke-width="1.5" stroke-linecap="round" stroke-linejoin="round"/>
</svg>
