<svg width="96" height="96" viewBox="0 0 96 96" fill="none" xmlns="http://www.w3.org/2000/svg">
<path d="M83.7608 92C84.3108 88.73 81.3908 84.23 77.8708 82.51C78.3708 81.28 78.6508 79.94 78.6508 78.53C78.6508 72.7 73.9208 67.97 68.0908 67.97C66.2408 67.97 64.5008 68.45 62.9908 69.28C61.9808 65.6 57.6608 62.14 53.6608 62.14V50.83" stroke="white" stroke-width="1.5" stroke-linecap="round" stroke-linejoin="round"/>
<path d="M12.1808 92.31C12.1808 88.81 14.0608 86.27 16.8708 84.61L16.8408 84.57C16.1708 83.27 15.7908 81.81 15.7908 80.25C15.7908 75.01 20.0408 70.76 25.2808 70.76C25.9408 70.76 26.5808 70.83 27.2008 70.95C27.2008 70.9 27.2008 70.85 27.2008 70.79C27.2008 65.99 33.7808 62.14 38.5808 62.14V50.83" stroke="white" stroke-width="1.5" stroke-linecap="round" stroke-linejoin="round"/>
<path d="M57.6307 78.38C57.6307 72.63 62.2907 67.97 68.0407 67.97" stroke="white" stroke-width="1.5" stroke-linecap="round" stroke-linejoin="round"/>
<path d="M78.7107 78.38C78.7107 82.23 76.6207 85.59 73.5107 87.39" stroke="white" stroke-width="1.5" stroke-linecap="round" stroke-linejoin="round"/>
<path d="M42.3407 92.31C42.3407 87.1 46.5607 82.88 51.7707 82.88" stroke="white" stroke-width="1.5" stroke-linecap="round" stroke-linejoin="round"/>
<path d="M44.2307 84.77C42.5207 82.6 39.7707 81.17 36.6907 81" stroke="white" stroke-width="1.5" stroke-linecap="round" stroke-linejoin="round"/>
<path d="M33.2208 75.12C31.5608 72.49 28.6208 70.75 25.2808 70.75" stroke="white" stroke-width="1.5" stroke-linecap="round" stroke-linejoin="round"/>
<path d="M53.6608 35.7399V20.6599C53.6608 11.3499 48.4808 3.68994 46.1208 3.68994C43.7308 3.68994 38.5808 11.4199 38.5808 20.6599V35.7399L31.0408 43.2799L32.9308 48.9399L40.4708 45.1699L46.1308 52.7099L51.7908 45.1699L59.3308 48.9399L61.2208 43.2799L53.6808 35.7399H53.6608Z" stroke="white" stroke-width="1.5" stroke-linecap="round" stroke-linejoin="round"/>
<path d="M46.1107 22.55V26.32" stroke="white" stroke-width="1.5" stroke-linecap="round" stroke-linejoin="round"/>
</svg>
