<svg width="96" height="96" viewBox="0 0 96 96" fill="none" xmlns="http://www.w3.org/2000/svg">
<path d="M80.051 47.48V10.2C80.051 8.49995 78.6811 7.06995 76.9211 7.06995H21.0613C19.3613 7.06995 17.9314 8.43995 17.9314 10.2V47.48" stroke="white" stroke-width="1.5" stroke-miterlimit="10"/>
<path d="M53.6511 28.84V39.73" stroke="white" stroke-width="1.5" stroke-miterlimit="10"/>
<path d="M59.9114 14.89V39.72" stroke="white" stroke-width="1.5" stroke-miterlimit="10"/>
<path d="M72.301 19.51V39.72" stroke="white" stroke-width="1.5" stroke-miterlimit="10"/>
<path d="M66.1013 25.71V39.66" stroke="white" stroke-width="1.5" stroke-miterlimit="10"/>
<path d="M38.1414 16.39V25.71H47.4612C47.4612 20.56 43.2914 16.39 38.1414 16.39Z" stroke="white" stroke-width="1.5" stroke-miterlimit="10"/>
<path d="M44.3313 28.84C44.3313 33.99 40.161 38.16 35.011 38.16C29.861 38.16 25.7512 33.99 25.7512 28.84C25.7512 23.69 29.921 19.52 35.071 19.52" stroke="white" stroke-width="1.5" stroke-miterlimit="10"/>
<path d="M14.1511 52.3V58.4301L24.0613 59.86C24.7113 62.53 25.7612 65.14 27.1912 67.49L21.1912 75.38L27.6414 81.83L35.6614 75.83C38.0114 77.27 40.5514 78.31 43.2214 78.96L44.6511 88.87H53.7712L55.2112 78.96C57.8812 78.31 60.4911 77.27 62.8411 75.83L70.7913 81.83L77.2415 75.38L71.2415 67.36C72.6715 65.01 73.7213 62.47 74.3713 59.8L84.281 58.37V52.24" stroke="white" stroke-width="1.5" stroke-linejoin="round" stroke-dasharray="3 3"/>
<path d="M63.761 58.4301C61.801 64.6201 56.0714 69.12 49.2214 69.12C42.3714 69.12 36.5113 64.56 34.6213 58.3" stroke="white" stroke-width="1.5" stroke-linecap="round" stroke-linejoin="round"/>
<path d="M2.94116 47.28H94.2014" stroke="white" stroke-width="1.5"/>
</svg>
