<svg width="96" height="96" viewBox="0 0 96 96" fill="none" xmlns="http://www.w3.org/2000/svg">
<path d="M48 87.0601C52 87.0601 55.26 83.8 55.26 79.8C55.26 75.8 52 72.55 48 72.55C44 72.55 40.75 75.81 40.75 79.8C40.75 83.81 44 87.0601 48 87.0601Z" stroke="white" stroke-width="1.5" stroke-miterlimit="10"/>
<path d="M48 50.8499C52 50.8499 55.26 47.5899 55.26 43.5999C55.26 39.5999 52 36.3398 48 36.3398C44 36.3398 40.75 39.5999 40.75 43.5999C40.75 47.5899 44 50.8499 48 50.8499Z" stroke="white" stroke-width="1.5" stroke-miterlimit="10"/>
<path d="M33.55 23.73C37.55 23.73 40.8 20.47 40.8 16.48C40.74 12.48 37.54 9.22998 33.55 9.22998C29.56 9.22998 26.3 12.49 26.3 16.48C26.3 20.47 29.56 23.73 33.55 23.73Z" stroke="white" stroke-width="1.5" stroke-miterlimit="10" stroke-dasharray="5.5 5.5"/>
<path d="M48 68.9199V50.8398" stroke="white" stroke-width="1.5" stroke-miterlimit="10"/>
<path d="M42.5901 32.77L37.1799 23.73" stroke="white" stroke-width="1.5" stroke-miterlimit="10" stroke-dasharray="5.5 5.5"/>
<path d="M67.9199 63.51C71.9199 63.51 75.1699 60.25 75.1699 56.25C75.1699 52.25 71.9099 49 67.9199 49C63.9299 49 60.6599 52.26 60.6599 56.25C60.6599 60.26 63.9299 63.51 67.9199 63.51Z" stroke="white" stroke-width="1.5" stroke-miterlimit="10"/>
<path d="M62.45 23.73C66.45 23.73 69.71 20.47 69.71 16.48C69.71 12.48 66.45 9.22998 62.45 9.22998C58.45 9.22998 55.26 12.49 55.26 16.48C55.26 20.47 58.45 23.73 62.45 23.73Z" stroke="white" stroke-width="1.5" stroke-miterlimit="10" stroke-dasharray="5.5 5.5"/>
<path d="M75.1201 45.4399L78.75 40.03" stroke="white" stroke-width="1.5" stroke-miterlimit="10" stroke-dasharray="5.5 5.5"/>
<path d="M57.04 70.77L63.4299 61.73" stroke="white" stroke-width="1.5" stroke-miterlimit="10"/>
<path d="M82.3701 40.03C86.3701 40.03 89.6299 36.77 89.6299 32.78C89.6299 28.78 86.3701 25.52 82.3701 25.52C78.3701 25.52 75.1201 28.78 75.1201 32.78C75.1201 36.77 78.3701 40.03 82.3701 40.03Z" stroke="white" stroke-width="1.5" stroke-miterlimit="10" stroke-dasharray="5.5 5.5"/>
<path d="M28.0801 63.51C32.0801 63.51 35.3401 60.25 35.3401 56.25C35.3401 52.25 32.0801 49 28.0801 49C24.0801 49 20.8301 52.26 20.8301 56.25C20.8801 60.26 24.0801 63.51 28.0801 63.51Z" stroke="white" stroke-width="1.5" stroke-miterlimit="10"/>
<path d="M20.8899 45.4399L17.26 40.03" stroke="white" stroke-width="1.5" stroke-miterlimit="10" stroke-dasharray="5.5 5.5"/>
<path d="M38.96 70.77L32.5701 61.73" stroke="white" stroke-width="1.5" stroke-miterlimit="10"/>
<path d="M13.6299 40.03C17.6299 40.03 20.8799 36.77 20.8799 32.78C20.8799 28.78 17.6199 25.52 13.6299 25.52C9.63988 25.52 6.37012 28.78 6.37012 32.78C6.37012 36.77 9.62988 40.03 13.6299 40.03Z" stroke="white" stroke-width="1.5" stroke-miterlimit="10" stroke-dasharray="5.5 5.5"/>
<path d="M53.4099 32.77L58.8201 23.73" stroke="white" stroke-width="1.5" stroke-miterlimit="10" stroke-dasharray="5.5 5.5"/>
</svg>
