<svg width="96" height="96" viewBox="0 0 96 96" fill="none" xmlns="http://www.w3.org/2000/svg">
<path d="M46.05 17.67V24.9601" stroke="white" stroke-width="1.5" stroke-miterlimit="10"/>
<path d="M46.05 90.03C50.03 90.03 53.25 87.6 53.25 84.61C53.25 81.62 50.03 79.19 46.05 79.19C42.07 79.19 38.85 81.62 38.85 84.61C38.85 87.6 42.07 90.03 46.05 90.03Z" stroke="white" stroke-width="1.5" stroke-miterlimit="10"/>
<path d="M71.3799 90.03C75.3499 90.03 78.58 87.6 78.58 84.61C78.58 81.62 75.3599 79.19 71.3799 79.19C67.3999 79.19 64.1799 81.62 64.1799 84.61C64.1799 87.6 67.3999 90.03 71.3799 90.03Z" stroke="white" stroke-width="1.5" stroke-miterlimit="10"/>
<path d="M46.0499 24.96L33.4299 32.16L46.0499 39.36L58.6699 32.16L46.0499 24.96Z" stroke="white" stroke-width="1.5" stroke-miterlimit="10"/>
<path d="M71.38 41.23L58.76 48.43L71.38 55.63L84 48.43L71.38 41.23Z" stroke="white" stroke-width="1.5" stroke-miterlimit="10"/>
<path d="M46.0499 57.5L33.4299 64.7L46.0499 71.9L58.6699 64.7L46.0499 57.5Z" stroke="white" stroke-width="1.5" stroke-miterlimit="10"/>
<path d="M33.42 32.16H20.8V43" stroke="white" stroke-width="1.5" stroke-miterlimit="10"/>
<path d="M58.6699 32.16H71.2899V41.23" stroke="white" stroke-width="1.5" stroke-miterlimit="10"/>
<path d="M29.78 43.01H11.74V53.85H29.78V43.01Z" stroke="white" stroke-width="1.5" stroke-miterlimit="10"/>
<path d="M58.67 48.43H46.05V57.5" stroke="white" stroke-width="1.5" stroke-miterlimit="10"/>
<path d="M20.71 53.85V64.69H33.33" stroke="white" stroke-width="1.5" stroke-miterlimit="10"/>
<path d="M71.38 55.63V79.18" stroke="white" stroke-width="1.5" stroke-miterlimit="10"/>
<path d="M46.05 71.89V79.18" stroke="white" stroke-width="1.5" stroke-miterlimit="10"/>
<path d="M38.76 6.83002H53.25C54.23 6.83002 55.03 7.63002 55.03 8.61002V15.9C55.03 16.88 54.23 17.68 53.25 17.68H38.76C37.78 17.68 36.98 16.88 36.98 15.9V8.61002C36.98 7.63002 37.78 6.83002 38.76 6.83002Z" stroke="white" stroke-width="1.5" stroke-miterlimit="10"/>
</svg>
