<svg width="96" height="96" viewBox="0 0 96 96" fill="none" xmlns="http://www.w3.org/2000/svg">
<path d="M17.72 41.84L18.39 49.17M22.6 39.91L23.36 47.99M12.92 43.86L13.68 50.26M40.62 36.2V17M40.62 78.14V58.94M61 49.93V17M61 78.14V65.42M81.46 29.8V17M81.46 78.14V45.21M10.98 44.62C9.37999 45.38 8.45001 46.98 8.62001 48.75L9.96998 59.95C10.64 62.31 11.49 66.69 12.92 68.54C16.29 73.09 23.95 71.99 27.82 69.3C29.42 68.21 31.53 64.42 32.96 62.56L41.13 50.18C40.96 48.07 37.42 47.74 36.08 48.83L30.1 53.71L29.85 53.63L28.67 44.37L35.74 36.71L33.8 34.77L10.98 44.62ZM36.58 37.89C38.77 35.62 42.39 35.62 44.66 37.89C46.93 40.08 46.93 43.7 44.66 45.97C42.47 48.24 38.85 48.24 36.58 45.97C34.39 43.7 34.39 40.16 36.58 37.89ZM56.96 51.53C59.15 49.26 62.77 49.26 65.04 51.53C67.31 53.72 67.31 57.34 65.04 59.61C62.85 61.88 59.23 61.88 56.96 59.61C54.77 57.42 54.77 53.8 56.96 51.53ZM77.42 31.49C79.61 29.22 83.23 29.22 85.5 31.49C87.77 33.68 87.77 37.3 85.5 39.57C83.31 41.84 79.69 41.84 77.42 39.57C75.23 37.3 75.23 33.68 77.42 31.49Z" stroke="white" stroke-width="1.5" stroke-miterlimit="2.613"/>
</svg>
