<svg width="96" height="96" viewBox="0 0 96 96" fill="none" xmlns="http://www.w3.org/2000/svg">
<path d="M20.7 55.8C23.9 55.8 26.5 58.4 26.5 61.6C26.5 64.8 23.9 67.4001 20.7 67.4001C17.5 67.4001 14.9 64.8 14.9 61.6C14.9 58.4 17.5 55.8 20.7 55.8Z" stroke="white" stroke-width="1.5" stroke-miterlimit="10"/>
<path d="M9 77.2C10.9 77.2 12.9 79.1 12.9 81.1H28.5C28.5 79.2 30.5 77.2 32.4 77.2" stroke="white" stroke-width="1.5" stroke-miterlimit="10"/>
<path d="M9 46.0999C10.9 46.0999 12.9 44.2 12.9 42.2H28.5C28.5 44.1 30.5 46.0999 32.4 46.0999" stroke="white" stroke-width="1.5" stroke-miterlimit="10"/>
<path d="M36.3 65.4999V34.3999H5.09998V88.8999H36.3V69.3999" stroke="white" stroke-width="1.5" stroke-miterlimit="10"/>
<path d="M20.7 75.2999V71.3999" stroke="white" stroke-width="1.5" stroke-miterlimit="10"/>
<path d="M20.7 51.9V48" stroke="white" stroke-width="1.5" stroke-miterlimit="10"/>
<path d="M51.9 26.6001H83.1C87.4 26.6001 90.9 30.1001 90.9 34.4001V57.8001H44.1V34.4001C44.1 30.1001 47.6 26.6001 51.9 26.6001Z" stroke="white" stroke-width="1.5" stroke-miterlimit="10"/>
<path d="M67.5 26.5999V14.8999" stroke="white" stroke-width="1.5" stroke-miterlimit="10"/>
<path d="M67.5 14.8C70.7032 14.8 73.3 12.2032 73.3 8.99995C73.3 5.7967 70.7032 3.19995 67.5 3.19995C64.2967 3.19995 61.7 5.7967 61.7 8.99995C61.7 12.2032 64.2967 14.8 67.5 14.8Z" stroke="white" stroke-width="1.5" stroke-miterlimit="10"/>
<path d="M59.7 38.3V48" stroke="white" stroke-width="1.5" stroke-miterlimit="10"/>
<path d="M75.3 38.3V48" stroke="white" stroke-width="1.5" stroke-miterlimit="10"/>
<path d="M32.4 65.5H57.7V92.8H77.2V65.5H85V83.1" stroke="white" stroke-width="1.5" stroke-miterlimit="10"/>
</svg>
