<svg width="96" height="96" viewBox="0 0 96 96" fill="none" xmlns="http://www.w3.org/2000/svg">
<path d="M24.2599 39.2001V35.5901L27.8599 31.9801H33.33V28.3701C33.33 25.3601 30.8699 22.8901 27.8599 22.8901H19.5699" stroke="white" stroke-width="1.5" stroke-linecap="round" stroke-linejoin="round" stroke-dasharray="3.91 3.91"/>
<path d="M68.11 13.4199L64.21 17.3398H53.34L49.74 20.9498H47.94C44.94 20.9498 42.47 23.4199 42.47 26.4299V28.2399H51.48L58.75 35.5299H62.35L64.15 33.7198H65.95L69.55 37.3298H80.42" stroke="white" stroke-width="1.5" stroke-linecap="round" stroke-linejoin="round" stroke-dasharray="3.91 3.91"/>
<path d="M15.1899 39.2001C15.1899 21.0701 29.7899 6.37012 47.8699 6.37012C65.9499 6.37012 80.5499 21.0701 80.5499 39.1401" stroke="white" stroke-width="1.5" stroke-linecap="round" stroke-linejoin="round" stroke-dasharray="3.91 3.91"/>
<path d="M87.8099 46.4901H75.1299C73.3299 46.4901 71.59 45.9501 70.08 44.9801L69.1799 44.3801C67.6799 43.3601 65.9399 42.8701 64.1299 42.8701H50.4299C49.1099 42.8701 47.85 43.3501 46.89 44.2001L41.6599 49.5001C41.6599 49.5001 38.9599 52.2101 36.3099 55.1001C39.0699 57.8701 42.0199 58.0501 44.5999 57.1501C47.1799 56.2501 50.5499 53.8401 50.5499 53.8401H55.1799L61.9699 60.1702" stroke="white" stroke-width="1.5" stroke-linecap="round" stroke-linejoin="round"/>
<path d="M74.0599 72.3403C75.7399 70.6503 77.8399 70.1104 80.5499 70.1104" stroke="white" stroke-width="1.5" stroke-linecap="round" stroke-linejoin="round"/>
<path d="M61.9199 60.1104C61.9199 60.1104 71.3499 70.0504 74.0499 72.4004C76.7499 74.7504 73.0299 81.0103 68.6399 77.5803C65.9999 75.3503 57.6499 67.2804 57.6499 67.2804" stroke="white" stroke-width="1.5" stroke-linecap="round" stroke-linejoin="round"/>
<path d="M69.9099 78.2401C69.1299 80.1701 65.8899 84.6301 61.7399 81.4901C59.0999 79.2601 53.6899 74.0801 53.6899 74.0801" stroke="white" stroke-width="1.5" stroke-linecap="round" stroke-linejoin="round"/>
<path d="M63.2999 82.4003C61.4399 86.2003 58.1299 87.7002 55.1899 85.3502C53.0899 83.7202 49.96 80.4702 49.96 80.4702" stroke="white" stroke-width="1.5" stroke-linecap="round" stroke-linejoin="round"/>
<path d="M56.16 86.0103C55.02 88.8403 51.83 90.6503 49.19 89.0203C47.69 88.0603 44.99 86.0702 44.99 86.0702" stroke="white" stroke-width="1.5" stroke-linecap="round" stroke-linejoin="round"/>
<path d="M7.91992 46.4901H23.9C25.34 46.4901 26.7199 46.0702 27.9199 45.2902L29.7199 44.0901C30.9199 43.3101 32.2999 42.8901 33.7399 42.8901H42.5099C43.2899 42.8901 44.0699 43.1302 44.7299 43.6702L46.2899 44.7501" stroke="white" stroke-width="1.5" stroke-linecap="round" stroke-linejoin="round"/>
<path d="M28.4 74.9301C29.72 73.6601 29.4799 71.8601 28.2199 70.5301C26.9599 69.2001 24.86 69.2 23.59 70.47L21.7299 72.2801C20.4099 73.5501 20.4099 75.65 21.6699 76.98C22.9299 78.31 25.0299 78.3701 26.3599 77.0401" stroke="white" stroke-width="1.5" stroke-linecap="round" stroke-linejoin="round"/>
<path d="M35.9699 72.2202C34.7099 70.8902 32.61 70.8303 31.28 72.1003L25.8699 77.4003C24.5499 78.6703 24.5499 80.7703 25.8099 82.1003C27.0699 83.4303 29.1699 83.4903 30.4999 82.1603L35.9099 76.9203C37.1699 75.5903 37.2299 73.4802 35.9699 72.2202Z" stroke="white" stroke-width="1.5" stroke-linecap="round" stroke-linejoin="round"/>
<path d="M31.4099 81.2503C30.0899 82.5203 30.0299 84.6202 31.2899 85.9502C32.5499 87.2802 34.6499 87.3402 35.9799 86.0702L40.9099 81.2503C42.2299 79.9803 42.29 77.8803 41.03 76.5503C39.77 75.2203 37.67 75.1603 36.4 76.4303" stroke="white" stroke-width="1.5" stroke-linecap="round" stroke-linejoin="round"/>
<path d="M38.3099 83.7201C36.9899 84.9901 36.9899 87.0901 38.2499 88.4201C39.5099 89.7501 41.6099 89.7501 42.9399 88.4801L44.1999 87.2701C45.5199 86.0101 45.5199 83.9 44.2599 82.57C42.9999 81.24 40.8999 81.2401 39.6299 82.5101" stroke="white" stroke-width="1.5" stroke-linecap="round" stroke-linejoin="round"/>
<path d="M69.6699 61.7402C65.3499 62.6402 64.2599 61.5003 61.9199 60.0503" stroke="white" stroke-width="1.5" stroke-linecap="round" stroke-linejoin="round"/>
<path d="M21.5599 72.4C20.4199 71.32 18.1399 70.23 15.1299 70.23" stroke="white" stroke-width="1.5" stroke-linecap="round" stroke-linejoin="round"/>
</svg>
