<svg width="96" height="96" viewBox="0 0 96 96" fill="none" xmlns="http://www.w3.org/2000/svg">
<path d="M24.5298 56.9098C20.1898 56.9098 16.8198 53.1197 16.8198 48.8597V46.0198C16.8198 41.7498 20.1998 37.9697 24.5298 37.9697C28.8598 37.9697 32.2402 41.7598 32.2402 46.0198V48.8597C32.2402 53.1297 28.8598 56.9098 24.5298 56.9098Z" stroke="white" stroke-width="1.5" stroke-miterlimit="8"/>
<path d="M8.25 84.3297C8.25 67.0697 8.25 69.7898 8.25 69.7898C8.25 66.2898 10.6999 63.7998 14.1299 63.7998H17.6802C19.1502 63.7998 20.56 64.4697 21.5 65.6097L29.8101 75.7798H41.5698C41.5698 75.7798 42.5499 83.7798 35.6899 83.7798H23.9302L16.1001 73.7798" stroke="white" stroke-width="1.5" stroke-miterlimit="8"/>
<path d="M35.6602 69.4399L43.1201 55.1899H73.3701L62.0801 77.5601H46.9702" stroke="white" stroke-width="1.5" stroke-linejoin="round"/>
<path d="M17.9102 83.8599H76.79" stroke="white" stroke-width="1.5" stroke-linejoin="round"/>
<path d="M77.9902 63.4899L81.3999 66.1399L87.0698 60.2599L82.4199 53.8398C83.4499 51.7098 84.4802 49.5599 84.9902 46.8899L92.7202 46.3599V37.8099L84.9902 37.2799C84.4802 34.6099 83.4499 32.4598 82.4199 30.3298L87.0698 23.9099L81.3999 18.0199L75.21 22.8398C73.15 21.7698 71.0798 20.7099 68.5098 20.1699L68 12.1499H59.7402L59.23 20.1699C56.66 20.6999 54.5798 21.7698 52.5298 22.8398L46.3398 18.0199L40.6699 23.9099L45.3101 30.3298C44.2801 32.4698 43.2502 34.6199 42.7402 37.2799L40.6201 37.4299L38.9902 37.5499" stroke="white" stroke-width="1.5" stroke-linejoin="round"/>
<path d="M63.8701 49.5697C67.4701 49.5697 70.3999 46.6298 70.3999 43.0098C70.3999 39.3898 67.4801 36.4497 63.8701 36.4497C60.2601 36.4497 57.3398 39.3898 57.3398 43.0098C57.3398 46.6298 60.2701 49.5697 63.8701 49.5697Z" stroke="white" stroke-width="1.5" stroke-miterlimit="8"/>
</svg>
