<svg width="96" height="96" viewBox="0 0 96 96" fill="none" xmlns="http://www.w3.org/2000/svg">
<path d="M47.72 54.83C51 54.83 53.6499 52.17 53.6499 48.9C53.6499 45.62 50.99 42.97 47.72 42.97C44.45 42.97 41.7901 45.63 41.7901 48.9C41.7801 52.18 44.44 54.83 47.72 54.83Z" stroke="white" stroke-width="1.5" stroke-miterlimit="10"/>
<path d="M71.0601 43.64L68.5701 37.23L62.45 39.05C61.3 37.42 59.9601 35.89 58.3401 34.75L60.45 28.72L54.1399 25.9399L51.0801 31.59C49.1701 31.21 47.1599 31.11 45.1499 31.4L42.3799 25.66L35.97 28.15L37.79 34.27C36.17 35.42 34.63 36.76 33.49 38.38L27.46 36.28L24.6899 42.59L30.3401 45.65C29.9601 47.56 29.8599 49.57 30.1499 51.58L24.4099 54.35L26.8999 60.76L33.02 58.9399C34.17 60.5699 35.5099 62 37.1299 63.24L35.02 69.27L41.3301 72.04L44.3899 66.4C46.2999 66.78 48.3101 66.88 50.3201 66.59L53.0901 72.33L59.5 69.84L57.6799 63.72C59.2999 62.57 60.74 61.23 61.98 59.61L68.01 61.71L70.78 55.4L65.1399 52.34C65.5199 50.43 65.6201 48.42 65.3301 46.41L71.0601 43.64Z" stroke="white" stroke-width="1.5" stroke-miterlimit="10"/>
<path d="M69.4299 19.34C73.7599 19.34 77.27 15.83 77.27 11.5C77.27 7.17 73.7599 3.66003 69.4299 3.66003C65.0999 3.66003 61.5901 7.17 61.5901 11.5C61.5901 15.83 65.0999 19.34 69.4299 19.34Z" stroke="white" stroke-width="1.5" stroke-miterlimit="10"/>
<path d="M61.49 11.5H47.71V21.35" stroke="white" stroke-width="1.5" stroke-miterlimit="10"/>
<path d="M81.2 64.67L71.3201 74.55L81.2 84.4301L91.0801 74.55L81.2 64.67Z" stroke="white" stroke-width="1.5" stroke-miterlimit="10"/>
<path d="M12.3201 82.39L28.1001 92.24V72.53L12.3201 82.39Z" stroke="white" stroke-width="1.5" stroke-miterlimit="10"/>
<path d="M22.1699 15.52H6.38989V31.3H22.1699V15.52Z" stroke="white" stroke-width="1.5" stroke-miterlimit="10"/>
<path d="M73.3501 48.9H81.2V64.6801" stroke="white" stroke-width="1.5" stroke-miterlimit="10"/>
<path d="M22.1699 48.9H14.3301V31.2" stroke="white" stroke-width="1.5" stroke-miterlimit="10"/>
<path d="M47.72 76.45V84.29H28.01" stroke="white" stroke-width="1.5" stroke-miterlimit="10"/>
</svg>
