<svg width="96" height="96" viewBox="0 0 96 96" fill="none" xmlns="http://www.w3.org/2000/svg">
<path d="M47.9999 75.8301V65.3901" stroke="white" stroke-width="1.5" stroke-miterlimit="8"/>
<path d="M47.9999 20.1699V28.8699" stroke="white" stroke-width="1.5" stroke-miterlimit="8"/>
<path d="M69.7399 75.8302V69.8302L62.6499 61.9102H59.2999" stroke="white" stroke-width="1.5" stroke-miterlimit="8"/>
<path d="M80.1699 32.3501H74.3599L62.9599 44.5201H59.2999" stroke="white" stroke-width="1.5" stroke-miterlimit="8"/>
<path d="M86.2599 37.5701C89.6233 37.5701 92.3499 34.8436 92.3499 31.4801C92.3499 28.1167 89.6233 25.3901 86.2599 25.3901C82.8965 25.3901 80.1699 28.1167 80.1699 31.4801C80.1699 34.8436 82.8965 37.5701 86.2599 37.5701Z" stroke="white" stroke-width="1.5" stroke-miterlimit="8"/>
<path d="M80.1699 63.65H74.3599L62.9599 51.48H59.2999" stroke="white" stroke-width="1.5" stroke-miterlimit="8"/>
<path d="M86.2599 70.6102C89.6233 70.6102 92.3499 67.8836 92.3499 64.5202C92.3499 61.1568 89.6233 58.4302 86.2599 58.4302C82.8965 58.4302 80.1699 61.1568 80.1699 64.5202C80.1699 67.8836 82.8965 70.6102 86.2599 70.6102Z" stroke="white" stroke-width="1.5" stroke-miterlimit="8"/>
<path d="M70.6099 87.9998C73.9733 87.9998 76.6999 85.2732 76.6999 81.9098C76.6999 78.5464 73.9733 75.8198 70.6099 75.8198C67.2465 75.8198 64.5199 78.5464 64.5199 81.9098C64.5199 85.2732 67.2465 87.9998 70.6099 87.9998Z" stroke="white" stroke-width="1.5" stroke-miterlimit="8"/>
<path d="M47.9999 87.9998C51.3633 87.9998 54.0899 85.2732 54.0899 81.9098C54.0899 78.5464 51.3633 75.8198 47.9999 75.8198C44.6365 75.8198 41.9099 78.5464 41.9099 81.9098C41.9099 85.2732 44.6365 87.9998 47.9999 87.9998Z" stroke="white" stroke-width="1.5" stroke-miterlimit="8"/>
<path d="M69.7399 20.1699V26.1599L62.6499 34.0799H59.2999" stroke="white" stroke-width="1.5" stroke-miterlimit="8"/>
<path d="M70.6099 20.18C73.9733 20.18 76.6999 17.4534 76.6999 14.09C76.6999 10.7266 73.9733 8 70.6099 8C67.2465 8 64.5199 10.7266 64.5199 14.09C64.5199 17.4534 67.2465 20.18 70.6099 20.18Z" stroke="white" stroke-width="1.5" stroke-miterlimit="8"/>
<path d="M47.9999 20.18C51.3633 20.18 54.0899 17.4534 54.0899 14.09C54.0899 10.7266 51.3633 8 47.9999 8C44.6365 8 41.9099 10.7266 41.9099 14.09C41.9099 17.4534 44.6365 20.18 47.9999 20.18Z" stroke="white" stroke-width="1.5" stroke-miterlimit="8"/>
<path d="M55.8199 34.0898H40.1699V61.9198H55.8199V34.0898Z" stroke="white" stroke-width="1.5" stroke-miterlimit="8"/>
<path d="M94.0899 48H67.9999" stroke="white" stroke-width="1.5" stroke-miterlimit="8"/>
<path d="M36.7 61.9102H33.35L26.26 69.8302V75.8302" stroke="white" stroke-width="1.5" stroke-miterlimit="8"/>
<path d="M36.6998 44.5201H33.0398L21.6398 32.3501H15.8298" stroke="white" stroke-width="1.5" stroke-miterlimit="8"/>
<path d="M9.7399 37.5701C13.1033 37.5701 15.8299 34.8436 15.8299 31.4801C15.8299 28.1167 13.1033 25.3901 9.7399 25.3901C6.37649 25.3901 3.6499 28.1167 3.6499 31.4801C3.6499 34.8436 6.37649 37.5701 9.7399 37.5701Z" stroke="white" stroke-width="1.5" stroke-miterlimit="8"/>
<path d="M36.6998 51.48H33.0398L21.6398 63.65H15.8298" stroke="white" stroke-width="1.5" stroke-miterlimit="8"/>
<path d="M9.7399 70.6102C13.1033 70.6102 15.8299 67.8836 15.8299 64.5202C15.8299 61.1568 13.1033 58.4302 9.7399 58.4302C6.37649 58.4302 3.6499 61.1568 3.6499 64.5202C3.6499 67.8836 6.37649 70.6102 9.7399 70.6102Z" stroke="white" stroke-width="1.5" stroke-miterlimit="8"/>
<path d="M25.3898 87.9998C28.7532 87.9998 31.4798 85.2732 31.4798 81.9098C31.4798 78.5464 28.7532 75.8198 25.3898 75.8198C22.0264 75.8198 19.2998 78.5464 19.2998 81.9098C19.2998 85.2732 22.0264 87.9998 25.3898 87.9998Z" stroke="white" stroke-width="1.5" stroke-miterlimit="8"/>
<path d="M36.7 34.0902H33.35L26.26 26.1702V20.1802" stroke="white" stroke-width="1.5" stroke-miterlimit="8"/>
<path d="M25.3898 20.18C28.7532 20.18 31.4798 17.4534 31.4798 14.09C31.4798 10.7266 28.7532 8 25.3898 8C22.0264 8 19.2998 10.7266 19.2998 14.09C19.2998 17.4534 22.0264 20.18 25.3898 20.18Z" stroke="white" stroke-width="1.5" stroke-miterlimit="8"/>
<path d="M27.9999 48H1.90991" stroke="white" stroke-width="1.5" stroke-miterlimit="8"/>
</svg>
