<svg width="96" height="96" viewBox="0 0 96 96" fill="none" xmlns="http://www.w3.org/2000/svg">
<path d="M77.92 21.5C85.08 29.21 89.12 39.31 89.03 49.87C89.03 72.82 70.39 91.46 47.44 91.46C24.49 91.46 5.84998 72.82 5.84998 49.87" stroke="white" stroke-width="1.5" stroke-miterlimit="10"/>
<path d="M47.5299 72.5501C35.0399 72.5501 24.8499 62.3601 24.8499 49.8701C24.8499 37.3801 35.0399 27.1901 47.5299 27.1901V36.6501L70.2099 21.5001L47.5299 6.3501V15.8101C28.7099 15.8101 13.5599 31.0501 13.5599 49.7801C13.5599 68.6001 28.7999 83.7501 47.5299 83.7501C66.3499 83.7501 81.4999 68.5101 81.4999 49.7801" stroke="white" stroke-width="1.5" stroke-miterlimit="10"/>
<path d="M36.05 57.3999C33.75 55.0999 32.47 51.9799 32.47 48.6799C32.47 42.9899 36.42 38.1199 41.93 36.3799" stroke="white" stroke-width="1.5" stroke-miterlimit="10"/>
</svg>
