<svg width="96" height="96" viewBox="0 0 96 96" fill="none" xmlns="http://www.w3.org/2000/svg">
<path d="M33.04 53.8799V47.6299C33.04 42.1699 36.9901 40.1499 42.0801 40.1499L48.3301 47.04L54.1401 40.1499C59.2301 40.1499 63.6201 42.1599 63.6201 47.6299V53.8799" stroke="white" stroke-width="1.5" stroke-linejoin="round"/>
<path d="M55.3999 26.8799C55.3999 30.8299 52.2201 34.0601 48.3301 34.0601C44.4401 34.0601 41.2598 30.8299 41.2598 26.8799V24.22C41.2598 20.27 44.4401 17.04 48.3301 17.04C52.2201 17.04 55.3999 20.27 55.3999 24.22V26.8799Z" stroke="white" stroke-width="1.5" stroke-miterlimit="10"/>
<path d="M76.8999 50.0201V33.43C76.8799 30.67 78.6801 28.4099 81.1601 28.3899C83.6301 28.3799 85.6699 30.6202 85.6899 33.3702V65.5801L70.9199 84.8601C70.9199 84.8601 69.3198 86.7301 69.7998 93.5501" stroke="white" stroke-width="1.5" stroke-linejoin="round"/>
<path d="M52.1201 93.71L52.1401 78.75C52.1401 72.94 58.9199 69 58.9199 69C61.9899 66.94 65.48 63.3702 65.48 63.3702L71.27 57.1001C73.65 54.5101 77.0999 53.77 78.9199 55.46C80.7399 57.14 80.2799 60.63 77.8999 63.21L69.7598 72.0201" stroke="white" stroke-width="1.5" stroke-miterlimit="10"/>
<path d="M19.7598 50.0201V33.43C19.7798 30.67 17.98 28.4099 15.5 28.3899C13.03 28.3799 10.9902 30.6202 10.9702 33.3702V65.5801L25.7402 84.8601C25.7402 84.8601 27.3401 86.7301 26.8701 93.5501" stroke="white" stroke-width="1.5" stroke-linejoin="round"/>
<path d="M44.5297 93.71L44.5097 78.75C44.5097 72.94 37.7299 69 37.7299 69C34.6599 66.94 31.1699 63.3702 31.1699 63.3702L25.3798 57.1001C22.9998 54.5101 19.5499 53.77 17.7299 55.46C15.9099 57.14 16.3599 60.63 18.7499 63.21L26.8901 72.0201" stroke="white" stroke-width="1.5" stroke-miterlimit="10"/>
<path d="M48.3301 8.88989V2.65991" stroke="white" stroke-width="1.5" stroke-miterlimit="10" stroke-linecap="round"/>
<path d="M31.9302 14.6299L28.02 9.78003" stroke="white" stroke-width="1.5" stroke-miterlimit="10" stroke-linecap="round"/>
<path d="M68.6401 9.78003L64.73 14.6299" stroke="white" stroke-width="1.5" stroke-miterlimit="10" stroke-linecap="round"/>
</svg>
