<svg width="96" height="96" viewBox="0 0 96 96" fill="none" xmlns="http://www.w3.org/2000/svg">
<g clip-path="url(#clip0_811_12177)">
<path d="M50.7217 4.41992L61.3617 15.0601L42.2517 34.0701L50.7217 42.54L59.1917 34.0701L71.9017 46.78L82.4417 36.24L92.9817 46.78V4.41992H50.7217Z" stroke="white" stroke-width="1.5" stroke-miterlimit="10"/>
<path d="M35.9218 40.5L29.5818 46.8401L35.9218 53.1799L42.2618 46.8401L35.9218 40.5Z" stroke="white" stroke-width="1.5" stroke-miterlimit="10"/>
<path d="M82.5418 57.4099L65.6018 74.3501" stroke="white" stroke-width="1.5" stroke-miterlimit="10"/>
<path d="M61.3617 78.5901L57.1217 82.8301" stroke="white" stroke-width="1.5" stroke-miterlimit="10"/>
<path d="M52.8918 87.0601L48.6517 91.3" stroke="white" stroke-width="1.5" stroke-miterlimit="10"/>
<path d="M38.0117 19.29L19.0017 38.3" stroke="white" stroke-width="1.5" stroke-miterlimit="10"/>
<path d="M27.4517 57.4399L21.1117 63.78L27.4517 70.1201L33.7917 63.78L27.4517 57.4399Z" stroke="white" stroke-width="1.5" stroke-miterlimit="10"/>
<path d="M31.6618 76.46L25.3218 82.8L31.6618 89.1399L38.0018 82.8L31.6618 76.46Z" stroke="white" stroke-width="1.5" stroke-miterlimit="10"/>
<path d="M46.5518 61.6399L40.2118 67.98L46.5518 74.3201L52.8918 67.98L46.5518 61.6399Z" stroke="white" stroke-width="1.5" stroke-miterlimit="10"/>
<path d="M59.2517 48.9299L52.9117 55.27L59.2517 61.6101L65.5917 55.27L59.2517 48.9299Z" stroke="white" stroke-width="1.5" stroke-miterlimit="10"/>
<path d="M8.39175 67.96L2.05176 74.3L8.39175 80.6399L14.7318 74.3L8.39175 67.96Z" stroke="white" stroke-width="1.5" stroke-miterlimit="10"/>
</g>
<defs>
<clipPath id="clip0_811_12177">
<rect width="96" height="96" fill="white" transform="translate(0.00170898)"/>
</clipPath>
</defs>
</svg>
