<svg width="96" height="96" viewBox="0 0 96 96" fill="none" xmlns="http://www.w3.org/2000/svg">
<path d="M11.92 44.95L4.89001 40.2L6.93001 32.28H16.01L18.96 26.62L14.42 18.7L19.87 13.05L27.59 17.8L33.03 14.63V5.13003L40.52 3.09003L45.06 10.32H50.96L55.5 3.09003L62.99 5.13003V14.63L68.66 17.8L76.15 13.05L81.6 18.7L77.06 26.62L80.01 32.28H89.08L91.12 40.2L84.08 44.95V51.06L91.12 55.8L89.08 63.72H80.01L77.06 69.37L81.6 77.29L76.15 82.95L68.66 78.21L62.99 81.38V90.88L55.5 92.92L50.95 85.68H45.05L40.51 92.92L33.02 90.88V81.38L27.58 78.21L19.86 82.96L14.41 77.3L18.95 69.38L16 63.72H6.93001L4.89001 55.8L11.93 51.05L11.92 44.95Z" stroke="white" stroke-width="1.5" stroke-linejoin="round"/>
<path d="M54.29 76.74C57.7639 76.74 60.58 73.9239 60.58 70.45C60.58 66.9762 57.7639 64.16 54.29 64.16C50.8161 64.16 48 66.9762 48 70.45C48 73.9239 50.8161 76.74 54.29 76.74Z" stroke="white" stroke-width="1.5" stroke-miterlimit="8"/>
<path d="M61.32 35.43C64.7939 35.43 67.61 32.6138 67.61 29.14C67.61 25.6661 64.7939 22.85 61.32 22.85C57.8462 22.85 55.03 25.6661 55.03 29.14C55.03 32.6138 57.8462 35.43 61.32 35.43Z" stroke="white" stroke-width="1.5" stroke-miterlimit="8"/>
<path d="M68.66 56.09C72.1339 56.09 74.95 53.2739 74.95 49.8C74.95 46.3261 72.1339 43.51 68.66 43.51C65.1861 43.51 62.37 46.3261 62.37 49.8C62.37 53.2739 65.1861 56.09 68.66 56.09Z" stroke="white" stroke-width="1.5" stroke-miterlimit="8"/>
<path d="M62.37 49.8H19.26" stroke="white" stroke-width="1.5" stroke-miterlimit="8"/>
<path d="M56.98 33.63L49.12 40.82H37.22" stroke="white" stroke-width="1.5" stroke-miterlimit="8"/>
<path d="M39.92 33.63C43.3939 33.63 46.21 30.8139 46.21 27.34C46.21 23.8661 43.3939 21.05 39.92 21.05C36.4461 21.05 33.63 23.8661 33.63 27.34C33.63 30.8139 36.4461 33.63 39.92 33.63Z" stroke="white" stroke-width="1.5" stroke-miterlimit="8"/>
<path d="M49.8 65.96L42.2 58.77H22.85" stroke="white" stroke-width="1.5" stroke-miterlimit="8"/>
<path d="M36.41 32.56L27.22 40.81H19.26" stroke="white" stroke-width="1.5" stroke-miterlimit="8"/>
</svg>
