<svg width="96" height="96" viewBox="0 0 96 96" fill="none" xmlns="http://www.w3.org/2000/svg">
<path d="M17.51 46.67V51.97L26.1001 53.2C26.6501 55.53 27.5701 57.7701 28.8201 59.8101L23.6201 66.74L29.24 72.36L36.1899 67.15C38.2299 68.41 40.46 69.33 42.79 69.88L44.02 78.47H51.98L53.21 69.88C55.54 69.33 57.7801 68.41 59.8201 67.16L66.75 72.36L72.3701 66.74L67.1599 59.79C68.4199 57.75 69.3399 55.5199 69.8899 53.1899L78.48 51.96V46.66" stroke="white" stroke-width="1.5" stroke-linecap="round" stroke-linejoin="round"/>
<path d="M60.6499 51.98C58.9599 57.36 53.93 61.26 48 61.26C42.07 61.26 36.9701 57.31 35.3201 51.87" stroke="white" stroke-width="1.5" stroke-linecap="round" stroke-linejoin="round"/>
<path d="M22.8501 59.9301H17.55V64.6899C16.64 65.0599 15.78 65.55 15 66.16L10.8799 63.78L6.8999 70.67L11.03 73.05C10.96 73.54 10.9199 74.02 10.9099 74.51C10.9199 75 10.95 75.49 11.03 75.97L6.8999 78.35L10.8799 85.24L15 82.86C15.77 83.47 16.63 83.96 17.54 84.33V89.09H25.49V84.33C26.4 83.96 27.26 83.47 28.04 82.86L32.1599 85.24L36.1399 78.35L32.02 75.97" stroke="white" stroke-width="1.5" stroke-linecap="round" stroke-linejoin="round"/>
<path d="M26.1101 77.17C25.1901 78.75 23.48 79.8199 21.52 79.8199C18.59 79.8199 16.22 77.45 16.22 74.52C16.22 72.56 17.2801 70.8501 18.8701 69.9301" stroke="white" stroke-width="1.5" stroke-linecap="round" stroke-linejoin="round"/>
<path d="M73.1599 59.9301H78.46V64.6899C79.37 65.0599 80.23 65.55 81 66.16L85.1201 63.78L89.1001 70.67L84.97 73.05C85.04 73.54 85.0801 74.02 85.0901 74.51C85.0801 75 85.05 75.49 84.97 75.97L89.1001 78.35L85.1201 85.24L80.99 82.86C80.22 83.47 79.36 83.96 78.46 84.33V89.09H70.5V84.33C69.59 83.96 68.73 83.47 67.95 82.86L63.8301 85.24L59.8501 78.35L63.97 75.97" stroke="white" stroke-width="1.5" stroke-linecap="round" stroke-linejoin="round"/>
<path d="M69.8899 77.17C70.8099 78.75 72.52 79.8199 74.48 79.8199C77.41 79.8199 79.78 77.45 79.78 74.52C79.78 72.56 78.7199 70.8501 77.1299 69.9301" stroke="white" stroke-width="1.5" stroke-linecap="round" stroke-linejoin="round"/>
<path d="M37.3999 37.4V28.12C37.3999 25.18 39.76 22.8199 42.7 22.8199" stroke="white" stroke-width="1.5" stroke-linecap="round" stroke-linejoin="round"/>
<path d="M53.3 22.8101C56.24 22.8101 58.6001 25.17 58.6001 28.11V37.39" stroke="white" stroke-width="1.5" stroke-linecap="round" stroke-linejoin="round"/>
<path d="M48 26.79V25.46" stroke="white" stroke-width="1.5" stroke-linecap="round" stroke-linejoin="round"/>
<path d="M48 37.4V32.1" stroke="white" stroke-width="1.5" stroke-linecap="round" stroke-linejoin="round"/>
<path d="M48 6.91003C50.94 6.91003 53.3 9.26996 53.3 12.21V14.86C53.3 17.8 50.94 20.16 48 20.16C45.06 20.16 42.7 17.8 42.7 14.86V12.21C42.7 9.26996 45.06 6.91003 48 6.91003Z" stroke="white" stroke-width="1.5" stroke-linecap="round" stroke-linejoin="round"/>
<path d="M6.90991 46.67V32.09C6.90991 29.15 9.27996 26.79 12.21 26.79" stroke="white" stroke-width="1.5" stroke-linecap="round" stroke-linejoin="round"/>
<path d="M22.8201 26.79C25.7601 26.79 28.1201 29.15 28.1201 32.09V41.37" stroke="white" stroke-width="1.5" stroke-linecap="round" stroke-linejoin="round"/>
<path d="M17.51 30.77V29.4399" stroke="white" stroke-width="1.5" stroke-linecap="round" stroke-linejoin="round"/>
<path d="M17.51 41.37V36.0699" stroke="white" stroke-width="1.5" stroke-linecap="round" stroke-linejoin="round"/>
<path d="M17.51 10.88C20.45 10.88 22.8101 13.2401 22.8101 16.1801V18.83C22.8101 21.77 20.45 24.13 17.51 24.13C14.57 24.13 12.21 21.77 12.21 18.83V16.1801C12.21 13.2501 14.57 10.88 17.51 10.88Z" stroke="white" stroke-width="1.5" stroke-linecap="round" stroke-linejoin="round"/>
<path d="M67.8899 41.37V32.09C67.8899 29.15 70.2499 26.79 73.1899 26.79" stroke="white" stroke-width="1.5" stroke-linecap="round" stroke-linejoin="round"/>
<path d="M83.8 26.79C86.74 26.79 89.1001 29.15 89.1001 32.09V46.67" stroke="white" stroke-width="1.5" stroke-linecap="round" stroke-linejoin="round"/>
<path d="M78.49 30.77V29.4399" stroke="white" stroke-width="1.5" stroke-linecap="round" stroke-linejoin="round"/>
<path d="M78.49 41.37V36.0699" stroke="white" stroke-width="1.5" stroke-linecap="round" stroke-linejoin="round"/>
<path d="M78.49 10.88C81.43 10.88 83.79 13.2501 83.79 16.1801V18.83C83.79 21.77 81.43 24.13 78.49 24.13C75.55 24.13 73.1899 21.77 73.1899 18.83V16.1801C73.1899 13.2501 75.55 10.88 78.49 10.88Z" stroke="white" stroke-width="1.5" stroke-linecap="round" stroke-linejoin="round"/>
<path d="M24.1399 46.67H71.8601" stroke="white" stroke-width="1.5" stroke-linecap="round" stroke-linejoin="round"/>
<path d="M37.3999 46.67V42.6899" stroke="white" stroke-width="1.5" stroke-linecap="round" stroke-linejoin="round"/>
<path d="M6.90991 51.98V54.63" stroke="white" stroke-width="1.5" stroke-linecap="round" stroke-linejoin="round"/>
<path d="M89.0901 51.98V54.63" stroke="white" stroke-width="1.5" stroke-linecap="round" stroke-linejoin="round"/>
<path d="M58.6101 46.67V42.6899" stroke="white" stroke-width="1.5" stroke-linecap="round" stroke-linejoin="round"/>
</svg>
