<svg width="96" height="96" viewBox="0 0 96 96" fill="none" xmlns="http://www.w3.org/2000/svg">
<path d="M72.58 24.1199L56.87 14.8198" stroke="white" stroke-width="1.5" stroke-linejoin="round" stroke-dasharray="3.91 3.91"/>
<path d="M80.54 57.55V38.4399" stroke="white" stroke-width="1.5" stroke-linejoin="round" stroke-dasharray="3.91 3.91"/>
<path d="M15.46 38.45V57.5601" stroke="white" stroke-width="1.5" stroke-linejoin="round" stroke-dasharray="3.91 3.91"/>
<path d="M39.14 14.8198L23.42 24.1199" stroke="white" stroke-width="1.5" stroke-linejoin="round" stroke-dasharray="3.91 3.91"/>
<path d="M72.58 72.1299L56.87 81.4299" stroke="white" stroke-width="1.5" stroke-linejoin="round" stroke-dasharray="3.91 3.91"/>
<path d="M39.14 81.4299L23.42 72.1299" stroke="white" stroke-width="1.5" stroke-linejoin="round" stroke-dasharray="3.91 3.91"/>
<path d="M53.74 9.79004C53.74 10.92 53.4 12.03 52.77 12.98C52.14 13.92 51.24 14.66 50.19 15.09C49.14 15.52 47.99 15.64 46.87 15.42C45.76 15.2 44.7301 14.65 43.9301 13.85C43.1301 13.05 42.58 12.03 42.36 10.91C42.14 9.80003 42.25 8.64998 42.69 7.59998C43.13 6.54998 43.8601 5.66003 44.8101 5.03003C45.7501 4.40003 46.86 4.06006 48 4.06006C49.52 4.06006 50.9801 4.66999 52.0601 5.73999C53.1401 6.80999 53.74 8.27004 53.74 9.79004Z" stroke="white" stroke-width="1.5" stroke-linejoin="round"/>
<path d="M47.8801 91.9399C47.1301 91.9399 46.39 91.79 45.7 91.51C45.01 91.22 44.38 90.8 43.86 90.26C43.34 89.73 42.9201 89.09 42.6501 88.39C42.3801 87.7 42.2401 86.9499 42.2601 86.1999C42.2901 84.6699 42.9201 83.21 44.0201 82.14C45.1101 81.07 46.59 80.47 48.12 80.47C48.87 80.46 49.6101 80.61 50.3101 80.9C51.0001 81.19 51.6301 81.61 52.1601 82.15C52.6801 82.68 53.1 83.32 53.37 84.02C53.64 84.72 53.7701 85.4599 53.7501 86.2099C53.7201 87.7399 53.09 89.2 51.99 90.27C50.89 91.34 49.4201 91.9399 47.8801 91.9399Z" stroke="white" stroke-width="1.5" stroke-linejoin="round"/>
<path d="M86.2801 67.1099C86.2801 68.2399 85.9401 69.3499 85.3101 70.2899C84.6801 71.2299 83.78 71.9699 82.73 72.3999C81.68 72.8399 80.5301 72.9499 79.4101 72.7299C78.3001 72.5099 77.27 71.9599 76.47 71.1599C75.67 70.3599 75.1201 69.3398 74.9001 68.2198C74.6801 67.1098 74.79 65.9599 75.23 64.9099C75.67 63.8599 76.4 62.9698 77.35 62.3398C78.29 61.7098 79.4001 61.3799 80.5401 61.3799C82.0601 61.3799 83.52 61.9799 84.6 63.0599C85.68 64.1299 86.2801 65.5799 86.2801 67.1099Z" stroke="white" stroke-width="1.5" stroke-linejoin="round"/>
<path d="M21.2 67.1099C21.2 68.6299 20.59 70.0899 19.52 71.1599C18.44 72.2299 16.98 72.8398 15.46 72.8398C13.94 72.8398 12.48 72.2299 11.4 71.1599C10.32 70.0799 9.71997 68.6299 9.71997 67.1099C9.71997 65.5899 10.32 64.1299 11.4 63.0599C12.48 61.9799 13.94 61.3799 15.46 61.3799C16.98 61.3799 18.44 61.9799 19.52 63.0599C20.59 64.1299 21.2 65.5799 21.2 67.1099Z" stroke="white" stroke-width="1.5" stroke-linejoin="round"/>
<path d="M21.1999 28.9001C21.1999 30.0301 20.86 31.1401 20.23 32.0801C19.6 33.0201 18.7 33.7601 17.65 34.1901C16.6 34.6301 15.45 34.7401 14.33 34.5201C13.22 34.3001 12.19 33.7501 11.39 32.9501C10.59 32.1501 10.0399 31.1301 9.81994 30.0201C9.59994 28.9101 9.71002 27.7601 10.15 26.7101C10.59 25.6601 11.32 24.7701 12.27 24.1401C13.21 23.5101 14.32 23.1802 15.46 23.1802C16.98 23.1802 18.44 23.7801 19.52 24.8601C20.59 25.9201 21.1999 27.3801 21.1999 28.9001Z" stroke="white" stroke-width="1.5" stroke-linejoin="round"/>
<path d="M48 70.9302C52.55 70.9302 56.99 69.5801 60.76 67.0701C64.54 64.5501 67.48 60.9702 69.22 56.7802C70.96 52.5902 71.41 47.9802 70.53 43.5302C69.64 39.0802 67.46 35.0002 64.24 31.7902C61.03 28.5802 56.94 26.4002 52.48 25.5202C48.02 24.6402 43.4 25.0901 39.21 26.8301C35.01 28.5601 31.42 31.5002 28.9 35.2702C26.38 39.0402 25.03 43.4702 25.03 48.0002C25.03 54.0802 27.45 59.9101 31.76 64.2101C36.06 68.5101 41.9 70.9302 48 70.9302Z" stroke="white" stroke-width="1.5" stroke-linejoin="round"/>
<path d="M48 25.0801C41.66 25.0801 36.51 35.3401 36.51 48.0001C36.51 60.6601 41.66 70.9302 48 70.9302C54.34 70.9302 59.49 60.6701 59.49 48.0001C59.49 35.3301 54.33 25.0801 48 25.0801Z" stroke="white" stroke-width="1.5" stroke-linejoin="round"/>
<path d="M69.0601 40.3599H26.9399" stroke="white" stroke-width="1.5" stroke-linejoin="round"/>
<path d="M69.0601 55.6401H26.9399" stroke="white" stroke-width="1.5" stroke-linejoin="round"/>
<path d="M48 25.0801V70.9302" stroke="white" stroke-width="1.5" stroke-linejoin="round"/>
<path d="M24.87 60.99L20.5 63.87" stroke="white" stroke-width="1.5" stroke-linejoin="round"/>
<path d="M71.08 60.99L75.47 63.87" stroke="white" stroke-width="1.5" stroke-linejoin="round"/>
<path d="M71.08 35.0099L75.47 32.1299" stroke="white" stroke-width="1.5" stroke-linejoin="round"/>
<path d="M24.87 35.0099L20.5 32.1299" stroke="white" stroke-width="1.5" stroke-linejoin="round"/>
<path d="M86.2801 28.9001C86.2801 30.0301 85.9401 31.1401 85.3101 32.0801C84.6801 33.0201 83.78 33.7601 82.73 34.1901C81.68 34.6301 80.5301 34.7401 79.4101 34.5201C78.3001 34.3001 77.27 33.7501 76.47 32.9501C75.67 32.1501 75.1201 31.1301 74.9001 30.0201C74.6801 28.9101 74.79 27.7601 75.23 26.7101C75.67 25.6601 76.4 24.7701 77.35 24.1401C78.29 23.5101 79.4001 23.1802 80.5401 23.1802C82.0601 23.1802 83.52 23.7801 84.6 24.8601C85.68 25.9201 86.2801 27.3801 86.2801 28.9001Z" stroke="white" stroke-width="1.5" stroke-linejoin="round"/>
<path d="M48 15.52V21.25" stroke="white" stroke-width="1.5" stroke-linejoin="round"/>
<path d="M48 80.48V74.75" stroke="white" stroke-width="1.5" stroke-linejoin="round"/>
</svg>
