<svg width="96" height="96" viewBox="0 0 96 96" fill="none" xmlns="http://www.w3.org/2000/svg">
<path d="M48 75.8299V65.3899" stroke="white" stroke-width="1.5" stroke-miterlimit="8"/>
<path d="M48 20.1699V28.8699" stroke="white" stroke-width="1.5" stroke-miterlimit="8"/>
<path d="M69.74 75.8299V69.8299L62.6501 61.9099H59.3" stroke="white" stroke-width="1.5" stroke-miterlimit="8"/>
<path d="M80.17 32.3501H74.3601L62.96 44.5201H59.3" stroke="white" stroke-width="1.5" stroke-miterlimit="8"/>
<path d="M86.26 37.5699C89.6235 37.5699 92.35 34.8433 92.35 31.4799C92.35 28.1165 89.6235 25.3899 86.26 25.3899C82.8966 25.3899 80.17 28.1165 80.17 31.4799C80.17 34.8433 82.8966 37.5699 86.26 37.5699Z" stroke="white" stroke-width="1.5" stroke-miterlimit="8"/>
<path d="M80.17 63.65H74.3601L62.96 51.48H59.3" stroke="white" stroke-width="1.5" stroke-miterlimit="8"/>
<path d="M86.26 70.6099C89.6235 70.6099 92.35 67.8833 92.35 64.5199C92.35 61.1565 89.6235 58.4299 86.26 58.4299C82.8966 58.4299 80.17 61.1565 80.17 64.5199C80.17 67.8833 82.8966 70.6099 86.26 70.6099Z" stroke="white" stroke-width="1.5" stroke-miterlimit="8"/>
<path d="M70.61 88.0001C73.9734 88.0001 76.7 85.2735 76.7 81.9101C76.7 78.5467 73.9734 75.8201 70.61 75.8201C67.2466 75.8201 64.52 78.5467 64.52 81.9101C64.52 85.2735 67.2466 88.0001 70.61 88.0001Z" stroke="white" stroke-width="1.5" stroke-miterlimit="8"/>
<path d="M48 88.0001C51.3634 88.0001 54.09 85.2735 54.09 81.9101C54.09 78.5467 51.3634 75.8201 48 75.8201C44.6366 75.8201 41.91 78.5467 41.91 81.9101C41.91 85.2735 44.6366 88.0001 48 88.0001Z" stroke="white" stroke-width="1.5" stroke-miterlimit="8"/>
<path d="M69.74 20.1699V26.1599L62.6501 34.0799H59.3" stroke="white" stroke-width="1.5" stroke-miterlimit="8"/>
<path d="M70.61 20.18C73.9734 20.18 76.7 17.4534 76.7 14.09C76.7 10.7266 73.9734 8 70.61 8C67.2466 8 64.52 10.7266 64.52 14.09C64.52 17.4534 67.2466 20.18 70.61 20.18Z" stroke="white" stroke-width="1.5" stroke-miterlimit="8"/>
<path d="M48 20.18C51.3634 20.18 54.09 17.4534 54.09 14.09C54.09 10.7266 51.3634 8 48 8C44.6366 8 41.91 10.7266 41.91 14.09C41.91 17.4534 44.6366 20.18 48 20.18Z" stroke="white" stroke-width="1.5" stroke-miterlimit="8"/>
<path d="M55.82 34.0901H40.17V61.9201H55.82V34.0901Z" stroke="white" stroke-width="1.5" stroke-miterlimit="8"/>
<path d="M94.09 48H68" stroke="white" stroke-width="1.5" stroke-miterlimit="8"/>
<path d="M36.7 61.9099H33.35L26.26 69.8299V75.8299" stroke="white" stroke-width="1.5" stroke-miterlimit="8"/>
<path d="M36.7001 44.5201H33.0401L21.6401 32.3501H15.8301" stroke="white" stroke-width="1.5" stroke-miterlimit="8"/>
<path d="M9.74002 37.5699C13.1034 37.5699 15.83 34.8433 15.83 31.4799C15.83 28.1165 13.1034 25.3899 9.74002 25.3899C6.37661 25.3899 3.65002 28.1165 3.65002 31.4799C3.65002 34.8433 6.37661 37.5699 9.74002 37.5699Z" stroke="white" stroke-width="1.5" stroke-miterlimit="8"/>
<path d="M36.7001 51.48H33.0401L21.6401 63.65H15.8301" stroke="white" stroke-width="1.5" stroke-miterlimit="8"/>
<path d="M9.74002 70.6099C13.1034 70.6099 15.83 67.8833 15.83 64.5199C15.83 61.1565 13.1034 58.4299 9.74002 58.4299C6.37661 58.4299 3.65002 61.1565 3.65002 64.5199C3.65002 67.8833 6.37661 70.6099 9.74002 70.6099Z" stroke="white" stroke-width="1.5" stroke-miterlimit="8"/>
<path d="M25.39 88.0001C28.7535 88.0001 31.48 85.2735 31.48 81.9101C31.48 78.5467 28.7535 75.8201 25.39 75.8201C22.0266 75.8201 19.3 78.5467 19.3 81.9101C19.3 85.2735 22.0266 88.0001 25.39 88.0001Z" stroke="white" stroke-width="1.5" stroke-miterlimit="8"/>
<path d="M36.7 34.0899H33.35L26.26 26.1699V20.1799" stroke="white" stroke-width="1.5" stroke-miterlimit="8"/>
<path d="M25.39 20.18C28.7535 20.18 31.48 17.4534 31.48 14.09C31.48 10.7266 28.7535 8 25.39 8C22.0266 8 19.3 10.7266 19.3 14.09C19.3 17.4534 22.0266 20.18 25.39 20.18Z" stroke="white" stroke-width="1.5" stroke-miterlimit="8"/>
<path d="M28 48H1.91003" stroke="white" stroke-width="1.5" stroke-miterlimit="8"/>
</svg>
