<svg width="150" height="150" viewBox="0 0 150 150" fill="none" xmlns="http://www.w3.org/2000/svg">
<path d="M37.9063 61.2499V55.6093L43.5312 49.9687H52.0781V44.3281C52.0781 39.625 48.2343 35.7656 43.5312 35.7656H30.5781" stroke="white" stroke-width="1.5" stroke-linecap="round" stroke-linejoin="round" stroke-dasharray="3.91 3.91"/>
<path d="M106.422 20.9688L100.328 27.0936H83.3438L77.7188 32.7342H74.9063C70.2188 32.7342 66.3594 36.5938 66.3594 41.2969V44.1249H80.4375L91.7969 55.5156H97.4219L100.234 52.6874H103.047L108.672 58.328H125.656" stroke="white" stroke-width="1.5" stroke-linecap="round" stroke-linejoin="round" stroke-dasharray="3.91 3.91"/>
<path d="M23.7344 61.2499C23.7344 32.9218 46.5469 9.95312 74.7969 9.95312C103.047 9.95312 125.859 32.9219 125.859 61.1563" stroke="white" stroke-width="1.5" stroke-linecap="round" stroke-linejoin="round" stroke-dasharray="3.91 3.91"/>
<path d="M137.203 72.6406H117.391C114.578 72.6406 111.859 71.7969 109.5 70.2812L108.094 69.3438C105.75 67.75 103.031 66.9844 100.203 66.9844H78.7969C76.7344 66.9844 74.7657 67.7343 73.2657 69.0624L65.0937 77.3438C65.0937 77.3438 60.875 81.5781 56.7344 86.0937C61.0469 90.4218 65.6562 90.7032 69.6875 89.2969C73.7187 87.8907 78.9844 84.125 78.9844 84.125H86.2187L96.8281 94.0157" stroke="white" stroke-width="1.5" stroke-linecap="round" stroke-linejoin="round"/>
<path d="M115.719 113.031C118.344 110.391 121.625 109.547 125.859 109.547" stroke="white" stroke-width="1.5" stroke-linecap="round" stroke-linejoin="round"/>
<path d="M96.7499 93.9219C96.7499 93.9219 111.484 109.453 115.703 113.125C119.922 116.797 114.109 126.578 107.25 121.219C103.125 117.734 90.0781 105.125 90.0781 105.125" stroke="white" stroke-width="1.5" stroke-linecap="round" stroke-linejoin="round"/>
<path d="M109.234 122.25C108.016 125.266 102.953 132.234 96.4687 127.328C92.3437 123.844 83.8906 115.75 83.8906 115.75" stroke="white" stroke-width="1.5" stroke-linecap="round" stroke-linejoin="round"/>
<path d="M98.9062 128.75C95.9999 134.688 90.8281 137.031 86.2343 133.359C82.9531 130.813 78.0625 125.734 78.0625 125.734" stroke="white" stroke-width="1.5" stroke-linecap="round" stroke-linejoin="round"/>
<path d="M87.75 134.391C85.9687 138.812 80.9844 141.641 76.8594 139.094C74.5156 137.594 70.2969 134.484 70.2969 134.484" stroke="white" stroke-width="1.5" stroke-linecap="round" stroke-linejoin="round"/>
<path d="M12.375 72.6406H37.3438C39.5938 72.6406 41.75 71.9844 43.625 70.7657L46.4375 68.8905C48.3125 67.6718 50.4688 67.0156 52.7188 67.0156H66.4219C67.6407 67.0156 68.8594 67.3907 69.8906 68.2344L72.3281 69.9219" stroke="white" stroke-width="1.5" stroke-linecap="round" stroke-linejoin="round"/>
<path d="M44.375 117.078C46.4375 115.094 46.0624 112.281 44.0937 110.203C42.1249 108.125 38.8438 108.125 36.8594 110.109L33.9531 112.938C31.8906 114.922 31.8906 118.203 33.8593 120.281C35.8281 122.359 39.1093 122.453 41.1875 120.375" stroke="white" stroke-width="1.5" stroke-linecap="round" stroke-linejoin="round"/>
<path d="M56.2032 112.844C54.2344 110.766 50.9533 110.672 48.8751 112.656L40.422 120.938C38.3595 122.922 38.3595 126.203 40.3282 128.281C42.297 130.359 45.5782 130.453 47.6563 128.375L56.1094 120.188C58.0782 118.11 58.1719 114.813 56.2032 112.844Z" stroke="white" stroke-width="1.5" stroke-linecap="round" stroke-linejoin="round"/>
<path d="M49.0781 126.953C47.0156 128.938 46.9219 132.219 48.8906 134.297C50.8594 136.375 54.1406 136.469 56.2188 134.484L63.9219 126.953C65.9844 124.969 66.0782 121.688 64.1095 119.609C62.1407 117.531 58.8595 117.438 56.8751 119.422" stroke="white" stroke-width="1.5" stroke-linecap="round" stroke-linejoin="round"/>
<path d="M59.8595 130.812C57.797 132.797 57.797 136.078 59.7657 138.156C61.7345 140.234 65.0157 140.234 67.0938 138.25L69.0626 136.359C71.1251 134.391 71.1251 131.094 69.1563 129.016C67.1876 126.937 63.9063 126.938 61.922 128.922" stroke="white" stroke-width="1.5" stroke-linecap="round" stroke-linejoin="round"/>
<path d="M108.859 96.4687C102.109 97.8749 100.406 96.0938 96.75 93.8281" stroke="white" stroke-width="1.5" stroke-linecap="round" stroke-linejoin="round"/>
<path d="M33.6875 113.125C31.9062 111.438 28.3437 109.734 23.6406 109.734" stroke="white" stroke-width="1.5" stroke-linecap="round" stroke-linejoin="round"/>
</svg>
