<svg width="96" height="96" viewBox="0 0 96 96" fill="none" xmlns="http://www.w3.org/2000/svg">
<path d="M47.72 54.8302C51 54.8302 53.6499 52.1703 53.6499 48.9003C53.6499 45.6203 50.99 42.9702 47.72 42.9702C44.45 42.9702 41.7901 45.6303 41.7901 48.9003C41.7801 52.1803 44.44 54.8302 47.72 54.8302Z" stroke="white" stroke-width="1.5" stroke-miterlimit="10"/>
<path d="M71.0601 43.6401L68.5701 37.2301L62.45 39.0502C61.3 37.4202 59.9601 35.8901 58.3401 34.7501L60.45 28.7201L54.1399 25.9401L51.0801 31.5901C49.1701 31.2101 47.1599 31.1101 45.1499 31.4001L42.3799 25.6602L35.97 28.1501L37.79 34.2701C36.17 35.4201 34.63 36.7601 33.49 38.3801L27.46 36.2802L24.6899 42.5901L30.3401 45.6501C29.9601 47.5601 29.8599 49.5701 30.1499 51.5801L24.4099 54.3501L26.8999 60.7601L33.02 58.9401C34.17 60.5701 35.5099 62.0001 37.1299 63.2401L35.02 69.2701L41.3301 72.0402L44.3899 66.4001C46.2999 66.7801 48.3101 66.8801 50.3201 66.5901L53.0901 72.3301L59.5 69.8401L57.6799 63.7201C59.2999 62.5701 60.74 61.2301 61.98 59.6101L68.01 61.7101L70.78 55.4001L65.1399 52.3401C65.5199 50.4301 65.6201 48.4202 65.3301 46.4102L71.0601 43.6401Z" stroke="white" stroke-width="1.5" stroke-miterlimit="10"/>
<path d="M69.4299 19.3401C73.7599 19.3401 77.27 15.8301 77.27 11.5001C77.27 7.17012 73.7599 3.66016 69.4299 3.66016C65.0999 3.66016 61.5901 7.17012 61.5901 11.5001C61.5901 15.8301 65.0999 19.3401 69.4299 19.3401Z" stroke="white" stroke-width="1.5" stroke-miterlimit="10"/>
<path d="M61.49 11.5H47.71V21.35" stroke="white" stroke-width="1.5" stroke-miterlimit="10"/>
<path d="M81.2 64.6702L71.3201 74.5502L81.2 84.4302L91.0801 74.5502L81.2 64.6702Z" stroke="white" stroke-width="1.5" stroke-miterlimit="10"/>
<path d="M12.3201 82.3903L28.1001 92.2402V72.5303L12.3201 82.3903Z" stroke="white" stroke-width="1.5" stroke-miterlimit="10"/>
<path d="M22.1699 15.52H6.38989V31.3H22.1699V15.52Z" stroke="white" stroke-width="1.5" stroke-miterlimit="10"/>
<path d="M73.3501 48.9001H81.2V64.6802" stroke="white" stroke-width="1.5" stroke-miterlimit="10"/>
<path d="M22.1699 48.9003H14.3301V31.2002" stroke="white" stroke-width="1.5" stroke-miterlimit="10"/>
<path d="M47.72 76.4502V84.2903H28.01" stroke="white" stroke-width="1.5" stroke-miterlimit="10"/>
</svg>
