<svg width="96" height="96" viewBox="0 0 96 96" fill="none" xmlns="http://www.w3.org/2000/svg">
<path d="M63.002 20.5701H60.562" stroke="white" stroke-width="1.5" stroke-linejoin="round"/>
<path d="M56.4719 20.5701H42.1221" stroke="white" stroke-width="1.5" stroke-linejoin="round"/>
<path d="M40.072 20.5701H37.6318" stroke="white" stroke-width="1.5" stroke-linejoin="round"/>
<path d="M19.3621 13.23H63.002V6.76001L72.8721 16.62L63.002 26.49V20.57" stroke="white" stroke-width="1.5" stroke-linejoin="round"/>
<path d="M82.9819 48.63V42.71L92.842 52.57L82.9819 62.44V56.52H69.1819" stroke="white" stroke-width="1.5" stroke-linejoin="round"/>
<path d="M71.9519 48.6301H74.3918" stroke="white" stroke-width="1.5" stroke-linejoin="round"/>
<path d="M80.542 48.6301H82.9819" stroke="white" stroke-width="1.5" stroke-linejoin="round"/>
<path d="M69.032 76.7101V70.3601L78.8918 80.2301L69.032 90.0901V84.1701H14.022" stroke="white" stroke-width="1.5" stroke-linejoin="round"/>
<path d="M58.3721 76.71H60.812" stroke="white" stroke-width="1.5" stroke-linejoin="round"/>
<path d="M66.7419 76.71H69.1819" stroke="white" stroke-width="1.5" stroke-linejoin="round"/>
<path d="M3.16187 72.03H5.60205" stroke="white" stroke-width="1.5" stroke-linejoin="round"/>
<path d="M10.1519 72.03H16.9619" stroke="white" stroke-width="1.5" stroke-linejoin="round"/>
<path d="M19.2419 72.03H21.6819" stroke="white" stroke-width="1.5" stroke-linejoin="round"/>
<path d="M46.2419 50.65C46.2419 53.92 43.592 56.57 40.322 56.57C37.052 56.57 34.4019 53.92 34.4019 50.65C34.4019 47.38 37.052 44.73 40.322 44.73C43.602 44.73 46.2419 47.38 46.2419 50.65Z" stroke="white" stroke-width="1.5" stroke-miterlimit="10"/>
<path d="M63.6619 45.3701L61.1919 38.9501L55.062 40.7601C53.932 39.0701 52.5319 37.6301 50.9719 36.4501L53.1121 30.4201L46.822 27.6201L43.772 33.2401C41.842 32.8601 39.832 32.7901 37.822 33.0801L35.072 27.3101L28.6519 29.7801L30.4619 35.9101C28.7819 37.0401 27.3319 38.4301 26.1519 40.0001L20.1221 37.8701L17.322 44.1601L22.9419 47.2101C22.5619 49.1401 22.492 51.1501 22.782 53.1601L17.012 55.9101L19.4819 62.3301L25.6121 60.5201C26.7421 62.2101 28.1319 63.65 29.7019 64.83L27.562 70.86L33.8521 73.6601L36.9019 68.0401C38.8319 68.4201 40.8421 68.4901 42.8521 68.2001L45.6021 73.9701L52.032 71.5001L50.2219 65.3701C51.9119 64.2401 53.352 62.8501 54.532 61.2801L60.562 63.4101L63.3621 57.1201L57.7419 54.0701C58.1219 52.1401 58.1919 50.1301 57.9019 48.1201L63.6619 45.3701Z" stroke="white" stroke-width="1.5" stroke-linejoin="round"/>
<path d="M21.6819 30.8901H19.2419" stroke="white" stroke-width="1.5" stroke-linejoin="round"/>
<path d="M15.092 30.8901H8.85205" stroke="white" stroke-width="1.5" stroke-linejoin="round"/>
<path d="M6.78198 30.8901H4.34204" stroke="white" stroke-width="1.5" stroke-linejoin="round"/>
</svg>
