<svg width="96" height="96" viewBox="0 0 96 96" fill="none" xmlns="http://www.w3.org/2000/svg">
<path d="M73.9602 78.97C73.9602 78.15 73.72 77.07 75.03 75.76L90.7902 60C91.9802 58.81 91.9601 45.71 91.8601 43.94C91.7601 42.24 89.9701 33.3201 88.6501 30.0201C87.1901 29.8001 84.82 30.79 83.3 33.23C81.84 35.56 82.09 38.0301 83.3 41.7901L81.0603 48.87" stroke="white" stroke-width="1.5"/>
<path d="M72.5801 65.3502L82.2202 55.7202C86.5002 51.4402 81.1501 46.0803 76.8701 50.3703L70.4502 56.7903C69.5602 57.6803 65.7401 57.2103 64.3301 58.6303L58.98 63.9802C57.53 65.4302 56.9098 68.4003 56.8398 70.4003C56.8398 73.6103 56.6899 78.9602 56.6899 78.9602" stroke="white" stroke-width="1.5"/>
<path d="M52.5498 78.9702V89.6803H76.1001V78.9702H52.5498Z" stroke="white" stroke-width="1.5" stroke-dasharray="3.9 3.9"/>
<path d="M57.8999 84.3201H62.1802" stroke="white" stroke-width="1.5"/>
<path d="M14.9503 48.88L12.71 41.8001C13.92 38.0401 14.16 35.56 12.71 33.23C11.19 30.79 8.80992 29.8001 7.35992 30.0201C6.03992 33.3201 4.24996 42.24 4.14996 43.94C4.04996 45.7 4.03027 58.81 5.22027 60L20.98 75.76C22.29 77.07 22.0499 78.15 22.0499 78.97" stroke="white" stroke-width="1.5"/>
<path d="M39.3302 78.9601C39.3302 78.9601 39.1803 73.6102 39.1803 70.4002C39.1103 68.4002 38.4802 65.4201 37.0402 63.9801L31.6901 58.6301C30.2801 57.2101 26.4599 57.6902 25.5699 56.7902L19.15 50.3701C14.87 46.0901 9.50992 51.4401 13.7999 55.7201L23.4401 65.3601" stroke="white" stroke-width="1.5"/>
<path d="M19.8999 78.9702V89.6803H43.4502V78.9702H19.8999Z" stroke="white" stroke-width="1.5" stroke-dasharray="3.9 3.9"/>
<path d="M33.8198 84.3201H38.1001" stroke="white" stroke-width="1.5"/>
<path d="M48.6899 6.61011V22.5502" stroke="white" stroke-width="1.5" stroke-dasharray="3.9 3.9"/>
<path d="M64.6299 34.5002L48.6899 22.5503L32.75 34.5002" stroke="white" stroke-width="1.5" stroke-dasharray="3.9 3.9"/>
<path d="M64.6299 34.5001L48.6899 46.4601L32.75 34.5001V18.5602L48.6899 6.6001L64.6299 18.5602V34.5001Z" stroke="white" stroke-width="1.5"/>
</svg>
