<?xml version="1.0" encoding="UTF-8"?>
<svg id="Layer_1" data-name="Layer 1" xmlns="http://www.w3.org/2000/svg" width="96" height="96" version="1.1" viewBox="0 0 96 96">
  <defs>
    <style>
      .cls-1, .cls-2 {
        fill: none;
        stroke: #fff;
        stroke-width: 1.5px;
      }
      .cls-2 {
        stroke-dasharray: 0 0 3.9 3.9;
      }
    </style>
  </defs>
  <path class="cls-1" d="M42,52.9v2.3c0,2.5,2,4.5,4.5,4.5h4.5c2.5,0,4.5-2,4.5-4.5v-1.3c0-1.9-1.2-3.7-3.1-4.3l-7.3-2.5c-1.8-.6-3.1-2.4-3.1-4.3v-1.3c0-2.5,2-4.5,4.5-4.5h4.5c2.5,0,4.5,2,4.5,4.5v2.3"/>
  <path class="cls-1" d="M48.7,37.1v-6.8"/>
  <path class="cls-1" d="M48.7,59.7v6.8"/>
  <path class="cls-1" d="M48.7,74.5c14.3,0,25.8-11.7,25.8-26.1s-11.6-26.1-25.8-26.1-25.8,11.7-25.8,26.1,11.6,26.1,25.8,26.1Z"/>
  <path class="cls-2" d="M9.1,35.2v-2.8c0-13.2,10.6-23.9,23.7-23.9h2.8"/>
  <path class="cls-2" d="M9.1,61.7v2.8c0,13.2,10.6,23.9,23.7,23.9h2.8"/>
  <path class="cls-2" d="M88.3,61.7v2.8c0,13.2-10.6,23.9-23.7,23.9h-2.8"/>
  <path class="cls-2" d="M61.9,8.4h2.8c13.1,0,23.7,10.7,23.7,23.9v2.8"/>
  <path class="cls-1" d="M48.7,15.2c3.7,0,6.7-3,6.7-6.8s-3-6.8-6.7-6.8-6.7,3-6.7,6.8,3,6.8,6.7,6.8Z"/>
  <path class="cls-1" d="M48.7,95.2c3.7,0,6.7-3,6.7-6.8s-3-6.8-6.7-6.8-6.7,3-6.7,6.8,3,6.8,6.7,6.8Z"/>
  <path class="cls-1" d="M88.3,55.2c3.7,0,6.7-3,6.7-6.8s-3-6.8-6.7-6.8-6.7,3-6.7,6.8,3,6.8,6.7,6.8Z"/>
  <path class="cls-1" d="M9.1,55.2c3.7,0,6.7-3,6.7-6.8s-3-6.8-6.7-6.8-6.7,3-6.7,6.8,3,6.8,6.7,6.8Z"/>
  <path class="cls-1" d="M30.9,14.2l5.6-5.8-5.6-5.8"/>
  <path class="cls-1" d="M66.5,82.7l-5.6,5.8,5.6,5.8"/>
  <path class="cls-1" d="M14.8,66.4l-5.7-5.6-5.7,5.6"/>
  <path class="cls-1" d="M82.6,30.5l5.7,5.6,5.7-5.6"/>
</svg>