<?xml version="1.0" encoding="UTF-8"?>
<svg id="Layer_1" data-name="Layer 1" xmlns="http://www.w3.org/2000/svg" width="96" height="96" version="1.1" viewBox="0 0 96 96">
  <defs>
    <style>
      .cls-1 {
        fill: none;
        stroke: #fff;
        stroke-linecap: round;
        stroke-linejoin: round;
        stroke-width: 1.5px;
      }
    </style>
  </defs>
  <path class="cls-1" d="M80.3,67v-5.1l-6.3-.6c-.3-.9-.6-1.7-1-2.5l3.9-5-4.3-4.3-5,3.9c-.8-.4-1.6-.8-2.5-1l-.8-6.3h-6.1l-.8,6.3c-.9.3-1.7.6-2.5,1l-5-3.9-4.3,4.3,3.9,5c-.4.8-.8,1.6-1,2.5l-6.3.6v5.1"/>
  <path class="cls-1" d="M67,67v-1.9c0-3.2-2.6-5.7-5.7-5.7s-5.7,2.5-5.7,5.7v1.9"/>
  <path class="cls-1" d="M34.7,19.5c0,3.1,2.5,5.7,5.7,5.7s5.7-2.5,5.7-5.7"/>
  <path class="cls-1" d="M10,67V19.5c0-2.2,1.7-3.8,3.8-3.8h68.4c2.1,0,3.8,1.6,3.8,3.8v47.5"/>
  <path class="cls-1" d="M91.7,70.8h-34.2l-1.9,1.9h-13.3l-1.9-1.9H4.3v1.9c0,4.2,3.4,7.6,7.6,7.6h72.2c4.2,0,7.6-3.4,7.6-7.6,0,0,0-1.9,0-1.9Z"/>
  <path class="cls-1" d="M17.6,19.5v5.7h8.1c.4,1.4.9,2.7,1.6,3.9l-5.7,5.7,5.4,5.4,5.7-5.7c1.2.7,2.5,1.3,3.9,1.6v8.1h7.6v-8.1c1.4-.4,2.7-.9,3.9-1.6l5.7,5.7,5.4-5.4-5.7-5.7c.7-1.2,1.3-2.5,1.6-3.9h8.1v-5.7"/>
</svg>