<?xml version="1.0" encoding="UTF-8"?>
<svg id="Layer_1" data-name="Layer 1" xmlns="http://www.w3.org/2000/svg" width="96" height="96" version="1.1" viewBox="0 0 96 96">
  <defs>
    <style>
      .cls-1 {
        stroke-linecap: round;
      }
      .cls-1, .cls-2 {
        stroke-miterlimit: 10;
      }
      .cls-1, .cls-2, .cls-3 {
        fill: none;
        stroke: #fff;
        stroke-width: 1.5px;
      }
      .cls-3 {
        stroke-linejoin: round;
      }
    </style>
  </defs>
  <path class="cls-3" d="M49.3,42.2v-15.9h10.6v12.4"/>
  <path class="cls-3" d="M54.6,10.3v15.9"/>
  <path class="cls-3" d="M70.5,40.4v-7.1h10.6v12.4"/>
  <path class="cls-3" d="M75.8,17.4v15.9"/>
  <path class="cls-3" d="M38.6,17.4h-10.6v33.7h10.6V17.4Z"/>
  <path class="cls-3" d="M33.3,5v12.4"/>
  <path class="cls-3" d="M33.3,51v14.2"/>
  <path class="cls-3" d="M17.4,38.7H6.8v37.2h10.6s0-37.2,0-37.2Z"/>
  <path class="cls-3" d="M12.1,22.7v15.9"/>
  <path class="cls-3" d="M12.1,75.8v14.2"/>
  <path class="cls-2" d="M63.4,81.1c10.8,0,19.5-8.3,19.5-18.5s-8.7-18.5-19.5-18.5-19.5,8.3-19.5,18.5,8.7,18.5,19.5,18.5Z"/>
  <path class="cls-1" d="M77.6,75.8l10.6,10.6"/>
</svg>