<svg width="96" height="96" viewBox="0 0 96 96" fill="none" xmlns="http://www.w3.org/2000/svg">
<path d="M73.8999 28.6C73.9999 12.3 63.3999 4.5 47.9999 4.5C32.5999 4.5 21.9999 12.3 22.0999 28.6H73.8999Z" stroke="white" stroke-width="1.5" stroke-linecap="round" stroke-linejoin="round"/>
<path d="M78.9 59.2L60.2 63.7C58.2 63.7 56.2999 63.2 54.5999 62.2L51.7 60.5C49.4 59.1 46.3999 59.1 44.0999 60.5L41.2 62.2C39.5 63.2 37.5999 63.7 35.5999 63.7L16.9 59.2C14.4 58.6 12.7 56.4 12.7 53.8V34.1C12.7 31 15.2 28.5 18.3 28.5H77.5C80.6 28.5 83.1 31 83.1 34.1V53.8C83.2 56.4 81.4 58.6 78.9 59.2Z" stroke="white" stroke-width="1.5" stroke-linecap="round" stroke-linejoin="round"/>
<path d="M72.0999 65.6V67.5C72.0999 72.3 69.9999 74.8 66.3999 78C63.7999 80.3 60.6999 82.6 57.8999 84.6C51.9999 88.9 43.9999 88.9 38.0999 84.6C35.2999 82.6 32.1999 80.3 29.5999 78C25.9999 74.8 23.8999 72.3 23.8999 67.5V65.6" stroke="white" stroke-width="1.5" stroke-linecap="round" stroke-linejoin="round"/>
<path d="M29.5 78.5V91.5" stroke="white" stroke-width="1.5" stroke-linecap="round" stroke-linejoin="round"/>
<path d="M66.5 78.5V91.5" stroke="white" stroke-width="1.5" stroke-linecap="round" stroke-linejoin="round"/>
<path d="M42.3999 34.1H53.5999" stroke="white" stroke-width="1.5" stroke-linecap="round" stroke-linejoin="round"/>
<path d="M18.3999 34.1V50.8" stroke="white" stroke-width="1.5" stroke-linecap="round" stroke-linejoin="round"/>
<path d="M77.6 34.1V50.8" stroke="white" stroke-width="1.5" stroke-linecap="round" stroke-linejoin="round"/>
</svg>
