<svg width="96" height="96" viewBox="0 0 96 96" fill="none" xmlns="http://www.w3.org/2000/svg">
<path d="M3.08997 3.57996H14.6801V15.17H3.08997V3.57996Z" stroke="white" stroke-width="1.5" stroke-miterlimit="10"/>
<path d="M67.6 62.32L48.22 70.54L28.84 62.32V34.9L48.22 26.34L67.6 34.9V62.32Z" stroke="white" stroke-width="1.5" stroke-miterlimit="10"/>
<path d="M81.3199 3.57996H92.91V15.17H81.3199V3.57996Z" stroke="white" stroke-width="1.5" stroke-miterlimit="10"/>
<path d="M3.08997 81.6799H14.6801V93.2699H3.08997V81.6799Z" stroke="white" stroke-width="1.5" stroke-miterlimit="10"/>
<path d="M81.3199 81.6799H92.91V93.2699H81.3199V81.6799Z" stroke="white" stroke-width="1.5" stroke-miterlimit="10"/>
<path d="M12.89 48.36C12.89 50.57 11.1 52.36 8.89001 52.36C6.68001 52.36 4.89001 50.57 4.89001 48.36C4.89001 46.15 6.68001 44.36 8.89001 44.36C11.1 44.36 12.89 46.15 12.89 48.36Z" stroke="white" stroke-width="1.5" stroke-miterlimit="10"/>
<path d="M9.18005 37.56C9.18005 37.72 9.05001 37.85 8.89001 37.85C8.73001 37.85 8.59998 37.72 8.59998 37.56C8.59998 37.4 8.73001 37.27 8.89001 37.27C9.05001 37.27 9.18005 37.39 9.18005 37.56Z" stroke="white" stroke-width="1.5" stroke-miterlimit="10"/>
<path d="M9.18005 29.6999C9.18005 29.8599 9.05001 29.9899 8.89001 29.9899C8.73001 29.9899 8.59998 29.8599 8.59998 29.6999C8.59998 29.5399 8.73001 29.4099 8.89001 29.4099C9.05001 29.4099 9.18005 29.5399 9.18005 29.6999Z" stroke="white" stroke-width="1.5" stroke-miterlimit="10"/>
<path d="M9.18005 21.9799C9.18005 22.1399 9.05001 22.2699 8.89001 22.2699C8.73001 22.2699 8.59998 22.1399 8.59998 21.9799C8.59998 21.8199 8.73001 21.6899 8.89001 21.6899C9.05001 21.6899 9.18005 21.8199 9.18005 21.9799Z" stroke="white" stroke-width="1.5" stroke-miterlimit="10"/>
<path d="M21.85 9.37997C21.85 9.53997 21.7201 9.66997 21.5601 9.66997C21.4001 9.66997 21.27 9.53997 21.27 9.37997C21.27 9.21997 21.4001 9.08997 21.5601 9.08997C21.7101 9.08997 21.85 9.21997 21.85 9.37997Z" stroke="white" stroke-width="1.5" stroke-miterlimit="10"/>
<path d="M29.7 9.37997C29.7 9.53997 29.57 9.66997 29.41 9.66997C29.25 9.66997 29.12 9.53997 29.12 9.37997C29.12 9.21997 29.25 9.08997 29.41 9.08997C29.57 9.08997 29.7 9.21997 29.7 9.37997Z" stroke="white" stroke-width="1.5" stroke-miterlimit="10"/>
<path d="M37.42 9.37997C37.42 9.53997 37.29 9.66997 37.13 9.66997C36.97 9.66997 36.84 9.53997 36.84 9.37997C36.84 9.21997 36.97 9.08997 37.13 9.08997C37.29 9.08997 37.42 9.21997 37.42 9.37997Z" stroke="white" stroke-width="1.5" stroke-miterlimit="10"/>
<path d="M59.51 9.37997C59.51 9.53997 59.38 9.66997 59.22 9.66997C59.06 9.66997 58.9301 9.53997 58.9301 9.37997C58.9301 9.21997 59.06 9.08997 59.22 9.08997C59.38 9.08997 59.51 9.21997 59.51 9.37997Z" stroke="white" stroke-width="1.5" stroke-miterlimit="10"/>
<path d="M67.37 9.37997C67.37 9.53997 67.24 9.66997 67.08 9.66997C66.92 9.66997 66.79 9.53997 66.79 9.37997C66.79 9.21997 66.92 9.08997 67.08 9.08997C67.24 9.08997 67.37 9.21997 67.37 9.37997Z" stroke="white" stroke-width="1.5" stroke-miterlimit="10"/>
<path d="M75.1 9.37997C75.1 9.53997 74.9701 9.66997 74.8101 9.66997C74.6501 9.66997 74.52 9.53997 74.52 9.37997C74.52 9.21997 74.6501 9.08997 74.8101 9.08997C74.9701 9.08997 75.1 9.21997 75.1 9.37997Z" stroke="white" stroke-width="1.5" stroke-miterlimit="10"/>
<path d="M21.85 87.76C21.85 87.92 21.7201 88.05 21.5601 88.05C21.4001 88.05 21.27 87.92 21.27 87.76C21.27 87.6 21.4001 87.47 21.5601 87.47C21.7101 87.47 21.85 87.6 21.85 87.76Z" stroke="white" stroke-width="1.5" stroke-miterlimit="10"/>
<path d="M29.7 87.76C29.7 87.92 29.57 88.05 29.41 88.05C29.25 88.05 29.12 87.92 29.12 87.76C29.12 87.6 29.25 87.47 29.41 87.47C29.57 87.47 29.7 87.6 29.7 87.76Z" stroke="white" stroke-width="1.5" stroke-miterlimit="10"/>
<path d="M37.42 87.76C37.42 87.92 37.29 88.05 37.13 88.05C36.97 88.05 36.84 87.92 36.84 87.76C36.84 87.6 36.97 87.47 37.13 87.47C37.29 87.47 37.42 87.6 37.42 87.76Z" stroke="white" stroke-width="1.5" stroke-miterlimit="10"/>
<path d="M59.16 87.76C59.16 87.92 59.03 88.05 58.87 88.05C58.71 88.05 58.58 87.92 58.58 87.76C58.58 87.6 58.71 87.47 58.87 87.47C59.03 87.47 59.16 87.6 59.16 87.76Z" stroke="white" stroke-width="1.5" stroke-miterlimit="10"/>
<path d="M67.02 87.76C67.02 87.92 66.89 88.05 66.73 88.05C66.57 88.05 66.4399 87.92 66.4399 87.76C66.4399 87.6 66.57 87.47 66.73 87.47C66.89 87.47 67.02 87.6 67.02 87.76Z" stroke="white" stroke-width="1.5" stroke-miterlimit="10"/>
<path d="M74.74 87.76C74.74 87.92 74.61 88.05 74.45 88.05C74.29 88.05 74.16 87.92 74.16 87.76C74.16 87.6 74.29 87.47 74.45 87.47C74.61 87.47 74.74 87.6 74.74 87.76Z" stroke="white" stroke-width="1.5" stroke-miterlimit="10"/>
<path d="M9.18005 74.8C9.18005 74.96 9.05001 75.09 8.89001 75.09C8.73001 75.09 8.59998 74.96 8.59998 74.8C8.59998 74.64 8.73001 74.51 8.89001 74.51C9.05001 74.51 9.18005 74.64 9.18005 74.8Z" stroke="white" stroke-width="1.5" stroke-miterlimit="10"/>
<path d="M9.18005 66.9499C9.18005 67.1099 9.05001 67.2399 8.89001 67.2399C8.73001 67.2399 8.59998 67.1099 8.59998 66.9499C8.59998 66.7899 8.73001 66.6599 8.89001 66.6599C9.05001 66.6599 9.18005 66.7899 9.18005 66.9499Z" stroke="white" stroke-width="1.5" stroke-miterlimit="10"/>
<path d="M9.18005 59.2299C9.18005 59.3899 9.05001 59.5199 8.89001 59.5199C8.73001 59.5199 8.59998 59.3899 8.59998 59.2299C8.59998 59.0699 8.73001 58.9399 8.89001 58.9399C9.05001 58.9399 9.18005 59.0599 9.18005 59.2299Z" stroke="white" stroke-width="1.5" stroke-miterlimit="10"/>
<path d="M91.11 48.36C91.11 50.57 89.32 52.36 87.11 52.36C84.9 52.36 83.11 50.57 83.11 48.36C83.11 46.15 84.9 44.36 87.11 44.36C89.32 44.36 91.11 46.15 91.11 48.36Z" stroke="white" stroke-width="1.5" stroke-miterlimit="10"/>
<path d="M87.4 37.56C87.4 37.72 87.27 37.85 87.11 37.85C86.95 37.85 86.8199 37.72 86.8199 37.56C86.8199 37.4 86.95 37.27 87.11 37.27C87.27 37.27 87.4 37.39 87.4 37.56Z" stroke="white" stroke-width="1.5" stroke-miterlimit="10"/>
<path d="M87.4 29.6999C87.4 29.8599 87.27 29.9899 87.11 29.9899C86.95 29.9899 86.8199 29.8599 86.8199 29.6999C86.8199 29.5399 86.95 29.4099 87.11 29.4099C87.27 29.4099 87.4 29.5399 87.4 29.6999Z" stroke="white" stroke-width="1.5" stroke-miterlimit="10"/>
<path d="M87.4 21.9799C87.4 22.1399 87.27 22.2699 87.11 22.2699C86.95 22.2699 86.8199 22.1399 86.8199 21.9799C86.8199 21.8199 86.95 21.6899 87.11 21.6899C87.27 21.6899 87.4 21.8199 87.4 21.9799Z" stroke="white" stroke-width="1.5" stroke-miterlimit="10"/>
<path d="M87.4 74.8C87.4 74.96 87.27 75.09 87.11 75.09C86.95 75.09 86.8199 74.96 86.8199 74.8C86.8199 74.64 86.95 74.51 87.11 74.51C87.27 74.51 87.4 74.64 87.4 74.8Z" stroke="white" stroke-width="1.5" stroke-miterlimit="10"/>
<path d="M87.4 66.9499C87.4 67.1099 87.27 67.2399 87.11 67.2399C86.95 67.2399 86.8199 67.1099 86.8199 66.9499C86.8199 66.7899 86.95 66.6599 87.11 66.6599C87.27 66.6599 87.4 66.7899 87.4 66.9499Z" stroke="white" stroke-width="1.5" stroke-miterlimit="10"/>
<path d="M87.4 59.2299C87.4 59.3899 87.27 59.5199 87.11 59.5199C86.95 59.5199 86.8199 59.3899 86.8199 59.2299C86.8199 59.0699 86.95 58.9399 87.11 58.9399C87.27 58.9399 87.4 59.0599 87.4 59.2299Z" stroke="white" stroke-width="1.5" stroke-miterlimit="10"/>
<path d="M52 9.38C52 11.59 50.21 13.38 48 13.38C45.79 13.38 44 11.59 44 9.38C44 7.17 45.79 5.38 48 5.38C50.21 5.38 52 7.18 52 9.38Z" stroke="white" stroke-width="1.5" stroke-miterlimit="10"/>
<path d="M52 87.47C52 89.68 50.21 91.47 48 91.47C45.79 91.47 44 89.68 44 87.47C44 85.26 45.79 83.47 48 83.47C50.21 83.47 52 85.26 52 87.47Z" stroke="white" stroke-width="1.5" stroke-miterlimit="10"/>
<path d="M28.84 34.8899L48.22 42.7799L67.6 34.8899" stroke="white" stroke-width="1.5" stroke-miterlimit="10"/>
<path d="M21.16 48.36C21.16 48.52 21.03 48.6499 20.86 48.6499C20.7 48.6499 20.5699 48.52 20.5699 48.36C20.5699 48.2 20.7 48.07 20.86 48.07C21.03 48.06 21.16 48.2 21.16 48.36Z" stroke="white" stroke-width="1.5" stroke-miterlimit="10"/>
<path d="M75.65 48.3599C75.65 48.5199 75.52 48.6499 75.36 48.6499C75.2 48.6499 75.0699 48.5199 75.0699 48.3599C75.0699 48.1999 75.2 48.0699 75.36 48.0699C75.52 48.0699 75.65 48.1999 75.65 48.3599Z" stroke="white" stroke-width="1.5" stroke-miterlimit="10"/>
<path d="M48.4 19.27C48.4 19.43 48.27 19.56 48.11 19.56C47.95 19.56 47.8199 19.43 47.8199 19.27C47.8199 19.11 47.95 18.98 48.11 18.98C48.27 18.98 48.4 19.11 48.4 19.27Z" stroke="white" stroke-width="1.5" stroke-miterlimit="10"/>
<path d="M48.4 77.8499C48.4 78.0099 48.27 78.14 48.11 78.14C47.95 78.14 47.8199 78.0099 47.8199 77.8499C47.8199 77.6899 47.95 77.5599 48.11 77.5599C48.27 77.5599 48.4 77.6799 48.4 77.8499Z" stroke="white" stroke-width="1.5" stroke-miterlimit="10"/>
</svg>
