<svg width="96" height="96" viewBox="0 0 96 96" fill="none" xmlns="http://www.w3.org/2000/svg">
<path d="M32.6606 15.11L48.1406 26.72" stroke="white" stroke-width="2" stroke-dasharray="3.9 3.9"/>
<path d="M32.6606 65.41L48.1406 53.8L63.6208 65.41V80.89L48.1406 92.5L32.6606 80.89V65.41Z" stroke="white" stroke-width="2"/>
<path d="M26.8608 53.8L37.4807 61.77" stroke="white" stroke-width="2"/>
<path d="M32.6606 65.41L48.1406 77.02L63.6208 65.41" stroke="white" stroke-width="2" stroke-dasharray="3.9 3.9"/>
<path d="M26.8608 61.54L19.1208 67.34L3.64062 55.73V40.25L19.1208 28.64L34.6008 40.25V51.86" stroke="white" stroke-width="2"/>
<path d="M3.65039 40.26L19.1304 51.87L34.6106 40.26" stroke="white" stroke-width="2" stroke-dasharray="3.9 3.9"/>
<path d="M29.7607 36.65L40.4006 28.66" stroke="white" stroke-width="2"/>
<path d="M55.8804 36.39L48.1404 42.1899L40.4004 36.39" stroke="white" stroke-width="2"/>
<path d="M63.6208 26.72V15.11L48.1406 3.5L32.6606 15.11V26.72" stroke="white" stroke-width="2"/>
<path d="M63.6208 15.11L48.1406 26.72" stroke="white" stroke-width="2" stroke-dasharray="3.9 3.9"/>
<path d="M69.4207 53.8L58.7808 61.77" stroke="white" stroke-width="2"/>
<path d="M69.4207 61.54L77.1606 67.34L92.6406 55.73V40.25L77.1606 28.64L61.6807 40.25V51.86" stroke="white" stroke-width="2"/>
<path d="M92.6406 40.26L77.1606 51.87L61.6807 40.26" stroke="white" stroke-width="2" stroke-dasharray="3.9 3.9"/>
<path d="M66.521 36.65L55.8809 28.66" stroke="white" stroke-width="2"/>
<path d="M48.1406 26.72V42.2" stroke="white" stroke-width="2" stroke-dasharray="3.9 3.9"/>
<path d="M19.1211 51.87V67.35" stroke="white" stroke-width="2" stroke-dasharray="3.9 3.9"/>
<path d="M48.1406 92.5V77.02" stroke="white" stroke-width="2" stroke-dasharray="3.9 3.9"/>
<path d="M77.1606 51.87V67.35" stroke="white" stroke-width="2" stroke-dasharray="3.9 3.9"/>
</svg>
