<svg width="96" height="96" viewBox="0 0 96 96" fill="none" xmlns="http://www.w3.org/2000/svg">
<path d="M59.9 47.4L52.5 40.6H47.1C47.1 40.6 43.6 43.1 40.7 44C37.9 45 34.6 44.8 31.5 41.7C34.5 38.6 37.4 35.6 37.4 35.6L43.1 29.8C44.2 28.9 44.9 28.7 46.4 28.7H56.3C58.3 28.7 62.3 28.3 64.3 26.3L65.6 25" stroke="white" stroke-width="2"/>
<path d="M73.3 60.9C82.5 52.5 78.5 50.5 82.5 46.4L84.8 44.1" stroke="white" stroke-width="2"/>
<path d="M59.8 47.4C59.8 47.4 70.2 58.3 73.2 60.9C76.2 63.5 72.1 70.4 67.2 66.6C64.3 64.1 55 55.2 55 55.2" stroke="white" stroke-width="2"/>
<path d="M68.7 67.4C67.8 69.5 64.2001 74.4 59.7001 71C56.8001 68.5 50.8 62.9 50.8 62.9" stroke="white" stroke-width="2"/>
<path d="M61.4001 72C59.3001 76.2 55.7001 77.9 52.4001 75.3C50.1001 73.5 46.6001 69.9 46.6001 69.9" stroke="white" stroke-width="2"/>
<path d="M53.5 75.9C52.3 79 48.7 81 45.8 79.2C44.1 78.2 41.3 76.2 41.3 76.2" stroke="white" stroke-width="2"/>
<path d="M31.3 25.2C35.6 29.5 37.3 27.7 41.3 31.7" stroke="white" stroke-width="2"/>
<path d="M18.6 58.1C13.5 53 18.7 49.9 12.7 43.9" stroke="white" stroke-width="2"/>
<path d="M22.6999 58.9C21.2999 57.4 18.9999 57.4 17.4999 58.8L15.3999 60.8C13.9999 62.2 13.8999 64.5 15.2999 65.9C16.6999 67.4 18.9999 67.4 20.4999 66L22.4999 64.1C23.9999 62.7 24.0999 60.4 22.6999 58.9Z" stroke="white" stroke-width="2"/>
<path d="M31.2 60.7C29.8 59.2 27.5 59.2 26 60.6L20 66.4C18.6 67.8 18.5 70.1 19.9 71.5C21.3 73 23.6 73 25.1 71.6L31 65.8C32.5 64.5 32.6 62.2 31.2 60.7Z" stroke="white" stroke-width="2"/>
<path d="M36.8 65.5C35.4 64 33.1 64 31.6 65.4L26.1 70.7C24.6 72.1 24.6 74.4 26 75.8C27.4 77.3 29.7 77.3 31.2 75.9L36.6 70.6C38.1 69.3 38.2 67 36.8 65.5Z" stroke="white" stroke-width="2"/>
<path d="M40.3001 72.2C38.9001 70.8 36.6001 70.7 35.2001 72.1L33.8001 73.5C32.4001 74.9 32.3001 77.2 33.7001 78.6C35.1001 80 37.4001 80.1 38.9001 78.7L40.3001 77.4C41.7001 75.9 41.7001 73.6 40.3001 72.2Z" stroke="white" stroke-width="2"/>
<path d="M68.3999 49.2C63.5999 50.2 62.3999 49 59.8999 47.4" stroke="white" stroke-width="2"/>
<path d="M33.3 23.3L26 16L3 39L10.3 46.3L33.3 23.3Z" stroke="white" stroke-width="2" stroke-dasharray="3 3"/>
<path d="M86.7001 46.0999L94.0001 38.7999L71.4001 16.2L64.1001 23.5L86.7001 46.0999Z" stroke="white" stroke-width="2" stroke-dasharray="3 3"/>
</svg>
