<svg width="96" height="96" viewBox="0 0 96 96" fill="none" xmlns="http://www.w3.org/2000/svg">
<path d="M53.7009 62.759C61.8395 59.3878 65.7042 50.0574 62.333 41.9188C58.9619 33.7802 49.6314 29.9155 41.4928 33.2867C33.3542 36.6579 29.4895 45.9883 32.8606 54.1269C36.2318 62.2655 45.5623 66.1302 53.7009 62.759Z" stroke="white" stroke-width="2" stroke-miterlimit="10" stroke-dasharray="2.64 2.64"/>
<path d="M47.5706 18.09C50.8706 18.09 53.5506 15.41 53.5506 12.11C53.5506 8.80999 50.8706 6.13 47.5706 6.13C44.2706 6.13 41.5906 8.80999 41.5906 12.11C41.5906 15.41 44.2706 18.09 47.5706 18.09Z" stroke="white" stroke-width="2" stroke-miterlimit="10"/>
<path d="M47.5706 89.87C50.8706 89.87 53.5506 87.19 53.5506 83.89C53.5506 80.59 50.8706 77.91 47.5706 77.91C44.2706 77.91 41.5906 80.59 41.5906 83.89C41.5906 87.19 44.2706 89.87 47.5706 89.87Z" stroke="white" stroke-width="2" stroke-miterlimit="10"/>
<path d="M85.4607 18.09C85.4607 21.4 82.7907 24.0699 79.4807 24.0699C76.1707 24.0699 73.5007 21.4 73.5007 18.09C73.5007 14.78 76.1707 12.11 79.4807 12.11C82.7907 12.11 85.4607 14.78 85.4607 18.09Z" stroke="white" stroke-width="2" stroke-miterlimit="10"/>
<path d="M89.4507 48C89.4507 51.31 86.7807 53.98 83.4707 53.98C80.1607 53.98 77.4907 51.31 77.4907 48C77.4907 44.69 80.1607 42.02 83.4707 42.02C86.7807 42.02 89.4507 44.69 89.4507 48Z" stroke="white" stroke-width="2" stroke-miterlimit="10"/>
<path d="M17.6707 48C17.6707 51.31 15.0007 53.98 11.6907 53.98C8.38069 53.98 5.71069 51.31 5.71069 48C5.71069 44.69 8.38069 42.02 11.6907 42.02C15.0007 42.02 17.6707 44.69 17.6707 48Z" stroke="white" stroke-width="2" stroke-miterlimit="10"/>
<path d="M21.6507 18.09C21.6507 21.4 18.9807 24.0699 15.6707 24.0699C12.3607 24.0699 9.69067 21.4 9.69067 18.09C9.69067 14.78 12.3607 12.11 15.6707 12.11C18.9807 12.11 21.6507 14.78 21.6507 18.09Z" stroke="white" stroke-width="2" stroke-miterlimit="10"/>
<path d="M85.4607 77.91C85.4607 81.22 82.7907 83.89 79.4807 83.89C76.1707 83.89 73.5007 81.22 73.5007 77.91C73.5007 74.6 76.1707 71.9301 79.4807 71.9301C82.7907 71.9301 85.4607 74.6 85.4607 77.91Z" stroke="white" stroke-width="2" stroke-miterlimit="10"/>
<path d="M21.6507 77.91C21.6507 81.22 18.9807 83.89 15.6707 83.89C12.3607 83.89 9.69067 81.22 9.69067 77.91C9.69067 74.6 12.3607 71.9301 15.6707 71.9301C18.9807 71.9301 21.6507 74.6 21.6507 77.91Z" stroke="white" stroke-width="2" stroke-miterlimit="10"/>
<path d="M47.5708 18.09V28.0601" stroke="white" stroke-width="2" stroke-miterlimit="10"/>
<path d="M47.5708 67.9399V77.91" stroke="white" stroke-width="2" stroke-miterlimit="10"/>
<path d="M19.6606 22.08L31.6206 34.04" stroke="white" stroke-width="2" stroke-miterlimit="10"/>
<path d="M75.4908 22.08L63.5308 34.04" stroke="white" stroke-width="2" stroke-miterlimit="10"/>
<path d="M19.6606 73.92L31.6206 61.96" stroke="white" stroke-width="2" stroke-miterlimit="10"/>
<path d="M75.4908 73.92L63.5308 61.96" stroke="white" stroke-width="2" stroke-miterlimit="10"/>
<path d="M17.6707 48H27.6407" stroke="white" stroke-width="2" stroke-miterlimit="10"/>
<path d="M67.5107 48H77.4807" stroke="white" stroke-width="2" stroke-miterlimit="10"/>
</svg>
