<svg width="96" height="96" viewBox="0 0 96 96" fill="none" xmlns="http://www.w3.org/2000/svg">
<path d="M17.4106 14.6299H63.7606V9.06995L73.0306 18.3399L63.7606 27.6099V22.0499H30.3906" stroke="white" stroke-width="2" stroke-linecap="round" stroke-linejoin="round"/>
<path d="M69.3208 47.9999H82.2908V42.4399L91.5608 51.7099L82.2908 60.9799V55.4199H71.1708" stroke="white" stroke-width="2" stroke-linecap="round" stroke-linejoin="round"/>
<path d="M60.0507 73.95H69.3207V68.39L78.5907 77.66L69.3207 86.93V81.37H32.2407" stroke="white" stroke-width="2" stroke-linecap="round" stroke-linejoin="round"/>
<path d="M4.44067 70.25H26.6807" stroke="white" stroke-width="2" stroke-linecap="round" stroke-linejoin="round"/>
<path d="M43.3708 57.27C46.4415 57.27 48.9308 54.7807 48.9308 51.71C48.9308 48.6393 46.4415 46.15 43.3708 46.15C40.3001 46.15 37.8108 48.6393 37.8108 51.71C37.8108 54.7807 40.3001 57.27 43.3708 57.27Z" stroke="white" stroke-width="2" stroke-linecap="round" stroke-linejoin="round"/>
<path d="M65.2907 46.75L62.9707 40.71L57.2107 42.42C56.1507 40.84 54.8407 39.48 53.3607 38.37L55.3707 32.7L49.4607 30.07L46.5907 35.35C44.7707 34.99 42.8907 34.93 41.0007 35.2L38.4107 29.78L32.3707 32.1L34.0807 37.86C32.5007 38.92 31.1407 40.23 30.0307 41.71L24.3607 39.7L21.7307 45.61L27.0107 48.48C26.6507 50.3 26.5907 52.18 26.8607 54.07L21.4407 56.66L23.7607 62.7L29.5207 60.99C30.5807 62.57 31.8907 63.93 33.3707 65.04L31.3607 70.71L37.2707 73.34L40.1407 68.06C41.9607 68.42 43.8407 68.48 45.7307 68.21L48.3207 73.63L54.3607 71.31L52.6507 65.55C54.2307 64.49 55.5907 63.18 56.7007 61.7L62.3707 63.71L65.0007 57.8L59.7207 54.93C60.0807 53.11 60.1407 51.23 59.8707 49.34L65.2907 46.75Z" stroke="white" stroke-width="2" stroke-linecap="round" stroke-linejoin="round"/>
<path d="M26.6807 31.3199H10.0007" stroke="white" stroke-width="2" stroke-linecap="round" stroke-linejoin="round"/>
</svg>
