<svg width="96" height="96" viewBox="0 0 96 96" fill="none" xmlns="http://www.w3.org/2000/svg">
<path d="M39.6401 82.38C42.9901 82.38 45.2101 79.53 45.2101 76.01V73.89C45.2101 70.37 42.9901 67.52 39.6401 67.52C36.2901 67.52 34.0701 70.37 34.0701 73.89V76.01C34.0701 79.53 36.2901 82.38 39.6401 82.38Z" stroke="white" stroke-width="2" stroke-linecap="round" stroke-linejoin="round"/>
<path d="M19.1999 86.09C22.5499 86.09 24.7699 83.24 24.7699 79.72V77.6C24.7699 74.08 22.5499 71.23 19.1999 71.23C15.8499 71.23 13.6299 74.08 13.6299 77.6V79.72C13.6299 83.24 15.8499 86.09 19.1999 86.09Z" stroke="white" stroke-width="2" stroke-linecap="round" stroke-linejoin="round"/>
<path d="M50.79 91.67V87.95C50.79 83.35 43.51 82.38 39.64 82.38C35.77 82.38 28.49 83.35 28.49 87.95V91.67" stroke="white" stroke-width="2" stroke-linecap="round" stroke-linejoin="round"/>
<path d="M28.49 88.3C26.07 86.55 21.84 86.1 19.2 86.1C15.33 86.1 8.05005 87.07 8.05005 91.67" stroke="white" stroke-width="2" stroke-linecap="round" stroke-linejoin="round"/>
<path d="M60.08 86.09C56.73 86.09 54.51 83.24 54.51 79.72V77.6C54.51 74.08 56.73 71.23 60.08 71.23C63.43 71.23 65.65 74.08 65.65 77.6V79.72C65.65 83.24 63.43 86.09 60.08 86.09Z" stroke="white" stroke-width="2" stroke-linecap="round" stroke-linejoin="round"/>
<path d="M50.79 88.3C53.21 86.55 57.44 86.1 60.08 86.1C63.95 86.1 71.23 87.07 71.23 91.67" stroke="white" stroke-width="2" stroke-linecap="round" stroke-linejoin="round"/>
<path d="M15.4799 4.32996H61.9399C65.0199 4.32996 67.5099 6.82996 67.5099 9.89996V45.21C67.5099 49.31 64.1799 52.64 60.0799 52.64H30.3499L22.5499 63.05C21.4799 64.48 19.2099 63.72 19.2099 61.94V52.65H15.4899C12.4099 52.65 9.91992 50.15 9.91992 47.08V9.90996C9.91992 6.82996 12.4199 4.33996 15.4899 4.33996L15.4799 4.32996Z" stroke="white" stroke-width="2" stroke-linecap="round" stroke-linejoin="round"/>
<path d="M45.21 56.36C45.21 59.44 47.71 61.93 50.78 61.93H67.5L75.38 71.12C76.5 72.43 78.65 71.64 78.65 69.91V61.93H82.37C85.45 61.93 87.94 59.43 87.94 56.36V22.91C87.94 19.83 85.44 17.34 82.37 17.34H71.22" stroke="white" stroke-width="2" stroke-linecap="round" stroke-linejoin="round"/>
<path d="M45.3001 28.45C45.3001 31.55 42.7901 34.07 39.6801 34.07C36.5701 34.07 34.0601 31.56 34.0601 28.45C34.0601 25.34 36.5701 22.83 39.6801 22.83C42.7901 22.83 45.3001 25.34 45.3001 28.45Z" stroke="white" stroke-width="2" stroke-linecap="round" stroke-linejoin="round"/>
<path d="M52.69 28.45C52.69 27.42 52.5601 26.42 52.3301 25.46L55.98 23.35L52.26 16.91L48.62 19.01C47.15 17.61 45.3501 16.56 43.3601 15.97V11.76H35.93V15.99C33.95 16.59 32.18 17.65 30.72 19.04L27.0201 16.91L23.3 23.35L27.0301 25.5C26.8101 26.45 26.68 27.43 26.68 28.45C26.68 29.47 26.82 30.5 27.05 31.47L23.31 33.63L27.0301 40.07L30.7801 37.9C32.2301 39.26 33.98 40.31 35.93 40.89V45.21H43.3601V40.92C45.3301 40.34 47.1 39.3 48.57 37.93L52.2701 40.07L55.9901 33.63L52.32 31.51C52.56 30.52 52.7001 29.5 52.7001 28.44L52.69 28.45Z" stroke="white" stroke-width="2" stroke-linecap="round" stroke-linejoin="round"/>
</svg>
