<svg width="97" height="96" viewBox="0 0 97 96" fill="none" xmlns="http://www.w3.org/2000/svg">
<path d="M15.7051 41.6L17.1051 43H19.1051C22.4051 43 25.0051 45.7 25.0051 48.9V50.9H19.1051L15.1051 54.9H9.70508" stroke="white" stroke-width="2" stroke-linecap="round" stroke-linejoin="round"/>
<path d="M72.6053 58.9001H64.7053L62.7053 60.9001H58.7053L50.8053 53H40.9053V49L44.9053 45H48.8053L53.5053 40.3" stroke="white" stroke-width="2" stroke-linecap="round" stroke-linejoin="round"/>
<path d="M50.8053 82.7H46.8053V74.8L42.8053 70.8H36.9053V66.8C36.9053 63.5 39.6053 60.9 42.8053 60.9H48.8053L56.7053 68.8V76.7L50.8053 82.7Z" stroke="white" stroke-width="2" stroke-linecap="round" stroke-linejoin="round"/>
<path d="M17.505 82.3L21.105 78.7V72.8L25.005 68.8V66.8L21.105 62.9H13.105L9.60498 66.4" stroke="white" stroke-width="2" stroke-linecap="round" stroke-linejoin="round"/>
<path d="M82.5051 27.2H83.2051C87.4051 27.2 87.6051 22.9 85.3051 21.2L63.5051 4.60002C61.7051 3.40002 60.2051 3.40002 58.8051 3.40002H29.0051C28.1051 3.40002 27.4051 4.00002 27.0051 4.90002C26.5051 6.00002 26.8051 7.30002 27.8051 8.00002L52.6051 26.2C53.6051 27 55.9051 27.2 56.9051 27.2H76.3051" stroke="white" stroke-width="2" stroke-linecap="round" stroke-linejoin="round"/>
<path d="M61.3052 15.5L74.5052 25C76.1052 26.1 76.6052 27.2 76.6052 31.3V43" stroke="white" stroke-width="2" stroke-linecap="round" stroke-linejoin="round"/>
<path d="M38.7051 16.8L34.8051 28.6C33.8051 31.5001 40.1051 36.2 48.8051 39.1C57.5051 42 65.3051 42 66.3051 39.1L70.2051 27.3" stroke="white" stroke-width="2" stroke-linecap="round" stroke-linejoin="round"/>
<path d="M65.0051 40.3C69.7051 45.8 72.6051 53.0001 72.6051 60.9001C72.6051 78.4001 58.4051 92.6 40.9051 92.6C23.4051 92.6 9.20508 78.4001 9.20508 60.9001C9.20508 45.6001 20.1051 32.8 34.5051 29.8" stroke="white" stroke-width="2" stroke-linecap="round" stroke-linejoin="round"/>
</svg>
