<svg width="97" height="96" viewBox="0 0 97 96" fill="none" xmlns="http://www.w3.org/2000/svg">
<path d="M17.5127 46.67V51.97L26.1028 53.2C26.6528 55.53 27.5728 57.7701 28.8228 59.8101L23.6228 66.74L29.2427 72.36L36.1926 67.15C38.2326 68.41 40.4627 69.33 42.7927 69.88L44.0227 78.47H51.9827L53.2126 69.88C55.5426 69.33 57.7828 68.41 59.8228 67.16L66.7527 72.36L72.3728 66.74L67.1626 59.79C68.4226 57.75 69.3426 55.5199 69.8926 53.1899L78.4827 51.96V46.66" stroke="white" stroke-width="2" stroke-linecap="round" stroke-linejoin="round"/>
<path d="M60.6531 51.98C58.9631 57.36 53.9332 61.26 48.0032 61.26C42.0732 61.26 36.9732 57.31 35.3232 51.87" stroke="white" stroke-width="2" stroke-linecap="round" stroke-linejoin="round"/>
<path d="M22.853 59.9301H17.553V64.6899C16.643 65.0599 15.7829 65.55 15.0029 66.16L10.8828 63.78L6.90283 70.67L11.033 73.05C10.963 73.54 10.9228 74.02 10.9128 74.51C10.9228 75 10.953 75.49 11.033 75.97L6.90283 78.35L10.8828 85.24L15.0029 82.86C15.7729 83.47 16.633 83.96 17.543 84.33V89.09H25.4929V84.33C26.4029 83.96 27.263 83.47 28.043 82.86L32.1628 85.24L36.1428 78.35L32.0229 75.97" stroke="white" stroke-width="2" stroke-linecap="round" stroke-linejoin="round"/>
<path d="M26.1128 77.17C25.1928 78.75 23.4827 79.8199 21.5227 79.8199C18.5927 79.8199 16.2227 77.45 16.2227 74.52C16.2227 72.56 17.2828 70.8501 18.8728 69.9301" stroke="white" stroke-width="2" stroke-linecap="round" stroke-linejoin="round"/>
<path d="M73.1628 59.9301H78.4629V64.6899C79.3729 65.0599 80.2329 65.55 81.0029 66.16L85.123 63.78L89.103 70.67L84.9729 73.05C85.0429 73.54 85.083 74.02 85.093 74.51C85.083 75 85.0529 75.49 84.9729 75.97L89.103 78.35L85.123 85.24L80.9929 82.86C80.2229 83.47 79.3629 83.96 78.4629 84.33V89.09H70.5029V84.33C69.5929 83.96 68.7329 83.47 67.9529 82.86L63.833 85.24L59.853 78.35L63.9729 75.97" stroke="white" stroke-width="2" stroke-linecap="round" stroke-linejoin="round"/>
<path d="M69.8926 77.17C70.8126 78.75 72.5227 79.8199 74.4827 79.8199C77.4127 79.8199 79.7827 77.45 79.7827 74.52C79.7827 72.56 78.7226 70.8501 77.1326 69.9301" stroke="white" stroke-width="2" stroke-linecap="round" stroke-linejoin="round"/>
<path d="M37.4028 37.4V28.12C37.4028 25.18 39.7629 22.8199 42.7029 22.8199" stroke="white" stroke-width="2" stroke-linecap="round" stroke-linejoin="round"/>
<path d="M53.3027 22.8101C56.2427 22.8101 58.6028 25.17 58.6028 28.11V37.39" stroke="white" stroke-width="2" stroke-linecap="round" stroke-linejoin="round"/>
<path d="M48.0029 26.79V25.46" stroke="white" stroke-width="2" stroke-linecap="round" stroke-linejoin="round"/>
<path d="M48.0029 37.4V32.1" stroke="white" stroke-width="2" stroke-linecap="round" stroke-linejoin="round"/>
<path d="M48.0032 6.91003C50.9432 6.91003 53.3032 9.26996 53.3032 12.21V14.86C53.3032 17.8 50.9432 20.16 48.0032 20.16C45.0632 20.16 42.7031 17.8 42.7031 14.86V12.21C42.7031 9.26996 45.0632 6.91003 48.0032 6.91003Z" stroke="white" stroke-width="2" stroke-linecap="round" stroke-linejoin="round"/>
<path d="M6.91309 46.67V32.09C6.91309 29.15 9.28313 26.79 12.2131 26.79" stroke="white" stroke-width="2" stroke-linecap="round" stroke-linejoin="round"/>
<path d="M22.8232 26.79C25.7632 26.79 28.1233 29.15 28.1233 32.09V41.37" stroke="white" stroke-width="2" stroke-linecap="round" stroke-linejoin="round"/>
<path d="M17.5127 30.77V29.4399" stroke="white" stroke-width="2" stroke-linecap="round" stroke-linejoin="round"/>
<path d="M17.5127 41.37V36.0699" stroke="white" stroke-width="2" stroke-linecap="round" stroke-linejoin="round"/>
<path d="M17.5129 10.88C20.4529 10.88 22.813 13.2401 22.813 16.1801V18.83C22.813 21.77 20.4529 24.13 17.5129 24.13C14.5729 24.13 12.2129 21.77 12.2129 18.83V16.1801C12.2129 13.2501 14.5729 10.88 17.5129 10.88Z" stroke="white" stroke-width="2" stroke-linecap="round" stroke-linejoin="round"/>
<path d="M67.8926 41.37V32.09C67.8926 29.15 70.2526 26.79 73.1926 26.79" stroke="white" stroke-width="2" stroke-linecap="round" stroke-linejoin="round"/>
<path d="M83.8027 26.79C86.7427 26.79 89.1028 29.15 89.1028 32.09V46.67" stroke="white" stroke-width="2" stroke-linecap="round" stroke-linejoin="round"/>
<path d="M78.4932 30.77V29.4399" stroke="white" stroke-width="2" stroke-linecap="round" stroke-linejoin="round"/>
<path d="M78.4932 41.37V36.0699" stroke="white" stroke-width="2" stroke-linecap="round" stroke-linejoin="round"/>
<path d="M78.4929 10.88C81.4329 10.88 83.793 13.2501 83.793 16.1801V18.83C83.793 21.77 81.4329 24.13 78.4929 24.13C75.5529 24.13 73.1929 21.77 73.1929 18.83V16.1801C73.1929 13.2501 75.5529 10.88 78.4929 10.88Z" stroke="white" stroke-width="2" stroke-linecap="round" stroke-linejoin="round"/>
<path d="M24.1426 46.67H71.8628" stroke="white" stroke-width="2" stroke-linecap="round" stroke-linejoin="round"/>
<path d="M37.4028 46.67V42.6899" stroke="white" stroke-width="2" stroke-linecap="round" stroke-linejoin="round"/>
<path d="M6.91309 51.98V54.63" stroke="white" stroke-width="2" stroke-linecap="round" stroke-linejoin="round"/>
<path d="M89.0928 51.98V54.63" stroke="white" stroke-width="2" stroke-linecap="round" stroke-linejoin="round"/>
<path d="M58.6133 46.67V42.6899" stroke="white" stroke-width="2" stroke-linecap="round" stroke-linejoin="round"/>
</svg>
