<svg width="96" height="96" viewBox="0 0 96 96" fill="none" xmlns="http://www.w3.org/2000/svg">
<path d="M33.041 53.8799V47.6299C33.041 42.1699 36.9911 40.1499 42.0811 40.1499L48.3311 47.04L54.1411 40.1499C59.2311 40.1499 63.6211 42.1599 63.6211 47.6299V53.8799" stroke="white" stroke-width="2" stroke-linejoin="round"/>
<path d="M55.4009 26.8799C55.4009 30.8299 52.2211 34.0601 48.3311 34.0601C44.4411 34.0601 41.2607 30.8299 41.2607 26.8799V24.22C41.2607 20.27 44.4411 17.04 48.3311 17.04C52.2211 17.04 55.4009 20.27 55.4009 24.22V26.8799Z" stroke="white" stroke-width="2" stroke-miterlimit="10"/>
<path d="M76.9009 50.0201V33.43C76.8809 30.67 78.6811 28.4099 81.1611 28.3899C83.6311 28.3799 85.6709 30.6202 85.6909 33.3702V65.5801L70.9209 84.8601C70.9209 84.8601 69.3208 86.7301 69.8008 93.5501" stroke="white" stroke-width="2" stroke-linejoin="round"/>
<path d="M52.1211 93.71L52.1411 78.75C52.1411 72.94 58.9209 69 58.9209 69C61.9909 66.94 65.481 63.3702 65.481 63.3702L71.271 57.1001C73.651 54.5101 77.1009 53.77 78.9209 55.46C80.7409 57.14 80.2809 60.63 77.9009 63.21L69.7607 72.0201" stroke="white" stroke-width="2" stroke-miterlimit="10"/>
<path d="M19.7607 50.0201V33.43C19.7807 30.67 17.981 28.4099 15.501 28.3899C13.031 28.3799 10.9912 30.6202 10.9712 33.3702V65.5801L25.7412 84.8601C25.7412 84.8601 27.3411 86.7301 26.8711 93.5501" stroke="white" stroke-width="2" stroke-linejoin="round"/>
<path d="M44.5307 93.71L44.5107 78.75C44.5107 72.94 37.7309 69 37.7309 69C34.6609 66.94 31.1708 63.3702 31.1708 63.3702L25.3808 57.1001C23.0008 54.5101 19.5509 53.77 17.7309 55.46C15.9109 57.14 16.3609 60.63 18.7509 63.21L26.8911 72.0201" stroke="white" stroke-width="2" stroke-miterlimit="10"/>
<path d="M48.3311 8.88989V2.65991" stroke="white" stroke-width="2" stroke-miterlimit="10" stroke-linecap="round"/>
<path d="M31.9312 14.6299L28.021 9.78003" stroke="white" stroke-width="2" stroke-miterlimit="10" stroke-linecap="round"/>
<path d="M68.6411 9.78003L64.731 14.6299" stroke="white" stroke-width="2" stroke-miterlimit="10" stroke-linecap="round"/>
</svg>
