<svg width="96" height="96" viewBox="0 0 96 96" fill="none" xmlns="http://www.w3.org/2000/svg">
<path d="M27.5491 14.48C17.6391 19.98 10.5691 29.4 8.86914 40.41" stroke="white" stroke-width="2" stroke-miterlimit="10"/>
<path d="M68.6992 14.48C78.6092 19.98 85.6792 29.4 87.3792 40.41" stroke="white" stroke-width="2" stroke-miterlimit="10"/>
<path d="M30.5791 84.9C35.8491 87.69 41.8191 89.26 48.1391 89.26C54.4591 89.26 60.4191 87.69 65.6991 84.9" stroke="white" stroke-width="2" stroke-miterlimit="10"/>
<path d="M20.089 64.96C14.199 64.96 6.99902 68.9 6.99902 71.62V78.05C11.469 81.06 15.389 81.79 20.089 81.79C24.789 81.79 28.709 81.06 33.179 78.05V71.62C33.179 68.93 25.979 64.96 20.089 64.96Z" stroke="white" stroke-width="2" stroke-miterlimit="10"/>
<path d="M20.0889 46.26C16.2189 46.26 12.6089 49.27 12.6089 52.99V58.22C12.6089 61.94 16.2189 64.95 20.0889 64.95C23.9589 64.95 27.5689 61.94 27.5689 58.22V52.99C27.5689 49.27 23.9589 46.26 20.0889 46.26Z" stroke="white" stroke-width="2" stroke-miterlimit="10"/>
<path d="M48.1291 25.7C42.2391 25.7 35.0391 29.64 35.0391 32.36V38.79C38.7791 41.8 43.4291 42.5299 48.1291 42.5299C52.8291 42.5299 57.4791 41.8 61.2191 38.79V32.36C61.2191 29.67 54.0191 25.7 48.1291 25.7Z" stroke="white" stroke-width="2" stroke-miterlimit="10"/>
<path d="M48.1289 7C44.2589 7 40.6489 10.01 40.6489 13.73V18.96C40.6489 22.68 44.2589 25.69 48.1289 25.69C51.9989 25.69 55.6089 22.68 55.6089 18.96V13.73C55.6089 10.01 51.9989 7 48.1289 7Z" stroke="white" stroke-width="2" stroke-miterlimit="10"/>
<path d="M76.1691 64.96C70.2791 64.96 63.0791 68.9 63.0791 71.62V78.05C67.5491 81.06 71.4691 81.79 76.1691 81.79C80.8691 81.79 84.7891 81.06 89.2591 78.05V71.62C89.2591 68.93 82.0591 64.96 76.1691 64.96Z" stroke="white" stroke-width="2" stroke-miterlimit="10"/>
<path d="M76.169 46.26C72.299 46.26 68.689 49.27 68.689 52.99V58.22C68.689 61.94 72.299 64.95 76.169 64.95C80.039 64.95 83.649 61.94 83.649 58.22V52.99C83.649 49.27 80.039 46.26 76.169 46.26Z" stroke="white" stroke-width="2" stroke-miterlimit="10"/>
</svg>
