<svg width="96" height="96" viewBox="0 0 96 96" fill="none" xmlns="http://www.w3.org/2000/svg">
<path d="M73.9611 78.97C73.9611 78.15 73.721 77.07 75.031 75.76L90.7912 60C91.9812 58.81 91.961 45.71 91.861 43.94C91.761 42.24 89.9711 33.3201 88.6511 30.0201C87.1911 29.8001 84.821 30.79 83.301 33.23C81.841 35.56 82.091 38.0301 83.301 41.7901L81.0612 48.87" stroke="white" stroke-width="1.5"/>
<path d="M72.5811 65.3502L82.2212 55.7202C86.5012 51.4402 81.1511 46.0803 76.8711 50.3703L70.4512 56.7903C69.5612 57.6803 65.7411 57.2103 64.3311 58.6303L58.981 63.9802C57.531 65.4302 56.9108 68.4003 56.8408 70.4003C56.8408 73.6103 56.6909 78.9602 56.6909 78.9602" stroke="white" stroke-width="1.5"/>
<path d="M52.5508 78.9702V89.6803H76.1011V78.9702H52.5508Z" stroke="white" stroke-width="1.5" stroke-dasharray="3.9 3.9"/>
<path d="M57.9009 84.3201H62.1812" stroke="white" stroke-width="1.5"/>
<path d="M14.9512 48.88L12.711 41.8001C13.921 38.0401 14.161 35.56 12.711 33.23C11.191 30.79 8.8109 29.8001 7.3609 30.0201C6.0409 33.3201 4.25094 42.24 4.15094 43.94C4.05094 45.7 4.03125 58.81 5.22125 60L20.981 75.76C22.291 77.07 22.0508 78.15 22.0508 78.97" stroke="white" stroke-width="1.5"/>
<path d="M39.3312 78.9601C39.3312 78.9601 39.1813 73.6102 39.1813 70.4002C39.1113 68.4002 38.4811 65.4201 37.0411 63.9801L31.691 58.6301C30.281 57.2101 26.4609 57.6902 25.5709 56.7902L19.151 50.3701C14.871 46.0901 9.5109 51.4401 13.8009 55.7201L23.441 65.3601" stroke="white" stroke-width="1.5"/>
<path d="M19.9009 78.9702V89.6803H43.4512V78.9702H19.9009Z" stroke="white" stroke-width="1.5" stroke-dasharray="3.9 3.9"/>
<path d="M33.8208 84.3201H38.1011" stroke="white" stroke-width="1.5"/>
<path d="M48.6909 6.61011V22.5502" stroke="white" stroke-width="1.5" stroke-dasharray="3.9 3.9"/>
<path d="M64.6309 34.5002L48.6909 22.5503L32.751 34.5002" stroke="white" stroke-width="1.5" stroke-dasharray="3.9 3.9"/>
<path d="M64.6309 34.5001L48.6909 46.4601L32.751 34.5001V18.5602L48.6909 6.6001L64.6309 18.5602V34.5001Z" stroke="white" stroke-width="1.5"/>
</svg>
